<?xml version="1.0" encoding="UTF-8" standalone="no"?>
<!DOCTYPE svg PUBLIC "-//W3C//DTD SVG 1.1//EN"
 "http://www.w3.org/Graphics/SVG/1.1/DTD/svg11.dtd">
<!-- Generated by graphviz version 2.38.0 (20140413.2041)
 -->
<!-- Title: de.tu_clausthal.in.mec.modeling.controller.CErdController.validateModel Pages: 1 -->
<svg width="494pt" height="131pt"
 viewBox="0.00 0.00 494.00 131.00" xmlns="http://www.w3.org/2000/svg" xmlns:xlink="http://www.w3.org/1999/xlink">
<g id="graph0" class="graph" transform="scale(1 1) rotate(0) translate(4 127)">
<title>de.tu_clausthal.in.mec.modeling.controller.CErdController.validateModel</title>
<!-- Node27 -->
<g id="node1" class="node"><title>Node27</title>
<polygon fill="#bfbfbf" stroke="black" points="0,-47.5 0,-75.5 218,-75.5 218,-47.5 0,-47.5"/>
<text text-anchor="start" x="8" y="-64.3" font-family="Helvetica,sans-Serif" font-size="9.00">de.tu_clausthal.in.mec.modeling.controller.</text>
<text text-anchor="middle" x="109" y="-54.3" font-family="Helvetica,sans-Serif" font-size="9.00">CErdController.validateModel</text>
</g>
<!-- Node28 -->
<g id="node2" class="node"><title>Node28</title>
<g id="a_node2"><a xlink:href="../../d9/d3d/interfacede_1_1tu__clausthal_1_1in_1_1mec_1_1modeling_1_1model_1_1erd_1_1IErd.htm#a3d7476f05154de8b577377b6a4c6091d" target="_top" xlink:title="general method to check a graphical model onto general things and return a list with errors ...">
<polygon fill="none" stroke="black" points="259.5,-94.5 259.5,-122.5 480.5,-122.5 480.5,-94.5 259.5,-94.5"/>
<text text-anchor="start" x="267.5" y="-111.3" font-family="Helvetica,sans-Serif" font-size="9.00">de.tu_clausthal.in.mec.modeling.model.erd.</text>
<text text-anchor="middle" x="370" y="-101.3" font-family="Helvetica,sans-Serif" font-size="9.00">IErd.checkResult</text>
</a>
</g>
</g>
<!-- Node27&#45;&gt;Node28 -->
<g id="edge1" class="edge"><title>Node27&#45;&gt;Node28</title>
<path fill="none" stroke="midnightblue" d="M187.358,-75.5379C216.954,-80.9087 250.913,-87.0711 281.399,-92.6033"/>
<polygon fill="midnightblue" stroke="midnightblue" points="281.129,-96.1115 291.594,-94.4533 282.379,-89.2239 281.129,-96.1115"/>
</g>
<!-- Node29 -->
<g id="node3" class="node"><title>Node29</title>
<g id="a_node3"><a xlink:href="../../dd/d3a/classde_1_1tu__clausthal_1_1in_1_1mec_1_1modeling_1_1controller_1_1CErdController.htm#aabe46bf52a3c3ee6c0e6e477d1824b43" target="_top" xlink:title="create general error message ">
<polygon fill="none" stroke="black" points="254,-47.5 254,-75.5 486,-75.5 486,-47.5 254,-47.5"/>
<text text-anchor="start" x="262" y="-64.3" font-family="Helvetica,sans-Serif" font-size="9.00">de.tu_clausthal.in.mec.modeling.controller.</text>
<text text-anchor="middle" x="370" y="-54.3" font-family="Helvetica,sans-Serif" font-size="9.00">CErdController.generateGeneralErrorMessage</text>
</a>
</g>
</g>
<!-- Node27&#45;&gt;Node29 -->
<g id="edge2" class="edge"><title>Node27&#45;&gt;Node29</title>
<path fill="none" stroke="midnightblue" d="M218.339,-61.5C226.617,-61.5 235.013,-61.5 243.388,-61.5"/>
<polygon fill="midnightblue" stroke="midnightblue" points="243.584,-65.0001 253.584,-61.5 243.584,-58.0001 243.584,-65.0001"/>
</g>
<!-- Node30 -->
<g id="node4" class="node"><title>Node30</title>
<g id="a_node4"><a xlink:href="../../dd/d3a/classde_1_1tu__clausthal_1_1in_1_1mec_1_1modeling_1_1controller_1_1CErdController.htm#a35db21386ffafed2c05da2a73955c12e" target="_top" xlink:title="generate validation report for the model ">
<polygon fill="none" stroke="black" points="261,-0.5 261,-28.5 479,-28.5 479,-0.5 261,-0.5"/>
<text text-anchor="start" x="269" y="-17.3" font-family="Helvetica,sans-Serif" font-size="9.00">de.tu_clausthal.in.mec.modeling.controller.</text>
<text text-anchor="middle" x="370" y="-7.3" font-family="Helvetica,sans-Serif" font-size="9.00">CErdController.generateValidationReport</text>
</a>
</g>
</g>
<!-- Node27&#45;&gt;Node30 -->
<g id="edge3" class="edge"><title>Node27&#45;&gt;Node30</title>
<path fill="none" stroke="midnightblue" d="M187.358,-47.4621C216.954,-42.0913 250.913,-35.9289 281.399,-30.3967"/>
<polygon fill="midnightblue" stroke="midnightblue" points="282.379,-33.7761 291.594,-28.5467 281.129,-26.8885 282.379,-33.7761"/>
</g>
</g>
</svg>
