<?xml version="1.0" encoding="UTF-8" standalone="no"?>
<!DOCTYPE svg PUBLIC "-//W3C//DTD SVG 1.1//EN"
 "http://www.w3.org/Graphics/SVG/1.1/DTD/svg11.dtd">
<!-- Generated by graphviz version 2.38.0 (20140413.2041)
 -->
<!-- Title: de.tu_clausthal.in.mec.modeling.controller.CErdController.generateGeneralErrorMessage Pages: 1 -->
<svg width="494pt" height="84pt"
 viewBox="0.00 0.00 494.00 84.00" xmlns="http://www.w3.org/2000/svg" xmlns:xlink="http://www.w3.org/1999/xlink">
<g id="graph0" class="graph" transform="scale(1 1) rotate(0) translate(4 80)">
<title>de.tu_clausthal.in.mec.modeling.controller.CErdController.generateGeneralErrorMessage</title>
<!-- Node15 -->
<g id="node1" class="node"><title>Node15</title>
<polygon fill="#bfbfbf" stroke="black" points="0,-23.5 0,-51.5 232,-51.5 232,-23.5 0,-23.5"/>
<text text-anchor="start" x="8" y="-40.3" font-family="Helvetica,sans-Serif" font-size="9.00">de.tu_clausthal.in.mec.modeling.controller.</text>
<text text-anchor="middle" x="116" y="-30.3" font-family="Helvetica,sans-Serif" font-size="9.00">CErdController.generateGeneralErrorMessage</text>
</g>
<!-- Node16 -->
<g id="node2" class="node"><title>Node16</title>
<g id="a_node2"><a xlink:href="../../dd/d3a/classde_1_1tu__clausthal_1_1in_1_1mec_1_1modeling_1_1controller_1_1CErdController.htm#a28c365e406ffbdfe7ec71a61a265b36a" target="_top" xlink:title="return a model by given id ">
<polygon fill="none" stroke="black" points="268,-47.5 268,-75.5 486,-75.5 486,-47.5 268,-47.5"/>
<text text-anchor="start" x="276" y="-64.3" font-family="Helvetica,sans-Serif" font-size="9.00">de.tu_clausthal.in.mec.modeling.controller.</text>
<text text-anchor="middle" x="377" y="-54.3" font-family="Helvetica,sans-Serif" font-size="9.00">CErdController.getModel</text>
</a>
</g>
</g>
<!-- Node15&#45;&gt;Node16 -->
<g id="edge1" class="edge"><title>Node15&#45;&gt;Node16</title>
<path fill="none" stroke="midnightblue" d="M242.171,-49.0988C250.759,-49.8947 259.373,-50.6928 267.86,-51.4794"/>
<polygon fill="midnightblue" stroke="midnightblue" points="242.39,-45.6042 232.109,-48.1665 241.744,-52.5744 242.39,-45.6042"/>
</g>
<!-- Node17 -->
<g id="node3" class="node"><title>Node17</title>
<g id="a_node3"><a xlink:href="../../dd/d3a/classde_1_1tu__clausthal_1_1in_1_1mec_1_1modeling_1_1controller_1_1CErdController.htm#a74d29accf38d41ac5966762d457c58f7" target="_top" xlink:title="check existing model ">
<polygon fill="none" stroke="black" points="268,-0.5 268,-28.5 486,-28.5 486,-0.5 268,-0.5"/>
<text text-anchor="start" x="276" y="-17.3" font-family="Helvetica,sans-Serif" font-size="9.00">de.tu_clausthal.in.mec.modeling.controller.</text>
<text text-anchor="middle" x="377" y="-7.3" font-family="Helvetica,sans-Serif" font-size="9.00">CErdController.validateModel</text>
</a>
</g>
</g>
<!-- Node15&#45;&gt;Node17 -->
<g id="edge2" class="edge"><title>Node15&#45;&gt;Node17</title>
<path fill="none" stroke="midnightblue" d="M242.171,-26.3845C250.759,-25.6218 259.373,-24.8569 267.86,-24.1031"/>
<polygon fill="midnightblue" stroke="midnightblue" points="241.761,-22.907 232.109,-27.2779 242.38,-29.8796 241.761,-22.907"/>
</g>
</g>
</svg>
