<?xml version="1.0" encoding="UTF-8" standalone="no"?>
<!DOCTYPE svg PUBLIC "-//W3C//DTD SVG 1.1//EN"
 "http://www.w3.org/Graphics/SVG/1.1/DTD/svg11.dtd">
<!-- Generated by graphviz version 2.38.0 (20140413.2041)
 -->
<!-- Title: de.tu_clausthal.in.mec.modeling.model.erd.CInheritRelationship Pages: 1 -->
<svg width="613pt" height="764pt"
 viewBox="0.00 0.00 613.00 764.00" xmlns="http://www.w3.org/2000/svg" xmlns:xlink="http://www.w3.org/1999/xlink">
<g id="graph0" class="graph" transform="scale(1 1) rotate(0) translate(4 760)">
<title>de.tu_clausthal.in.mec.modeling.model.erd.CInheritRelationship</title>
<!-- Node0 -->
<g id="node1" class="node"><title>Node0</title>
<polygon fill="#bfbfbf" stroke="black" points="47,-0.5 47,-124.5 268,-124.5 268,-0.5 47,-0.5"/>
<text text-anchor="start" x="55" y="-113.3" font-family="Helvetica,sans-Serif" font-size="9.00">de.tu_clausthal.in.mec.modeling.model.erd.</text>
<text text-anchor="middle" x="157.5" y="-103.3" font-family="Helvetica,sans-Serif" font-size="9.00">CInheritRelationship</text>
<polyline fill="none" stroke="black" points="47,-96.5 268,-96.5 "/>
<text text-anchor="start" x="55" y="-85.3" font-family="Helvetica,sans-Serif" font-size="9.00">&#45; m_childentities</text>
<text text-anchor="start" x="55" y="-75.3" font-family="Helvetica,sans-Serif" font-size="9.00">&#45; m_parententity</text>
<polyline fill="none" stroke="black" points="47,-68.5 268,-68.5 "/>
<text text-anchor="start" x="55" y="-57.3" font-family="Helvetica,sans-Serif" font-size="9.00">+ connectChildEntity()</text>
<text text-anchor="start" x="55" y="-47.3" font-family="Helvetica,sans-Serif" font-size="9.00">+ getChildEntities()</text>
<text text-anchor="start" x="55" y="-37.3" font-family="Helvetica,sans-Serif" font-size="9.00">+ getParentEntity()</text>
<text text-anchor="start" x="55" y="-27.3" font-family="Helvetica,sans-Serif" font-size="9.00">+ isValidISARelationship()</text>
<text text-anchor="start" x="55" y="-17.3" font-family="Helvetica,sans-Serif" font-size="9.00">+ setParentEntity()</text>
<text text-anchor="start" x="55" y="-7.3" font-family="Helvetica,sans-Serif" font-size="9.00">~ CInheritRelationship()</text>
</g>
<!-- Node1 -->
<g id="node2" class="node"><title>Node1</title>
<g id="a_node2"><a xlink:href="../../d5/d3e/classde_1_1tu__clausthal_1_1in_1_1mec_1_1modeling_1_1model_1_1graph_1_1IBaseNode.htm" target="_top" xlink:title="abstract class of an node ">
<polygon fill="none" stroke="black" points="0,-446.5 0,-550.5 233,-550.5 233,-446.5 0,-446.5"/>
<text text-anchor="start" x="8" y="-539.3" font-family="Helvetica,sans-Serif" font-size="9.00">de.tu_clausthal.in.mec.modeling.model.graph.</text>
<text text-anchor="middle" x="116.5" y="-529.3" font-family="Helvetica,sans-Serif" font-size="9.00">IBaseNode</text>
<polyline fill="none" stroke="black" points="0,-522.5 233,-522.5 "/>
<text text-anchor="start" x="8" y="-511.3" font-family="Helvetica,sans-Serif" font-size="9.00"># m_id</text>
<polyline fill="none" stroke="black" points="0,-504.5 233,-504.5 "/>
<text text-anchor="start" x="8" y="-493.3" font-family="Helvetica,sans-Serif" font-size="9.00">+ equals()</text>
<text text-anchor="start" x="8" y="-483.3" font-family="Helvetica,sans-Serif" font-size="9.00">+ hashCode()</text>
<text text-anchor="start" x="8" y="-473.3" font-family="Helvetica,sans-Serif" font-size="9.00">+ id()</text>
<text text-anchor="start" x="8" y="-463.3" font-family="Helvetica,sans-Serif" font-size="9.00">+ raw()</text>
<text text-anchor="start" x="8" y="-453.3" font-family="Helvetica,sans-Serif" font-size="9.00"># IBaseNode()</text>
</a>
</g>
</g>
<!-- Node1&#45;&gt;Node0 -->
<g id="edge1" class="edge"><title>Node1&#45;&gt;Node0</title>
<path fill="none" stroke="midnightblue" d="M116.975,-436.345C118.193,-368.873 122.26,-257.222 135.5,-162 137.189,-149.851 139.599,-136.982 142.21,-124.694"/>
<polygon fill="none" stroke="midnightblue" points="113.475,-436.322 116.809,-446.378 120.474,-436.437 113.475,-436.322"/>
</g>
<!-- Node2 -->
<g id="node3" class="node"><title>Node2</title>
<g id="a_node3"><a xlink:href="../../d4/db2/interfacede_1_1tu__clausthal_1_1in_1_1mec_1_1modeling_1_1model_1_1graph_1_1INode.htm" target="_top" xlink:title="node interface ">
<polygon fill="none" stroke="black" points="41,-681.5 41,-755.5 274,-755.5 274,-681.5 41,-681.5"/>
<text text-anchor="start" x="49" y="-744.3" font-family="Helvetica,sans-Serif" font-size="9.00">de.tu_clausthal.in.mec.modeling.model.graph.</text>
<text text-anchor="middle" x="157.5" y="-734.3" font-family="Helvetica,sans-Serif" font-size="9.00">INode</text>
<polyline fill="none" stroke="black" points="41,-727.5 274,-727.5 "/>
<text text-anchor="middle" x="157.5" y="-716.3" font-family="Helvetica,sans-Serif" font-size="9.00"> </text>
<polyline fill="none" stroke="black" points="41,-709.5 274,-709.5 "/>
<text text-anchor="start" x="49" y="-698.3" font-family="Helvetica,sans-Serif" font-size="9.00">+ id()</text>
<text text-anchor="start" x="49" y="-688.3" font-family="Helvetica,sans-Serif" font-size="9.00">+ raw()</text>
</a>
</g>
</g>
<!-- Node2&#45;&gt;Node1 -->
<g id="edge2" class="edge"><title>Node2&#45;&gt;Node1</title>
<path fill="none" stroke="midnightblue" d="M142.515,-671.539C139.91,-662.478 137.424,-652.991 135.5,-644 128.935,-613.319 124.272,-578.458 121.209,-550.664"/>
<polygon fill="none" stroke="midnightblue" points="139.169,-672.568 145.367,-681.161 145.881,-670.578 139.169,-672.568"/>
</g>
<!-- Node5 -->
<g id="node6" class="node"><title>Node5</title>
<g id="a_node6"><a xlink:href="../../d4/d3e/interfacede_1_1tu__clausthal_1_1in_1_1mec_1_1modeling_1_1model_1_1erd_1_1IErdNode.htm" target="_top" xlink:title="An node for the graphical ERD model. ">
<polygon fill="none" stroke="black" points="145,-574.5 145,-638.5 366,-638.5 366,-574.5 145,-574.5"/>
<text text-anchor="start" x="153" y="-627.3" font-family="Helvetica,sans-Serif" font-size="9.00">de.tu_clausthal.in.mec.modeling.model.erd.</text>
<text text-anchor="middle" x="255.5" y="-617.3" font-family="Helvetica,sans-Serif" font-size="9.00">IErdNode</text>
<polyline fill="none" stroke="black" points="145,-610.5 366,-610.5 "/>
<text text-anchor="middle" x="255.5" y="-599.3" font-family="Helvetica,sans-Serif" font-size="9.00"> </text>
<polyline fill="none" stroke="black" points="145,-592.5 366,-592.5 "/>
<text text-anchor="middle" x="255.5" y="-581.3" font-family="Helvetica,sans-Serif" font-size="9.00"> </text>
</a>
</g>
</g>
<!-- Node2&#45;&gt;Node5 -->
<g id="edge6" class="edge"><title>Node2&#45;&gt;Node5</title>
<path fill="none" stroke="midnightblue" d="M196.344,-673.899C206.798,-662.166 217.896,-649.708 227.622,-638.792"/>
<polygon fill="none" stroke="midnightblue" points="193.628,-671.687 189.589,-681.482 198.854,-676.343 193.628,-671.687"/>
</g>
<!-- Node3 -->
<g id="node4" class="node"><title>Node3</title>
<g id="a_node4"><a xlink:href="../../d5/de5/interfacede_1_1tu__clausthal_1_1in_1_1mec_1_1modeling_1_1model_1_1erd_1_1IInheritRelationship.htm" target="_top" xlink:title="{de.tu_clausthal.in.mec.modeling.model.erd.\lIInheritRelationship\&lt; IAttribute \&gt;\n||+ connectChildEntity()\l+ getChildEntities()\l+ getParentEntity()\l+ isValidISARelationship()\l+ setParentEntity()\l}">
<polygon fill="none" stroke="black" points="145,-162.5 145,-266.5 366,-266.5 366,-162.5 145,-162.5"/>
<text text-anchor="start" x="153" y="-255.3" font-family="Helvetica,sans-Serif" font-size="9.00">de.tu_clausthal.in.mec.modeling.model.erd.</text>
<text text-anchor="middle" x="255.5" y="-245.3" font-family="Helvetica,sans-Serif" font-size="9.00">IInheritRelationship&lt; IAttribute &gt;</text>
<polyline fill="none" stroke="black" points="145,-238.5 366,-238.5 "/>
<text text-anchor="middle" x="255.5" y="-227.3" font-family="Helvetica,sans-Serif" font-size="9.00"> </text>
<polyline fill="none" stroke="black" points="145,-220.5 366,-220.5 "/>
<text text-anchor="start" x="153" y="-209.3" font-family="Helvetica,sans-Serif" font-size="9.00">+ connectChildEntity()</text>
<text text-anchor="start" x="153" y="-199.3" font-family="Helvetica,sans-Serif" font-size="9.00">+ getChildEntities()</text>
<text text-anchor="start" x="153" y="-189.3" font-family="Helvetica,sans-Serif" font-size="9.00">+ getParentEntity()</text>
<text text-anchor="start" x="153" y="-179.3" font-family="Helvetica,sans-Serif" font-size="9.00">+ isValidISARelationship()</text>
<text text-anchor="start" x="153" y="-169.3" font-family="Helvetica,sans-Serif" font-size="9.00">+ setParentEntity()</text>
</a>
</g>
</g>
<!-- Node3&#45;&gt;Node0 -->
<g id="edge3" class="edge"><title>Node3&#45;&gt;Node0</title>
<path fill="none" stroke="midnightblue" d="M216.576,-153.923C210.269,-144.269 203.729,-134.259 197.4,-124.571"/>
<polygon fill="none" stroke="midnightblue" points="213.648,-155.841 222.048,-162.298 219.509,-152.012 213.648,-155.841"/>
</g>
<!-- Node4 -->
<g id="node5" class="node"><title>Node4</title>
<g id="a_node5"><a xlink:href="../../d5/de5/interfacede_1_1tu__clausthal_1_1in_1_1mec_1_1modeling_1_1model_1_1erd_1_1IInheritRelationship.htm" target="_top" xlink:title="An is&#45;a relationship is also a fundamental part of an ERD. ">
<polygon fill="none" stroke="black" points="145,-313.5 145,-427.5 366,-427.5 366,-313.5 145,-313.5"/>
<text text-anchor="start" x="153" y="-416.3" font-family="Helvetica,sans-Serif" font-size="9.00">de.tu_clausthal.in.mec.modeling.model.erd.</text>
<text text-anchor="start" x="153" y="-406.3" font-family="Helvetica,sans-Serif" font-size="9.00">IInheritRelationship&lt; A extends</text>
<text text-anchor="middle" x="255.5" y="-396.3" font-family="Helvetica,sans-Serif" font-size="9.00"> IAttribute &gt;</text>
<polyline fill="none" stroke="black" points="145,-389.5 366,-389.5 "/>
<text text-anchor="middle" x="255.5" y="-378.3" font-family="Helvetica,sans-Serif" font-size="9.00"> </text>
<polyline fill="none" stroke="black" points="145,-371.5 366,-371.5 "/>
<text text-anchor="start" x="153" y="-360.3" font-family="Helvetica,sans-Serif" font-size="9.00">+ connectChildEntity()</text>
<text text-anchor="start" x="153" y="-350.3" font-family="Helvetica,sans-Serif" font-size="9.00">+ getChildEntities()</text>
<text text-anchor="start" x="153" y="-340.3" font-family="Helvetica,sans-Serif" font-size="9.00">+ getParentEntity()</text>
<text text-anchor="start" x="153" y="-330.3" font-family="Helvetica,sans-Serif" font-size="9.00">+ isValidISARelationship()</text>
<text text-anchor="start" x="153" y="-320.3" font-family="Helvetica,sans-Serif" font-size="9.00">+ setParentEntity()</text>
</a>
</g>
</g>
<!-- Node4&#45;&gt;Node3 -->
<g id="edge4" class="edge"><title>Node4&#45;&gt;Node3</title>
<path fill="none" stroke="orange" d="M255.5,-303.277C255.5,-291.009 255.5,-278.368 255.5,-266.634"/>
<polygon fill="orange" stroke="orange" points="252,-303.467 255.5,-313.467 259,-303.467 252,-303.467"/>
<text text-anchor="middle" x="289.5" y="-287.8" font-family="Helvetica,sans-Serif" font-size="9.00"> &lt; IAttribute &gt;</text>
</g>
<!-- Node5&#45;&gt;Node4 -->
<g id="edge5" class="edge"><title>Node5&#45;&gt;Node4</title>
<path fill="none" stroke="midnightblue" d="M255.5,-564.263C255.5,-526.385 255.5,-469.919 255.5,-427.879"/>
<polygon fill="none" stroke="midnightblue" points="252,-564.427 255.5,-574.427 259,-564.427 252,-564.427"/>
</g>
<!-- Node6 -->
<g id="node7" class="node"><title>Node6</title>
<g id="a_node7"><a xlink:href="../../df/ddc/interfacede_1_1tu__clausthal_1_1in_1_1mec_1_1modeling_1_1model_1_1erd_1_1IAttribute.htm" target="_top" xlink:title="A simple attribute that can be assigned in an ERD to an entity or relationship. ">
<polygon fill="none" stroke="black" points="384,-569.5 384,-643.5 605,-643.5 605,-569.5 384,-569.5"/>
<text text-anchor="start" x="392" y="-632.3" font-family="Helvetica,sans-Serif" font-size="9.00">de.tu_clausthal.in.mec.modeling.model.erd.</text>
<text text-anchor="middle" x="494.5" y="-622.3" font-family="Helvetica,sans-Serif" font-size="9.00">IAttribute</text>
<polyline fill="none" stroke="black" points="384,-615.5 605,-615.5 "/>
<text text-anchor="middle" x="494.5" y="-604.3" font-family="Helvetica,sans-Serif" font-size="9.00"> </text>
<polyline fill="none" stroke="black" points="384,-597.5 605,-597.5 "/>
<text text-anchor="start" x="392" y="-586.3" font-family="Helvetica,sans-Serif" font-size="9.00">+ attributeName()</text>
<text text-anchor="start" x="392" y="-576.3" font-family="Helvetica,sans-Serif" font-size="9.00">+ getProperty()</text>
</a>
</g>
</g>
<!-- Node6&#45;&gt;Node4 -->
<g id="edge7" class="edge"><title>Node6&#45;&gt;Node4</title>
<path fill="none" stroke="orange" d="M450.182,-562.109C411.462,-524.199 355.008,-468.927 312.852,-427.652"/>
<polygon fill="orange" stroke="orange" points="448.086,-564.955 457.68,-569.45 452.983,-559.953 448.086,-564.955"/>
<text text-anchor="middle" x="442.5" y="-496.3" font-family="Helvetica,sans-Serif" font-size="9.00"> A</text>
</g>
</g>
</svg>
