<?xml version="1.0" encoding="UTF-8" standalone="no"?>
<!DOCTYPE svg PUBLIC "-//W3C//DTD SVG 1.1//EN"
 "http://www.w3.org/Graphics/SVG/1.1/DTD/svg11.dtd">
<!-- Generated by graphviz version 2.38.0 (20140413.2041)
 -->
<!-- Title: de.tu_clausthal.in.mec.modeling.model.graph.IBaseNode Pages: 1 -->
<!--zoomable 425 -->
<svg id="main" version="1.1" xmlns="http://www.w3.org/2000/svg" xmlns:xlink="http://www.w3.org/1999/xlink" xml:space="preserve" onload="init(evt)">
<style type="text/css"><![CDATA[
.edge:hover path { stroke: red; }
.edge:hover polygon { stroke: red; fill: red; }
]]></style>
<script type="text/javascript"><![CDATA[
var edges = document.getElementsByTagName('g');
if (edges && edges.length) {
  for (var i=0;i<edges.length;i++) {
    if (edges[i].id.substr(0,4)=='edge') {
      edges[i].setAttribute('class','edge');
    }
  }
}
]]></script>
        <defs>
                <circle id="rim" cx="0" cy="0" r="7"/>
                <circle id="rim2" cx="0" cy="0" r="3.5"/>
                <g id="zoomPlus">
                        <use xlink:href="#rim" fill="#404040">
                                <set attributeName="fill" to="#808080" begin="zoomplus.mouseover" end="zoomplus.mouseout"/>
                        </use>
                        <path d="M-4,0h8M0,-4v8" fill="none" stroke="white" stroke-width="1.5" pointer-events="none"/>
                </g>
                <g id="zoomMin">
                        <use xlink:href="#rim" fill="#404040">
                                <set attributeName="fill" to="#808080" begin="zoomminus.mouseover" end="zoomminus.mouseout"/>
                        </use>
                        <path d="M-4,0h8" fill="none" stroke="white" stroke-width="1.5" pointer-events="none"/>
                </g>
                <g id="dirArrow">
                        <path fill="none" stroke="white" stroke-width="1.5" d="M0,-3.0v7 M-2.5,-0.5L0,-3.0L2.5,-0.5"/>
                </g>
               <g id="resetDef">
                       <use xlink:href="#rim2" fill="#404040">
                               <set attributeName="fill" to="#808080" begin="reset.mouseover" end="reset.mouseout"/>
                       </use>
               </g>
        </defs>

<script type="text/javascript">
var viewWidth = 1229;
var viewHeight = 425;
var sectionId = 'dynsection-0';
</script>
<script xlink:href="../../svgpan.js"/>
<svg id="graph" class="graph">
<g id="viewport">
<title>de.tu_clausthal.in.mec.modeling.model.graph.IBaseNode</title>
<!-- Node0 -->
<g id="node1" class="node"><title>Node0</title>
<polygon fill="#bfbfbf" stroke="black" points="472,-201.5 472,-305.5 705,-305.5 705,-201.5 472,-201.5"/>
<text text-anchor="start" x="480" y="-294.3" font-family="Helvetica,sans-Serif" font-size="9.00">de.tu_clausthal.in.mec.modeling.model.graph.</text>
<text text-anchor="middle" x="588.5" y="-284.3" font-family="Helvetica,sans-Serif" font-size="9.00">IBaseNode</text>
<polyline fill="none" stroke="black" points="472,-277.5 705,-277.5 "/>
<text text-anchor="start" x="480" y="-266.3" font-family="Helvetica,sans-Serif" font-size="9.00"># m_id</text>
<polyline fill="none" stroke="black" points="472,-259.5 705,-259.5 "/>
<text text-anchor="start" x="480" y="-248.3" font-family="Helvetica,sans-Serif" font-size="9.00">+ equals()</text>
<text text-anchor="start" x="480" y="-238.3" font-family="Helvetica,sans-Serif" font-size="9.00">+ hashCode()</text>
<text text-anchor="start" x="480" y="-228.3" font-family="Helvetica,sans-Serif" font-size="9.00">+ id()</text>
<text text-anchor="start" x="480" y="-218.3" font-family="Helvetica,sans-Serif" font-size="9.00">+ raw()</text>
<text text-anchor="start" x="480" y="-208.3" font-family="Helvetica,sans-Serif" font-size="9.00"># IBaseNode()</text>
</g>
<!-- Node2 -->
<g id="node3" class="node"><title>Node2</title>
<g id="a_node3"><a xlink:href="../../d6/d74/classde_1_1tu__clausthal_1_1in_1_1mec_1_1modeling_1_1model_1_1erd_1_1CEntity.htm" target="_top" xlink:title="An entity is the description of an object, which is specified more precisely by attributes. ">
<polygon fill="none" stroke="black" points="0,-30.5 0,-134.5 221,-134.5 221,-30.5 0,-30.5"/>
<text text-anchor="start" x="8" y="-123.3" font-family="Helvetica,sans-Serif" font-size="9.00">de.tu_clausthal.in.mec.modeling.model.erd.</text>
<text text-anchor="middle" x="110.5" y="-113.3" font-family="Helvetica,sans-Serif" font-size="9.00">CEntity</text>
<polyline fill="none" stroke="black" points="0,-106.5 221,-106.5 "/>
<text text-anchor="start" x="8" y="-95.3" font-family="Helvetica,sans-Serif" font-size="9.00">&#45; m_attributes</text>
<text text-anchor="start" x="8" y="-85.3" font-family="Helvetica,sans-Serif" font-size="9.00">&#45; m_weakentity</text>
<polyline fill="none" stroke="black" points="0,-78.5 221,-78.5 "/>
<text text-anchor="start" x="8" y="-67.3" font-family="Helvetica,sans-Serif" font-size="9.00">+ createAttribute()</text>
<text text-anchor="start" x="8" y="-57.3" font-family="Helvetica,sans-Serif" font-size="9.00">+ getConnectedAttributes()</text>
<text text-anchor="start" x="8" y="-47.3" font-family="Helvetica,sans-Serif" font-size="9.00">+ isWeakEntity()</text>
<text text-anchor="start" x="8" y="-37.3" font-family="Helvetica,sans-Serif" font-size="9.00">~ CEntity()</text>
</a>
</g>
</g>
<!-- Node0&#45;&gt;Node2 -->
<g id="edge2" class="edge"><title>Node0&#45;&gt;Node2</title>
<path fill="none" stroke="midnightblue" d="M461.581,-233.15C391.17,-219.59 303.202,-197.895 229.5,-165 211.207,-156.835 192.726,-145.815 175.961,-134.52"/>
<polygon fill="none" stroke="midnightblue" points="461.362,-236.671 471.839,-235.092 462.664,-229.793 461.362,-236.671"/>
</g>
<!-- Node3 -->
<g id="node4" class="node"><title>Node3</title>
<g id="a_node4"><a xlink:href="../../d6/d17/classde_1_1tu__clausthal_1_1in_1_1mec_1_1modeling_1_1model_1_1erd_1_1CInheritRelationship.htm" target="_top" xlink:title="Is&#45;a relationship implementation of the model. ">
<polygon fill="none" stroke="black" points="239,-20.5 239,-144.5 460,-144.5 460,-20.5 239,-20.5"/>
<text text-anchor="start" x="247" y="-133.3" font-family="Helvetica,sans-Serif" font-size="9.00">de.tu_clausthal.in.mec.modeling.model.erd.</text>
<text text-anchor="middle" x="349.5" y="-123.3" font-family="Helvetica,sans-Serif" font-size="9.00">CInheritRelationship</text>
<polyline fill="none" stroke="black" points="239,-116.5 460,-116.5 "/>
<text text-anchor="start" x="247" y="-105.3" font-family="Helvetica,sans-Serif" font-size="9.00">&#45; m_childentities</text>
<text text-anchor="start" x="247" y="-95.3" font-family="Helvetica,sans-Serif" font-size="9.00">&#45; m_parententity</text>
<polyline fill="none" stroke="black" points="239,-88.5 460,-88.5 "/>
<text text-anchor="start" x="247" y="-77.3" font-family="Helvetica,sans-Serif" font-size="9.00">+ connectChildEntity()</text>
<text text-anchor="start" x="247" y="-67.3" font-family="Helvetica,sans-Serif" font-size="9.00">+ getChildEntities()</text>
<text text-anchor="start" x="247" y="-57.3" font-family="Helvetica,sans-Serif" font-size="9.00">+ getParentEntity()</text>
<text text-anchor="start" x="247" y="-47.3" font-family="Helvetica,sans-Serif" font-size="9.00">+ isValidISARelationship()</text>
<text text-anchor="start" x="247" y="-37.3" font-family="Helvetica,sans-Serif" font-size="9.00">+ setParentEntity()</text>
<text text-anchor="start" x="247" y="-27.3" font-family="Helvetica,sans-Serif" font-size="9.00">~ CInheritRelationship()</text>
</a>
</g>
</g>
<!-- Node0&#45;&gt;Node3 -->
<g id="edge3" class="edge"><title>Node0&#45;&gt;Node3</title>
<path fill="none" stroke="midnightblue" d="M507.736,-195.391C484.628,-179.051 459.354,-161.179 435.922,-144.61"/>
<polygon fill="none" stroke="midnightblue" points="505.958,-198.42 516.144,-201.336 509.999,-192.704 505.958,-198.42"/>
</g>
<!-- Node4 -->
<g id="node5" class="node"><title>Node4</title>
<g id="a_node5"><a xlink:href="../../d1/de8/classde_1_1tu__clausthal_1_1in_1_1mec_1_1modeling_1_1model_1_1erd_1_1CRelationship.htm" target="_top" xlink:title="The relationships between the entities describe their behavior to each other. ">
<polygon fill="none" stroke="black" points="478,-0.5 478,-164.5 699,-164.5 699,-0.5 478,-0.5"/>
<text text-anchor="start" x="486" y="-153.3" font-family="Helvetica,sans-Serif" font-size="9.00">de.tu_clausthal.in.mec.modeling.model.erd.</text>
<text text-anchor="middle" x="588.5" y="-143.3" font-family="Helvetica,sans-Serif" font-size="9.00">CRelationship</text>
<polyline fill="none" stroke="black" points="478,-136.5 699,-136.5 "/>
<text text-anchor="start" x="486" y="-125.3" font-family="Helvetica,sans-Serif" font-size="9.00">&#45; m_attributes</text>
<text text-anchor="start" x="486" y="-115.3" font-family="Helvetica,sans-Serif" font-size="9.00">&#45; m_description</text>
<text text-anchor="start" x="486" y="-105.3" font-family="Helvetica,sans-Serif" font-size="9.00">&#45; m_entityone</text>
<text text-anchor="start" x="486" y="-95.3" font-family="Helvetica,sans-Serif" font-size="9.00">&#45; m_entitytwo</text>
<polyline fill="none" stroke="black" points="478,-88.5 699,-88.5 "/>
<text text-anchor="start" x="486" y="-77.3" font-family="Helvetica,sans-Serif" font-size="9.00">+ connectEntity()</text>
<text text-anchor="start" x="486" y="-67.3" font-family="Helvetica,sans-Serif" font-size="9.00">+ createAttribute()</text>
<text text-anchor="start" x="486" y="-57.3" font-family="Helvetica,sans-Serif" font-size="9.00">+ getConnectedAttributes()</text>
<text text-anchor="start" x="486" y="-47.3" font-family="Helvetica,sans-Serif" font-size="9.00">+ getConnectedEntities()</text>
<text text-anchor="start" x="486" y="-37.3" font-family="Helvetica,sans-Serif" font-size="9.00">+ getDescription()</text>
<text text-anchor="start" x="486" y="-27.3" font-family="Helvetica,sans-Serif" font-size="9.00">+ isRecursive()</text>
<text text-anchor="start" x="486" y="-17.3" font-family="Helvetica,sans-Serif" font-size="9.00">+ isWeakRelationship()</text>
<text text-anchor="start" x="486" y="-7.3" font-family="Helvetica,sans-Serif" font-size="9.00">~ CRelationship()</text>
</a>
</g>
</g>
<!-- Node0&#45;&gt;Node4 -->
<g id="edge4" class="edge"><title>Node0&#45;&gt;Node4</title>
<path fill="none" stroke="midnightblue" d="M588.5,-191.088C588.5,-182.526 588.5,-173.621 588.5,-164.764"/>
<polygon fill="none" stroke="midnightblue" points="585,-191.336 588.5,-201.336 592,-191.336 585,-191.336"/>
</g>
<!-- Node5 -->
<g id="node6" class="node"><title>Node5</title>
<g id="a_node6"><a xlink:href="../../de/dc7/classde_1_1tu__clausthal_1_1in_1_1mec_1_1modeling_1_1model_1_1petrinet_1_1CPlace.htm" target="_top" xlink:title="petrinet place ">
<polygon fill="none" stroke="black" points="717,-25.5 717,-139.5 960,-139.5 960,-25.5 717,-25.5"/>
<text text-anchor="start" x="725" y="-128.3" font-family="Helvetica,sans-Serif" font-size="9.00">de.tu_clausthal.in.mec.modeling.model.petrinet.</text>
<text text-anchor="middle" x="838.5" y="-118.3" font-family="Helvetica,sans-Serif" font-size="9.00">CPlace</text>
<polyline fill="none" stroke="black" points="717,-111.5 960,-111.5 "/>
<text text-anchor="start" x="725" y="-100.3" font-family="Helvetica,sans-Serif" font-size="9.00">&#45; m_capacity</text>
<text text-anchor="start" x="725" y="-90.3" font-family="Helvetica,sans-Serif" font-size="9.00">&#45; m_marks</text>
<polyline fill="none" stroke="black" points="717,-83.5 960,-83.5 "/>
<text text-anchor="start" x="725" y="-72.3" font-family="Helvetica,sans-Serif" font-size="9.00">+ CPlace()</text>
<text text-anchor="start" x="725" y="-62.3" font-family="Helvetica,sans-Serif" font-size="9.00">+ CPlace()</text>
<text text-anchor="start" x="725" y="-52.3" font-family="Helvetica,sans-Serif" font-size="9.00">+ accept()</text>
<text text-anchor="start" x="725" y="-42.3" font-family="Helvetica,sans-Serif" font-size="9.00">+ apply()</text>
<text text-anchor="start" x="725" y="-32.3" font-family="Helvetica,sans-Serif" font-size="9.00">+ get()</text>
</a>
</g>
</g>
<!-- Node0&#45;&gt;Node5 -->
<g id="edge5" class="edge"><title>Node0&#45;&gt;Node5</title>
<path fill="none" stroke="midnightblue" d="M672.719,-195.568C699.319,-177.586 728.687,-157.734 755.221,-139.797"/>
<polygon fill="none" stroke="midnightblue" points="670.511,-192.836 664.187,-201.336 674.432,-198.635 670.511,-192.836"/>
</g>
<!-- Node6 -->
<g id="node7" class="node"><title>Node6</title>
<g id="a_node7"><a xlink:href="../../db/d15/classde_1_1tu__clausthal_1_1in_1_1mec_1_1modeling_1_1model_1_1petrinet_1_1CTransition.htm" target="_top" xlink:title="transition class ">
<polygon fill="none" stroke="black" points="978,-45.5 978,-119.5 1221,-119.5 1221,-45.5 978,-45.5"/>
<text text-anchor="start" x="986" y="-108.3" font-family="Helvetica,sans-Serif" font-size="9.00">de.tu_clausthal.in.mec.modeling.model.petrinet.</text>
<text text-anchor="middle" x="1099.5" y="-98.3" font-family="Helvetica,sans-Serif" font-size="9.00">CTransition</text>
<polyline fill="none" stroke="black" points="978,-91.5 1221,-91.5 "/>
<text text-anchor="middle" x="1099.5" y="-80.3" font-family="Helvetica,sans-Serif" font-size="9.00"> </text>
<polyline fill="none" stroke="black" points="978,-73.5 1221,-73.5 "/>
<text text-anchor="start" x="986" y="-62.3" font-family="Helvetica,sans-Serif" font-size="9.00">+ CTransition()</text>
<text text-anchor="start" x="986" y="-52.3" font-family="Helvetica,sans-Serif" font-size="9.00">+ apply()</text>
</a>
</g>
</g>
<!-- Node0&#45;&gt;Node6 -->
<g id="edge6" class="edge"><title>Node0&#45;&gt;Node6</title>
<path fill="none" stroke="midnightblue" d="M715.446,-234.297C791.141,-220.785 888.045,-198.755 969.5,-165 997.923,-153.221 1027.16,-135.481 1050.69,-119.557"/>
<polygon fill="none" stroke="midnightblue" points="714.625,-230.887 705.382,-236.065 715.837,-237.781 714.625,-230.887"/>
</g>
<!-- Node1 -->
<g id="node2" class="node"><title>Node1</title>
<g id="a_node2"><a xlink:href="../../d4/db2/interfacede_1_1tu__clausthal_1_1in_1_1mec_1_1modeling_1_1model_1_1graph_1_1INode.htm" target="_top" xlink:title="node interface ">
<polygon fill="none" stroke="black" points="472,-342.5 472,-416.5 705,-416.5 705,-342.5 472,-342.5"/>
<text text-anchor="start" x="480" y="-405.3" font-family="Helvetica,sans-Serif" font-size="9.00">de.tu_clausthal.in.mec.modeling.model.graph.</text>
<text text-anchor="middle" x="588.5" y="-395.3" font-family="Helvetica,sans-Serif" font-size="9.00">INode</text>
<polyline fill="none" stroke="black" points="472,-388.5 705,-388.5 "/>
<text text-anchor="middle" x="588.5" y="-377.3" font-family="Helvetica,sans-Serif" font-size="9.00"> </text>
<polyline fill="none" stroke="black" points="472,-370.5 705,-370.5 "/>
<text text-anchor="start" x="480" y="-359.3" font-family="Helvetica,sans-Serif" font-size="9.00">+ id()</text>
<text text-anchor="start" x="480" y="-349.3" font-family="Helvetica,sans-Serif" font-size="9.00">+ raw()</text>
</a>
</g>
</g>
<!-- Node1&#45;&gt;Node0 -->
<g id="edge1" class="edge"><title>Node1&#45;&gt;Node0</title>
<path fill="none" stroke="midnightblue" d="M588.5,-332.073C588.5,-323.475 588.5,-314.45 588.5,-305.719"/>
<polygon fill="none" stroke="midnightblue" points="585,-332.301 588.5,-342.301 592,-332.301 585,-332.301"/>
</g>
</g>
</svg>
        <g id="navigator" transform="translate(0 0)" fill="#404254">
                <rect fill="#f2f5e9" fill-opacity="0.5" stroke="#606060" stroke-width=".5" x="0" y="0" width="60" height="60"/>
                <use id="zoomplus" xlink:href="#zoomPlus" x="17" y="9" onmousedown="handleZoom(evt,'in')"/>
                <use id="zoomminus" xlink:href="#zoomMin" x="42" y="9" onmousedown="handleZoom(evt,'out')"/>
                <use id="reset" xlink:href="#resetDef" x="30" y="36" onmousedown="handleReset()"/>
                <g id="arrowUp" xlink:href="#dirArrow" transform="translate(30 24)" onmousedown="handlePan(0,-1)">
                  <use xlink:href="#rim" fill="#404040">
                        <set attributeName="fill" to="#808080" begin="arrowUp.mouseover" end="arrowUp.mouseout"/>
                  </use>
                  <path fill="none" stroke="white" stroke-width="1.5" d="M0,-3.0v7 M-2.5,-0.5L0,-3.0L2.5,-0.5"/>
                </g>
                <g id="arrowRight" xlink:href="#dirArrow" transform="rotate(90) translate(36 -43)" onmousedown="handlePan(1,0)">
                  <use xlink:href="#rim" fill="#404040">
                        <set attributeName="fill" to="#808080" begin="arrowRight.mouseover" end="arrowRight.mouseout"/>
                  </use>
                  <path fill="none" stroke="white" stroke-width="1.5" d="M0,-3.0v7 M-2.5,-0.5L0,-3.0L2.5,-0.5"/>
                </g>
                <g id="arrowDown" xlink:href="#dirArrow" transform="rotate(180) translate(-30 -48)" onmousedown="handlePan(0,1)">
                  <use xlink:href="#rim" fill="#404040">
                        <set attributeName="fill" to="#808080" begin="arrowDown.mouseover" end="arrowDown.mouseout"/>
                  </use>
                  <path fill="none" stroke="white" stroke-width="1.5" d="M0,-3.0v7 M-2.5,-0.5L0,-3.0L2.5,-0.5"/>
                </g>
                <g id="arrowLeft" xlink:href="#dirArrow" transform="rotate(270) translate(-36 17)" onmousedown="handlePan(-1,0)">
                  <use xlink:href="#rim" fill="#404040">
                        <set attributeName="fill" to="#808080" begin="arrowLeft.mouseover" end="arrowLeft.mouseout"/>
                  </use>
                  <path fill="none" stroke="white" stroke-width="1.5" d="M0,-3.0v7 M-2.5,-0.5L0,-3.0L2.5,-0.5"/>
                </g>
        </g>
        <svg viewBox="0 0 15 15" width="100%" height="30px" preserveAspectRatio="xMaxYMin meet">
         <g id="arrow_out" transform="scale(0.3 0.3)">
          <a xlink:href="classde_1_1tu__clausthal_1_1in_1_1mec_1_1modeling_1_1model_1_1graph_1_1IBaseNode__inherit__graph_org.svg" target="_base">
           <rect id="button" ry="5" rx="5" y="6" x="6" height="38" width="38"
                fill="#f2f5e9" fill-opacity="0.5" stroke="#606060" stroke-width="1.0"/>
           <path id="arrow"
             d="M 11.500037,31.436501 C 11.940474,20.09759 22.043105,11.32322 32.158766,21.979434 L 37.068811,17.246167 C 37.068811,17.246167 37.088388,32 37.088388,32 L 22.160133,31.978069 C 22.160133,31.978069 26.997745,27.140456 26.997745,27.140456 C 18.528582,18.264221 13.291696,25.230495 11.500037,31.436501 z"
             style="fill:#404040;"/>
          </a>
         </g>
        </svg>
</svg>
