<?xml version="1.0" encoding="UTF-8" standalone="no"?>
<!DOCTYPE svg PUBLIC "-//W3C//DTD SVG 1.1//EN"
 "http://www.w3.org/Graphics/SVG/1.1/DTD/svg11.dtd">
<!-- Generated by graphviz version 2.38.0 (20140413.2041)
 -->
<!-- Title: de.tu_clausthal.in.mec.modeling.deserializer.erd.IInheritConnectionDeserializer Pages: 1 -->
<svg width="253pt" height="184pt"
 viewBox="0.00 0.00 253.00 184.00" xmlns="http://www.w3.org/2000/svg" xmlns:xlink="http://www.w3.org/1999/xlink">
<g id="graph0" class="graph" transform="scale(1 1) rotate(0) translate(4 180)">
<title>de.tu_clausthal.in.mec.modeling.deserializer.erd.IInheritConnectionDeserializer</title>
<!-- Node0 -->
<g id="node1" class="node"><title>Node0</title>
<polygon fill="#bfbfbf" stroke="black" points="0,-111.5 0,-175.5 245,-175.5 245,-111.5 0,-111.5"/>
<text text-anchor="start" x="8" y="-164.3" font-family="Helvetica,sans-Serif" font-size="9.00">de.tu_clausthal.in.mec.modeling.deserializer.erd.</text>
<text text-anchor="middle" x="122.5" y="-154.3" font-family="Helvetica,sans-Serif" font-size="9.00">IInheritConnectionDeserializer</text>
<polyline fill="none" stroke="black" points="0,-147.5 245,-147.5 "/>
<text text-anchor="middle" x="122.5" y="-136.3" font-family="Helvetica,sans-Serif" font-size="9.00"> </text>
<polyline fill="none" stroke="black" points="0,-129.5 245,-129.5 "/>
<text text-anchor="middle" x="122.5" y="-118.3" font-family="Helvetica,sans-Serif" font-size="9.00"> </text>
</g>
<!-- Node1 -->
<g id="node2" class="node"><title>Node1</title>
<g id="a_node2"><a xlink:href="../../dc/d74/classde_1_1tu__clausthal_1_1in_1_1mec_1_1modeling_1_1deserializer_1_1erd_1_1CInheritConnectionDeserializer.htm" target="_top" xlink:title="Implementation of deserialization to create concrete objects considering the JSON schema settings...">
<polygon fill="none" stroke="black" points="0,-0.5 0,-74.5 245,-74.5 245,-0.5 0,-0.5"/>
<text text-anchor="start" x="8" y="-63.3" font-family="Helvetica,sans-Serif" font-size="9.00">de.tu_clausthal.in.mec.modeling.deserializer.erd.</text>
<text text-anchor="middle" x="122.5" y="-53.3" font-family="Helvetica,sans-Serif" font-size="9.00">CInheritConnectionDeserializer</text>
<polyline fill="none" stroke="black" points="0,-46.5 245,-46.5 "/>
<text text-anchor="start" x="8" y="-35.3" font-family="Helvetica,sans-Serif" font-size="9.00">&#45; m_model</text>
<polyline fill="none" stroke="black" points="0,-28.5 245,-28.5 "/>
<text text-anchor="start" x="8" y="-17.3" font-family="Helvetica,sans-Serif" font-size="9.00">+ CInheritConnectionDeserializer()</text>
<text text-anchor="start" x="8" y="-7.3" font-family="Helvetica,sans-Serif" font-size="9.00">+ deserialize()</text>
</a>
</g>
</g>
<!-- Node0&#45;&gt;Node1 -->
<g id="edge1" class="edge"><title>Node0&#45;&gt;Node1</title>
<path fill="none" stroke="midnightblue" d="M122.5,-101.282C122.5,-92.5308 122.5,-83.3534 122.5,-74.8011"/>
<polygon fill="none" stroke="midnightblue" points="119,-101.297 122.5,-111.297 126,-101.297 119,-101.297"/>
</g>
</g>
</svg>
