<?xml version="1.0" encoding="UTF-8" standalone="no"?>
<!DOCTYPE svg PUBLIC "-//W3C//DTD SVG 1.1//EN"
 "http://www.w3.org/Graphics/SVG/1.1/DTD/svg11.dtd">
<!-- Generated by graphviz version 2.38.0 (20140413.2041)
 -->
<!-- Title: de.tu_clausthal.in.mec.modeling.erd.TestCErdModel.isaRelationshipTest Pages: 1 -->
<svg width="458pt" height="366pt"
 viewBox="0.00 0.00 458.00 366.00" xmlns="http://www.w3.org/2000/svg" xmlns:xlink="http://www.w3.org/1999/xlink">
<g id="graph0" class="graph" transform="scale(1 1) rotate(0) translate(4 362)">
<title>de.tu_clausthal.in.mec.modeling.erd.TestCErdModel.isaRelationshipTest</title>
<!-- Node0 -->
<g id="node1" class="node"><title>Node0</title>
<polygon fill="#bfbfbf" stroke="black" points="0,-164.5 0,-192.5 190,-192.5 190,-164.5 0,-164.5"/>
<text text-anchor="start" x="8" y="-181.3" font-family="Helvetica,sans-Serif" font-size="9.00">de.tu_clausthal.in.mec.modeling.erd.</text>
<text text-anchor="middle" x="95" y="-171.3" font-family="Helvetica,sans-Serif" font-size="9.00">TestCErdModel.isaRelationshipTest</text>
</g>
<!-- Node1 -->
<g id="node2" class="node"><title>Node1</title>
<g id="a_node2"><a xlink:href="../../d9/d3d/interfacede_1_1tu__clausthal_1_1in_1_1mec_1_1modeling_1_1model_1_1erd_1_1IErd.htm#a440a179996721e461cc7a30b11da107f" target="_top" xlink:title="add new attribute to an entity ">
<polygon fill="none" stroke="black" points="227.5,-329.5 227.5,-357.5 448.5,-357.5 448.5,-329.5 227.5,-329.5"/>
<text text-anchor="start" x="235.5" y="-346.3" font-family="Helvetica,sans-Serif" font-size="9.00">de.tu_clausthal.in.mec.modeling.model.erd.</text>
<text text-anchor="middle" x="338" y="-336.3" font-family="Helvetica,sans-Serif" font-size="9.00">IErd.addAttributeToEntity</text>
</a>
</g>
</g>
<!-- Node0&#45;&gt;Node1 -->
<g id="edge1" class="edge"><title>Node0&#45;&gt;Node1</title>
<path fill="none" stroke="midnightblue" d="M104.691,-192.909C123.1,-222.087 169.048,-288.126 226,-320.5 229.272,-322.36 232.675,-324.071 236.17,-325.643"/>
<polygon fill="midnightblue" stroke="midnightblue" points="235.033,-328.959 245.614,-329.494 237.676,-322.477 235.033,-328.959"/>
</g>
<!-- Node2 -->
<g id="node3" class="node"><title>Node2</title>
<g id="a_node3"><a xlink:href="../../d9/d3d/interfacede_1_1tu__clausthal_1_1in_1_1mec_1_1modeling_1_1model_1_1erd_1_1IErd.htm#a01727cb3752a70bf4b776db431d75b3a" target="_top" xlink:title="add new entity ">
<polygon fill="none" stroke="black" points="227.5,-282.5 227.5,-310.5 448.5,-310.5 448.5,-282.5 227.5,-282.5"/>
<text text-anchor="start" x="235.5" y="-299.3" font-family="Helvetica,sans-Serif" font-size="9.00">de.tu_clausthal.in.mec.modeling.model.erd.</text>
<text text-anchor="middle" x="338" y="-289.3" font-family="Helvetica,sans-Serif" font-size="9.00">IErd.addEntity</text>
</a>
</g>
</g>
<!-- Node0&#45;&gt;Node2 -->
<g id="edge2" class="edge"><title>Node0&#45;&gt;Node2</title>
<path fill="none" stroke="midnightblue" d="M110.651,-192.551C133.41,-213.553 179.499,-252.862 226,-273.5 230.768,-275.616 235.739,-277.541 240.82,-279.291"/>
<polygon fill="midnightblue" stroke="midnightblue" points="240.11,-282.738 250.7,-282.445 242.239,-276.07 240.11,-282.738"/>
</g>
<!-- Node3 -->
<g id="node4" class="node"><title>Node3</title>
<g id="a_node4"><a xlink:href="../../d9/d3d/interfacede_1_1tu__clausthal_1_1in_1_1mec_1_1modeling_1_1model_1_1erd_1_1IErd.htm#a419bf1545c5692281f81e665cb36c980" target="_top" xlink:title="add new is&#45;a relationship ">
<polygon fill="none" stroke="black" points="227.5,-235.5 227.5,-263.5 448.5,-263.5 448.5,-235.5 227.5,-235.5"/>
<text text-anchor="start" x="235.5" y="-252.3" font-family="Helvetica,sans-Serif" font-size="9.00">de.tu_clausthal.in.mec.modeling.model.erd.</text>
<text text-anchor="middle" x="338" y="-242.3" font-family="Helvetica,sans-Serif" font-size="9.00">IErd.addISARelationship</text>
</a>
</g>
</g>
<!-- Node0&#45;&gt;Node3 -->
<g id="edge3" class="edge"><title>Node0&#45;&gt;Node3</title>
<path fill="none" stroke="midnightblue" d="M129.752,-192.545C155.725,-202.964 192.695,-216.959 226,-226.5 234.316,-228.882 243.049,-231.125 251.811,-233.205"/>
<polygon fill="midnightblue" stroke="midnightblue" points="251.163,-236.648 261.694,-235.484 252.736,-229.826 251.163,-236.648"/>
</g>
<!-- Node4 -->
<g id="node5" class="node"><title>Node4</title>
<g id="a_node5"><a xlink:href="../../d9/d3d/interfacede_1_1tu__clausthal_1_1in_1_1mec_1_1modeling_1_1model_1_1erd_1_1IErd.htm#ab21d68f1a1e74781ed4522f6a5b5e2e2" target="_top" xlink:title="add new relationship ">
<polygon fill="none" stroke="black" points="227.5,-188.5 227.5,-216.5 448.5,-216.5 448.5,-188.5 227.5,-188.5"/>
<text text-anchor="start" x="235.5" y="-205.3" font-family="Helvetica,sans-Serif" font-size="9.00">de.tu_clausthal.in.mec.modeling.model.erd.</text>
<text text-anchor="middle" x="338" y="-195.3" font-family="Helvetica,sans-Serif" font-size="9.00">IErd.addRelationship</text>
</a>
</g>
</g>
<!-- Node0&#45;&gt;Node4 -->
<g id="edge4" class="edge"><title>Node0&#45;&gt;Node4</title>
<path fill="none" stroke="midnightblue" d="M190.212,-187.882C199.037,-188.761 208.059,-189.659 217.077,-190.557"/>
<polygon fill="midnightblue" stroke="midnightblue" points="216.949,-194.062 227.246,-191.57 217.642,-187.096 216.949,-194.062"/>
</g>
<!-- Node5 -->
<g id="node6" class="node"><title>Node5</title>
<g id="a_node6"><a xlink:href="../../d9/d3d/interfacede_1_1tu__clausthal_1_1in_1_1mec_1_1modeling_1_1model_1_1erd_1_1IErd.htm#acb267543516f5458dad2a5c3ec6639cb" target="_top" xlink:title="general method to check a graphical model onto general things ">
<polygon fill="none" stroke="black" points="227.5,-141.5 227.5,-169.5 448.5,-169.5 448.5,-141.5 227.5,-141.5"/>
<text text-anchor="start" x="235.5" y="-158.3" font-family="Helvetica,sans-Serif" font-size="9.00">de.tu_clausthal.in.mec.modeling.model.erd.</text>
<text text-anchor="middle" x="338" y="-148.3" font-family="Helvetica,sans-Serif" font-size="9.00">IErd.check</text>
</a>
</g>
</g>
<!-- Node0&#45;&gt;Node5 -->
<g id="edge5" class="edge"><title>Node0&#45;&gt;Node5</title>
<path fill="none" stroke="midnightblue" d="M190.212,-169.509C199.037,-168.667 208.059,-167.806 217.077,-166.945"/>
<polygon fill="midnightblue" stroke="midnightblue" points="217.624,-170.409 227.246,-165.974 216.959,-163.44 217.624,-170.409"/>
</g>
<!-- Node6 -->
<g id="node7" class="node"><title>Node6</title>
<g id="a_node7"><a xlink:href="../../d9/d3d/interfacede_1_1tu__clausthal_1_1in_1_1mec_1_1modeling_1_1model_1_1erd_1_1IErd.htm#a9e01a0a480362c8b3f15f316eb047d33" target="_top" xlink:title="connect child entity with is&#45;a relationship ">
<polygon fill="none" stroke="black" points="227.5,-94.5 227.5,-122.5 448.5,-122.5 448.5,-94.5 227.5,-94.5"/>
<text text-anchor="start" x="235.5" y="-111.3" font-family="Helvetica,sans-Serif" font-size="9.00">de.tu_clausthal.in.mec.modeling.model.erd.</text>
<text text-anchor="middle" x="338" y="-101.3" font-family="Helvetica,sans-Serif" font-size="9.00">IErd.connectChildEntityWithISARelationship</text>
</a>
</g>
</g>
<!-- Node0&#45;&gt;Node6 -->
<g id="edge6" class="edge"><title>Node0&#45;&gt;Node6</title>
<path fill="none" stroke="midnightblue" d="M131.748,-164.466C157.644,-154.642 193.641,-141.683 226,-132.5 235.531,-129.795 245.597,-127.228 255.621,-124.847"/>
<polygon fill="midnightblue" stroke="midnightblue" points="256.658,-128.2 265.609,-122.532 255.077,-121.381 256.658,-128.2"/>
</g>
<!-- Node7 -->
<g id="node8" class="node"><title>Node7</title>
<g id="a_node8"><a xlink:href="../../d9/d3d/interfacede_1_1tu__clausthal_1_1in_1_1mec_1_1modeling_1_1model_1_1erd_1_1IErd.htm#ad2c0e0527997bec6bf72e845e5028e97" target="_top" xlink:title="connect relationship with entity ">
<polygon fill="none" stroke="black" points="227.5,-47.5 227.5,-75.5 448.5,-75.5 448.5,-47.5 227.5,-47.5"/>
<text text-anchor="start" x="235.5" y="-64.3" font-family="Helvetica,sans-Serif" font-size="9.00">de.tu_clausthal.in.mec.modeling.model.erd.</text>
<text text-anchor="middle" x="338" y="-54.3" font-family="Helvetica,sans-Serif" font-size="9.00">IErd.connectEntityWithRelationship</text>
</a>
</g>
</g>
<!-- Node0&#45;&gt;Node7 -->
<g id="edge7" class="edge"><title>Node0&#45;&gt;Node7</title>
<path fill="none" stroke="midnightblue" d="M111.111,-164.468C134.105,-143.909 180.076,-105.841 226,-85.5 231.797,-82.9324 237.889,-80.6312 244.11,-78.57"/>
<polygon fill="midnightblue" stroke="midnightblue" points="245.448,-81.82 253.969,-75.5246 243.382,-75.1318 245.448,-81.82"/>
</g>
<!-- Node8 -->
<g id="node9" class="node"><title>Node8</title>
<g id="a_node9"><a xlink:href="../../d9/d3d/interfacede_1_1tu__clausthal_1_1in_1_1mec_1_1modeling_1_1model_1_1erd_1_1IErd.htm#a86f27b4771741f347991dae702c92dec" target="_top" xlink:title="connect parent entity with is&#45;a relationship ">
<polygon fill="none" stroke="black" points="226,-0.5 226,-28.5 450,-28.5 450,-0.5 226,-0.5"/>
<text text-anchor="start" x="234" y="-17.3" font-family="Helvetica,sans-Serif" font-size="9.00">de.tu_clausthal.in.mec.modeling.model.erd.</text>
<text text-anchor="middle" x="338" y="-7.3" font-family="Helvetica,sans-Serif" font-size="9.00">IErd.connectParentEntityWithISARelationship</text>
</a>
</g>
</g>
<!-- Node0&#45;&gt;Node8 -->
<g id="edge8" class="edge"><title>Node0&#45;&gt;Node8</title>
<path fill="none" stroke="midnightblue" d="M104.766,-164.335C123.316,-135.646 169.508,-70.6711 226,-38.5 229.962,-36.2437 234.114,-34.1993 238.389,-32.3467"/>
<polygon fill="midnightblue" stroke="midnightblue" points="239.9,-35.5135 247.919,-28.5901 237.333,-29.0011 239.9,-35.5135"/>
</g>
</g>
</svg>
