<?xml version="1.0" encoding="UTF-8" standalone="no"?>
<!DOCTYPE svg PUBLIC "-//W3C//DTD SVG 1.1//EN"
 "http://www.w3.org/Graphics/SVG/1.1/DTD/svg11.dtd">
<!-- Generated by graphviz version 2.38.0 (20140413.2041)
 -->
<!-- Title: de.tu_clausthal.in.mec.modeling.erd.TestCErdModel.nonValidModelT1 Pages: 1 -->
<svg width="455pt" height="272pt"
 viewBox="0.00 0.00 455.00 272.00" xmlns="http://www.w3.org/2000/svg" xmlns:xlink="http://www.w3.org/1999/xlink">
<g id="graph0" class="graph" transform="scale(1 1) rotate(0) translate(4 268)">
<title>de.tu_clausthal.in.mec.modeling.erd.TestCErdModel.nonValidModelT1</title>
<!-- Node29 -->
<g id="node1" class="node"><title>Node29</title>
<polygon fill="#bfbfbf" stroke="black" points="0,-117.5 0,-145.5 190,-145.5 190,-117.5 0,-117.5"/>
<text text-anchor="start" x="8" y="-134.3" font-family="Helvetica,sans-Serif" font-size="9.00">de.tu_clausthal.in.mec.modeling.erd.</text>
<text text-anchor="middle" x="95" y="-124.3" font-family="Helvetica,sans-Serif" font-size="9.00">TestCErdModel.nonValidModelT1</text>
</g>
<!-- Node30 -->
<g id="node2" class="node"><title>Node30</title>
<g id="a_node2"><a xlink:href="../../d9/d3d/interfacede_1_1tu__clausthal_1_1in_1_1mec_1_1modeling_1_1model_1_1erd_1_1IErd.htm#a440a179996721e461cc7a30b11da107f" target="_top" xlink:title="add new attribute to an entity ">
<polygon fill="none" stroke="black" points="226,-235.5 226,-263.5 447,-263.5 447,-235.5 226,-235.5"/>
<text text-anchor="start" x="234" y="-252.3" font-family="Helvetica,sans-Serif" font-size="9.00">de.tu_clausthal.in.mec.modeling.model.erd.</text>
<text text-anchor="middle" x="336.5" y="-242.3" font-family="Helvetica,sans-Serif" font-size="9.00">IErd.addAttributeToEntity</text>
</a>
</g>
</g>
<!-- Node29&#45;&gt;Node30 -->
<g id="edge1" class="edge"><title>Node29&#45;&gt;Node30</title>
<path fill="none" stroke="midnightblue" d="M110.658,-145.535C133.426,-166.516 179.527,-205.799 226,-226.5 230.758,-228.619 235.72,-230.547 240.792,-232.3"/>
<polygon fill="midnightblue" stroke="midnightblue" points="240.064,-235.742 250.655,-235.46 242.2,-229.076 240.064,-235.742"/>
</g>
<!-- Node31 -->
<g id="node3" class="node"><title>Node31</title>
<g id="a_node3"><a xlink:href="../../d9/d3d/interfacede_1_1tu__clausthal_1_1in_1_1mec_1_1modeling_1_1model_1_1erd_1_1IErd.htm#a01727cb3752a70bf4b776db431d75b3a" target="_top" xlink:title="add new entity ">
<polygon fill="none" stroke="black" points="226,-188.5 226,-216.5 447,-216.5 447,-188.5 226,-188.5"/>
<text text-anchor="start" x="234" y="-205.3" font-family="Helvetica,sans-Serif" font-size="9.00">de.tu_clausthal.in.mec.modeling.model.erd.</text>
<text text-anchor="middle" x="336.5" y="-195.3" font-family="Helvetica,sans-Serif" font-size="9.00">IErd.addEntity</text>
</a>
</g>
</g>
<!-- Node29&#45;&gt;Node31 -->
<g id="edge2" class="edge"><title>Node29&#45;&gt;Node31</title>
<path fill="none" stroke="midnightblue" d="M129.759,-145.519C155.737,-155.924 192.708,-169.913 226,-179.5 234.205,-181.863 242.821,-184.092 251.465,-186.165"/>
<polygon fill="midnightblue" stroke="midnightblue" points="250.682,-189.576 261.215,-188.436 252.27,-182.758 250.682,-189.576"/>
</g>
<!-- Node32 -->
<g id="node4" class="node"><title>Node32</title>
<g id="a_node4"><a xlink:href="../../d9/d3d/interfacede_1_1tu__clausthal_1_1in_1_1mec_1_1modeling_1_1model_1_1erd_1_1IErd.htm#ab21d68f1a1e74781ed4522f6a5b5e2e2" target="_top" xlink:title="add new relationship ">
<polygon fill="none" stroke="black" points="226,-141.5 226,-169.5 447,-169.5 447,-141.5 226,-141.5"/>
<text text-anchor="start" x="234" y="-158.3" font-family="Helvetica,sans-Serif" font-size="9.00">de.tu_clausthal.in.mec.modeling.model.erd.</text>
<text text-anchor="middle" x="336.5" y="-148.3" font-family="Helvetica,sans-Serif" font-size="9.00">IErd.addRelationship</text>
</a>
</g>
</g>
<!-- Node29&#45;&gt;Node32 -->
<g id="edge3" class="edge"><title>Node29&#45;&gt;Node32</title>
<path fill="none" stroke="midnightblue" d="M190.313,-140.951C198.686,-141.79 207.234,-142.647 215.781,-143.503"/>
<polygon fill="midnightblue" stroke="midnightblue" points="215.505,-146.993 225.805,-144.508 216.203,-140.028 215.505,-146.993"/>
</g>
<!-- Node33 -->
<g id="node5" class="node"><title>Node33</title>
<g id="a_node5"><a xlink:href="../../d9/d3d/interfacede_1_1tu__clausthal_1_1in_1_1mec_1_1modeling_1_1model_1_1erd_1_1IErd.htm#acb267543516f5458dad2a5c3ec6639cb" target="_top" xlink:title="general method to check a graphical model onto general things ">
<polygon fill="none" stroke="black" points="226,-94.5 226,-122.5 447,-122.5 447,-94.5 226,-94.5"/>
<text text-anchor="start" x="234" y="-111.3" font-family="Helvetica,sans-Serif" font-size="9.00">de.tu_clausthal.in.mec.modeling.model.erd.</text>
<text text-anchor="middle" x="336.5" y="-101.3" font-family="Helvetica,sans-Serif" font-size="9.00">IErd.check</text>
</a>
</g>
</g>
<!-- Node29&#45;&gt;Node33 -->
<g id="edge4" class="edge"><title>Node29&#45;&gt;Node33</title>
<path fill="none" stroke="midnightblue" d="M190.313,-122.443C198.686,-121.639 207.234,-120.818 215.781,-119.997"/>
<polygon fill="midnightblue" stroke="midnightblue" points="216.185,-123.474 225.805,-119.034 215.516,-116.506 216.185,-123.474"/>
</g>
<!-- Node34 -->
<g id="node6" class="node"><title>Node34</title>
<g id="a_node6"><a xlink:href="../../d9/d3d/interfacede_1_1tu__clausthal_1_1in_1_1mec_1_1modeling_1_1model_1_1erd_1_1IErd.htm#a3d7476f05154de8b577377b6a4c6091d" target="_top" xlink:title="general method to check a graphical model onto general things and return a list with errors ...">
<polygon fill="none" stroke="black" points="226,-47.5 226,-75.5 447,-75.5 447,-47.5 226,-47.5"/>
<text text-anchor="start" x="234" y="-64.3" font-family="Helvetica,sans-Serif" font-size="9.00">de.tu_clausthal.in.mec.modeling.model.erd.</text>
<text text-anchor="middle" x="336.5" y="-54.3" font-family="Helvetica,sans-Serif" font-size="9.00">IErd.checkResult</text>
</a>
</g>
</g>
<!-- Node29&#45;&gt;Node34 -->
<g id="edge5" class="edge"><title>Node29&#45;&gt;Node34</title>
<path fill="none" stroke="midnightblue" d="M131.756,-117.494C157.655,-107.683 193.654,-94.7288 226,-85.5 235.474,-82.7968 245.484,-80.2242 255.446,-77.8362"/>
<polygon fill="midnightblue" stroke="midnightblue" points="256.433,-81.1999 265.371,-75.5118 254.836,-74.3844 256.433,-81.1999"/>
</g>
<!-- Node35 -->
<g id="node7" class="node"><title>Node35</title>
<g id="a_node7"><a xlink:href="../../d9/d3d/interfacede_1_1tu__clausthal_1_1in_1_1mec_1_1modeling_1_1model_1_1erd_1_1IErd.htm#ad2c0e0527997bec6bf72e845e5028e97" target="_top" xlink:title="connect relationship with entity ">
<polygon fill="none" stroke="black" points="226,-0.5 226,-28.5 447,-28.5 447,-0.5 226,-0.5"/>
<text text-anchor="start" x="234" y="-17.3" font-family="Helvetica,sans-Serif" font-size="9.00">de.tu_clausthal.in.mec.modeling.model.erd.</text>
<text text-anchor="middle" x="336.5" y="-7.3" font-family="Helvetica,sans-Serif" font-size="9.00">IErd.connectEntityWithRelationship</text>
</a>
</g>
</g>
<!-- Node29&#45;&gt;Node35 -->
<g id="edge6" class="edge"><title>Node29&#45;&gt;Node35</title>
<path fill="none" stroke="midnightblue" d="M111.118,-117.485C134.122,-96.9468 180.104,-58.9061 226,-38.5 231.777,-35.9315 237.851,-33.6285 244.053,-31.5648"/>
<polygon fill="midnightblue" stroke="midnightblue" points="245.368,-34.8215 253.882,-28.5152 243.294,-28.1359 245.368,-34.8215"/>
</g>
</g>
</svg>
