<?xml version="1.0" encoding="UTF-8" standalone="no"?>
<!DOCTYPE svg PUBLIC "-//W3C//DTD SVG 1.1//EN"
 "http://www.w3.org/Graphics/SVG/1.1/DTD/svg11.dtd">
<!-- Generated by graphviz version 2.38.0 (20140413.2041)
 -->
<!-- Title: de.tu_clausthal.in.mec.modeling.erd.TestCErdModel.nonValidModelT2 Pages: 1 -->
<svg width="458pt" height="413pt"
 viewBox="0.00 0.00 458.00 413.00" xmlns="http://www.w3.org/2000/svg" xmlns:xlink="http://www.w3.org/1999/xlink">
<g id="graph0" class="graph" transform="scale(1 1) rotate(0) translate(4 409)">
<title>de.tu_clausthal.in.mec.modeling.erd.TestCErdModel.nonValidModelT2</title>
<!-- Node37 -->
<g id="node1" class="node"><title>Node37</title>
<polygon fill="#bfbfbf" stroke="black" points="0,-188.5 0,-216.5 190,-216.5 190,-188.5 0,-188.5"/>
<text text-anchor="start" x="8" y="-205.3" font-family="Helvetica,sans-Serif" font-size="9.00">de.tu_clausthal.in.mec.modeling.erd.</text>
<text text-anchor="middle" x="95" y="-195.3" font-family="Helvetica,sans-Serif" font-size="9.00">TestCErdModel.nonValidModelT2</text>
</g>
<!-- Node38 -->
<g id="node2" class="node"><title>Node38</title>
<g id="a_node2"><a xlink:href="../../d9/d3d/interfacede_1_1tu__clausthal_1_1in_1_1mec_1_1modeling_1_1model_1_1erd_1_1IErd.htm#a440a179996721e461cc7a30b11da107f" target="_top" xlink:title="add new attribute to an entity ">
<polygon fill="none" stroke="black" points="227.5,-376.5 227.5,-404.5 448.5,-404.5 448.5,-376.5 227.5,-376.5"/>
<text text-anchor="start" x="235.5" y="-393.3" font-family="Helvetica,sans-Serif" font-size="9.00">de.tu_clausthal.in.mec.modeling.model.erd.</text>
<text text-anchor="middle" x="338" y="-383.3" font-family="Helvetica,sans-Serif" font-size="9.00">IErd.addAttributeToEntity</text>
</a>
</g>
</g>
<!-- Node37&#45;&gt;Node38 -->
<g id="edge1" class="edge"><title>Node37&#45;&gt;Node38</title>
<path fill="none" stroke="midnightblue" d="M102.791,-216.736C119.071,-249.215 163.658,-328.942 226,-367.5 228.804,-369.234 231.715,-370.839 234.709,-372.326"/>
<polygon fill="midnightblue" stroke="midnightblue" points="233.354,-375.554 243.912,-376.438 236.209,-369.163 233.354,-375.554"/>
</g>
<!-- Node39 -->
<g id="node3" class="node"><title>Node39</title>
<g id="a_node3"><a xlink:href="../../d9/d3d/interfacede_1_1tu__clausthal_1_1in_1_1mec_1_1modeling_1_1model_1_1erd_1_1IErd.htm#a01727cb3752a70bf4b776db431d75b3a" target="_top" xlink:title="add new entity ">
<polygon fill="none" stroke="black" points="227.5,-329.5 227.5,-357.5 448.5,-357.5 448.5,-329.5 227.5,-329.5"/>
<text text-anchor="start" x="235.5" y="-346.3" font-family="Helvetica,sans-Serif" font-size="9.00">de.tu_clausthal.in.mec.modeling.model.erd.</text>
<text text-anchor="middle" x="338" y="-336.3" font-family="Helvetica,sans-Serif" font-size="9.00">IErd.addEntity</text>
</a>
</g>
</g>
<!-- Node37&#45;&gt;Node39 -->
<g id="edge2" class="edge"><title>Node37&#45;&gt;Node39</title>
<path fill="none" stroke="midnightblue" d="M107.175,-216.748C127.776,-241.959 174.385,-294.237 226,-320.5 229.848,-322.458 233.851,-324.249 237.956,-325.888"/>
<polygon fill="midnightblue" stroke="midnightblue" points="237.095,-329.3 247.689,-329.442 239.496,-322.724 237.095,-329.3"/>
</g>
<!-- Node40 -->
<g id="node4" class="node"><title>Node40</title>
<g id="a_node4"><a xlink:href="../../d9/d3d/interfacede_1_1tu__clausthal_1_1in_1_1mec_1_1modeling_1_1model_1_1erd_1_1IErd.htm#a419bf1545c5692281f81e665cb36c980" target="_top" xlink:title="add new is&#45;a relationship ">
<polygon fill="none" stroke="black" points="227.5,-282.5 227.5,-310.5 448.5,-310.5 448.5,-282.5 227.5,-282.5"/>
<text text-anchor="start" x="235.5" y="-299.3" font-family="Helvetica,sans-Serif" font-size="9.00">de.tu_clausthal.in.mec.modeling.model.erd.</text>
<text text-anchor="middle" x="338" y="-289.3" font-family="Helvetica,sans-Serif" font-size="9.00">IErd.addISARelationship</text>
</a>
</g>
</g>
<!-- Node37&#45;&gt;Node40 -->
<g id="edge3" class="edge"><title>Node37&#45;&gt;Node40</title>
<path fill="none" stroke="midnightblue" d="M117.147,-216.619C142.134,-232.679 185.447,-258.601 226,-273.5 232.268,-275.803 238.824,-277.899 245.482,-279.804"/>
<polygon fill="midnightblue" stroke="midnightblue" points="244.721,-283.223 255.288,-282.458 246.55,-276.467 244.721,-283.223"/>
</g>
<!-- Node41 -->
<g id="node5" class="node"><title>Node41</title>
<g id="a_node5"><a xlink:href="../../d9/d3d/interfacede_1_1tu__clausthal_1_1in_1_1mec_1_1modeling_1_1model_1_1erd_1_1IErd.htm#ab21d68f1a1e74781ed4522f6a5b5e2e2" target="_top" xlink:title="add new relationship ">
<polygon fill="none" stroke="black" points="227.5,-235.5 227.5,-263.5 448.5,-263.5 448.5,-235.5 227.5,-235.5"/>
<text text-anchor="start" x="235.5" y="-252.3" font-family="Helvetica,sans-Serif" font-size="9.00">de.tu_clausthal.in.mec.modeling.model.erd.</text>
<text text-anchor="middle" x="338" y="-242.3" font-family="Helvetica,sans-Serif" font-size="9.00">IErd.addRelationship</text>
</a>
</g>
</g>
<!-- Node37&#45;&gt;Node41 -->
<g id="edge4" class="edge"><title>Node37&#45;&gt;Node41</title>
<path fill="none" stroke="midnightblue" d="M167.982,-216.538C195.401,-221.885 226.845,-228.017 255.117,-233.531"/>
<polygon fill="midnightblue" stroke="midnightblue" points="254.488,-236.974 264.973,-235.453 255.828,-230.104 254.488,-236.974"/>
</g>
<!-- Node42 -->
<g id="node6" class="node"><title>Node42</title>
<g id="a_node6"><a xlink:href="../../d9/d3d/interfacede_1_1tu__clausthal_1_1in_1_1mec_1_1modeling_1_1model_1_1erd_1_1IErd.htm#acb267543516f5458dad2a5c3ec6639cb" target="_top" xlink:title="general method to check a graphical model onto general things ">
<polygon fill="none" stroke="black" points="227.5,-188.5 227.5,-216.5 448.5,-216.5 448.5,-188.5 227.5,-188.5"/>
<text text-anchor="start" x="235.5" y="-205.3" font-family="Helvetica,sans-Serif" font-size="9.00">de.tu_clausthal.in.mec.modeling.model.erd.</text>
<text text-anchor="middle" x="338" y="-195.3" font-family="Helvetica,sans-Serif" font-size="9.00">IErd.check</text>
</a>
</g>
</g>
<!-- Node37&#45;&gt;Node42 -->
<g id="edge5" class="edge"><title>Node37&#45;&gt;Node42</title>
<path fill="none" stroke="midnightblue" d="M190.212,-202.5C199.037,-202.5 208.059,-202.5 217.077,-202.5"/>
<polygon fill="midnightblue" stroke="midnightblue" points="217.246,-206 227.246,-202.5 217.246,-199 217.246,-206"/>
</g>
<!-- Node43 -->
<g id="node7" class="node"><title>Node43</title>
<g id="a_node7"><a xlink:href="../../d9/d3d/interfacede_1_1tu__clausthal_1_1in_1_1mec_1_1modeling_1_1model_1_1erd_1_1IErd.htm#a3d7476f05154de8b577377b6a4c6091d" target="_top" xlink:title="general method to check a graphical model onto general things and return a list with errors ...">
<polygon fill="none" stroke="black" points="227.5,-141.5 227.5,-169.5 448.5,-169.5 448.5,-141.5 227.5,-141.5"/>
<text text-anchor="start" x="235.5" y="-158.3" font-family="Helvetica,sans-Serif" font-size="9.00">de.tu_clausthal.in.mec.modeling.model.erd.</text>
<text text-anchor="middle" x="338" y="-148.3" font-family="Helvetica,sans-Serif" font-size="9.00">IErd.checkResult</text>
</a>
</g>
</g>
<!-- Node37&#45;&gt;Node43 -->
<g id="edge6" class="edge"><title>Node37&#45;&gt;Node43</title>
<path fill="none" stroke="midnightblue" d="M167.982,-188.462C195.401,-183.115 226.845,-176.983 255.117,-171.469"/>
<polygon fill="midnightblue" stroke="midnightblue" points="255.828,-174.896 264.973,-169.547 254.488,-168.026 255.828,-174.896"/>
</g>
<!-- Node44 -->
<g id="node8" class="node"><title>Node44</title>
<g id="a_node8"><a xlink:href="../../d9/d3d/interfacede_1_1tu__clausthal_1_1in_1_1mec_1_1modeling_1_1model_1_1erd_1_1IErd.htm#a9e01a0a480362c8b3f15f316eb047d33" target="_top" xlink:title="connect child entity with is&#45;a relationship ">
<polygon fill="none" stroke="black" points="227.5,-94.5 227.5,-122.5 448.5,-122.5 448.5,-94.5 227.5,-94.5"/>
<text text-anchor="start" x="235.5" y="-111.3" font-family="Helvetica,sans-Serif" font-size="9.00">de.tu_clausthal.in.mec.modeling.model.erd.</text>
<text text-anchor="middle" x="338" y="-101.3" font-family="Helvetica,sans-Serif" font-size="9.00">IErd.connectChildEntityWithISARelationship</text>
</a>
</g>
</g>
<!-- Node37&#45;&gt;Node44 -->
<g id="edge7" class="edge"><title>Node37&#45;&gt;Node44</title>
<path fill="none" stroke="midnightblue" d="M117.65,-188.374C142.753,-172.591 185.838,-147.317 226,-132.5 233.283,-129.813 240.952,-127.385 248.716,-125.199"/>
<polygon fill="midnightblue" stroke="midnightblue" points="249.823,-128.526 258.578,-122.56 248.013,-121.764 249.823,-128.526"/>
</g>
<!-- Node45 -->
<g id="node9" class="node"><title>Node45</title>
<g id="a_node9"><a xlink:href="../../d9/d3d/interfacede_1_1tu__clausthal_1_1in_1_1mec_1_1modeling_1_1model_1_1erd_1_1IErd.htm#ad2c0e0527997bec6bf72e845e5028e97" target="_top" xlink:title="connect relationship with entity ">
<polygon fill="none" stroke="black" points="227.5,-47.5 227.5,-75.5 448.5,-75.5 448.5,-47.5 227.5,-47.5"/>
<text text-anchor="start" x="235.5" y="-64.3" font-family="Helvetica,sans-Serif" font-size="9.00">de.tu_clausthal.in.mec.modeling.model.erd.</text>
<text text-anchor="middle" x="338" y="-54.3" font-family="Helvetica,sans-Serif" font-size="9.00">IErd.connectEntityWithRelationship</text>
</a>
</g>
</g>
<!-- Node37&#45;&gt;Node45 -->
<g id="edge8" class="edge"><title>Node37&#45;&gt;Node45</title>
<path fill="none" stroke="midnightblue" d="M107.225,-188.419C127.908,-163.497 174.639,-111.776 226,-85.5 230.653,-83.1197 235.532,-80.975 240.541,-79.0426"/>
<polygon fill="midnightblue" stroke="midnightblue" points="242.052,-82.2208 250.309,-75.5822 239.714,-75.6227 242.052,-82.2208"/>
</g>
<!-- Node46 -->
<g id="node10" class="node"><title>Node46</title>
<g id="a_node10"><a xlink:href="../../d9/d3d/interfacede_1_1tu__clausthal_1_1in_1_1mec_1_1modeling_1_1model_1_1erd_1_1IErd.htm#a86f27b4771741f347991dae702c92dec" target="_top" xlink:title="connect parent entity with is&#45;a relationship ">
<polygon fill="none" stroke="black" points="226,-0.5 226,-28.5 450,-28.5 450,-0.5 226,-0.5"/>
<text text-anchor="start" x="234" y="-17.3" font-family="Helvetica,sans-Serif" font-size="9.00">de.tu_clausthal.in.mec.modeling.model.erd.</text>
<text text-anchor="middle" x="338" y="-7.3" font-family="Helvetica,sans-Serif" font-size="9.00">IErd.connectParentEntityWithISARelationship</text>
</a>
</g>
</g>
<!-- Node37&#45;&gt;Node46 -->
<g id="edge9" class="edge"><title>Node37&#45;&gt;Node46</title>
<path fill="none" stroke="midnightblue" d="M102.838,-188.387C119.218,-156.183 164,-77.0894 226,-38.5 229.433,-36.3634 233.028,-34.4151 236.737,-32.6387"/>
<polygon fill="midnightblue" stroke="midnightblue" points="238.373,-35.745 246.166,-28.5676 235.598,-29.3185 238.373,-35.745"/>
</g>
</g>
</svg>
