<?xml version="1.0" encoding="UTF-8" standalone="no"?>
<!DOCTYPE svg PUBLIC "-//W3C//DTD SVG 1.1//EN"
 "http://www.w3.org/Graphics/SVG/1.1/DTD/svg11.dtd">
<!-- Generated by graphviz version 2.38.0 (20140413.2041)
 -->
<!-- Title: de.tu_clausthal.in.mec.modeling.erd.TestCErdModel.minimalModel Pages: 1 -->
<svg width="455pt" height="225pt"
 viewBox="0.00 0.00 455.00 225.00" xmlns="http://www.w3.org/2000/svg" xmlns:xlink="http://www.w3.org/1999/xlink">
<g id="graph0" class="graph" transform="scale(1 1) rotate(0) translate(4 221)">
<title>de.tu_clausthal.in.mec.modeling.erd.TestCErdModel.minimalModel</title>
<!-- Node10 -->
<g id="node1" class="node"><title>Node10</title>
<polygon fill="#bfbfbf" stroke="black" points="0,-94.5 0,-122.5 190,-122.5 190,-94.5 0,-94.5"/>
<text text-anchor="start" x="8" y="-111.3" font-family="Helvetica,sans-Serif" font-size="9.00">de.tu_clausthal.in.mec.modeling.erd.</text>
<text text-anchor="middle" x="95" y="-101.3" font-family="Helvetica,sans-Serif" font-size="9.00">TestCErdModel.minimalModel</text>
</g>
<!-- Node11 -->
<g id="node2" class="node"><title>Node11</title>
<g id="a_node2"><a xlink:href="../../d9/d3d/interfacede_1_1tu__clausthal_1_1in_1_1mec_1_1modeling_1_1model_1_1erd_1_1IErd.htm#a440a179996721e461cc7a30b11da107f" target="_top" xlink:title="add new attribute to an entity ">
<polygon fill="none" stroke="black" points="226,-188.5 226,-216.5 447,-216.5 447,-188.5 226,-188.5"/>
<text text-anchor="start" x="234" y="-205.3" font-family="Helvetica,sans-Serif" font-size="9.00">de.tu_clausthal.in.mec.modeling.model.erd.</text>
<text text-anchor="middle" x="336.5" y="-195.3" font-family="Helvetica,sans-Serif" font-size="9.00">IErd.addAttributeToEntity</text>
</a>
</g>
</g>
<!-- Node10&#45;&gt;Node11 -->
<g id="edge1" class="edge"><title>Node10&#45;&gt;Node11</title>
<path fill="none" stroke="midnightblue" d="M117.155,-122.6C142.148,-138.642 185.468,-164.545 226,-179.5 232.245,-181.804 238.779,-183.903 245.415,-185.811"/>
<polygon fill="midnightblue" stroke="midnightblue" points="244.618,-189.222 255.186,-188.472 246.457,-182.468 244.618,-189.222"/>
</g>
<!-- Node12 -->
<g id="node3" class="node"><title>Node12</title>
<g id="a_node3"><a xlink:href="../../d9/d3d/interfacede_1_1tu__clausthal_1_1in_1_1mec_1_1modeling_1_1model_1_1erd_1_1IErd.htm#a01727cb3752a70bf4b776db431d75b3a" target="_top" xlink:title="add new entity ">
<polygon fill="none" stroke="black" points="226,-141.5 226,-169.5 447,-169.5 447,-141.5 226,-141.5"/>
<text text-anchor="start" x="234" y="-158.3" font-family="Helvetica,sans-Serif" font-size="9.00">de.tu_clausthal.in.mec.modeling.model.erd.</text>
<text text-anchor="middle" x="336.5" y="-148.3" font-family="Helvetica,sans-Serif" font-size="9.00">IErd.addEntity</text>
</a>
</g>
</g>
<!-- Node10&#45;&gt;Node12 -->
<g id="edge2" class="edge"><title>Node10&#45;&gt;Node12</title>
<path fill="none" stroke="midnightblue" d="M167.533,-122.538C194.664,-127.862 225.758,-133.964 253.759,-139.459"/>
<polygon fill="midnightblue" stroke="midnightblue" points="253.435,-142.962 263.922,-141.453 254.783,-136.093 253.435,-142.962"/>
</g>
<!-- Node13 -->
<g id="node4" class="node"><title>Node13</title>
<g id="a_node4"><a xlink:href="../../d9/d3d/interfacede_1_1tu__clausthal_1_1in_1_1mec_1_1modeling_1_1model_1_1erd_1_1IErd.htm#ab21d68f1a1e74781ed4522f6a5b5e2e2" target="_top" xlink:title="add new relationship ">
<polygon fill="none" stroke="black" points="226,-94.5 226,-122.5 447,-122.5 447,-94.5 226,-94.5"/>
<text text-anchor="start" x="234" y="-111.3" font-family="Helvetica,sans-Serif" font-size="9.00">de.tu_clausthal.in.mec.modeling.model.erd.</text>
<text text-anchor="middle" x="336.5" y="-101.3" font-family="Helvetica,sans-Serif" font-size="9.00">IErd.addRelationship</text>
</a>
</g>
</g>
<!-- Node10&#45;&gt;Node13 -->
<g id="edge3" class="edge"><title>Node10&#45;&gt;Node13</title>
<path fill="none" stroke="midnightblue" d="M190.313,-108.5C198.686,-108.5 207.234,-108.5 215.781,-108.5"/>
<polygon fill="midnightblue" stroke="midnightblue" points="215.805,-112 225.805,-108.5 215.805,-105 215.805,-112"/>
</g>
<!-- Node14 -->
<g id="node5" class="node"><title>Node14</title>
<g id="a_node5"><a xlink:href="../../d9/d3d/interfacede_1_1tu__clausthal_1_1in_1_1mec_1_1modeling_1_1model_1_1erd_1_1IErd.htm#acb267543516f5458dad2a5c3ec6639cb" target="_top" xlink:title="general method to check a graphical model onto general things ">
<polygon fill="none" stroke="black" points="226,-47.5 226,-75.5 447,-75.5 447,-47.5 226,-47.5"/>
<text text-anchor="start" x="234" y="-64.3" font-family="Helvetica,sans-Serif" font-size="9.00">de.tu_clausthal.in.mec.modeling.model.erd.</text>
<text text-anchor="middle" x="336.5" y="-54.3" font-family="Helvetica,sans-Serif" font-size="9.00">IErd.check</text>
</a>
</g>
</g>
<!-- Node10&#45;&gt;Node14 -->
<g id="edge4" class="edge"><title>Node10&#45;&gt;Node14</title>
<path fill="none" stroke="midnightblue" d="M167.533,-94.4621C194.664,-89.138 225.758,-83.0361 253.759,-77.5411"/>
<polygon fill="midnightblue" stroke="midnightblue" points="254.783,-80.907 263.922,-75.5467 253.435,-74.038 254.783,-80.907"/>
</g>
<!-- Node15 -->
<g id="node6" class="node"><title>Node15</title>
<g id="a_node6"><a xlink:href="../../d9/d3d/interfacede_1_1tu__clausthal_1_1in_1_1mec_1_1modeling_1_1model_1_1erd_1_1IErd.htm#ad2c0e0527997bec6bf72e845e5028e97" target="_top" xlink:title="connect relationship with entity ">
<polygon fill="none" stroke="black" points="226,-0.5 226,-28.5 447,-28.5 447,-0.5 226,-0.5"/>
<text text-anchor="start" x="234" y="-17.3" font-family="Helvetica,sans-Serif" font-size="9.00">de.tu_clausthal.in.mec.modeling.model.erd.</text>
<text text-anchor="middle" x="336.5" y="-7.3" font-family="Helvetica,sans-Serif" font-size="9.00">IErd.connectEntityWithRelationship</text>
</a>
</g>
</g>
<!-- Node10&#45;&gt;Node15 -->
<g id="edge5" class="edge"><title>Node10&#45;&gt;Node15</title>
<path fill="none" stroke="midnightblue" d="M117.657,-94.3942C142.768,-78.6305 185.859,-53.3737 226,-38.5 233.25,-35.8137 240.886,-33.3831 248.615,-31.1937"/>
<polygon fill="midnightblue" stroke="midnightblue" points="249.687,-34.5297 258.432,-28.5482 247.866,-27.7708 249.687,-34.5297"/>
</g>
</g>
</svg>
