<?xml version="1.0" encoding="UTF-8" standalone="no"?>
<!DOCTYPE svg PUBLIC "-//W3C//DTD SVG 1.1//EN"
 "http://www.w3.org/Graphics/SVG/1.1/DTD/svg11.dtd">
<!-- Generated by graphviz version 2.38.0 (20140413.2041)
 -->
<!-- Title: de.tu_clausthal.in.mec.modeling.erd.TestCErdModel.minimalRecursiveModel Pages: 1 -->
<svg width="460pt" height="225pt"
 viewBox="0.00 0.00 460.00 225.00" xmlns="http://www.w3.org/2000/svg" xmlns:xlink="http://www.w3.org/1999/xlink">
<g id="graph0" class="graph" transform="scale(1 1) rotate(0) translate(4 221)">
<title>de.tu_clausthal.in.mec.modeling.erd.TestCErdModel.minimalRecursiveModel</title>
<!-- Node22 -->
<g id="node1" class="node"><title>Node22</title>
<polygon fill="#bfbfbf" stroke="black" points="0,-94.5 0,-122.5 195,-122.5 195,-94.5 0,-94.5"/>
<text text-anchor="start" x="8" y="-111.3" font-family="Helvetica,sans-Serif" font-size="9.00">de.tu_clausthal.in.mec.modeling.erd.</text>
<text text-anchor="middle" x="97.5" y="-101.3" font-family="Helvetica,sans-Serif" font-size="9.00">TestCErdModel.minimalRecursiveModel</text>
</g>
<!-- Node23 -->
<g id="node2" class="node"><title>Node23</title>
<g id="a_node2"><a xlink:href="../../d9/d3d/interfacede_1_1tu__clausthal_1_1in_1_1mec_1_1modeling_1_1model_1_1erd_1_1IErd.htm#a440a179996721e461cc7a30b11da107f" target="_top" xlink:title="add new attribute to an entity ">
<polygon fill="none" stroke="black" points="231,-188.5 231,-216.5 452,-216.5 452,-188.5 231,-188.5"/>
<text text-anchor="start" x="239" y="-205.3" font-family="Helvetica,sans-Serif" font-size="9.00">de.tu_clausthal.in.mec.modeling.model.erd.</text>
<text text-anchor="middle" x="341.5" y="-195.3" font-family="Helvetica,sans-Serif" font-size="9.00">IErd.addAttributeToEntity</text>
</a>
</g>
</g>
<!-- Node22&#45;&gt;Node23 -->
<g id="edge1" class="edge"><title>Node22&#45;&gt;Node23</title>
<path fill="none" stroke="midnightblue" d="M120.103,-122.579C145.616,-138.602 189.806,-164.487 231,-179.5 237.315,-181.801 243.924,-183.901 250.631,-185.811"/>
<polygon fill="midnightblue" stroke="midnightblue" points="249.939,-189.249 260.505,-188.475 251.762,-182.491 249.939,-189.249"/>
</g>
<!-- Node24 -->
<g id="node3" class="node"><title>Node24</title>
<g id="a_node3"><a xlink:href="../../d9/d3d/interfacede_1_1tu__clausthal_1_1in_1_1mec_1_1modeling_1_1model_1_1erd_1_1IErd.htm#a01727cb3752a70bf4b776db431d75b3a" target="_top" xlink:title="add new entity ">
<polygon fill="none" stroke="black" points="231,-141.5 231,-169.5 452,-169.5 452,-141.5 231,-141.5"/>
<text text-anchor="start" x="239" y="-158.3" font-family="Helvetica,sans-Serif" font-size="9.00">de.tu_clausthal.in.mec.modeling.model.erd.</text>
<text text-anchor="middle" x="341.5" y="-148.3" font-family="Helvetica,sans-Serif" font-size="9.00">IErd.addEntity</text>
</a>
</g>
</g>
<!-- Node22&#45;&gt;Node24 -->
<g id="edge2" class="edge"><title>Node22&#45;&gt;Node24</title>
<path fill="none" stroke="midnightblue" d="M170.78,-122.538C198.314,-127.885 229.888,-134.017 258.277,-139.531"/>
<polygon fill="midnightblue" stroke="midnightblue" points="257.69,-142.982 268.174,-141.453 259.025,-136.111 257.69,-142.982"/>
</g>
<!-- Node25 -->
<g id="node4" class="node"><title>Node25</title>
<g id="a_node4"><a xlink:href="../../d9/d3d/interfacede_1_1tu__clausthal_1_1in_1_1mec_1_1modeling_1_1model_1_1erd_1_1IErd.htm#ab21d68f1a1e74781ed4522f6a5b5e2e2" target="_top" xlink:title="add new relationship ">
<polygon fill="none" stroke="black" points="231,-94.5 231,-122.5 452,-122.5 452,-94.5 231,-94.5"/>
<text text-anchor="start" x="239" y="-111.3" font-family="Helvetica,sans-Serif" font-size="9.00">de.tu_clausthal.in.mec.modeling.model.erd.</text>
<text text-anchor="middle" x="341.5" y="-101.3" font-family="Helvetica,sans-Serif" font-size="9.00">IErd.addRelationship</text>
</a>
</g>
</g>
<!-- Node22&#45;&gt;Node25 -->
<g id="edge3" class="edge"><title>Node22&#45;&gt;Node25</title>
<path fill="none" stroke="midnightblue" d="M195.188,-108.5C203.61,-108.5 212.195,-108.5 220.772,-108.5"/>
<polygon fill="midnightblue" stroke="midnightblue" points="220.827,-112 230.827,-108.5 220.827,-105 220.827,-112"/>
</g>
<!-- Node26 -->
<g id="node5" class="node"><title>Node26</title>
<g id="a_node5"><a xlink:href="../../d9/d3d/interfacede_1_1tu__clausthal_1_1in_1_1mec_1_1modeling_1_1model_1_1erd_1_1IErd.htm#acb267543516f5458dad2a5c3ec6639cb" target="_top" xlink:title="general method to check a graphical model onto general things ">
<polygon fill="none" stroke="black" points="231,-47.5 231,-75.5 452,-75.5 452,-47.5 231,-47.5"/>
<text text-anchor="start" x="239" y="-64.3" font-family="Helvetica,sans-Serif" font-size="9.00">de.tu_clausthal.in.mec.modeling.model.erd.</text>
<text text-anchor="middle" x="341.5" y="-54.3" font-family="Helvetica,sans-Serif" font-size="9.00">IErd.check</text>
</a>
</g>
</g>
<!-- Node22&#45;&gt;Node26 -->
<g id="edge4" class="edge"><title>Node22&#45;&gt;Node26</title>
<path fill="none" stroke="midnightblue" d="M170.78,-94.4621C198.314,-89.1147 229.888,-82.9825 258.277,-77.4689"/>
<polygon fill="midnightblue" stroke="midnightblue" points="259.025,-80.8891 268.174,-75.5467 257.69,-74.0175 259.025,-80.8891"/>
</g>
<!-- Node27 -->
<g id="node6" class="node"><title>Node27</title>
<g id="a_node6"><a xlink:href="../../d9/d3d/interfacede_1_1tu__clausthal_1_1in_1_1mec_1_1modeling_1_1model_1_1erd_1_1IErd.htm#ad2c0e0527997bec6bf72e845e5028e97" target="_top" xlink:title="connect relationship with entity ">
<polygon fill="none" stroke="black" points="231,-0.5 231,-28.5 452,-28.5 452,-0.5 231,-0.5"/>
<text text-anchor="start" x="239" y="-17.3" font-family="Helvetica,sans-Serif" font-size="9.00">de.tu_clausthal.in.mec.modeling.model.erd.</text>
<text text-anchor="middle" x="341.5" y="-7.3" font-family="Helvetica,sans-Serif" font-size="9.00">IErd.connectEntityWithRelationship</text>
</a>
</g>
</g>
<!-- Node22&#45;&gt;Node27 -->
<g id="edge5" class="edge"><title>Node22&#45;&gt;Node27</title>
<path fill="none" stroke="midnightblue" d="M120.615,-94.4163C146.246,-78.6729 190.2,-53.4347 231,-38.5 238.325,-35.8189 246.04,-33.389 253.843,-31.1974"/>
<polygon fill="midnightblue" stroke="midnightblue" points="254.996,-34.5122 263.752,-28.5479 253.188,-27.7498 254.996,-34.5122"/>
</g>
</g>
</svg>
