<?xml version="1.0" encoding="UTF-8" standalone="no"?>
<!DOCTYPE svg PUBLIC "-//W3C//DTD SVG 1.1//EN"
 "http://www.w3.org/Graphics/SVG/1.1/DTD/svg11.dtd">
<!-- Generated by graphviz version 2.38.0 (20140413.2041)
 -->
<!-- Title: de.tu_clausthal.in.mec.modeling.model.erd.IRelationship&lt; A extends IAttribute &gt; Pages: 1 -->
<svg width="474pt" height="739pt"
 viewBox="0.00 0.00 474.00 739.00" xmlns="http://www.w3.org/2000/svg" xmlns:xlink="http://www.w3.org/1999/xlink">
<g id="graph0" class="graph" transform="scale(1 1) rotate(0) translate(4 735)">
<title>de.tu_clausthal.in.mec.modeling.model.erd.IRelationship&lt; A extends IAttribute &gt;</title>
<!-- Node0 -->
<g id="node1" class="node"><title>Node0</title>
<polygon fill="#bfbfbf" stroke="black" points="185,-373.5 185,-497.5 406,-497.5 406,-373.5 185,-373.5"/>
<text text-anchor="start" x="193" y="-486.3" font-family="Helvetica,sans-Serif" font-size="9.00">de.tu_clausthal.in.mec.modeling.model.erd.</text>
<text text-anchor="middle" x="295.5" y="-476.3" font-family="Helvetica,sans-Serif" font-size="9.00">IRelationship&lt; A extends IAttribute &gt;</text>
<polyline fill="none" stroke="black" points="185,-469.5 406,-469.5 "/>
<text text-anchor="middle" x="295.5" y="-458.3" font-family="Helvetica,sans-Serif" font-size="9.00"> </text>
<polyline fill="none" stroke="black" points="185,-451.5 406,-451.5 "/>
<text text-anchor="start" x="193" y="-440.3" font-family="Helvetica,sans-Serif" font-size="9.00">+ connectEntity()</text>
<text text-anchor="start" x="193" y="-430.3" font-family="Helvetica,sans-Serif" font-size="9.00">+ createAttribute()</text>
<text text-anchor="start" x="193" y="-420.3" font-family="Helvetica,sans-Serif" font-size="9.00">+ getConnectedAttributes()</text>
<text text-anchor="start" x="193" y="-410.3" font-family="Helvetica,sans-Serif" font-size="9.00">+ getConnectedEntities()</text>
<text text-anchor="start" x="193" y="-400.3" font-family="Helvetica,sans-Serif" font-size="9.00">+ getDescription()</text>
<text text-anchor="start" x="193" y="-390.3" font-family="Helvetica,sans-Serif" font-size="9.00">+ isRecursive()</text>
<text text-anchor="start" x="193" y="-380.3" font-family="Helvetica,sans-Serif" font-size="9.00">+ isWeakRelationship()</text>
</g>
<!-- Node4 -->
<g id="node5" class="node"><title>Node4</title>
<g id="a_node5"><a xlink:href="../../df/d49/interfacede_1_1tu__clausthal_1_1in_1_1mec_1_1modeling_1_1model_1_1erd_1_1IRelationship.htm" target="_top" xlink:title="{de.tu_clausthal.in.mec.modeling.model.erd.\lIRelationship\&lt; IAttribute \&gt;\n||+ connectEntity()\l+ createAttribute()\l+ getConnectedAttributes()\l+ getConnectedEntities()\l+ getDescription()\l+ isRecursive()\l+ isWeakRelationship()\l}">
<polygon fill="none" stroke="black" points="185,-202.5 185,-326.5 406,-326.5 406,-202.5 185,-202.5"/>
<text text-anchor="start" x="193" y="-315.3" font-family="Helvetica,sans-Serif" font-size="9.00">de.tu_clausthal.in.mec.modeling.model.erd.</text>
<text text-anchor="middle" x="295.5" y="-305.3" font-family="Helvetica,sans-Serif" font-size="9.00">IRelationship&lt; IAttribute &gt;</text>
<polyline fill="none" stroke="black" points="185,-298.5 406,-298.5 "/>
<text text-anchor="middle" x="295.5" y="-287.3" font-family="Helvetica,sans-Serif" font-size="9.00"> </text>
<polyline fill="none" stroke="black" points="185,-280.5 406,-280.5 "/>
<text text-anchor="start" x="193" y="-269.3" font-family="Helvetica,sans-Serif" font-size="9.00">+ connectEntity()</text>
<text text-anchor="start" x="193" y="-259.3" font-family="Helvetica,sans-Serif" font-size="9.00">+ createAttribute()</text>
<text text-anchor="start" x="193" y="-249.3" font-family="Helvetica,sans-Serif" font-size="9.00">+ getConnectedAttributes()</text>
<text text-anchor="start" x="193" y="-239.3" font-family="Helvetica,sans-Serif" font-size="9.00">+ getConnectedEntities()</text>
<text text-anchor="start" x="193" y="-229.3" font-family="Helvetica,sans-Serif" font-size="9.00">+ getDescription()</text>
<text text-anchor="start" x="193" y="-219.3" font-family="Helvetica,sans-Serif" font-size="9.00">+ isRecursive()</text>
<text text-anchor="start" x="193" y="-209.3" font-family="Helvetica,sans-Serif" font-size="9.00">+ isWeakRelationship()</text>
</a>
</g>
</g>
<!-- Node0&#45;&gt;Node4 -->
<g id="edge4" class="edge"><title>Node0&#45;&gt;Node4</title>
<path fill="none" stroke="orange" d="M295.5,-363.362C295.5,-351.175 295.5,-338.607 295.5,-326.707"/>
<polygon fill="orange" stroke="orange" points="292,-363.487 295.5,-373.487 299,-363.487 292,-363.487"/>
<text text-anchor="middle" x="329.5" y="-347.8" font-family="Helvetica,sans-Serif" font-size="9.00"> &lt; IAttribute &gt;</text>
</g>
<!-- Node1 -->
<g id="node2" class="node"><title>Node1</title>
<g id="a_node2"><a xlink:href="../../d4/d3e/interfacede_1_1tu__clausthal_1_1in_1_1mec_1_1modeling_1_1model_1_1erd_1_1IErdNode.htm" target="_top" xlink:title="An node for the graphical ERD model. ">
<polygon fill="none" stroke="black" points="6,-549.5 6,-613.5 227,-613.5 227,-549.5 6,-549.5"/>
<text text-anchor="start" x="14" y="-602.3" font-family="Helvetica,sans-Serif" font-size="9.00">de.tu_clausthal.in.mec.modeling.model.erd.</text>
<text text-anchor="middle" x="116.5" y="-592.3" font-family="Helvetica,sans-Serif" font-size="9.00">IErdNode</text>
<polyline fill="none" stroke="black" points="6,-585.5 227,-585.5 "/>
<text text-anchor="middle" x="116.5" y="-574.3" font-family="Helvetica,sans-Serif" font-size="9.00"> </text>
<polyline fill="none" stroke="black" points="6,-567.5 227,-567.5 "/>
<text text-anchor="middle" x="116.5" y="-556.3" font-family="Helvetica,sans-Serif" font-size="9.00"> </text>
</a>
</g>
</g>
<!-- Node1&#45;&gt;Node0 -->
<g id="edge1" class="edge"><title>Node1&#45;&gt;Node0</title>
<path fill="none" stroke="midnightblue" d="M163.527,-542.668C180.68,-528.87 200.541,-512.891 219.566,-497.587"/>
<polygon fill="none" stroke="midnightblue" points="160.938,-540.259 155.34,-549.254 165.326,-545.713 160.938,-540.259"/>
</g>
<!-- Node2 -->
<g id="node3" class="node"><title>Node2</title>
<g id="a_node3"><a xlink:href="../../d4/db2/interfacede_1_1tu__clausthal_1_1in_1_1mec_1_1modeling_1_1model_1_1graph_1_1INode.htm" target="_top" xlink:title="node interface ">
<polygon fill="none" stroke="black" points="0,-656.5 0,-730.5 233,-730.5 233,-656.5 0,-656.5"/>
<text text-anchor="start" x="8" y="-719.3" font-family="Helvetica,sans-Serif" font-size="9.00">de.tu_clausthal.in.mec.modeling.model.graph.</text>
<text text-anchor="middle" x="116.5" y="-709.3" font-family="Helvetica,sans-Serif" font-size="9.00">INode</text>
<polyline fill="none" stroke="black" points="0,-702.5 233,-702.5 "/>
<text text-anchor="middle" x="116.5" y="-691.3" font-family="Helvetica,sans-Serif" font-size="9.00"> </text>
<polyline fill="none" stroke="black" points="0,-684.5 233,-684.5 "/>
<text text-anchor="start" x="8" y="-673.3" font-family="Helvetica,sans-Serif" font-size="9.00">+ id()</text>
<text text-anchor="start" x="8" y="-663.3" font-family="Helvetica,sans-Serif" font-size="9.00">+ raw()</text>
</a>
</g>
</g>
<!-- Node2&#45;&gt;Node1 -->
<g id="edge2" class="edge"><title>Node2&#45;&gt;Node1</title>
<path fill="none" stroke="midnightblue" d="M116.5,-646.206C116.5,-635.276 116.5,-623.876 116.5,-613.792"/>
<polygon fill="none" stroke="midnightblue" points="113,-646.482 116.5,-656.482 120,-646.482 113,-646.482"/>
</g>
<!-- Node3 -->
<g id="node4" class="node"><title>Node3</title>
<g id="a_node4"><a xlink:href="../../df/ddc/interfacede_1_1tu__clausthal_1_1in_1_1mec_1_1modeling_1_1model_1_1erd_1_1IAttribute.htm" target="_top" xlink:title="A simple attribute that can be assigned in an ERD to an entity or relationship. ">
<polygon fill="none" stroke="black" points="245,-544.5 245,-618.5 466,-618.5 466,-544.5 245,-544.5"/>
<text text-anchor="start" x="253" y="-607.3" font-family="Helvetica,sans-Serif" font-size="9.00">de.tu_clausthal.in.mec.modeling.model.erd.</text>
<text text-anchor="middle" x="355.5" y="-597.3" font-family="Helvetica,sans-Serif" font-size="9.00">IAttribute</text>
<polyline fill="none" stroke="black" points="245,-590.5 466,-590.5 "/>
<text text-anchor="middle" x="355.5" y="-579.3" font-family="Helvetica,sans-Serif" font-size="9.00"> </text>
<polyline fill="none" stroke="black" points="245,-572.5 466,-572.5 "/>
<text text-anchor="start" x="253" y="-561.3" font-family="Helvetica,sans-Serif" font-size="9.00">+ attributeName()</text>
<text text-anchor="start" x="253" y="-551.3" font-family="Helvetica,sans-Serif" font-size="9.00">+ getProperty()</text>
</a>
</g>
</g>
<!-- Node3&#45;&gt;Node0 -->
<g id="edge3" class="edge"><title>Node3&#45;&gt;Node0</title>
<path fill="none" stroke="orange" d="M336.377,-534.606C331.496,-522.89 326.17,-510.109 321.024,-497.758"/>
<polygon fill="orange" stroke="orange" points="333.282,-536.278 340.359,-544.163 339.744,-533.586 333.282,-536.278"/>
<text text-anchor="middle" x="337.5" y="-518.8" font-family="Helvetica,sans-Serif" font-size="9.00"> A</text>
</g>
<!-- Node5 -->
<g id="node6" class="node"><title>Node5</title>
<g id="a_node6"><a xlink:href="../../d1/de8/classde_1_1tu__clausthal_1_1in_1_1mec_1_1modeling_1_1model_1_1erd_1_1CRelationship.htm" target="_top" xlink:title="The relationships between the entities describe their behavior to each other. ">
<polygon fill="none" stroke="black" points="185,-0.5 185,-164.5 406,-164.5 406,-0.5 185,-0.5"/>
<text text-anchor="start" x="193" y="-153.3" font-family="Helvetica,sans-Serif" font-size="9.00">de.tu_clausthal.in.mec.modeling.model.erd.</text>
<text text-anchor="middle" x="295.5" y="-143.3" font-family="Helvetica,sans-Serif" font-size="9.00">CRelationship</text>
<polyline fill="none" stroke="black" points="185,-136.5 406,-136.5 "/>
<text text-anchor="start" x="193" y="-125.3" font-family="Helvetica,sans-Serif" font-size="9.00">&#45; m_attributes</text>
<text text-anchor="start" x="193" y="-115.3" font-family="Helvetica,sans-Serif" font-size="9.00">&#45; m_description</text>
<text text-anchor="start" x="193" y="-105.3" font-family="Helvetica,sans-Serif" font-size="9.00">&#45; m_entityone</text>
<text text-anchor="start" x="193" y="-95.3" font-family="Helvetica,sans-Serif" font-size="9.00">&#45; m_entitytwo</text>
<polyline fill="none" stroke="black" points="185,-88.5 406,-88.5 "/>
<text text-anchor="start" x="193" y="-77.3" font-family="Helvetica,sans-Serif" font-size="9.00">+ connectEntity()</text>
<text text-anchor="start" x="193" y="-67.3" font-family="Helvetica,sans-Serif" font-size="9.00">+ createAttribute()</text>
<text text-anchor="start" x="193" y="-57.3" font-family="Helvetica,sans-Serif" font-size="9.00">+ getConnectedAttributes()</text>
<text text-anchor="start" x="193" y="-47.3" font-family="Helvetica,sans-Serif" font-size="9.00">+ getConnectedEntities()</text>
<text text-anchor="start" x="193" y="-37.3" font-family="Helvetica,sans-Serif" font-size="9.00">+ getDescription()</text>
<text text-anchor="start" x="193" y="-27.3" font-family="Helvetica,sans-Serif" font-size="9.00">+ isRecursive()</text>
<text text-anchor="start" x="193" y="-17.3" font-family="Helvetica,sans-Serif" font-size="9.00">+ isWeakRelationship()</text>
<text text-anchor="start" x="193" y="-7.3" font-family="Helvetica,sans-Serif" font-size="9.00">~ CRelationship()</text>
</a>
</g>
</g>
<!-- Node4&#45;&gt;Node5 -->
<g id="edge5" class="edge"><title>Node4&#45;&gt;Node5</title>
<path fill="none" stroke="midnightblue" d="M295.5,-192.206C295.5,-183.139 295.5,-173.807 295.5,-164.601"/>
<polygon fill="none" stroke="midnightblue" points="292,-192.309 295.5,-202.309 299,-192.309 292,-192.309"/>
</g>
</g>
</svg>
