<?xml version="1.0" encoding="UTF-8" standalone="no"?>
<!DOCTYPE svg PUBLIC "-//W3C//DTD SVG 1.1//EN"
 "http://www.w3.org/Graphics/SVG/1.1/DTD/svg11.dtd">
<!-- Generated by graphviz version 2.38.0 (20140413.2041)
 -->
<!-- Title: de.tu_clausthal.in.mec.modeling.model.erd.IEntity&lt; A extends IAttribute &gt; Pages: 1 -->
<svg width="474pt" height="599pt"
 viewBox="0.00 0.00 474.00 599.00" xmlns="http://www.w3.org/2000/svg" xmlns:xlink="http://www.w3.org/1999/xlink">
<g id="graph0" class="graph" transform="scale(1 1) rotate(0) translate(4 595)">
<title>de.tu_clausthal.in.mec.modeling.model.erd.IEntity&lt; A extends IAttribute &gt;</title>
<!-- Node0 -->
<g id="node1" class="node"><title>Node0</title>
<polygon fill="#bfbfbf" stroke="black" points="185,-273.5 185,-357.5 406,-357.5 406,-273.5 185,-273.5"/>
<text text-anchor="start" x="193" y="-346.3" font-family="Helvetica,sans-Serif" font-size="9.00">de.tu_clausthal.in.mec.modeling.model.erd.</text>
<text text-anchor="middle" x="295.5" y="-336.3" font-family="Helvetica,sans-Serif" font-size="9.00">IEntity&lt; A extends IAttribute &gt;</text>
<polyline fill="none" stroke="black" points="185,-329.5 406,-329.5 "/>
<text text-anchor="middle" x="295.5" y="-318.3" font-family="Helvetica,sans-Serif" font-size="9.00"> </text>
<polyline fill="none" stroke="black" points="185,-311.5 406,-311.5 "/>
<text text-anchor="start" x="193" y="-300.3" font-family="Helvetica,sans-Serif" font-size="9.00">+ createAttribute()</text>
<text text-anchor="start" x="193" y="-290.3" font-family="Helvetica,sans-Serif" font-size="9.00">+ getConnectedAttributes()</text>
<text text-anchor="start" x="193" y="-280.3" font-family="Helvetica,sans-Serif" font-size="9.00">+ isWeakEntity()</text>
</g>
<!-- Node4 -->
<g id="node5" class="node"><title>Node4</title>
<g id="a_node5"><a xlink:href="../../d9/deb/interfacede_1_1tu__clausthal_1_1in_1_1mec_1_1modeling_1_1model_1_1erd_1_1IEntity.htm" target="_top" xlink:title="{de.tu_clausthal.in.mec.modeling.model.erd.\lIEntity\&lt; IAttribute \&gt;\n||+ createAttribute()\l+ getConnectedAttributes()\l+ isWeakEntity()\l}">
<polygon fill="none" stroke="black" points="185,-142.5 185,-226.5 406,-226.5 406,-142.5 185,-142.5"/>
<text text-anchor="start" x="193" y="-215.3" font-family="Helvetica,sans-Serif" font-size="9.00">de.tu_clausthal.in.mec.modeling.model.erd.</text>
<text text-anchor="middle" x="295.5" y="-205.3" font-family="Helvetica,sans-Serif" font-size="9.00">IEntity&lt; IAttribute &gt;</text>
<polyline fill="none" stroke="black" points="185,-198.5 406,-198.5 "/>
<text text-anchor="middle" x="295.5" y="-187.3" font-family="Helvetica,sans-Serif" font-size="9.00"> </text>
<polyline fill="none" stroke="black" points="185,-180.5 406,-180.5 "/>
<text text-anchor="start" x="193" y="-169.3" font-family="Helvetica,sans-Serif" font-size="9.00">+ createAttribute()</text>
<text text-anchor="start" x="193" y="-159.3" font-family="Helvetica,sans-Serif" font-size="9.00">+ getConnectedAttributes()</text>
<text text-anchor="start" x="193" y="-149.3" font-family="Helvetica,sans-Serif" font-size="9.00">+ isWeakEntity()</text>
</a>
</g>
</g>
<!-- Node0&#45;&gt;Node4 -->
<g id="edge4" class="edge"><title>Node0&#45;&gt;Node4</title>
<path fill="none" stroke="orange" d="M295.5,-263.319C295.5,-251.17 295.5,-238.362 295.5,-226.722"/>
<polygon fill="orange" stroke="orange" points="292,-263.329 295.5,-273.329 299,-263.329 292,-263.329"/>
<text text-anchor="middle" x="329.5" y="-247.8" font-family="Helvetica,sans-Serif" font-size="9.00"> &lt; IAttribute &gt;</text>
</g>
<!-- Node1 -->
<g id="node2" class="node"><title>Node1</title>
<g id="a_node2"><a xlink:href="../../d4/d3e/interfacede_1_1tu__clausthal_1_1in_1_1mec_1_1modeling_1_1model_1_1erd_1_1IErdNode.htm" target="_top" xlink:title="An node for the graphical ERD model. ">
<polygon fill="none" stroke="black" points="6,-409.5 6,-473.5 227,-473.5 227,-409.5 6,-409.5"/>
<text text-anchor="start" x="14" y="-462.3" font-family="Helvetica,sans-Serif" font-size="9.00">de.tu_clausthal.in.mec.modeling.model.erd.</text>
<text text-anchor="middle" x="116.5" y="-452.3" font-family="Helvetica,sans-Serif" font-size="9.00">IErdNode</text>
<polyline fill="none" stroke="black" points="6,-445.5 227,-445.5 "/>
<text text-anchor="middle" x="116.5" y="-434.3" font-family="Helvetica,sans-Serif" font-size="9.00"> </text>
<polyline fill="none" stroke="black" points="6,-427.5 227,-427.5 "/>
<text text-anchor="middle" x="116.5" y="-416.3" font-family="Helvetica,sans-Serif" font-size="9.00"> </text>
</a>
</g>
</g>
<!-- Node1&#45;&gt;Node0 -->
<g id="edge1" class="edge"><title>Node1&#45;&gt;Node0</title>
<path fill="none" stroke="midnightblue" d="M170.078,-403.384C190.886,-388.97 214.8,-372.404 236.129,-357.629"/>
<polygon fill="none" stroke="midnightblue" points="167.896,-400.638 161.669,-409.21 171.883,-406.392 167.896,-400.638"/>
</g>
<!-- Node2 -->
<g id="node3" class="node"><title>Node2</title>
<g id="a_node3"><a xlink:href="../../d4/db2/interfacede_1_1tu__clausthal_1_1in_1_1mec_1_1modeling_1_1model_1_1graph_1_1INode.htm" target="_top" xlink:title="node interface ">
<polygon fill="none" stroke="black" points="0,-516.5 0,-590.5 233,-590.5 233,-516.5 0,-516.5"/>
<text text-anchor="start" x="8" y="-579.3" font-family="Helvetica,sans-Serif" font-size="9.00">de.tu_clausthal.in.mec.modeling.model.graph.</text>
<text text-anchor="middle" x="116.5" y="-569.3" font-family="Helvetica,sans-Serif" font-size="9.00">INode</text>
<polyline fill="none" stroke="black" points="0,-562.5 233,-562.5 "/>
<text text-anchor="middle" x="116.5" y="-551.3" font-family="Helvetica,sans-Serif" font-size="9.00"> </text>
<polyline fill="none" stroke="black" points="0,-544.5 233,-544.5 "/>
<text text-anchor="start" x="8" y="-533.3" font-family="Helvetica,sans-Serif" font-size="9.00">+ id()</text>
<text text-anchor="start" x="8" y="-523.3" font-family="Helvetica,sans-Serif" font-size="9.00">+ raw()</text>
</a>
</g>
</g>
<!-- Node2&#45;&gt;Node1 -->
<g id="edge2" class="edge"><title>Node2&#45;&gt;Node1</title>
<path fill="none" stroke="midnightblue" d="M116.5,-506.206C116.5,-495.276 116.5,-483.876 116.5,-473.792"/>
<polygon fill="none" stroke="midnightblue" points="113,-506.482 116.5,-516.482 120,-506.482 113,-506.482"/>
</g>
<!-- Node3 -->
<g id="node4" class="node"><title>Node3</title>
<g id="a_node4"><a xlink:href="../../df/ddc/interfacede_1_1tu__clausthal_1_1in_1_1mec_1_1modeling_1_1model_1_1erd_1_1IAttribute.htm" target="_top" xlink:title="A simple attribute that can be assigned in an ERD to an entity or relationship. ">
<polygon fill="none" stroke="black" points="245,-404.5 245,-478.5 466,-478.5 466,-404.5 245,-404.5"/>
<text text-anchor="start" x="253" y="-467.3" font-family="Helvetica,sans-Serif" font-size="9.00">de.tu_clausthal.in.mec.modeling.model.erd.</text>
<text text-anchor="middle" x="355.5" y="-457.3" font-family="Helvetica,sans-Serif" font-size="9.00">IAttribute</text>
<polyline fill="none" stroke="black" points="245,-450.5 466,-450.5 "/>
<text text-anchor="middle" x="355.5" y="-439.3" font-family="Helvetica,sans-Serif" font-size="9.00"> </text>
<polyline fill="none" stroke="black" points="245,-432.5 466,-432.5 "/>
<text text-anchor="start" x="253" y="-421.3" font-family="Helvetica,sans-Serif" font-size="9.00">+ attributeName()</text>
<text text-anchor="start" x="253" y="-411.3" font-family="Helvetica,sans-Serif" font-size="9.00">+ getProperty()</text>
</a>
</g>
</g>
<!-- Node3&#45;&gt;Node0 -->
<g id="edge3" class="edge"><title>Node3&#45;&gt;Node0</title>
<path fill="none" stroke="orange" d="M333.562,-395.162C327.643,-382.928 321.27,-369.759 315.465,-357.761"/>
<polygon fill="orange" stroke="orange" points="330.478,-396.824 337.984,-404.301 336.779,-393.775 330.478,-396.824"/>
<text text-anchor="middle" x="333.5" y="-378.8" font-family="Helvetica,sans-Serif" font-size="9.00"> A</text>
</g>
<!-- Node5 -->
<g id="node6" class="node"><title>Node5</title>
<g id="a_node6"><a xlink:href="../../d6/d74/classde_1_1tu__clausthal_1_1in_1_1mec_1_1modeling_1_1model_1_1erd_1_1CEntity.htm" target="_top" xlink:title="An entity is the description of an object, which is specified more precisely by attributes. ">
<polygon fill="none" stroke="black" points="185,-0.5 185,-104.5 406,-104.5 406,-0.5 185,-0.5"/>
<text text-anchor="start" x="193" y="-93.3" font-family="Helvetica,sans-Serif" font-size="9.00">de.tu_clausthal.in.mec.modeling.model.erd.</text>
<text text-anchor="middle" x="295.5" y="-83.3" font-family="Helvetica,sans-Serif" font-size="9.00">CEntity</text>
<polyline fill="none" stroke="black" points="185,-76.5 406,-76.5 "/>
<text text-anchor="start" x="193" y="-65.3" font-family="Helvetica,sans-Serif" font-size="9.00">&#45; m_attributes</text>
<text text-anchor="start" x="193" y="-55.3" font-family="Helvetica,sans-Serif" font-size="9.00">&#45; m_weakentity</text>
<polyline fill="none" stroke="black" points="185,-48.5 406,-48.5 "/>
<text text-anchor="start" x="193" y="-37.3" font-family="Helvetica,sans-Serif" font-size="9.00">+ createAttribute()</text>
<text text-anchor="start" x="193" y="-27.3" font-family="Helvetica,sans-Serif" font-size="9.00">+ getConnectedAttributes()</text>
<text text-anchor="start" x="193" y="-17.3" font-family="Helvetica,sans-Serif" font-size="9.00">+ isWeakEntity()</text>
<text text-anchor="start" x="193" y="-7.3" font-family="Helvetica,sans-Serif" font-size="9.00">~ CEntity()</text>
</a>
</g>
</g>
<!-- Node4&#45;&gt;Node5 -->
<g id="edge5" class="edge"><title>Node4&#45;&gt;Node5</title>
<path fill="none" stroke="midnightblue" d="M295.5,-132.365C295.5,-123.331 295.5,-113.921 295.5,-104.879"/>
<polygon fill="none" stroke="midnightblue" points="292,-132.367 295.5,-142.367 299,-132.367 292,-132.367"/>
</g>
</g>
</svg>
