<?xml version="1.0" encoding="UTF-8" standalone="no"?>
<!DOCTYPE svg PUBLIC "-//W3C//DTD SVG 1.1//EN"
 "http://www.w3.org/Graphics/SVG/1.1/DTD/svg11.dtd">
<!-- Generated by graphviz version 2.38.0 (20140413.2041)
 -->
<!-- Title: de.tu_clausthal.in.mec.modeling.model.erd.IInheritRelationship&lt; A extends IAttribute &gt; Pages: 1 -->
<svg width="474pt" height="356pt"
 viewBox="0.00 0.00 474.00 356.00" xmlns="http://www.w3.org/2000/svg" xmlns:xlink="http://www.w3.org/1999/xlink">
<g id="graph0" class="graph" transform="scale(1 1) rotate(0) translate(4 352)">
<title>de.tu_clausthal.in.mec.modeling.model.erd.IInheritRelationship&lt; A extends IAttribute &gt;</title>
<!-- Node6 -->
<g id="node1" class="node"><title>Node6</title>
<polygon fill="#bfbfbf" stroke="black" points="185,-0.5 185,-114.5 406,-114.5 406,-0.5 185,-0.5"/>
<text text-anchor="start" x="193" y="-103.3" font-family="Helvetica,sans-Serif" font-size="9.00">de.tu_clausthal.in.mec.modeling.model.erd.</text>
<text text-anchor="start" x="193" y="-93.3" font-family="Helvetica,sans-Serif" font-size="9.00">IInheritRelationship&lt; A extends</text>
<text text-anchor="middle" x="295.5" y="-83.3" font-family="Helvetica,sans-Serif" font-size="9.00"> IAttribute &gt;</text>
<polyline fill="none" stroke="black" points="185,-76.5 406,-76.5 "/>
<text text-anchor="middle" x="295.5" y="-65.3" font-family="Helvetica,sans-Serif" font-size="9.00"> </text>
<polyline fill="none" stroke="black" points="185,-58.5 406,-58.5 "/>
<text text-anchor="start" x="193" y="-47.3" font-family="Helvetica,sans-Serif" font-size="9.00">+ connectChildEntity()</text>
<text text-anchor="start" x="193" y="-37.3" font-family="Helvetica,sans-Serif" font-size="9.00">+ getChildEntities()</text>
<text text-anchor="start" x="193" y="-27.3" font-family="Helvetica,sans-Serif" font-size="9.00">+ getParentEntity()</text>
<text text-anchor="start" x="193" y="-17.3" font-family="Helvetica,sans-Serif" font-size="9.00">+ isValidISARelationship()</text>
<text text-anchor="start" x="193" y="-7.3" font-family="Helvetica,sans-Serif" font-size="9.00">+ setParentEntity()</text>
</g>
<!-- Node7 -->
<g id="node2" class="node"><title>Node7</title>
<g id="a_node2"><a xlink:href="../../d4/d3e/interfacede_1_1tu__clausthal_1_1in_1_1mec_1_1modeling_1_1model_1_1erd_1_1IErdNode.htm" target="_top" xlink:title="An node for the graphical ERD model. ">
<polygon fill="none" stroke="black" points="6,-166.5 6,-230.5 227,-230.5 227,-166.5 6,-166.5"/>
<text text-anchor="start" x="14" y="-219.3" font-family="Helvetica,sans-Serif" font-size="9.00">de.tu_clausthal.in.mec.modeling.model.erd.</text>
<text text-anchor="middle" x="116.5" y="-209.3" font-family="Helvetica,sans-Serif" font-size="9.00">IErdNode</text>
<polyline fill="none" stroke="black" points="6,-202.5 227,-202.5 "/>
<text text-anchor="middle" x="116.5" y="-191.3" font-family="Helvetica,sans-Serif" font-size="9.00"> </text>
<polyline fill="none" stroke="black" points="6,-184.5 227,-184.5 "/>
<text text-anchor="middle" x="116.5" y="-173.3" font-family="Helvetica,sans-Serif" font-size="9.00"> </text>
</a>
</g>
</g>
<!-- Node7&#45;&gt;Node6 -->
<g id="edge1" class="edge"><title>Node7&#45;&gt;Node6</title>
<path fill="none" stroke="midnightblue" d="M164.703,-160.069C182.648,-146.133 203.431,-129.995 223.075,-114.741"/>
<polygon fill="none" stroke="midnightblue" points="162.423,-157.408 156.671,-166.306 166.716,-162.937 162.423,-157.408"/>
</g>
<!-- Node8 -->
<g id="node3" class="node"><title>Node8</title>
<g id="a_node3"><a xlink:href="../../d4/db2/interfacede_1_1tu__clausthal_1_1in_1_1mec_1_1modeling_1_1model_1_1graph_1_1INode.htm" target="_top" xlink:title="node interface ">
<polygon fill="none" stroke="black" points="0,-273.5 0,-347.5 233,-347.5 233,-273.5 0,-273.5"/>
<text text-anchor="start" x="8" y="-336.3" font-family="Helvetica,sans-Serif" font-size="9.00">de.tu_clausthal.in.mec.modeling.model.graph.</text>
<text text-anchor="middle" x="116.5" y="-326.3" font-family="Helvetica,sans-Serif" font-size="9.00">INode</text>
<polyline fill="none" stroke="black" points="0,-319.5 233,-319.5 "/>
<text text-anchor="middle" x="116.5" y="-308.3" font-family="Helvetica,sans-Serif" font-size="9.00"> </text>
<polyline fill="none" stroke="black" points="0,-301.5 233,-301.5 "/>
<text text-anchor="start" x="8" y="-290.3" font-family="Helvetica,sans-Serif" font-size="9.00">+ id()</text>
<text text-anchor="start" x="8" y="-280.3" font-family="Helvetica,sans-Serif" font-size="9.00">+ raw()</text>
</a>
</g>
</g>
<!-- Node8&#45;&gt;Node7 -->
<g id="edge2" class="edge"><title>Node8&#45;&gt;Node7</title>
<path fill="none" stroke="midnightblue" d="M116.5,-263.206C116.5,-252.276 116.5,-240.876 116.5,-230.792"/>
<polygon fill="none" stroke="midnightblue" points="113,-263.482 116.5,-273.482 120,-263.482 113,-263.482"/>
</g>
<!-- Node9 -->
<g id="node4" class="node"><title>Node9</title>
<g id="a_node4"><a xlink:href="../../df/ddc/interfacede_1_1tu__clausthal_1_1in_1_1mec_1_1modeling_1_1model_1_1erd_1_1IAttribute.htm" target="_top" xlink:title="A simple attribute that can be assigned in an ERD to an entity or relationship. ">
<polygon fill="none" stroke="black" points="245,-161.5 245,-235.5 466,-235.5 466,-161.5 245,-161.5"/>
<text text-anchor="start" x="253" y="-224.3" font-family="Helvetica,sans-Serif" font-size="9.00">de.tu_clausthal.in.mec.modeling.model.erd.</text>
<text text-anchor="middle" x="355.5" y="-214.3" font-family="Helvetica,sans-Serif" font-size="9.00">IAttribute</text>
<polyline fill="none" stroke="black" points="245,-207.5 466,-207.5 "/>
<text text-anchor="middle" x="355.5" y="-196.3" font-family="Helvetica,sans-Serif" font-size="9.00"> </text>
<polyline fill="none" stroke="black" points="245,-189.5 466,-189.5 "/>
<text text-anchor="start" x="253" y="-178.3" font-family="Helvetica,sans-Serif" font-size="9.00">+ attributeName()</text>
<text text-anchor="start" x="253" y="-168.3" font-family="Helvetica,sans-Serif" font-size="9.00">+ getProperty()</text>
</a>
</g>
</g>
<!-- Node9&#45;&gt;Node6 -->
<g id="edge3" class="edge"><title>Node9&#45;&gt;Node6</title>
<path fill="none" stroke="orange" d="M335.876,-152.038C330.726,-140.108 325.112,-127.1 319.751,-114.682"/>
<polygon fill="orange" stroke="orange" points="332.716,-153.548 339.892,-161.342 339.143,-150.774 332.716,-153.548"/>
<text text-anchor="middle" x="335.5" y="-135.8" font-family="Helvetica,sans-Serif" font-size="9.00"> A</text>
</g>
</g>
</svg>
