<?xml version="1.0" encoding="UTF-8" standalone="no"?>
<!DOCTYPE svg PUBLIC "-//W3C//DTD SVG 1.1//EN"
 "http://www.w3.org/Graphics/SVG/1.1/DTD/svg11.dtd">
<!-- Generated by graphviz version 2.38.0 (20140413.2041)
 -->
<!-- Title: de.tu_clausthal.in.mec.modeling.model.erd.IErd.checkResult Pages: 1 -->
<svg width="483pt" height="131pt"
 viewBox="0.00 0.00 483.00 131.00" xmlns="http://www.w3.org/2000/svg" xmlns:xlink="http://www.w3.org/1999/xlink">
<g id="graph0" class="graph" transform="scale(1 1) rotate(0) translate(4 127)">
<title>de.tu_clausthal.in.mec.modeling.model.erd.IErd.checkResult</title>
<!-- Node58 -->
<g id="node1" class="node"><title>Node58</title>
<polygon fill="#bfbfbf" stroke="black" points="0,-47.5 0,-75.5 221,-75.5 221,-47.5 0,-47.5"/>
<text text-anchor="start" x="8" y="-64.3" font-family="Helvetica,sans-Serif" font-size="9.00">de.tu_clausthal.in.mec.modeling.model.erd.</text>
<text text-anchor="middle" x="110.5" y="-54.3" font-family="Helvetica,sans-Serif" font-size="9.00">IErd.checkResult</text>
</g>
<!-- Node59 -->
<g id="node2" class="node"><title>Node59</title>
<g id="a_node2"><a xlink:href="../../de/d9d/classde_1_1tu__clausthal_1_1in_1_1mec_1_1modeling_1_1erd_1_1TestCErdModel.htm#ab9641692484acf09e1e20b7f3b0a6ab9" target="_top" xlink:title="check if the validator recognize the wrong model model description: only one entity and relationship ...">
<polygon fill="none" stroke="black" points="271,-94.5 271,-122.5 461,-122.5 461,-94.5 271,-94.5"/>
<text text-anchor="start" x="279" y="-111.3" font-family="Helvetica,sans-Serif" font-size="9.00">de.tu_clausthal.in.mec.modeling.erd.</text>
<text text-anchor="middle" x="366" y="-101.3" font-family="Helvetica,sans-Serif" font-size="9.00">TestCErdModel.nonValidModelT1</text>
</a>
</g>
</g>
<!-- Node58&#45;&gt;Node59 -->
<g id="edge1" class="edge"><title>Node58&#45;&gt;Node59</title>
<path fill="none" stroke="midnightblue" d="M197.192,-77.3876C227.027,-82.9192 260.265,-89.0816 289.237,-94.4533"/>
<polygon fill="midnightblue" stroke="midnightblue" points="197.685,-73.9196 187.215,-75.5379 196.409,-80.8023 197.685,-73.9196"/>
</g>
<!-- Node60 -->
<g id="node3" class="node"><title>Node60</title>
<g id="a_node3"><a xlink:href="../../de/d9d/classde_1_1tu__clausthal_1_1in_1_1mec_1_1modeling_1_1erd_1_1TestCErdModel.htm#ab002a82dfb9ba8ede6e6fe5127338bc7" target="_top" xlink:title="check if the validator recognize the wrong model model description: one entity is connected to a is&#45;a...">
<polygon fill="none" stroke="black" points="271,-47.5 271,-75.5 461,-75.5 461,-47.5 271,-47.5"/>
<text text-anchor="start" x="279" y="-64.3" font-family="Helvetica,sans-Serif" font-size="9.00">de.tu_clausthal.in.mec.modeling.erd.</text>
<text text-anchor="middle" x="366" y="-54.3" font-family="Helvetica,sans-Serif" font-size="9.00">TestCErdModel.nonValidModelT2</text>
</a>
</g>
</g>
<!-- Node58&#45;&gt;Node60 -->
<g id="edge2" class="edge"><title>Node58&#45;&gt;Node60</title>
<path fill="none" stroke="midnightblue" d="M231.283,-61.5C244.487,-61.5 257.793,-61.5 270.624,-61.5"/>
<polygon fill="midnightblue" stroke="midnightblue" points="231.214,-58.0001 221.214,-61.5 231.214,-65.0001 231.214,-58.0001"/>
</g>
<!-- Node61 -->
<g id="node4" class="node"><title>Node61</title>
<g id="a_node4"><a xlink:href="../../dd/d3a/classde_1_1tu__clausthal_1_1in_1_1mec_1_1modeling_1_1controller_1_1CErdController.htm#a74d29accf38d41ac5966762d457c58f7" target="_top" xlink:title="check existing model ">
<polygon fill="none" stroke="black" points="257,-0.5 257,-28.5 475,-28.5 475,-0.5 257,-0.5"/>
<text text-anchor="start" x="265" y="-17.3" font-family="Helvetica,sans-Serif" font-size="9.00">de.tu_clausthal.in.mec.modeling.controller.</text>
<text text-anchor="middle" x="366" y="-7.3" font-family="Helvetica,sans-Serif" font-size="9.00">CErdController.validateModel</text>
</a>
</g>
</g>
<!-- Node58&#45;&gt;Node61 -->
<g id="edge3" class="edge"><title>Node58&#45;&gt;Node61</title>
<path fill="none" stroke="midnightblue" d="M197.192,-45.6124C227.027,-40.0808 260.265,-33.9184 289.237,-28.5467"/>
<polygon fill="midnightblue" stroke="midnightblue" points="196.409,-42.1977 187.215,-47.4621 197.685,-49.0804 196.409,-42.1977"/>
</g>
</g>
</svg>
