<?xml version="1.0" encoding="UTF-8" standalone="no"?>
<!DOCTYPE svg PUBLIC "-//W3C//DTD SVG 1.1//EN"
 "http://www.w3.org/Graphics/SVG/1.1/DTD/svg11.dtd">
<!-- Generated by graphviz version 2.38.0 (20140413.2041)
 -->
<!-- Title: de.tu_clausthal.in.mec.modeling.model.erd.IErd.connectEntityWithRelationship Pages: 1 -->
<svg width="791pt" height="366pt"
 viewBox="0.00 0.00 791.00 366.00" xmlns="http://www.w3.org/2000/svg" xmlns:xlink="http://www.w3.org/1999/xlink">
<g id="graph0" class="graph" transform="scale(1 1) rotate(0) translate(4 362)">
<title>de.tu_clausthal.in.mec.modeling.model.erd.IErd.connectEntityWithRelationship</title>
<!-- Node70 -->
<g id="node1" class="node"><title>Node70</title>
<polygon fill="#bfbfbf" stroke="black" points="0,-164.5 0,-192.5 221,-192.5 221,-164.5 0,-164.5"/>
<text text-anchor="start" x="8" y="-181.3" font-family="Helvetica,sans-Serif" font-size="9.00">de.tu_clausthal.in.mec.modeling.model.erd.</text>
<text text-anchor="middle" x="110.5" y="-171.3" font-family="Helvetica,sans-Serif" font-size="9.00">IErd.connectEntityWithRelationship</text>
</g>
<!-- Node71 -->
<g id="node2" class="node"><title>Node71</title>
<g id="a_node2"><a xlink:href="../../d7/dc0/classde_1_1tu__clausthal_1_1in_1_1mec_1_1modeling_1_1deserializer_1_1erd_1_1CConnectionDeserializer.htm#a538279fe5e7d513cbc7728b6b2ca9344" target="_top" xlink:title="de.tu_clausthal.in.mec.modeling.deserializer.erd.\lCConnectionDeserializer.deserialize">
<polygon fill="none" stroke="black" points="257,-329.5 257,-357.5 502,-357.5 502,-329.5 257,-329.5"/>
<text text-anchor="start" x="265" y="-346.3" font-family="Helvetica,sans-Serif" font-size="9.00">de.tu_clausthal.in.mec.modeling.deserializer.erd.</text>
<text text-anchor="middle" x="379.5" y="-336.3" font-family="Helvetica,sans-Serif" font-size="9.00">CConnectionDeserializer.deserialize</text>
</a>
</g>
</g>
<!-- Node70&#45;&gt;Node71 -->
<g id="edge1" class="edge"><title>Node70&#45;&gt;Node71</title>
<path fill="none" stroke="midnightblue" d="M127.429,-200.817C151.571,-232.827 200.628,-291.141 257,-320.5 263.664,-323.971 270.777,-326.922 278.092,-329.432"/>
<polygon fill="midnightblue" stroke="midnightblue" points="130.059,-198.487 121.296,-192.533 124.433,-202.652 130.059,-198.487"/>
</g>
<!-- Node72 -->
<g id="node3" class="node"><title>Node72</title>
<g id="a_node3"><a xlink:href="../../d7/d36/classde_1_1tu__clausthal_1_1in_1_1mec_1_1modeling_1_1deserializer_1_1erd_1_1CModelDeserializer.htm#aeb20f93baef323c8501783968645d68a" target="_top" xlink:title="de.tu_clausthal.in.mec.modeling.deserializer.erd.\lCModelDeserializer.deserializeConnections">
<polygon fill="none" stroke="black" points="257,-282.5 257,-310.5 502,-310.5 502,-282.5 257,-282.5"/>
<text text-anchor="start" x="265" y="-299.3" font-family="Helvetica,sans-Serif" font-size="9.00">de.tu_clausthal.in.mec.modeling.deserializer.erd.</text>
<text text-anchor="middle" x="379.5" y="-289.3" font-family="Helvetica,sans-Serif" font-size="9.00">CModelDeserializer.deserializeConnections</text>
</a>
</g>
</g>
<!-- Node70&#45;&gt;Node72 -->
<g id="edge2" class="edge"><title>Node70&#45;&gt;Node72</title>
<path fill="none" stroke="midnightblue" d="M136.112,-198.956C163.764,-220.844 210.842,-254.916 257,-273.5 265.663,-276.988 274.89,-279.954 284.239,-282.476"/>
<polygon fill="midnightblue" stroke="midnightblue" points="138.166,-196.116 128.177,-192.584 133.783,-201.574 138.166,-196.116"/>
</g>
<!-- Node74 -->
<g id="node5" class="node"><title>Node74</title>
<g id="a_node5"><a xlink:href="../../de/d9d/classde_1_1tu__clausthal_1_1in_1_1mec_1_1modeling_1_1erd_1_1TestCErdModel.htm#a3fc89f049a4164242ff02ccc268f52a4" target="_top" xlink:title="check if the validator recognize the model with the is&#45;a relationship which is correct set ...">
<polygon fill="none" stroke="black" points="284.5,-235.5 284.5,-263.5 474.5,-263.5 474.5,-235.5 284.5,-235.5"/>
<text text-anchor="start" x="292.5" y="-252.3" font-family="Helvetica,sans-Serif" font-size="9.00">de.tu_clausthal.in.mec.modeling.erd.</text>
<text text-anchor="middle" x="379.5" y="-242.3" font-family="Helvetica,sans-Serif" font-size="9.00">TestCErdModel.isaRelationshipTest</text>
</a>
</g>
</g>
<!-- Node70&#45;&gt;Node74 -->
<g id="edge4" class="edge"><title>Node70&#45;&gt;Node74</title>
<path fill="none" stroke="midnightblue" d="M158.992,-195.924C187.198,-205.829 223.826,-217.928 257,-226.5 269.679,-229.776 283.215,-232.797 296.478,-235.498"/>
<polygon fill="midnightblue" stroke="midnightblue" points="159.98,-192.561 149.385,-192.521 157.643,-199.159 159.98,-192.561"/>
</g>
<!-- Node75 -->
<g id="node6" class="node"><title>Node75</title>
<g id="a_node6"><a xlink:href="../../de/d9d/classde_1_1tu__clausthal_1_1in_1_1mec_1_1modeling_1_1erd_1_1TestCErdModel.htm#a8226126b8aa6ebd6290c23cfc5fe9daf" target="_top" xlink:title="create minimal model with 2 entities and one relationship ">
<polygon fill="none" stroke="black" points="284.5,-188.5 284.5,-216.5 474.5,-216.5 474.5,-188.5 284.5,-188.5"/>
<text text-anchor="start" x="292.5" y="-205.3" font-family="Helvetica,sans-Serif" font-size="9.00">de.tu_clausthal.in.mec.modeling.erd.</text>
<text text-anchor="middle" x="379.5" y="-195.3" font-family="Helvetica,sans-Serif" font-size="9.00">TestCErdModel.minimalModel</text>
</a>
</g>
</g>
<!-- Node70&#45;&gt;Node75 -->
<g id="edge5" class="edge"><title>Node70&#45;&gt;Node75</title>
<path fill="none" stroke="midnightblue" d="M231.575,-189.293C249.18,-190.876 267.1,-192.487 284.094,-194.014"/>
<polygon fill="midnightblue" stroke="midnightblue" points="231.528,-185.775 221.255,-188.366 230.901,-192.747 231.528,-185.775"/>
</g>
<!-- Node76 -->
<g id="node7" class="node"><title>Node76</title>
<g id="a_node7"><a xlink:href="../../de/d9d/classde_1_1tu__clausthal_1_1in_1_1mec_1_1modeling_1_1erd_1_1TestCErdModel.htm#abc3d920280d03df48d03662d05a13d50" target="_top" xlink:title="create minimal model with one entity and one recursive relationship ">
<polygon fill="none" stroke="black" points="282,-141.5 282,-169.5 477,-169.5 477,-141.5 282,-141.5"/>
<text text-anchor="start" x="290" y="-158.3" font-family="Helvetica,sans-Serif" font-size="9.00">de.tu_clausthal.in.mec.modeling.erd.</text>
<text text-anchor="middle" x="379.5" y="-148.3" font-family="Helvetica,sans-Serif" font-size="9.00">TestCErdModel.minimalRecursiveModel</text>
</a>
</g>
</g>
<!-- Node70&#45;&gt;Node76 -->
<g id="edge6" class="edge"><title>Node70&#45;&gt;Node76</title>
<path fill="none" stroke="midnightblue" d="M231.694,-168.146C248.535,-166.695 265.661,-165.22 281.986,-163.814"/>
<polygon fill="midnightblue" stroke="midnightblue" points="230.918,-164.7 221.255,-169.045 231.518,-171.674 230.918,-164.7"/>
</g>
<!-- Node77 -->
<g id="node8" class="node"><title>Node77</title>
<g id="a_node8"><a xlink:href="../../de/d9d/classde_1_1tu__clausthal_1_1in_1_1mec_1_1modeling_1_1erd_1_1TestCErdModel.htm#ab9641692484acf09e1e20b7f3b0a6ab9" target="_top" xlink:title="check if the validator recognize the wrong model model description: only one entity and relationship ...">
<polygon fill="none" stroke="black" points="284.5,-94.5 284.5,-122.5 474.5,-122.5 474.5,-94.5 284.5,-94.5"/>
<text text-anchor="start" x="292.5" y="-111.3" font-family="Helvetica,sans-Serif" font-size="9.00">de.tu_clausthal.in.mec.modeling.erd.</text>
<text text-anchor="middle" x="379.5" y="-101.3" font-family="Helvetica,sans-Serif" font-size="9.00">TestCErdModel.nonValidModelT1</text>
</a>
</g>
</g>
<!-- Node70&#45;&gt;Node77 -->
<g id="edge7" class="edge"><title>Node70&#45;&gt;Node77</title>
<path fill="none" stroke="midnightblue" d="M161.15,-161.295C189.09,-151.994 224.744,-140.758 257,-132.5 271.06,-128.901 286.153,-125.531 300.756,-122.52"/>
<polygon fill="midnightblue" stroke="midnightblue" points="159.975,-157.997 151.607,-164.496 162.201,-164.634 159.975,-157.997"/>
</g>
<!-- Node78 -->
<g id="node9" class="node"><title>Node78</title>
<g id="a_node9"><a xlink:href="../../de/d9d/classde_1_1tu__clausthal_1_1in_1_1mec_1_1modeling_1_1erd_1_1TestCErdModel.htm#ab002a82dfb9ba8ede6e6fe5127338bc7" target="_top" xlink:title="check if the validator recognize the wrong model model description: one entity is connected to a is&#45;a...">
<polygon fill="none" stroke="black" points="284.5,-47.5 284.5,-75.5 474.5,-75.5 474.5,-47.5 284.5,-47.5"/>
<text text-anchor="start" x="292.5" y="-64.3" font-family="Helvetica,sans-Serif" font-size="9.00">de.tu_clausthal.in.mec.modeling.erd.</text>
<text text-anchor="middle" x="379.5" y="-54.3" font-family="Helvetica,sans-Serif" font-size="9.00">TestCErdModel.nonValidModelT2</text>
</a>
</g>
</g>
<!-- Node70&#45;&gt;Node78 -->
<g id="edge8" class="edge"><title>Node70&#45;&gt;Node78</title>
<path fill="none" stroke="midnightblue" d="M136.674,-158.211C164.476,-136.849 211.366,-103.826 257,-85.5 266.677,-81.6138 277.048,-78.3388 287.503,-75.5827"/>
<polygon fill="midnightblue" stroke="midnightblue" points="134.42,-155.531 128.682,-164.437 138.722,-161.053 134.42,-155.531"/>
</g>
<!-- Node79 -->
<g id="node10" class="node"><title>Node79</title>
<g id="a_node10"><a xlink:href="../../de/d9d/classde_1_1tu__clausthal_1_1in_1_1mec_1_1modeling_1_1erd_1_1TestCErdModel.htm#a9d28571cc609327e0da32de28fccec24" target="_top" xlink:title="check if the validator accept the weak entity connected to a non weak entity and validate the relatio...">
<polygon fill="none" stroke="black" points="284.5,-0.5 284.5,-28.5 474.5,-28.5 474.5,-0.5 284.5,-0.5"/>
<text text-anchor="start" x="292.5" y="-17.3" font-family="Helvetica,sans-Serif" font-size="9.00">de.tu_clausthal.in.mec.modeling.erd.</text>
<text text-anchor="middle" x="379.5" y="-7.3" font-family="Helvetica,sans-Serif" font-size="9.00">TestCErdModel.weakRelationship</text>
</a>
</g>
</g>
<!-- Node70&#45;&gt;Node79 -->
<g id="edge9" class="edge"><title>Node70&#45;&gt;Node79</title>
<path fill="none" stroke="midnightblue" d="M127.906,-156.078C152.307,-124.496 201.311,-67.5334 257,-38.5 265.58,-34.027 274.897,-30.385 284.428,-27.4201"/>
<polygon fill="midnightblue" stroke="midnightblue" points="124.948,-154.186 121.691,-164.268 130.524,-158.418 124.948,-154.186"/>
</g>
<!-- Node73 -->
<g id="node4" class="node"><title>Node73</title>
<g id="a_node4"><a xlink:href="../../d7/d36/classde_1_1tu__clausthal_1_1in_1_1mec_1_1modeling_1_1deserializer_1_1erd_1_1CModelDeserializer.htm#a1056c3c7e395c3aa4567c2780c4b48e4" target="_top" xlink:title="de.tu_clausthal.in.mec.modeling.deserializer.erd.\lCModelDeserializer.deserialize">
<polygon fill="none" stroke="black" points="538,-282.5 538,-310.5 783,-310.5 783,-282.5 538,-282.5"/>
<text text-anchor="start" x="546" y="-299.3" font-family="Helvetica,sans-Serif" font-size="9.00">de.tu_clausthal.in.mec.modeling.deserializer.erd.</text>
<text text-anchor="middle" x="660.5" y="-289.3" font-family="Helvetica,sans-Serif" font-size="9.00">CModelDeserializer.deserialize</text>
</a>
</g>
</g>
<!-- Node72&#45;&gt;Node73 -->
<g id="edge3" class="edge"><title>Node72&#45;&gt;Node73</title>
<path fill="none" stroke="midnightblue" d="M512.132,-296.5C520.732,-296.5 529.373,-296.5 537.922,-296.5"/>
<polygon fill="midnightblue" stroke="midnightblue" points="512.062,-293 502.062,-296.5 512.062,-300 512.062,-293"/>
</g>
</g>
</svg>
