<?xml version="1.0" encoding="UTF-8" standalone="no"?>
<!DOCTYPE svg PUBLIC "-//W3C//DTD SVG 1.1//EN"
 "http://www.w3.org/Graphics/SVG/1.1/DTD/svg11.dtd">
<!-- Generated by graphviz version 2.38.0 (20140413.2041)
 -->
<!-- Title: de.tu_clausthal.in.mec.modeling.model.erd.IErd.addEntity Pages: 1 -->
<svg width="791pt" height="413pt"
 viewBox="0.00 0.00 791.00 413.00" xmlns="http://www.w3.org/2000/svg" xmlns:xlink="http://www.w3.org/1999/xlink">
<g id="graph0" class="graph" transform="scale(1 1) rotate(0) translate(4 409)">
<title>de.tu_clausthal.in.mec.modeling.model.erd.IErd.addEntity</title>
<!-- Node16 -->
<g id="node1" class="node"><title>Node16</title>
<polygon fill="#bfbfbf" stroke="black" points="0,-188.5 0,-216.5 221,-216.5 221,-188.5 0,-188.5"/>
<text text-anchor="start" x="8" y="-205.3" font-family="Helvetica,sans-Serif" font-size="9.00">de.tu_clausthal.in.mec.modeling.model.erd.</text>
<text text-anchor="middle" x="110.5" y="-195.3" font-family="Helvetica,sans-Serif" font-size="9.00">IErd.addEntity</text>
</g>
<!-- Node17 -->
<g id="node2" class="node"><title>Node17</title>
<g id="a_node2"><a xlink:href="../../d5/d0d/classde_1_1tu__clausthal_1_1in_1_1mec_1_1modeling_1_1deserializer_1_1erd_1_1CEntityDeserializer.htm#a8d59eac96dccce0566e68652346ba253" target="_top" xlink:title="de.tu_clausthal.in.mec.modeling.deserializer.erd.\lCEntityDeserializer.deserialize">
<polygon fill="none" stroke="black" points="257,-376.5 257,-404.5 502,-404.5 502,-376.5 257,-376.5"/>
<text text-anchor="start" x="265" y="-393.3" font-family="Helvetica,sans-Serif" font-size="9.00">de.tu_clausthal.in.mec.modeling.deserializer.erd.</text>
<text text-anchor="middle" x="379.5" y="-383.3" font-family="Helvetica,sans-Serif" font-size="9.00">CEntityDeserializer.deserialize</text>
</a>
</g>
</g>
<!-- Node16&#45;&gt;Node17 -->
<g id="edge1" class="edge"><title>Node16&#45;&gt;Node17</title>
<path fill="none" stroke="midnightblue" d="M124.875,-225.757C147.214,-262.312 195.761,-332.632 257,-367.5 263.063,-370.952 269.545,-373.899 276.242,-376.412"/>
<polygon fill="midnightblue" stroke="midnightblue" points="127.663,-223.599 119.524,-216.816 121.656,-227.194 127.663,-223.599"/>
</g>
<!-- Node18 -->
<g id="node3" class="node"><title>Node18</title>
<g id="a_node3"><a xlink:href="../../d7/d36/classde_1_1tu__clausthal_1_1in_1_1mec_1_1modeling_1_1deserializer_1_1erd_1_1CModelDeserializer.htm#a09204f258b839d4a0ec58f496598d211" target="_top" xlink:title="de.tu_clausthal.in.mec.modeling.deserializer.erd.\lCModelDeserializer.deserializeEntities">
<polygon fill="none" stroke="black" points="257,-329.5 257,-357.5 502,-357.5 502,-329.5 257,-329.5"/>
<text text-anchor="start" x="265" y="-346.3" font-family="Helvetica,sans-Serif" font-size="9.00">de.tu_clausthal.in.mec.modeling.deserializer.erd.</text>
<text text-anchor="middle" x="379.5" y="-336.3" font-family="Helvetica,sans-Serif" font-size="9.00">CModelDeserializer.deserializeEntities</text>
</a>
</g>
</g>
<!-- Node16&#45;&gt;Node18 -->
<g id="edge2" class="edge"><title>Node16&#45;&gt;Node18</title>
<path fill="none" stroke="midnightblue" d="M131.401,-224.236C157.494,-251.299 205.978,-296.837 257,-320.5 264.498,-323.977 272.489,-326.929 280.655,-329.435"/>
<polygon fill="midnightblue" stroke="midnightblue" points="133.77,-221.647 124.348,-216.801 128.691,-226.465 133.77,-221.647"/>
</g>
<!-- Node20 -->
<g id="node5" class="node"><title>Node20</title>
<g id="a_node5"><a xlink:href="../../de/d9d/classde_1_1tu__clausthal_1_1in_1_1mec_1_1modeling_1_1erd_1_1TestCErdModel.htm#a3fc89f049a4164242ff02ccc268f52a4" target="_top" xlink:title="check if the validator recognize the model with the is&#45;a relationship which is correct set ...">
<polygon fill="none" stroke="black" points="284.5,-282.5 284.5,-310.5 474.5,-310.5 474.5,-282.5 284.5,-282.5"/>
<text text-anchor="start" x="292.5" y="-299.3" font-family="Helvetica,sans-Serif" font-size="9.00">de.tu_clausthal.in.mec.modeling.erd.</text>
<text text-anchor="middle" x="379.5" y="-289.3" font-family="Helvetica,sans-Serif" font-size="9.00">TestCErdModel.isaRelationshipTest</text>
</a>
</g>
</g>
<!-- Node16&#45;&gt;Node20 -->
<g id="edge4" class="edge"><title>Node16&#45;&gt;Node20</title>
<path fill="none" stroke="midnightblue" d="M144.184,-221.597C172.994,-237.653 216.561,-260.075 257,-273.5 267.289,-276.916 278.247,-279.879 289.21,-282.435"/>
<polygon fill="midnightblue" stroke="midnightblue" points="145.801,-218.491 135.372,-216.627 142.363,-224.588 145.801,-218.491"/>
</g>
<!-- Node21 -->
<g id="node6" class="node"><title>Node21</title>
<g id="a_node6"><a xlink:href="../../de/d9d/classde_1_1tu__clausthal_1_1in_1_1mec_1_1modeling_1_1erd_1_1TestCErdModel.htm#a8226126b8aa6ebd6290c23cfc5fe9daf" target="_top" xlink:title="create minimal model with 2 entities and one relationship ">
<polygon fill="none" stroke="black" points="284.5,-235.5 284.5,-263.5 474.5,-263.5 474.5,-235.5 284.5,-235.5"/>
<text text-anchor="start" x="292.5" y="-252.3" font-family="Helvetica,sans-Serif" font-size="9.00">de.tu_clausthal.in.mec.modeling.erd.</text>
<text text-anchor="middle" x="379.5" y="-242.3" font-family="Helvetica,sans-Serif" font-size="9.00">TestCErdModel.minimalModel</text>
</a>
</g>
</g>
<!-- Node16&#45;&gt;Node21 -->
<g id="edge5" class="edge"><title>Node16&#45;&gt;Node21</title>
<path fill="none" stroke="midnightblue" d="M201.345,-218.315C232.875,-223.866 268.054,-230.058 298.703,-235.453"/>
<polygon fill="midnightblue" stroke="midnightblue" points="201.703,-214.825 191.247,-216.538 200.489,-221.719 201.703,-214.825"/>
</g>
<!-- Node22 -->
<g id="node7" class="node"><title>Node22</title>
<g id="a_node7"><a xlink:href="../../de/d9d/classde_1_1tu__clausthal_1_1in_1_1mec_1_1modeling_1_1erd_1_1TestCErdModel.htm#a6e492ca7b4ef81f485e948cf9c7bea01" target="_top" xlink:title="check if the validator recognize the model which make no sense, but is syntactically and semantically...">
<polygon fill="none" stroke="black" points="281.5,-188.5 281.5,-216.5 477.5,-216.5 477.5,-188.5 281.5,-188.5"/>
<text text-anchor="start" x="289.5" y="-205.3" font-family="Helvetica,sans-Serif" font-size="9.00">de.tu_clausthal.in.mec.modeling.erd.</text>
<text text-anchor="middle" x="379.5" y="-195.3" font-family="Helvetica,sans-Serif" font-size="9.00">TestCErdModel.minimalModelOneEntity</text>
</a>
</g>
</g>
<!-- Node16&#45;&gt;Node22 -->
<g id="edge6" class="edge"><title>Node16&#45;&gt;Node22</title>
<path fill="none" stroke="midnightblue" d="M231.544,-202.5C248.143,-202.5 265.022,-202.5 281.14,-202.5"/>
<polygon fill="midnightblue" stroke="midnightblue" points="231.255,-199 221.255,-202.5 231.255,-206 231.255,-199"/>
</g>
<!-- Node23 -->
<g id="node8" class="node"><title>Node23</title>
<g id="a_node8"><a xlink:href="../../de/d9d/classde_1_1tu__clausthal_1_1in_1_1mec_1_1modeling_1_1erd_1_1TestCErdModel.htm#abc3d920280d03df48d03662d05a13d50" target="_top" xlink:title="create minimal model with one entity and one recursive relationship ">
<polygon fill="none" stroke="black" points="282,-141.5 282,-169.5 477,-169.5 477,-141.5 282,-141.5"/>
<text text-anchor="start" x="290" y="-158.3" font-family="Helvetica,sans-Serif" font-size="9.00">de.tu_clausthal.in.mec.modeling.erd.</text>
<text text-anchor="middle" x="379.5" y="-148.3" font-family="Helvetica,sans-Serif" font-size="9.00">TestCErdModel.minimalRecursiveModel</text>
</a>
</g>
</g>
<!-- Node16&#45;&gt;Node23 -->
<g id="edge7" class="edge"><title>Node16&#45;&gt;Node23</title>
<path fill="none" stroke="midnightblue" d="M201.345,-186.685C232.875,-181.134 268.054,-174.942 298.703,-169.547"/>
<polygon fill="midnightblue" stroke="midnightblue" points="200.489,-183.281 191.247,-188.462 201.703,-190.175 200.489,-183.281"/>
</g>
<!-- Node24 -->
<g id="node9" class="node"><title>Node24</title>
<g id="a_node9"><a xlink:href="../../de/d9d/classde_1_1tu__clausthal_1_1in_1_1mec_1_1modeling_1_1erd_1_1TestCErdModel.htm#ab9641692484acf09e1e20b7f3b0a6ab9" target="_top" xlink:title="check if the validator recognize the wrong model model description: only one entity and relationship ...">
<polygon fill="none" stroke="black" points="284.5,-94.5 284.5,-122.5 474.5,-122.5 474.5,-94.5 284.5,-94.5"/>
<text text-anchor="start" x="292.5" y="-111.3" font-family="Helvetica,sans-Serif" font-size="9.00">de.tu_clausthal.in.mec.modeling.erd.</text>
<text text-anchor="middle" x="379.5" y="-101.3" font-family="Helvetica,sans-Serif" font-size="9.00">TestCErdModel.nonValidModelT1</text>
</a>
</g>
</g>
<!-- Node16&#45;&gt;Node24 -->
<g id="edge8" class="edge"><title>Node16&#45;&gt;Node24</title>
<path fill="none" stroke="midnightblue" d="M144.763,-183.49C173.615,-167.743 216.926,-145.857 257,-132.5 268.525,-128.659 280.881,-125.344 293.14,-122.511"/>
<polygon fill="midnightblue" stroke="midnightblue" points="142.99,-180.471 135.927,-188.368 146.373,-186.6 142.99,-180.471"/>
</g>
<!-- Node25 -->
<g id="node10" class="node"><title>Node25</title>
<g id="a_node10"><a xlink:href="../../de/d9d/classde_1_1tu__clausthal_1_1in_1_1mec_1_1modeling_1_1erd_1_1TestCErdModel.htm#ab002a82dfb9ba8ede6e6fe5127338bc7" target="_top" xlink:title="check if the validator recognize the wrong model model description: one entity is connected to a is&#45;a...">
<polygon fill="none" stroke="black" points="284.5,-47.5 284.5,-75.5 474.5,-75.5 474.5,-47.5 284.5,-47.5"/>
<text text-anchor="start" x="292.5" y="-64.3" font-family="Helvetica,sans-Serif" font-size="9.00">de.tu_clausthal.in.mec.modeling.erd.</text>
<text text-anchor="middle" x="379.5" y="-54.3" font-family="Helvetica,sans-Serif" font-size="9.00">TestCErdModel.nonValidModelT2</text>
</a>
</g>
</g>
<!-- Node16&#45;&gt;Node25 -->
<g id="edge9" class="edge"><title>Node16&#45;&gt;Node25</title>
<path fill="none" stroke="midnightblue" d="M131.47,-181.016C157.634,-154.256 206.193,-109.179 257,-85.5 265.672,-81.4581 275.001,-78.0961 284.496,-75.2999"/>
<polygon fill="midnightblue" stroke="midnightblue" points="128.807,-178.735 124.395,-188.368 133.851,-183.589 128.807,-178.735"/>
</g>
<!-- Node26 -->
<g id="node11" class="node"><title>Node26</title>
<g id="a_node11"><a xlink:href="../../de/d9d/classde_1_1tu__clausthal_1_1in_1_1mec_1_1modeling_1_1erd_1_1TestCErdModel.htm#a9d28571cc609327e0da32de28fccec24" target="_top" xlink:title="check if the validator accept the weak entity connected to a non weak entity and validate the relatio...">
<polygon fill="none" stroke="black" points="284.5,-0.5 284.5,-28.5 474.5,-28.5 474.5,-0.5 284.5,-0.5"/>
<text text-anchor="start" x="292.5" y="-17.3" font-family="Helvetica,sans-Serif" font-size="9.00">de.tu_clausthal.in.mec.modeling.erd.</text>
<text text-anchor="middle" x="379.5" y="-7.3" font-family="Helvetica,sans-Serif" font-size="9.00">TestCErdModel.weakRelationship</text>
</a>
</g>
</g>
<!-- Node16&#45;&gt;Node26 -->
<g id="edge10" class="edge"><title>Node16&#45;&gt;Node26</title>
<path fill="none" stroke="midnightblue" d="M124.944,-179.44C147.378,-143.186 196.055,-73.3995 257,-38.5 265.49,-33.6385 274.8,-29.7469 284.37,-26.6341"/>
<polygon fill="midnightblue" stroke="midnightblue" points="121.76,-177.942 119.569,-188.308 127.746,-181.571 121.76,-177.942"/>
</g>
<!-- Node19 -->
<g id="node4" class="node"><title>Node19</title>
<g id="a_node4"><a xlink:href="../../d7/d36/classde_1_1tu__clausthal_1_1in_1_1mec_1_1modeling_1_1deserializer_1_1erd_1_1CModelDeserializer.htm#a1056c3c7e395c3aa4567c2780c4b48e4" target="_top" xlink:title="de.tu_clausthal.in.mec.modeling.deserializer.erd.\lCModelDeserializer.deserialize">
<polygon fill="none" stroke="black" points="538,-329.5 538,-357.5 783,-357.5 783,-329.5 538,-329.5"/>
<text text-anchor="start" x="546" y="-346.3" font-family="Helvetica,sans-Serif" font-size="9.00">de.tu_clausthal.in.mec.modeling.deserializer.erd.</text>
<text text-anchor="middle" x="660.5" y="-336.3" font-family="Helvetica,sans-Serif" font-size="9.00">CModelDeserializer.deserialize</text>
</a>
</g>
</g>
<!-- Node18&#45;&gt;Node19 -->
<g id="edge3" class="edge"><title>Node18&#45;&gt;Node19</title>
<path fill="none" stroke="midnightblue" d="M512.132,-343.5C520.732,-343.5 529.373,-343.5 537.922,-343.5"/>
<polygon fill="midnightblue" stroke="midnightblue" points="512.062,-340 502.062,-343.5 512.062,-347 512.062,-340"/>
</g>
</g>
</svg>
