<?xml version="1.0" encoding="UTF-8" standalone="no"?>
<!DOCTYPE svg PUBLIC "-//W3C//DTD SVG 1.1//EN"
 "http://www.w3.org/Graphics/SVG/1.1/DTD/svg11.dtd">
<!-- Generated by graphviz version 2.38.0 (20140413.2041)
 -->
<!-- Title: de.tu_clausthal.in.mec.modeling.model.erd.IErd.connectParentEntityWithISARelationship Pages: 1 -->
<svg width="794pt" height="178pt"
 viewBox="0.00 0.00 794.00 178.00" xmlns="http://www.w3.org/2000/svg" xmlns:xlink="http://www.w3.org/1999/xlink">
<g id="graph0" class="graph" transform="scale(1 1) rotate(0) translate(4 174)">
<title>de.tu_clausthal.in.mec.modeling.model.erd.IErd.connectParentEntityWithISARelationship</title>
<!-- Node81 -->
<g id="node1" class="node"><title>Node81</title>
<polygon fill="#bfbfbf" stroke="black" points="0,-70.5 0,-98.5 224,-98.5 224,-70.5 0,-70.5"/>
<text text-anchor="start" x="8" y="-87.3" font-family="Helvetica,sans-Serif" font-size="9.00">de.tu_clausthal.in.mec.modeling.model.erd.</text>
<text text-anchor="middle" x="112" y="-77.3" font-family="Helvetica,sans-Serif" font-size="9.00">IErd.connectParentEntityWithISARelationship</text>
</g>
<!-- Node82 -->
<g id="node2" class="node"><title>Node82</title>
<g id="a_node2"><a xlink:href="../../dc/d74/classde_1_1tu__clausthal_1_1in_1_1mec_1_1modeling_1_1deserializer_1_1erd_1_1CInheritConnectionDeserializer.htm#a104ac44ac13d78bbaa1603fa7666dbd9" target="_top" xlink:title="de.tu_clausthal.in.mec.modeling.deserializer.erd.\lCInheritConnectionDeserializer.deserialize">
<polygon fill="none" stroke="black" points="260,-141.5 260,-169.5 505,-169.5 505,-141.5 260,-141.5"/>
<text text-anchor="start" x="268" y="-158.3" font-family="Helvetica,sans-Serif" font-size="9.00">de.tu_clausthal.in.mec.modeling.deserializer.erd.</text>
<text text-anchor="middle" x="382.5" y="-148.3" font-family="Helvetica,sans-Serif" font-size="9.00">CInheritConnectionDeserializer.deserialize</text>
</a>
</g>
</g>
<!-- Node81&#45;&gt;Node82 -->
<g id="edge1" class="edge"><title>Node81&#45;&gt;Node82</title>
<path fill="none" stroke="midnightblue" d="M160.996,-101.902C189.499,-111.801 226.504,-123.899 260,-132.5 272.684,-135.757 286.222,-138.768 299.487,-141.465"/>
<polygon fill="midnightblue" stroke="midnightblue" points="161.884,-98.5047 151.289,-98.5022 159.57,-105.111 161.884,-98.5047"/>
</g>
<!-- Node83 -->
<g id="node3" class="node"><title>Node83</title>
<g id="a_node3"><a xlink:href="../../d7/d36/classde_1_1tu__clausthal_1_1in_1_1mec_1_1modeling_1_1deserializer_1_1erd_1_1CModelDeserializer.htm#ac817d552d00b1c44504e170813b9bc69" target="_top" xlink:title="de.tu_clausthal.in.mec.modeling.deserializer.erd.\lCModelDeserializer.deserializeISAConnections">
<polygon fill="none" stroke="black" points="260,-94.5 260,-122.5 505,-122.5 505,-94.5 260,-94.5"/>
<text text-anchor="start" x="268" y="-111.3" font-family="Helvetica,sans-Serif" font-size="9.00">de.tu_clausthal.in.mec.modeling.deserializer.erd.</text>
<text text-anchor="middle" x="382.5" y="-101.3" font-family="Helvetica,sans-Serif" font-size="9.00">CModelDeserializer.deserializeISAConnections</text>
</a>
</g>
</g>
<!-- Node81&#45;&gt;Node83 -->
<g id="edge2" class="edge"><title>Node81&#45;&gt;Node83</title>
<path fill="none" stroke="midnightblue" d="M234.179,-95.3317C242.76,-96.0987 251.413,-96.8721 259.996,-97.6393"/>
<polygon fill="midnightblue" stroke="midnightblue" points="234.419,-91.8393 224.147,-94.435 233.796,-98.8115 234.419,-91.8393"/>
</g>
<!-- Node85 -->
<g id="node5" class="node"><title>Node85</title>
<g id="a_node5"><a xlink:href="../../de/d9d/classde_1_1tu__clausthal_1_1in_1_1mec_1_1modeling_1_1erd_1_1TestCErdModel.htm#a3fc89f049a4164242ff02ccc268f52a4" target="_top" xlink:title="check if the validator recognize the model with the is&#45;a relationship which is correct set ...">
<polygon fill="none" stroke="black" points="287.5,-47.5 287.5,-75.5 477.5,-75.5 477.5,-47.5 287.5,-47.5"/>
<text text-anchor="start" x="295.5" y="-64.3" font-family="Helvetica,sans-Serif" font-size="9.00">de.tu_clausthal.in.mec.modeling.erd.</text>
<text text-anchor="middle" x="382.5" y="-54.3" font-family="Helvetica,sans-Serif" font-size="9.00">TestCErdModel.isaRelationshipTest</text>
</a>
</g>
</g>
<!-- Node81&#45;&gt;Node85 -->
<g id="edge4" class="edge"><title>Node81&#45;&gt;Node85</title>
<path fill="none" stroke="midnightblue" d="M234.496,-74.0925C252.148,-72.5805 270.095,-71.043 287.105,-69.586"/>
<polygon fill="midnightblue" stroke="midnightblue" points="233.812,-70.6382 224.147,-74.979 234.41,-77.6127 233.812,-70.6382"/>
</g>
<!-- Node86 -->
<g id="node6" class="node"><title>Node86</title>
<g id="a_node6"><a xlink:href="../../de/d9d/classde_1_1tu__clausthal_1_1in_1_1mec_1_1modeling_1_1erd_1_1TestCErdModel.htm#ab002a82dfb9ba8ede6e6fe5127338bc7" target="_top" xlink:title="check if the validator recognize the wrong model model description: one entity is connected to a is&#45;a...">
<polygon fill="none" stroke="black" points="287.5,-0.5 287.5,-28.5 477.5,-28.5 477.5,-0.5 287.5,-0.5"/>
<text text-anchor="start" x="295.5" y="-17.3" font-family="Helvetica,sans-Serif" font-size="9.00">de.tu_clausthal.in.mec.modeling.erd.</text>
<text text-anchor="middle" x="382.5" y="-7.3" font-family="Helvetica,sans-Serif" font-size="9.00">TestCErdModel.nonValidModelT2</text>
</a>
</g>
</g>
<!-- Node81&#45;&gt;Node86 -->
<g id="edge5" class="edge"><title>Node81&#45;&gt;Node86</title>
<path fill="none" stroke="midnightblue" d="M163.477,-67.2184C191.665,-57.9445 227.545,-46.7576 260,-38.5 274.065,-34.9213 289.16,-31.5613 303.764,-28.5534"/>
<polygon fill="midnightblue" stroke="midnightblue" points="162.237,-63.9423 153.846,-70.411 164.439,-70.5867 162.237,-63.9423"/>
</g>
<!-- Node84 -->
<g id="node4" class="node"><title>Node84</title>
<g id="a_node4"><a xlink:href="../../d7/d36/classde_1_1tu__clausthal_1_1in_1_1mec_1_1modeling_1_1deserializer_1_1erd_1_1CModelDeserializer.htm#a1056c3c7e395c3aa4567c2780c4b48e4" target="_top" xlink:title="de.tu_clausthal.in.mec.modeling.deserializer.erd.\lCModelDeserializer.deserialize">
<polygon fill="none" stroke="black" points="541,-94.5 541,-122.5 786,-122.5 786,-94.5 541,-94.5"/>
<text text-anchor="start" x="549" y="-111.3" font-family="Helvetica,sans-Serif" font-size="9.00">de.tu_clausthal.in.mec.modeling.deserializer.erd.</text>
<text text-anchor="middle" x="663.5" y="-101.3" font-family="Helvetica,sans-Serif" font-size="9.00">CModelDeserializer.deserialize</text>
</a>
</g>
</g>
<!-- Node83&#45;&gt;Node84 -->
<g id="edge3" class="edge"><title>Node83&#45;&gt;Node84</title>
<path fill="none" stroke="midnightblue" d="M515.132,-108.5C523.732,-108.5 532.373,-108.5 540.922,-108.5"/>
<polygon fill="midnightblue" stroke="midnightblue" points="515.062,-105 505.062,-108.5 515.062,-112 515.062,-105"/>
</g>
</g>
</svg>
