<?xml version="1.0" encoding="UTF-8" standalone="no"?>
<!DOCTYPE svg PUBLIC "-//W3C//DTD SVG 1.1//EN"
 "http://www.w3.org/Graphics/SVG/1.1/DTD/svg11.dtd">
<!-- Generated by graphviz version 2.38.0 (20140413.2041)
 -->
<!-- Title: de.tu_clausthal.in.mec.modeling.model.erd.IErd.addISARelationship Pages: 1 -->
<svg width="791pt" height="178pt"
 viewBox="0.00 0.00 791.00 178.00" xmlns="http://www.w3.org/2000/svg" xmlns:xlink="http://www.w3.org/1999/xlink">
<g id="graph0" class="graph" transform="scale(1 1) rotate(0) translate(4 174)">
<title>de.tu_clausthal.in.mec.modeling.model.erd.IErd.addISARelationship</title>
<!-- Node28 -->
<g id="node1" class="node"><title>Node28</title>
<polygon fill="#bfbfbf" stroke="black" points="0,-70.5 0,-98.5 221,-98.5 221,-70.5 0,-70.5"/>
<text text-anchor="start" x="8" y="-87.3" font-family="Helvetica,sans-Serif" font-size="9.00">de.tu_clausthal.in.mec.modeling.model.erd.</text>
<text text-anchor="middle" x="110.5" y="-77.3" font-family="Helvetica,sans-Serif" font-size="9.00">IErd.addISARelationship</text>
</g>
<!-- Node29 -->
<g id="node2" class="node"><title>Node29</title>
<g id="a_node2"><a xlink:href="../../de/d95/classde_1_1tu__clausthal_1_1in_1_1mec_1_1modeling_1_1deserializer_1_1erd_1_1CInheritRelationshipDeserializer.htm#a19e7f7674d4480e901a04a48dc848b8d" target="_top" xlink:title="de.tu_clausthal.in.mec.modeling.deserializer.erd.\lCInheritRelationshipDeserializer.deserialize">
<polygon fill="none" stroke="black" points="257,-141.5 257,-169.5 502,-169.5 502,-141.5 257,-141.5"/>
<text text-anchor="start" x="265" y="-158.3" font-family="Helvetica,sans-Serif" font-size="9.00">de.tu_clausthal.in.mec.modeling.deserializer.erd.</text>
<text text-anchor="middle" x="379.5" y="-148.3" font-family="Helvetica,sans-Serif" font-size="9.00">CInheritRelationshipDeserializer.deserialize</text>
</a>
</g>
</g>
<!-- Node28&#45;&gt;Node29 -->
<g id="edge1" class="edge"><title>Node28&#45;&gt;Node29</title>
<path fill="none" stroke="midnightblue" d="M158.992,-101.924C187.198,-111.829 223.826,-123.928 257,-132.5 269.679,-135.776 283.215,-138.797 296.478,-141.498"/>
<polygon fill="midnightblue" stroke="midnightblue" points="159.98,-98.5608 149.385,-98.5208 157.643,-105.159 159.98,-98.5608"/>
</g>
<!-- Node30 -->
<g id="node3" class="node"><title>Node30</title>
<g id="a_node3"><a xlink:href="../../d7/d36/classde_1_1tu__clausthal_1_1in_1_1mec_1_1modeling_1_1deserializer_1_1erd_1_1CModelDeserializer.htm#aa72605c02025d89c61a1532221d4d07c" target="_top" xlink:title="de.tu_clausthal.in.mec.modeling.deserializer.erd.\lCModelDeserializer.deserializeISARelationships">
<polygon fill="none" stroke="black" points="257,-94.5 257,-122.5 502,-122.5 502,-94.5 257,-94.5"/>
<text text-anchor="start" x="265" y="-111.3" font-family="Helvetica,sans-Serif" font-size="9.00">de.tu_clausthal.in.mec.modeling.deserializer.erd.</text>
<text text-anchor="middle" x="379.5" y="-101.3" font-family="Helvetica,sans-Serif" font-size="9.00">CModelDeserializer.deserializeISARelationships</text>
</a>
</g>
</g>
<!-- Node28&#45;&gt;Node30 -->
<g id="edge2" class="edge"><title>Node28&#45;&gt;Node30</title>
<path fill="none" stroke="midnightblue" d="M231.412,-95.2786C239.775,-96.0303 248.21,-96.7885 256.584,-97.5412"/>
<polygon fill="midnightblue" stroke="midnightblue" points="231.528,-91.775 221.255,-94.3656 230.901,-98.7469 231.528,-91.775"/>
</g>
<!-- Node32 -->
<g id="node5" class="node"><title>Node32</title>
<g id="a_node5"><a xlink:href="../../de/d9d/classde_1_1tu__clausthal_1_1in_1_1mec_1_1modeling_1_1erd_1_1TestCErdModel.htm#a3fc89f049a4164242ff02ccc268f52a4" target="_top" xlink:title="check if the validator recognize the model with the is&#45;a relationship which is correct set ...">
<polygon fill="none" stroke="black" points="284.5,-47.5 284.5,-75.5 474.5,-75.5 474.5,-47.5 284.5,-47.5"/>
<text text-anchor="start" x="292.5" y="-64.3" font-family="Helvetica,sans-Serif" font-size="9.00">de.tu_clausthal.in.mec.modeling.erd.</text>
<text text-anchor="middle" x="379.5" y="-54.3" font-family="Helvetica,sans-Serif" font-size="9.00">TestCErdModel.isaRelationshipTest</text>
</a>
</g>
</g>
<!-- Node28&#45;&gt;Node32 -->
<g id="edge4" class="edge"><title>Node28&#45;&gt;Node32</title>
<path fill="none" stroke="midnightblue" d="M231.575,-74.1565C249.18,-72.6399 267.1,-71.0962 284.094,-69.6324"/>
<polygon fill="midnightblue" stroke="midnightblue" points="230.918,-70.7 221.255,-75.0455 231.518,-77.6742 230.918,-70.7"/>
</g>
<!-- Node33 -->
<g id="node6" class="node"><title>Node33</title>
<g id="a_node6"><a xlink:href="../../de/d9d/classde_1_1tu__clausthal_1_1in_1_1mec_1_1modeling_1_1erd_1_1TestCErdModel.htm#ab002a82dfb9ba8ede6e6fe5127338bc7" target="_top" xlink:title="check if the validator recognize the wrong model model description: one entity is connected to a is&#45;a...">
<polygon fill="none" stroke="black" points="284.5,-0.5 284.5,-28.5 474.5,-28.5 474.5,-0.5 284.5,-0.5"/>
<text text-anchor="start" x="292.5" y="-17.3" font-family="Helvetica,sans-Serif" font-size="9.00">de.tu_clausthal.in.mec.modeling.erd.</text>
<text text-anchor="middle" x="379.5" y="-7.3" font-family="Helvetica,sans-Serif" font-size="9.00">TestCErdModel.nonValidModelT2</text>
</a>
</g>
</g>
<!-- Node28&#45;&gt;Node33 -->
<g id="edge5" class="edge"><title>Node28&#45;&gt;Node33</title>
<path fill="none" stroke="midnightblue" d="M161.15,-67.2947C189.09,-57.9943 224.744,-46.7575 257,-38.5 271.06,-34.9007 286.153,-31.5309 300.756,-28.5198"/>
<polygon fill="midnightblue" stroke="midnightblue" points="159.975,-63.9971 151.607,-70.4956 162.201,-70.6338 159.975,-63.9971"/>
</g>
<!-- Node31 -->
<g id="node4" class="node"><title>Node31</title>
<g id="a_node4"><a xlink:href="../../d7/d36/classde_1_1tu__clausthal_1_1in_1_1mec_1_1modeling_1_1deserializer_1_1erd_1_1CModelDeserializer.htm#a1056c3c7e395c3aa4567c2780c4b48e4" target="_top" xlink:title="de.tu_clausthal.in.mec.modeling.deserializer.erd.\lCModelDeserializer.deserialize">
<polygon fill="none" stroke="black" points="538,-94.5 538,-122.5 783,-122.5 783,-94.5 538,-94.5"/>
<text text-anchor="start" x="546" y="-111.3" font-family="Helvetica,sans-Serif" font-size="9.00">de.tu_clausthal.in.mec.modeling.deserializer.erd.</text>
<text text-anchor="middle" x="660.5" y="-101.3" font-family="Helvetica,sans-Serif" font-size="9.00">CModelDeserializer.deserialize</text>
</a>
</g>
</g>
<!-- Node30&#45;&gt;Node31 -->
<g id="edge3" class="edge"><title>Node30&#45;&gt;Node31</title>
<path fill="none" stroke="midnightblue" d="M512.132,-108.5C520.732,-108.5 529.373,-108.5 537.922,-108.5"/>
<polygon fill="midnightblue" stroke="midnightblue" points="512.062,-105 502.062,-108.5 512.062,-112 512.062,-105"/>
</g>
</g>
</svg>
