<?xml version="1.0" encoding="UTF-8" standalone="no"?>
<!DOCTYPE svg PUBLIC "-//W3C//DTD SVG 1.1//EN"
 "http://www.w3.org/Graphics/SVG/1.1/DTD/svg11.dtd">
<!-- Generated by graphviz version 2.38.0 (20140413.2041)
 -->
<!-- Title: de.tu_clausthal.in.mec.modeling.model.erd.IErd.check Pages: 1 -->
<svg width="461pt" height="319pt"
 viewBox="0.00 0.00 461.00 319.00" xmlns="http://www.w3.org/2000/svg" xmlns:xlink="http://www.w3.org/1999/xlink">
<g id="graph0" class="graph" transform="scale(1 1) rotate(0) translate(4 315)">
<title>de.tu_clausthal.in.mec.modeling.model.erd.IErd.check</title>
<!-- Node46 -->
<g id="node1" class="node"><title>Node46</title>
<polygon fill="#bfbfbf" stroke="black" points="0,-141.5 0,-169.5 221,-169.5 221,-141.5 0,-141.5"/>
<text text-anchor="start" x="8" y="-158.3" font-family="Helvetica,sans-Serif" font-size="9.00">de.tu_clausthal.in.mec.modeling.model.erd.</text>
<text text-anchor="middle" x="110.5" y="-148.3" font-family="Helvetica,sans-Serif" font-size="9.00">IErd.check</text>
</g>
<!-- Node47 -->
<g id="node2" class="node"><title>Node47</title>
<g id="a_node2"><a xlink:href="../../de/d9d/classde_1_1tu__clausthal_1_1in_1_1mec_1_1modeling_1_1erd_1_1TestCErdModel.htm#a3fc89f049a4164242ff02ccc268f52a4" target="_top" xlink:title="check if the validator recognize the model with the is&#45;a relationship which is correct set ...">
<polygon fill="none" stroke="black" points="260,-282.5 260,-310.5 450,-310.5 450,-282.5 260,-282.5"/>
<text text-anchor="start" x="268" y="-299.3" font-family="Helvetica,sans-Serif" font-size="9.00">de.tu_clausthal.in.mec.modeling.erd.</text>
<text text-anchor="middle" x="355" y="-289.3" font-family="Helvetica,sans-Serif" font-size="9.00">TestCErdModel.isaRelationshipTest</text>
</a>
</g>
</g>
<!-- Node46&#45;&gt;Node47 -->
<g id="edge1" class="edge"><title>Node46&#45;&gt;Node47</title>
<path fill="none" stroke="midnightblue" d="M131.577,-176.87C157.854,-203.546 206.532,-248.677 257,-273.5 264.066,-276.976 271.685,-279.942 279.436,-282.471"/>
<polygon fill="midnightblue" stroke="midnightblue" points="133.946,-174.285 124.47,-169.547 128.922,-179.161 133.946,-174.285"/>
</g>
<!-- Node48 -->
<g id="node3" class="node"><title>Node48</title>
<g id="a_node3"><a xlink:href="../../de/d9d/classde_1_1tu__clausthal_1_1in_1_1mec_1_1modeling_1_1erd_1_1TestCErdModel.htm#a8226126b8aa6ebd6290c23cfc5fe9daf" target="_top" xlink:title="create minimal model with 2 entities and one relationship ">
<polygon fill="none" stroke="black" points="260,-235.5 260,-263.5 450,-263.5 450,-235.5 260,-235.5"/>
<text text-anchor="start" x="268" y="-252.3" font-family="Helvetica,sans-Serif" font-size="9.00">de.tu_clausthal.in.mec.modeling.erd.</text>
<text text-anchor="middle" x="355" y="-242.3" font-family="Helvetica,sans-Serif" font-size="9.00">TestCErdModel.minimalModel</text>
</a>
</g>
</g>
<!-- Node46&#45;&gt;Node48 -->
<g id="edge2" class="edge"><title>Node46&#45;&gt;Node48</title>
<path fill="none" stroke="midnightblue" d="M144.861,-174.419C173.773,-190.166 217.117,-212.239 257,-226.5 266.289,-229.821 276.251,-232.804 286.124,-235.434"/>
<polygon fill="midnightblue" stroke="midnightblue" points="146.452,-171.3 136.004,-169.547 143.078,-177.434 146.452,-171.3"/>
</g>
<!-- Node49 -->
<g id="node4" class="node"><title>Node49</title>
<g id="a_node4"><a xlink:href="../../de/d9d/classde_1_1tu__clausthal_1_1in_1_1mec_1_1modeling_1_1erd_1_1TestCErdModel.htm#a6e492ca7b4ef81f485e948cf9c7bea01" target="_top" xlink:title="check if the validator recognize the model which make no sense, but is syntactically and semantically...">
<polygon fill="none" stroke="black" points="257,-188.5 257,-216.5 453,-216.5 453,-188.5 257,-188.5"/>
<text text-anchor="start" x="265" y="-205.3" font-family="Helvetica,sans-Serif" font-size="9.00">de.tu_clausthal.in.mec.modeling.erd.</text>
<text text-anchor="middle" x="355" y="-195.3" font-family="Helvetica,sans-Serif" font-size="9.00">TestCErdModel.minimalModelOneEntity</text>
</a>
</g>
</g>
<!-- Node46&#45;&gt;Node49 -->
<g id="edge3" class="edge"><title>Node46&#45;&gt;Node49</title>
<path fill="none" stroke="midnightblue" d="M193.846,-171.46C222.29,-176.973 253.93,-183.105 281.525,-188.453"/>
<polygon fill="midnightblue" stroke="midnightblue" points="194.413,-168.005 183.93,-169.538 193.081,-174.877 194.413,-168.005"/>
</g>
<!-- Node50 -->
<g id="node5" class="node"><title>Node50</title>
<g id="a_node5"><a xlink:href="../../de/d9d/classde_1_1tu__clausthal_1_1in_1_1mec_1_1modeling_1_1erd_1_1TestCErdModel.htm#abc3d920280d03df48d03662d05a13d50" target="_top" xlink:title="create minimal model with one entity and one recursive relationship ">
<polygon fill="none" stroke="black" points="257.5,-141.5 257.5,-169.5 452.5,-169.5 452.5,-141.5 257.5,-141.5"/>
<text text-anchor="start" x="265.5" y="-158.3" font-family="Helvetica,sans-Serif" font-size="9.00">de.tu_clausthal.in.mec.modeling.erd.</text>
<text text-anchor="middle" x="355" y="-148.3" font-family="Helvetica,sans-Serif" font-size="9.00">TestCErdModel.minimalRecursiveModel</text>
</a>
</g>
</g>
<!-- Node46&#45;&gt;Node50 -->
<g id="edge4" class="edge"><title>Node46&#45;&gt;Node50</title>
<path fill="none" stroke="midnightblue" d="M231.237,-155.5C239.933,-155.5 248.64,-155.5 257.178,-155.5"/>
<polygon fill="midnightblue" stroke="midnightblue" points="231.044,-152 221.044,-155.5 231.044,-159 231.044,-152"/>
</g>
<!-- Node51 -->
<g id="node6" class="node"><title>Node51</title>
<g id="a_node6"><a xlink:href="../../de/d9d/classde_1_1tu__clausthal_1_1in_1_1mec_1_1modeling_1_1erd_1_1TestCErdModel.htm#ab9641692484acf09e1e20b7f3b0a6ab9" target="_top" xlink:title="check if the validator recognize the wrong model model description: only one entity and relationship ...">
<polygon fill="none" stroke="black" points="260,-94.5 260,-122.5 450,-122.5 450,-94.5 260,-94.5"/>
<text text-anchor="start" x="268" y="-111.3" font-family="Helvetica,sans-Serif" font-size="9.00">de.tu_clausthal.in.mec.modeling.erd.</text>
<text text-anchor="middle" x="355" y="-101.3" font-family="Helvetica,sans-Serif" font-size="9.00">TestCErdModel.nonValidModelT1</text>
</a>
</g>
</g>
<!-- Node46&#45;&gt;Node51 -->
<g id="edge5" class="edge"><title>Node46&#45;&gt;Node51</title>
<path fill="none" stroke="midnightblue" d="M193.846,-139.54C222.29,-134.027 253.93,-127.895 281.525,-122.547"/>
<polygon fill="midnightblue" stroke="midnightblue" points="193.081,-136.123 183.93,-141.462 194.413,-142.995 193.081,-136.123"/>
</g>
<!-- Node52 -->
<g id="node7" class="node"><title>Node52</title>
<g id="a_node7"><a xlink:href="../../de/d9d/classde_1_1tu__clausthal_1_1in_1_1mec_1_1modeling_1_1erd_1_1TestCErdModel.htm#ab002a82dfb9ba8ede6e6fe5127338bc7" target="_top" xlink:title="check if the validator recognize the wrong model model description: one entity is connected to a is&#45;a...">
<polygon fill="none" stroke="black" points="260,-47.5 260,-75.5 450,-75.5 450,-47.5 260,-47.5"/>
<text text-anchor="start" x="268" y="-64.3" font-family="Helvetica,sans-Serif" font-size="9.00">de.tu_clausthal.in.mec.modeling.erd.</text>
<text text-anchor="middle" x="355" y="-54.3" font-family="Helvetica,sans-Serif" font-size="9.00">TestCErdModel.nonValidModelT2</text>
</a>
</g>
</g>
<!-- Node46&#45;&gt;Node52 -->
<g id="edge6" class="edge"><title>Node46&#45;&gt;Node52</title>
<path fill="none" stroke="midnightblue" d="M145.452,-136.693C174.405,-121.264 217.493,-99.7194 257,-85.5 267.284,-81.7988 278.38,-78.4658 289.267,-75.5439"/>
<polygon fill="midnightblue" stroke="midnightblue" points="143.719,-133.651 136.571,-141.471 147.036,-139.816 143.719,-133.651"/>
</g>
<!-- Node53 -->
<g id="node8" class="node"><title>Node53</title>
<g id="a_node8"><a xlink:href="../../de/d9d/classde_1_1tu__clausthal_1_1in_1_1mec_1_1modeling_1_1erd_1_1TestCErdModel.htm#a9d28571cc609327e0da32de28fccec24" target="_top" xlink:title="check if the validator accept the weak entity connected to a non weak entity and validate the relatio...">
<polygon fill="none" stroke="black" points="260,-0.5 260,-28.5 450,-28.5 450,-0.5 260,-0.5"/>
<text text-anchor="start" x="268" y="-17.3" font-family="Helvetica,sans-Serif" font-size="9.00">de.tu_clausthal.in.mec.modeling.erd.</text>
<text text-anchor="middle" x="355" y="-7.3" font-family="Helvetica,sans-Serif" font-size="9.00">TestCErdModel.weakRelationship</text>
</a>
</g>
</g>
<!-- Node46&#45;&gt;Node53 -->
<g id="edge7" class="edge"><title>Node46&#45;&gt;Node53</title>
<path fill="none" stroke="midnightblue" d="M132.07,-133.978C158.522,-107.565 207.035,-63.2491 257,-38.5 264.851,-34.6114 273.378,-31.3231 282.011,-28.5495"/>
<polygon fill="midnightblue" stroke="midnightblue" points="129.435,-131.665 124.901,-141.24 134.417,-136.582 129.435,-131.665"/>
</g>
</g>
</svg>
