<?xml version="1.0" encoding="UTF-8" standalone="no"?>
<!DOCTYPE svg PUBLIC "-//W3C//DTD SVG 1.1//EN"
 "http://www.w3.org/Graphics/SVG/1.1/DTD/svg11.dtd">
<!-- Generated by graphviz version 2.38.0 (20140413.2041)
 -->
<!-- Title: Grafische Darstellung der Klassenhierarchie Pages: 1 -->
<svg width="858pt" height="74pt"
 viewBox="0.00 0.00 858.00 74.00" xmlns="http://www.w3.org/2000/svg" xmlns:xlink="http://www.w3.org/1999/xlink">
<g id="graph0" class="graph" transform="scale(1 1) rotate(0) translate(4 70)">
<title>Grafische Darstellung der Klassenhierarchie</title>
<!-- Node75 -->
<g id="node1" class="node"><title>Node75</title>
<polygon fill="none" stroke="#bfbfbf" points="0,-26.5 0,-44.5 53,-44.5 53,-26.5 0,-26.5"/>
<text text-anchor="middle" x="26.5" y="-33.3" font-family="Helvetica,sans-Serif" font-size="9.00">Callable</text>
</g>
<!-- Node0 -->
<g id="node2" class="node"><title>Node0</title>
<g id="a_node2"><a xlink:href="d3/d97/interfacede_1_1tu__clausthal_1_1in_1_1mec_1_1modeling_1_1model_1_1IModel.htm" target="_top" xlink:title="interface of a model ">
<polygon fill="none" stroke="black" points="89,-21.5 89,-49.5 292,-49.5 292,-21.5 89,-21.5"/>
<text text-anchor="start" x="97" y="-38.3" font-family="Helvetica,sans-Serif" font-size="9.00">de.tu_clausthal.in.mec.modeling.model.</text>
<text text-anchor="middle" x="190.5" y="-28.3" font-family="Helvetica,sans-Serif" font-size="9.00">IModel&lt; T extends IModel&lt;?&gt;</text>
</a>
</g>
</g>
<!-- Node75&#45;&gt;Node0 -->
<g id="edge1" class="edge"><title>Node75&#45;&gt;Node0</title>
<path fill="none" stroke="midnightblue" d="M63.312,-35.5C71.162,-35.5 79.8446,-35.5 88.8734,-35.5"/>
<polygon fill="midnightblue" stroke="midnightblue" points="63.1694,-32.0001 53.1694,-35.5 63.1693,-39.0001 63.1694,-32.0001"/>
</g>
<!-- Node1 -->
<g id="node3" class="node"><title>Node1</title>
<g id="a_node3"><a xlink:href="d9/d3d/interfacede_1_1tu__clausthal_1_1in_1_1mec_1_1modeling_1_1model_1_1erd_1_1IErd.htm" target="_top" xlink:title="The main modeling of the graphical model for an entity relationship diagram (ERD) is implemented thro...">
<polygon fill="none" stroke="black" points="330,-47.5 330,-65.5 569,-65.5 569,-47.5 330,-47.5"/>
<text text-anchor="middle" x="449.5" y="-54.3" font-family="Helvetica,sans-Serif" font-size="9.00">de.tu_clausthal.in.mec.modeling.model.erd.IErd</text>
</a>
</g>
</g>
<!-- Node0&#45;&gt;Node1 -->
<g id="edge2" class="edge"><title>Node0&#45;&gt;Node1</title>
<path fill="none" stroke="midnightblue" d="M302.634,-44.581C314.423,-45.5443 326.411,-46.5239 338.191,-47.4864"/>
<polygon fill="midnightblue" stroke="midnightblue" points="302.587,-41.0656 292.336,-43.7395 302.017,-48.0424 302.587,-41.0656"/>
</g>
<!-- Node3 -->
<g id="node5" class="node"><title>Node3</title>
<g id="a_node5"><a xlink:href="d1/d3e/interfacede_1_1tu__clausthal_1_1in_1_1mec_1_1modeling_1_1model_1_1petrinet_1_1IPetrinet.htm" target="_top" xlink:title="interface of a petrinet ">
<polygon fill="none" stroke="black" points="328,-0.5 328,-28.5 571,-28.5 571,-0.5 328,-0.5"/>
<text text-anchor="start" x="336" y="-17.3" font-family="Helvetica,sans-Serif" font-size="9.00">de.tu_clausthal.in.mec.modeling.model.petrinet.</text>
<text text-anchor="middle" x="449.5" y="-7.3" font-family="Helvetica,sans-Serif" font-size="9.00">IPetrinet</text>
</a>
</g>
</g>
<!-- Node0&#45;&gt;Node3 -->
<g id="edge4" class="edge"><title>Node0&#45;&gt;Node3</title>
<path fill="none" stroke="midnightblue" d="M302.528,-26.4277C310.932,-25.7409 319.439,-25.0458 327.9,-24.3545"/>
<polygon fill="midnightblue" stroke="midnightblue" points="302.017,-22.9576 292.336,-27.2605 302.587,-29.9344 302.017,-22.9576"/>
</g>
<!-- Node2 -->
<g id="node4" class="node"><title>Node2</title>
<g id="a_node4"><a xlink:href="d4/d51/classde_1_1tu__clausthal_1_1in_1_1mec_1_1modeling_1_1model_1_1erd_1_1CErd.htm" target="_top" xlink:title="This class forms the administrative unit for the individual objects. ">
<polygon fill="none" stroke="black" points="607,-47.5 607,-65.5 850,-65.5 850,-47.5 607,-47.5"/>
<text text-anchor="middle" x="728.5" y="-54.3" font-family="Helvetica,sans-Serif" font-size="9.00">de.tu_clausthal.in.mec.modeling.model.erd.CErd</text>
</a>
</g>
</g>
<!-- Node1&#45;&gt;Node2 -->
<g id="edge3" class="edge"><title>Node1&#45;&gt;Node2</title>
<path fill="none" stroke="midnightblue" d="M579.458,-56.5C588.591,-56.5 597.779,-56.5 606.864,-56.5"/>
<polygon fill="midnightblue" stroke="midnightblue" points="579.178,-53.0001 569.178,-56.5 579.178,-60.0001 579.178,-53.0001"/>
</g>
<!-- Node4 -->
<g id="node6" class="node"><title>Node4</title>
<g id="a_node6"><a xlink:href="d6/db3/classde_1_1tu__clausthal_1_1in_1_1mec_1_1modeling_1_1model_1_1petrinet_1_1CPetrinet.htm" target="_top" xlink:title="petrinet model ">
<polygon fill="none" stroke="black" points="607,-0.5 607,-28.5 850,-28.5 850,-0.5 607,-0.5"/>
<text text-anchor="start" x="615" y="-17.3" font-family="Helvetica,sans-Serif" font-size="9.00">de.tu_clausthal.in.mec.modeling.model.petrinet.</text>
<text text-anchor="middle" x="728.5" y="-7.3" font-family="Helvetica,sans-Serif" font-size="9.00">CPetrinet</text>
</a>
</g>
</g>
<!-- Node3&#45;&gt;Node4 -->
<g id="edge5" class="edge"><title>Node3&#45;&gt;Node4</title>
<path fill="none" stroke="midnightblue" d="M581.467,-14.5C589.914,-14.5 598.398,-14.5 606.794,-14.5"/>
<polygon fill="midnightblue" stroke="midnightblue" points="581.19,-11.0001 571.19,-14.5 581.19,-18.0001 581.19,-11.0001"/>
</g>
</g>
</svg>
