<?xml version="1.0" encoding="UTF-8" standalone="no"?>
<!DOCTYPE svg PUBLIC "-//W3C//DTD SVG 1.1//EN"
 "http://www.w3.org/Graphics/SVG/1.1/DTD/svg11.dtd">
<!-- Generated by graphviz version 2.38.0 (20140413.2041)
 -->
<!-- Title: Grafische Darstellung der Klassenhierarchie Pages: 1 -->
<svg width="1357pt" height="599pt"
 viewBox="0.00 0.00 1357.00 599.00" xmlns="http://www.w3.org/2000/svg" xmlns:xlink="http://www.w3.org/1999/xlink">
<g id="graph0" class="graph" transform="scale(1 1) rotate(0) translate(4 595)">
<title>Grafische Darstellung der Klassenhierarchie</title>
<!-- Node74 -->
<g id="node1" class="node"><title>Node74</title>
<polygon fill="none" stroke="#bfbfbf" points="358.5,-375.5 358.5,-393.5 422.5,-393.5 422.5,-375.5 358.5,-375.5"/>
<text text-anchor="middle" x="390.5" y="-382.3" font-family="Helvetica,sans-Serif" font-size="9.00">Consumer</text>
</g>
<!-- Node18 -->
<g id="node2" class="node"><title>Node18</title>
<g id="a_node2"><a xlink:href="d8/d0b/interfacede_1_1tu__clausthal_1_1in_1_1mec_1_1modeling_1_1model_1_1petrinet_1_1IPlace.htm" target="_top" xlink:title="interface of a petri&#45;net place ">
<polygon fill="none" stroke="black" points="548,-386.5 548,-414.5 791,-414.5 791,-386.5 548,-386.5"/>
<text text-anchor="start" x="556" y="-403.3" font-family="Helvetica,sans-Serif" font-size="9.00">de.tu_clausthal.in.mec.modeling.model.petrinet.</text>
<text text-anchor="middle" x="669.5" y="-393.3" font-family="Helvetica,sans-Serif" font-size="9.00">IPlace</text>
</a>
</g>
</g>
<!-- Node74&#45;&gt;Node18 -->
<g id="edge1" class="edge"><title>Node74&#45;&gt;Node18</title>
<path fill="none" stroke="midnightblue" d="M432.982,-386.896C463.503,-388.659 506.654,-391.151 547.696,-393.522"/>
<polygon fill="midnightblue" stroke="midnightblue" points="432.922,-383.387 422.737,-386.304 432.518,-390.375 432.922,-383.387"/>
</g>
<!-- Node15 -->
<g id="node3" class="node"><title>Node15</title>
<g id="a_node3"><a xlink:href="de/dc7/classde_1_1tu__clausthal_1_1in_1_1mec_1_1modeling_1_1model_1_1petrinet_1_1CPlace.htm" target="_top" xlink:title="petrinet place ">
<polygon fill="none" stroke="black" points="827,-331.5 827,-359.5 1070,-359.5 1070,-331.5 827,-331.5"/>
<text text-anchor="start" x="835" y="-348.3" font-family="Helvetica,sans-Serif" font-size="9.00">de.tu_clausthal.in.mec.modeling.model.petrinet.</text>
<text text-anchor="middle" x="948.5" y="-338.3" font-family="Helvetica,sans-Serif" font-size="9.00">CPlace</text>
</a>
</g>
</g>
<!-- Node18&#45;&gt;Node15 -->
<g id="edge2" class="edge"><title>Node18&#45;&gt;Node15</title>
<path fill="none" stroke="midnightblue" d="M751.033,-384.51C790.741,-376.625 838.205,-367.201 876.532,-359.591"/>
<polygon fill="midnightblue" stroke="midnightblue" points="750.242,-381.098 741.116,-386.479 751.606,-387.964 750.242,-381.098"/>
</g>
<!-- Node73 -->
<g id="node4" class="node"><title>Node73</title>
<polygon fill="none" stroke="#bfbfbf" points="362.5,-412.5 362.5,-430.5 418.5,-430.5 418.5,-412.5 362.5,-412.5"/>
<text text-anchor="middle" x="390.5" y="-419.3" font-family="Helvetica,sans-Serif" font-size="9.00">Function</text>
</g>
<!-- Node73&#45;&gt;Node18 -->
<g id="edge3" class="edge"><title>Node73&#45;&gt;Node18</title>
<path fill="none" stroke="midnightblue" d="M428.792,-418.673C459.512,-416.344 504.86,-412.906 547.869,-409.645"/>
<polygon fill="midnightblue" stroke="midnightblue" points="428.271,-415.202 418.564,-419.448 428.8,-422.182 428.271,-415.202"/>
</g>
<!-- Node19 -->
<g id="node5" class="node"><title>Node19</title>
<g id="a_node5"><a xlink:href="de/d17/interfacede_1_1tu__clausthal_1_1in_1_1mec_1_1modeling_1_1model_1_1petrinet_1_1ITransition.htm" target="_top" xlink:title="interface of a petri&#45;net transition ">
<polygon fill="none" stroke="black" points="548,-339.5 548,-367.5 791,-367.5 791,-339.5 548,-339.5"/>
<text text-anchor="start" x="556" y="-356.3" font-family="Helvetica,sans-Serif" font-size="9.00">de.tu_clausthal.in.mec.modeling.model.petrinet.</text>
<text text-anchor="middle" x="669.5" y="-346.3" font-family="Helvetica,sans-Serif" font-size="9.00">ITransition</text>
</a>
</g>
</g>
<!-- Node73&#45;&gt;Node19 -->
<g id="edge4" class="edge"><title>Node73&#45;&gt;Node19</title>
<path fill="none" stroke="midnightblue" d="M429.078,-420.459C453.482,-418.692 485.551,-414.276 512,-403.5 530.278,-396.053 529.907,-385.386 548,-377.5 556.995,-373.579 566.648,-370.293 576.432,-367.539"/>
<polygon fill="midnightblue" stroke="midnightblue" points="428.561,-416.984 418.791,-421.082 428.984,-423.971 428.561,-416.984"/>
</g>
<!-- Node70 -->
<g id="node7" class="node"><title>Node70</title>
<g id="a_node7"><a xlink:href="dd/d69/interfacede_1_1tu__clausthal_1_1in_1_1mec_1_1modeling_1_1model_1_1storage_1_1IModelStorage.htm" target="_top" xlink:title="interface for model storage ">
<polygon fill="none" stroke="black" points="548.5,-433.5 548.5,-461.5 790.5,-461.5 790.5,-433.5 548.5,-433.5"/>
<text text-anchor="start" x="556.5" y="-450.3" font-family="Helvetica,sans-Serif" font-size="9.00">de.tu_clausthal.in.mec.modeling.model.storage.</text>
<text text-anchor="middle" x="669.5" y="-440.3" font-family="Helvetica,sans-Serif" font-size="9.00">IModelStorage</text>
</a>
</g>
</g>
<!-- Node73&#45;&gt;Node70 -->
<g id="edge6" class="edge"><title>Node73&#45;&gt;Node70</title>
<path fill="none" stroke="midnightblue" d="M428.817,-425.003C459.613,-427.893 505.099,-432.163 548.194,-436.208"/>
<polygon fill="midnightblue" stroke="midnightblue" points="428.848,-421.49 418.564,-424.04 428.193,-428.46 428.848,-421.49"/>
</g>
<!-- Node16 -->
<g id="node6" class="node"><title>Node16</title>
<g id="a_node6"><a xlink:href="db/d15/classde_1_1tu__clausthal_1_1in_1_1mec_1_1modeling_1_1model_1_1petrinet_1_1CTransition.htm" target="_top" xlink:title="transition class ">
<polygon fill="none" stroke="black" points="827,-197.5 827,-225.5 1070,-225.5 1070,-197.5 827,-197.5"/>
<text text-anchor="start" x="835" y="-214.3" font-family="Helvetica,sans-Serif" font-size="9.00">de.tu_clausthal.in.mec.modeling.model.petrinet.</text>
<text text-anchor="middle" x="948.5" y="-204.3" font-family="Helvetica,sans-Serif" font-size="9.00">CTransition</text>
</a>
</g>
</g>
<!-- Node19&#45;&gt;Node16 -->
<g id="edge5" class="edge"><title>Node19&#45;&gt;Node16</title>
<path fill="none" stroke="midnightblue" d="M773.063,-336.433C779.226,-334.377 785.252,-332.076 791,-329.5 849.999,-303.059 907.628,-250.867 933.422,-225.713"/>
<polygon fill="midnightblue" stroke="midnightblue" points="771.802,-333.16 763.287,-339.465 773.875,-339.846 771.802,-333.16"/>
</g>
<!-- Node71 -->
<g id="node8" class="node"><title>Node71</title>
<g id="a_node8"><a xlink:href="db/dc2/enumde_1_1tu__clausthal_1_1in_1_1mec_1_1modeling_1_1model_1_1storage_1_1EModelStorage.htm" target="_top" xlink:title="model storage ">
<polygon fill="none" stroke="black" points="827.5,-421.5 827.5,-449.5 1069.5,-449.5 1069.5,-421.5 827.5,-421.5"/>
<text text-anchor="start" x="835.5" y="-438.3" font-family="Helvetica,sans-Serif" font-size="9.00">de.tu_clausthal.in.mec.modeling.model.storage.</text>
<text text-anchor="middle" x="948.5" y="-428.3" font-family="Helvetica,sans-Serif" font-size="9.00">EModelStorage</text>
</a>
</g>
</g>
<!-- Node70&#45;&gt;Node71 -->
<g id="edge7" class="edge"><title>Node70&#45;&gt;Node71</title>
<path fill="none" stroke="midnightblue" d="M801.049,-441.844C809.814,-441.465 818.622,-441.083 827.331,-440.706"/>
<polygon fill="midnightblue" stroke="midnightblue" points="800.627,-438.359 790.788,-442.289 800.93,-445.353 800.627,-438.359"/>
</g>
<!-- Node63 -->
<g id="node9" class="node"><title>Node63</title>
<polygon fill="none" stroke="#bfbfbf" points="363,-449.5 363,-467.5 418,-467.5 418,-449.5 363,-449.5"/>
<text text-anchor="middle" x="390.5" y="-456.3" font-family="Helvetica,sans-Serif" font-size="9.00">Supplier</text>
</g>
<!-- Node63&#45;&gt;Node18 -->
<g id="edge16" class="edge"><title>Node63&#45;&gt;Node18</title>
<path fill="none" stroke="midnightblue" d="M428.426,-455.587C452.562,-453.051 484.578,-448.482 512,-440.5 528.811,-435.607 531.312,-429.798 548,-424.5 559.894,-420.724 572.644,-417.421 585.238,-414.571"/>
<polygon fill="midnightblue" stroke="midnightblue" points="427.88,-452.124 418.269,-456.584 428.564,-459.091 427.88,-452.124"/>
</g>
<!-- Node63&#45;&gt;Node70 -->
<g id="edge17" class="edge"><title>Node63&#45;&gt;Node70</title>
<path fill="none" stroke="midnightblue" d="M428.318,-457.038C459.167,-455.813 505.004,-453.993 548.39,-452.27"/>
<polygon fill="midnightblue" stroke="midnightblue" points="427.913,-453.551 418.06,-457.445 428.191,-460.546 427.913,-453.551"/>
</g>
<!-- Node64 -->
<g id="node10" class="node"><title>Node64</title>
<g id="a_node10"><a xlink:href="d3/d76/interfacede_1_1tu__clausthal_1_1in_1_1mec_1_1modeling_1_1model_1_1graph_1_1IEdge.htm" target="_top" xlink:title="interface of an edge ">
<polygon fill="none" stroke="black" points="553,-503.5 553,-531.5 786,-531.5 786,-503.5 553,-503.5"/>
<text text-anchor="start" x="561" y="-520.3" font-family="Helvetica,sans-Serif" font-size="9.00">de.tu_clausthal.in.mec.modeling.model.graph.</text>
<text text-anchor="middle" x="669.5" y="-510.3" font-family="Helvetica,sans-Serif" font-size="9.00">IEdge</text>
</a>
</g>
</g>
<!-- Node63&#45;&gt;Node64 -->
<g id="edge8" class="edge"><title>Node63&#45;&gt;Node64</title>
<path fill="none" stroke="midnightblue" d="M428.109,-466.297C472.508,-475.754 548.173,-491.871 602.768,-503.499"/>
<polygon fill="midnightblue" stroke="midnightblue" points="428.57,-462.817 418.06,-464.157 427.111,-469.664 428.57,-462.817"/>
</g>
<!-- Node65 -->
<g id="node11" class="node"><title>Node65</title>
<g id="a_node11"><a xlink:href="dc/df3/interfacede_1_1tu__clausthal_1_1in_1_1mec_1_1modeling_1_1model_1_1erd_1_1IErdEdge.htm" target="_top" xlink:title="An edge for the graphical ERD model. ">
<polygon fill="none" stroke="black" points="838,-562.5 838,-590.5 1059,-590.5 1059,-562.5 838,-562.5"/>
<text text-anchor="start" x="846" y="-579.3" font-family="Helvetica,sans-Serif" font-size="9.00">de.tu_clausthal.in.mec.modeling.model.erd.</text>
<text text-anchor="middle" x="948.5" y="-569.3" font-family="Helvetica,sans-Serif" font-size="9.00">IErdEdge</text>
</a>
</g>
</g>
<!-- Node64&#45;&gt;Node65 -->
<g id="edge9" class="edge"><title>Node64&#45;&gt;Node65</title>
<path fill="none" stroke="midnightblue" d="M738.951,-533.832C766.288,-540.2 798.085,-547.417 827,-553.5 841.381,-556.525 856.763,-559.591 871.563,-562.455"/>
<polygon fill="midnightblue" stroke="midnightblue" points="739.629,-530.396 729.095,-531.527 738.036,-537.212 739.629,-530.396"/>
</g>
<!-- Node67 -->
<g id="node13" class="node"><title>Node67</title>
<g id="a_node13"><a xlink:href="d0/d34/classde_1_1tu__clausthal_1_1in_1_1mec_1_1modeling_1_1model_1_1graph_1_1IBaseEdge.htm" target="_top" xlink:title="abstract class of an edge ">
<polygon fill="none" stroke="black" points="832,-515.5 832,-543.5 1065,-543.5 1065,-515.5 832,-515.5"/>
<text text-anchor="start" x="840" y="-532.3" font-family="Helvetica,sans-Serif" font-size="9.00">de.tu_clausthal.in.mec.modeling.model.graph.</text>
<text text-anchor="middle" x="948.5" y="-522.3" font-family="Helvetica,sans-Serif" font-size="9.00">IBaseEdge</text>
</a>
</g>
</g>
<!-- Node64&#45;&gt;Node67 -->
<g id="edge11" class="edge"><title>Node64&#45;&gt;Node67</title>
<path fill="none" stroke="midnightblue" d="M796.593,-522.962C808.272,-523.468 820.07,-523.98 831.651,-524.481"/>
<polygon fill="midnightblue" stroke="midnightblue" points="796.51,-519.456 786.368,-522.52 796.207,-526.449 796.51,-519.456"/>
</g>
<!-- Node69 -->
<g id="node15" class="node"><title>Node69</title>
<g id="a_node15"><a xlink:href="d6/d27/interfacede_1_1tu__clausthal_1_1in_1_1mec_1_1modeling_1_1model_1_1petrinet_1_1IPetrinetEdge.htm" target="_top" xlink:title="connection / edge interface between transition and place ">
<polygon fill="none" stroke="black" points="827,-468.5 827,-496.5 1070,-496.5 1070,-468.5 827,-468.5"/>
<text text-anchor="start" x="835" y="-485.3" font-family="Helvetica,sans-Serif" font-size="9.00">de.tu_clausthal.in.mec.modeling.model.petrinet.</text>
<text text-anchor="middle" x="948.5" y="-475.3" font-family="Helvetica,sans-Serif" font-size="9.00">IPetrinetEdge</text>
</a>
</g>
</g>
<!-- Node64&#45;&gt;Node69 -->
<g id="edge14" class="edge"><title>Node64&#45;&gt;Node69</title>
<path fill="none" stroke="midnightblue" d="M791.79,-502.175C806.626,-500.3 821.729,-498.392 836.405,-496.537"/>
<polygon fill="midnightblue" stroke="midnightblue" points="791.053,-498.74 781.57,-503.466 791.93,-505.685 791.053,-498.74"/>
</g>
<!-- Node66 -->
<g id="node12" class="node"><title>Node66</title>
<g id="a_node12"><a xlink:href="d2/d5b/classde_1_1tu__clausthal_1_1in_1_1mec_1_1modeling_1_1model_1_1erd_1_1CErdEdge.htm" target="_top" xlink:title="This class represents the edges between the relationships and the entities. ">
<polygon fill="none" stroke="black" points="1117,-550.5 1117,-578.5 1338,-578.5 1338,-550.5 1117,-550.5"/>
<text text-anchor="start" x="1125" y="-567.3" font-family="Helvetica,sans-Serif" font-size="9.00">de.tu_clausthal.in.mec.modeling.model.erd.</text>
<text text-anchor="middle" x="1227.5" y="-557.3" font-family="Helvetica,sans-Serif" font-size="9.00">CErdEdge</text>
</a>
</g>
</g>
<!-- Node65&#45;&gt;Node66 -->
<g id="edge10" class="edge"><title>Node65&#45;&gt;Node66</title>
<path fill="none" stroke="midnightblue" d="M1069.62,-571.296C1085.28,-570.618 1101.27,-569.925 1116.76,-569.254"/>
<polygon fill="midnightblue" stroke="midnightblue" points="1069.21,-567.81 1059.38,-571.74 1069.52,-574.804 1069.21,-567.81"/>
</g>
<!-- Node67&#45;&gt;Node66 -->
<g id="edge12" class="edge"><title>Node67&#45;&gt;Node66</title>
<path fill="none" stroke="midnightblue" d="M1070.61,-544.802C1085.96,-546.742 1101.6,-548.718 1116.76,-550.634"/>
<polygon fill="midnightblue" stroke="midnightblue" points="1070.93,-541.315 1060.57,-543.534 1070.05,-548.26 1070.93,-541.315"/>
</g>
<!-- Node68 -->
<g id="node14" class="node"><title>Node68</title>
<g id="a_node14"><a xlink:href="d7/db3/classde_1_1tu__clausthal_1_1in_1_1mec_1_1modeling_1_1model_1_1petrinet_1_1CPetrinetEdge.htm" target="_top" xlink:title="connection class ">
<polygon fill="none" stroke="black" points="1106,-480.5 1106,-508.5 1349,-508.5 1349,-480.5 1106,-480.5"/>
<text text-anchor="start" x="1114" y="-497.3" font-family="Helvetica,sans-Serif" font-size="9.00">de.tu_clausthal.in.mec.modeling.model.petrinet.</text>
<text text-anchor="middle" x="1227.5" y="-487.3" font-family="Helvetica,sans-Serif" font-size="9.00">CPetrinetEdge</text>
</a>
</g>
</g>
<!-- Node67&#45;&gt;Node68 -->
<g id="edge13" class="edge"><title>Node67&#45;&gt;Node68</title>
<path fill="none" stroke="midnightblue" d="M1070.79,-514.175C1085.63,-512.3 1100.73,-510.392 1115.4,-508.537"/>
<polygon fill="midnightblue" stroke="midnightblue" points="1070.05,-510.74 1060.57,-515.466 1070.93,-517.685 1070.05,-510.74"/>
</g>
<!-- Node69&#45;&gt;Node68 -->
<g id="edge15" class="edge"><title>Node69&#45;&gt;Node68</title>
<path fill="none" stroke="midnightblue" d="M1080.19,-488.162C1088.73,-488.532 1097.31,-488.903 1105.79,-489.271"/>
<polygon fill="midnightblue" stroke="midnightblue" points="1080.33,-484.665 1070.19,-487.728 1080.03,-491.658 1080.33,-484.665"/>
</g>
<!-- Node42 -->
<g id="node16" class="node"><title>Node42</title>
<g id="a_node16"><a xlink:href="d9/deb/interfacede_1_1tu__clausthal_1_1in_1_1mec_1_1modeling_1_1model_1_1erd_1_1IEntity.htm" target="_top" xlink:title="de.tu_clausthal.in.mec.modeling.model.erd.\lIEntity\&lt; IAttribute \&gt;">
<polygon fill="none" stroke="black" points="559,-141.5 559,-169.5 780,-169.5 780,-141.5 559,-141.5"/>
<text text-anchor="start" x="567" y="-158.3" font-family="Helvetica,sans-Serif" font-size="9.00">de.tu_clausthal.in.mec.modeling.model.erd.</text>
<text text-anchor="middle" x="669.5" y="-148.3" font-family="Helvetica,sans-Serif" font-size="9.00">IEntity&lt; IAttribute &gt;</text>
</a>
</g>
</g>
<!-- Node13 -->
<g id="node17" class="node"><title>Node13</title>
<g id="a_node17"><a xlink:href="d6/d74/classde_1_1tu__clausthal_1_1in_1_1mec_1_1modeling_1_1model_1_1erd_1_1CEntity.htm" target="_top" xlink:title="An entity is the description of an object, which is specified more precisely by attributes. ">
<polygon fill="none" stroke="black" points="838,-129.5 838,-157.5 1059,-157.5 1059,-129.5 838,-129.5"/>
<text text-anchor="start" x="846" y="-146.3" font-family="Helvetica,sans-Serif" font-size="9.00">de.tu_clausthal.in.mec.modeling.model.erd.</text>
<text text-anchor="middle" x="948.5" y="-136.3" font-family="Helvetica,sans-Serif" font-size="9.00">CEntity</text>
</a>
</g>
</g>
<!-- Node42&#45;&gt;Node13 -->
<g id="edge18" class="edge"><title>Node42&#45;&gt;Node13</title>
<path fill="none" stroke="midnightblue" d="M790.617,-150.296C806.285,-149.618 822.272,-148.925 837.757,-148.254"/>
<polygon fill="midnightblue" stroke="midnightblue" points="790.215,-146.81 780.376,-150.74 790.518,-153.804 790.215,-146.81"/>
</g>
<!-- Node28 -->
<g id="node18" class="node"><title>Node28</title>
<g id="a_node18"><a xlink:href="d5/de5/interfacede_1_1tu__clausthal_1_1in_1_1mec_1_1modeling_1_1model_1_1erd_1_1IInheritRelationship.htm" target="_top" xlink:title="de.tu_clausthal.in.mec.modeling.model.erd.\lIInheritRelationship\&lt; IAttribute \&gt;">
<polygon fill="none" stroke="black" points="559,-47.5 559,-75.5 780,-75.5 780,-47.5 559,-47.5"/>
<text text-anchor="start" x="567" y="-64.3" font-family="Helvetica,sans-Serif" font-size="9.00">de.tu_clausthal.in.mec.modeling.model.erd.</text>
<text text-anchor="middle" x="669.5" y="-54.3" font-family="Helvetica,sans-Serif" font-size="9.00">IInheritRelationship&lt; IAttribute &gt;</text>
</a>
</g>
</g>
<!-- Node14 -->
<g id="node19" class="node"><title>Node14</title>
<g id="a_node19"><a xlink:href="d6/d17/classde_1_1tu__clausthal_1_1in_1_1mec_1_1modeling_1_1model_1_1erd_1_1CInheritRelationship.htm" target="_top" xlink:title="Is&#45;a relationship implementation of the model. ">
<polygon fill="none" stroke="black" points="838,-59.5 838,-87.5 1059,-87.5 1059,-59.5 838,-59.5"/>
<text text-anchor="start" x="846" y="-76.3" font-family="Helvetica,sans-Serif" font-size="9.00">de.tu_clausthal.in.mec.modeling.model.erd.</text>
<text text-anchor="middle" x="948.5" y="-66.3" font-family="Helvetica,sans-Serif" font-size="9.00">CInheritRelationship</text>
</a>
</g>
</g>
<!-- Node28&#45;&gt;Node14 -->
<g id="edge19" class="edge"><title>Node28&#45;&gt;Node14</title>
<path fill="none" stroke="midnightblue" d="M790.617,-66.7036C806.285,-67.3824 822.272,-68.075 837.757,-68.7458"/>
<polygon fill="midnightblue" stroke="midnightblue" points="790.518,-63.1961 780.376,-66.26 790.215,-70.1896 790.518,-63.1961"/>
</g>
<!-- Node7 -->
<g id="node20" class="node"><title>Node7</title>
<g id="a_node20"><a xlink:href="d4/db2/interfacede_1_1tu__clausthal_1_1in_1_1mec_1_1modeling_1_1model_1_1graph_1_1INode.htm" target="_top" xlink:title="node interface ">
<polygon fill="none" stroke="black" points="0,-235.5 0,-263.5 233,-263.5 233,-235.5 0,-235.5"/>
<text text-anchor="start" x="8" y="-252.3" font-family="Helvetica,sans-Serif" font-size="9.00">de.tu_clausthal.in.mec.modeling.model.graph.</text>
<text text-anchor="middle" x="116.5" y="-242.3" font-family="Helvetica,sans-Serif" font-size="9.00">INode</text>
</a>
</g>
</g>
<!-- Node8 -->
<g id="node21" class="node"><title>Node8</title>
<g id="a_node21"><a xlink:href="d4/d3e/interfacede_1_1tu__clausthal_1_1in_1_1mec_1_1modeling_1_1model_1_1erd_1_1IErdNode.htm" target="_top" xlink:title="An node for the graphical ERD model. ">
<polygon fill="none" stroke="black" points="280,-235.5 280,-263.5 501,-263.5 501,-235.5 280,-235.5"/>
<text text-anchor="start" x="288" y="-252.3" font-family="Helvetica,sans-Serif" font-size="9.00">de.tu_clausthal.in.mec.modeling.model.erd.</text>
<text text-anchor="middle" x="390.5" y="-242.3" font-family="Helvetica,sans-Serif" font-size="9.00">IErdNode</text>
</a>
</g>
</g>
<!-- Node7&#45;&gt;Node8 -->
<g id="edge20" class="edge"><title>Node7&#45;&gt;Node8</title>
<path fill="none" stroke="midnightblue" d="M243.443,-249.5C255.621,-249.5 267.908,-249.5 279.909,-249.5"/>
<polygon fill="midnightblue" stroke="midnightblue" points="243.247,-246 233.247,-249.5 243.247,-253 243.247,-246"/>
</g>
<!-- Node12 -->
<g id="node25" class="node"><title>Node12</title>
<g id="a_node25"><a xlink:href="d5/d3e/classde_1_1tu__clausthal_1_1in_1_1mec_1_1modeling_1_1model_1_1graph_1_1IBaseNode.htm" target="_top" xlink:title="abstract class of an node ">
<polygon fill="none" stroke="black" points="553,-94.5 553,-122.5 786,-122.5 786,-94.5 553,-94.5"/>
<text text-anchor="start" x="561" y="-111.3" font-family="Helvetica,sans-Serif" font-size="9.00">de.tu_clausthal.in.mec.modeling.model.graph.</text>
<text text-anchor="middle" x="669.5" y="-101.3" font-family="Helvetica,sans-Serif" font-size="9.00">IBaseNode</text>
</a>
</g>
</g>
<!-- Node7&#45;&gt;Node12 -->
<g id="edge24" class="edge"><title>Node7&#45;&gt;Node12</title>
<path fill="none" stroke="midnightblue" d="M173.614,-232.593C255.442,-208.288 412.53,-162.943 548,-131.5 561.589,-128.346 576.112,-125.3 590.203,-122.514"/>
<polygon fill="midnightblue" stroke="midnightblue" points="172.6,-229.243 164.014,-235.451 174.597,-235.952 172.6,-229.243"/>
</g>
<!-- Node17 -->
<g id="node27" class="node"><title>Node17</title>
<g id="a_node27"><a xlink:href="dd/d9f/interfacede_1_1tu__clausthal_1_1in_1_1mec_1_1modeling_1_1model_1_1petrinet_1_1IPetrinetNode.htm" target="_top" xlink:title="petrinet node ">
<polygon fill="none" stroke="black" points="269,-328.5 269,-356.5 512,-356.5 512,-328.5 269,-328.5"/>
<text text-anchor="start" x="277" y="-345.3" font-family="Helvetica,sans-Serif" font-size="9.00">de.tu_clausthal.in.mec.modeling.model.petrinet.</text>
<text text-anchor="middle" x="390.5" y="-335.3" font-family="Helvetica,sans-Serif" font-size="9.00">IPetrinetNode</text>
</a>
</g>
</g>
<!-- Node7&#45;&gt;Node17 -->
<g id="edge30" class="edge"><title>Node7&#45;&gt;Node17</title>
<path fill="none" stroke="midnightblue" d="M168.195,-266.833C220.13,-284.591 299.903,-311.866 348.15,-328.362"/>
<polygon fill="midnightblue" stroke="midnightblue" points="169.11,-263.447 158.516,-263.524 166.845,-270.071 169.11,-263.447"/>
</g>
<!-- Node9 -->
<g id="node22" class="node"><title>Node9</title>
<g id="a_node22"><a xlink:href="d9/deb/interfacede_1_1tu__clausthal_1_1in_1_1mec_1_1modeling_1_1model_1_1erd_1_1IEntity.htm" target="_top" xlink:title="An entity is a fundamental part of an ERD. ">
<polygon fill="none" stroke="black" points="559,-188.5 559,-216.5 780,-216.5 780,-188.5 559,-188.5"/>
<text text-anchor="start" x="567" y="-205.3" font-family="Helvetica,sans-Serif" font-size="9.00">de.tu_clausthal.in.mec.modeling.model.erd.</text>
<text text-anchor="middle" x="669.5" y="-195.3" font-family="Helvetica,sans-Serif" font-size="9.00">IEntity&lt; A extends IAttribute &gt;</text>
</a>
</g>
</g>
<!-- Node8&#45;&gt;Node9 -->
<g id="edge21" class="edge"><title>Node8&#45;&gt;Node9</title>
<path fill="none" stroke="midnightblue" d="M484.286,-233.757C517.104,-228.188 553.78,-221.965 585.714,-216.547"/>
<polygon fill="midnightblue" stroke="midnightblue" points="483.507,-230.339 474.234,-235.462 484.679,-237.24 483.507,-230.339"/>
</g>
<!-- Node10 -->
<g id="node23" class="node"><title>Node10</title>
<g id="a_node23"><a xlink:href="d5/de5/interfacede_1_1tu__clausthal_1_1in_1_1mec_1_1modeling_1_1model_1_1erd_1_1IInheritRelationship.htm" target="_top" xlink:title="An is&#45;a relationship is also a fundamental part of an ERD. ">
<polygon fill="none" stroke="black" points="559,-282.5 559,-320.5 780,-320.5 780,-282.5 559,-282.5"/>
<text text-anchor="start" x="567" y="-309.3" font-family="Helvetica,sans-Serif" font-size="9.00">de.tu_clausthal.in.mec.modeling.model.erd.</text>
<text text-anchor="start" x="567" y="-299.3" font-family="Helvetica,sans-Serif" font-size="9.00">IInheritRelationship&lt; A extends</text>
<text text-anchor="middle" x="669.5" y="-289.3" font-family="Helvetica,sans-Serif" font-size="9.00"> IAttribute &gt;</text>
</a>
</g>
</g>
<!-- Node8&#45;&gt;Node10 -->
<g id="edge22" class="edge"><title>Node8&#45;&gt;Node10</title>
<path fill="none" stroke="midnightblue" d="M476.105,-265.382C504.865,-270.782 537.299,-276.87 567.227,-282.489"/>
<polygon fill="midnightblue" stroke="midnightblue" points="476.569,-261.909 466.095,-263.503 475.278,-268.788 476.569,-261.909"/>
</g>
<!-- Node11 -->
<g id="node24" class="node"><title>Node11</title>
<g id="a_node24"><a xlink:href="df/d49/interfacede_1_1tu__clausthal_1_1in_1_1mec_1_1modeling_1_1model_1_1erd_1_1IRelationship.htm" target="_top" xlink:title="A relationship is a fundamental part of an ERD. ">
<polygon fill="none" stroke="black" points="559,-235.5 559,-263.5 780,-263.5 780,-235.5 559,-235.5"/>
<text text-anchor="start" x="567" y="-252.3" font-family="Helvetica,sans-Serif" font-size="9.00">de.tu_clausthal.in.mec.modeling.model.erd.</text>
<text text-anchor="middle" x="669.5" y="-242.3" font-family="Helvetica,sans-Serif" font-size="9.00">IRelationship&lt; A extends IAttribute &gt;</text>
</a>
</g>
</g>
<!-- Node8&#45;&gt;Node11 -->
<g id="edge23" class="edge"><title>Node8&#45;&gt;Node11</title>
<path fill="none" stroke="midnightblue" d="M511.617,-249.5C527.285,-249.5 543.272,-249.5 558.757,-249.5"/>
<polygon fill="midnightblue" stroke="midnightblue" points="511.376,-246 501.376,-249.5 511.376,-253 511.376,-246"/>
</g>
<!-- Node12&#45;&gt;Node15 -->
<g id="edge28" class="edge"><title>Node12&#45;&gt;Node15</title>
<path fill="none" stroke="midnightblue" d="M786.806,-128.14C788.242,-129.21 789.642,-130.329 791,-131.5 827.726,-163.168 800.371,-193.972 827,-234.5 854.177,-275.862 900.078,-312.276 926.695,-331.361"/>
<polygon fill="midnightblue" stroke="midnightblue" points="788.497,-125.065 778.206,-122.549 784.682,-130.934 788.497,-125.065"/>
</g>
<!-- Node12&#45;&gt;Node16 -->
<g id="edge29" class="edge"><title>Node12&#45;&gt;Node16</title>
<path fill="none" stroke="midnightblue" d="M779.294,-126.094C783.311,-127.739 787.228,-129.536 791,-131.5 810.794,-141.804 808.145,-154.564 827,-166.5 848.038,-179.818 873.609,-190.071 895.773,-197.403"/>
<polygon fill="midnightblue" stroke="midnightblue" points="780.357,-122.755 769.765,-122.526 777.902,-129.31 780.357,-122.755"/>
</g>
<!-- Node12&#45;&gt;Node13 -->
<g id="edge25" class="edge"><title>Node12&#45;&gt;Node13</title>
<path fill="none" stroke="midnightblue" d="M791.608,-123.802C806.959,-125.742 822.599,-127.718 837.758,-129.634"/>
<polygon fill="midnightblue" stroke="midnightblue" points="791.93,-120.315 781.57,-122.534 791.053,-127.26 791.93,-120.315"/>
</g>
<!-- Node12&#45;&gt;Node14 -->
<g id="edge26" class="edge"><title>Node12&#45;&gt;Node14</title>
<path fill="none" stroke="midnightblue" d="M791.608,-93.1975C806.959,-91.2579 822.599,-89.2817 837.758,-87.3663"/>
<polygon fill="midnightblue" stroke="midnightblue" points="791.053,-89.7398 781.57,-94.4658 791.93,-96.6846 791.053,-89.7398"/>
</g>
<!-- Node1 -->
<g id="node26" class="node"><title>Node1</title>
<g id="a_node26"><a xlink:href="d1/de8/classde_1_1tu__clausthal_1_1in_1_1mec_1_1modeling_1_1model_1_1erd_1_1CRelationship.htm" target="_top" xlink:title="The relationships between the entities describe their behavior to each other. ">
<polygon fill="none" stroke="black" points="838,-12.5 838,-40.5 1059,-40.5 1059,-12.5 838,-12.5"/>
<text text-anchor="start" x="846" y="-29.3" font-family="Helvetica,sans-Serif" font-size="9.00">de.tu_clausthal.in.mec.modeling.model.erd.</text>
<text text-anchor="middle" x="948.5" y="-19.3" font-family="Helvetica,sans-Serif" font-size="9.00">CRelationship</text>
</a>
</g>
</g>
<!-- Node12&#45;&gt;Node1 -->
<g id="edge27" class="edge"><title>Node12&#45;&gt;Node1</title>
<path fill="none" stroke="midnightblue" d="M776.813,-90.9792C781.7,-89.0409 786.455,-86.889 791,-84.5 810.753,-74.117 807.206,-59.804 827,-49.5 833.706,-46.0089 840.87,-43.0437 848.235,-40.5258"/>
<polygon fill="midnightblue" stroke="midnightblue" points="775.477,-87.741 767.276,-94.4495 777.87,-94.319 775.477,-87.741"/>
</g>
<!-- Node17&#45;&gt;Node18 -->
<g id="edge31" class="edge"><title>Node17&#45;&gt;Node18</title>
<path fill="none" stroke="midnightblue" d="M481.394,-358.549C491.75,-360.726 502.13,-363.058 512,-365.5 528.24,-369.519 531.776,-372.416 548,-376.5 562.17,-380.066 577.384,-383.443 592.069,-386.475"/>
<polygon fill="midnightblue" stroke="midnightblue" points="481.99,-355.099 471.49,-356.511 480.579,-361.955 481.99,-355.099"/>
</g>
<!-- Node17&#45;&gt;Node19 -->
<g id="edge32" class="edge"><title>Node17&#45;&gt;Node19</title>
<path fill="none" stroke="midnightblue" d="M522.188,-347.69C530.727,-348.029 539.306,-348.37 547.794,-348.707"/>
<polygon fill="midnightblue" stroke="midnightblue" points="522.321,-344.192 512.19,-347.293 522.044,-351.187 522.321,-344.192"/>
</g>
<!-- Node0 -->
<g id="node28" class="node"><title>Node0</title>
<g id="a_node28"><a xlink:href="df/d49/interfacede_1_1tu__clausthal_1_1in_1_1mec_1_1modeling_1_1model_1_1erd_1_1IRelationship.htm" target="_top" xlink:title="de.tu_clausthal.in.mec.modeling.model.erd.\lIRelationship\&lt; IAttribute \&gt;">
<polygon fill="none" stroke="black" points="559,-0.5 559,-28.5 780,-28.5 780,-0.5 559,-0.5"/>
<text text-anchor="start" x="567" y="-17.3" font-family="Helvetica,sans-Serif" font-size="9.00">de.tu_clausthal.in.mec.modeling.model.erd.</text>
<text text-anchor="middle" x="669.5" y="-7.3" font-family="Helvetica,sans-Serif" font-size="9.00">IRelationship&lt; IAttribute &gt;</text>
</a>
</g>
</g>
<!-- Node0&#45;&gt;Node1 -->
<g id="edge33" class="edge"><title>Node0&#45;&gt;Node1</title>
<path fill="none" stroke="midnightblue" d="M790.617,-19.7036C806.285,-20.3824 822.272,-21.075 837.757,-21.7458"/>
<polygon fill="midnightblue" stroke="midnightblue" points="790.518,-16.1961 780.376,-19.26 790.215,-23.1896 790.518,-16.1961"/>
</g>
</g>
</svg>
