<?xml version="1.0" encoding="UTF-8" standalone="no"?>
<!DOCTYPE svg PUBLIC "-//W3C//DTD SVG 1.1//EN"
 "http://www.w3.org/Graphics/SVG/1.1/DTD/svg11.dtd">
<!-- Generated by graphviz version 2.38.0 (20140413.2041)
 -->
<!-- Title: Grafische Darstellung der Klassenhierarchie Pages: 1 -->
<svg width="534pt" height="309pt"
 viewBox="0.00 0.00 534.00 309.00" xmlns="http://www.w3.org/2000/svg" xmlns:xlink="http://www.w3.org/1999/xlink">
<g id="graph0" class="graph" transform="scale(1 1) rotate(0) translate(4 305)">
<title>Grafische Darstellung der Klassenhierarchie</title>
<!-- Node72 -->
<g id="node1" class="node"><title>Node72</title>
<polygon fill="none" stroke="#bfbfbf" points="77.5,-141.5 77.5,-159.5 167.5,-159.5 167.5,-141.5 77.5,-141.5"/>
<text text-anchor="middle" x="122.5" y="-148.3" font-family="Helvetica,sans-Serif" font-size="9.00">JsonDeserializer</text>
</g>
<!-- Node44 -->
<g id="node2" class="node"><title>Node44</title>
<g id="a_node2"><a xlink:href="d7/dc0/classde_1_1tu__clausthal_1_1in_1_1mec_1_1modeling_1_1deserializer_1_1erd_1_1CConnectionDeserializer.htm" target="_top" xlink:title="Implementation of deserialization to create concrete objects considering the JSON schema settings...">
<polygon fill="none" stroke="black" points="281,-270.5 281,-298.5 526,-298.5 526,-270.5 281,-270.5"/>
<text text-anchor="start" x="289" y="-287.3" font-family="Helvetica,sans-Serif" font-size="9.00">de.tu_clausthal.in.mec.modeling.deserializer.erd.</text>
<text text-anchor="middle" x="403.5" y="-277.3" font-family="Helvetica,sans-Serif" font-size="9.00">CConnectionDeserializer</text>
</a>
</g>
</g>
<!-- Node72&#45;&gt;Node44 -->
<g id="edge1" class="edge"><title>Node72&#45;&gt;Node44</title>
<path fill="none" stroke="midnightblue" d="M177.826,-147.739C200.666,-149.239 226.232,-154.729 245,-169.5 277.883,-195.381 249.061,-229.463 281,-256.5 287.691,-262.164 295.306,-266.737 303.385,-270.422"/>
<polygon fill="midnightblue" stroke="midnightblue" points="177.696,-144.231 167.559,-147.312 177.405,-151.225 177.696,-144.231"/>
</g>
<!-- Node41 -->
<g id="node3" class="node"><title>Node41</title>
<g id="a_node3"><a xlink:href="d5/d0d/classde_1_1tu__clausthal_1_1in_1_1mec_1_1modeling_1_1deserializer_1_1erd_1_1CEntityDeserializer.htm" target="_top" xlink:title="Implementation of deserialization to create concrete objects considering the JSON schema settings...">
<polygon fill="none" stroke="black" points="281,-218.5 281,-246.5 526,-246.5 526,-218.5 281,-218.5"/>
<text text-anchor="start" x="289" y="-235.3" font-family="Helvetica,sans-Serif" font-size="9.00">de.tu_clausthal.in.mec.modeling.deserializer.erd.</text>
<text text-anchor="middle" x="403.5" y="-225.3" font-family="Helvetica,sans-Serif" font-size="9.00">CEntityDeserializer</text>
</a>
</g>
</g>
<!-- Node72&#45;&gt;Node41 -->
<g id="edge2" class="edge"><title>Node72&#45;&gt;Node41</title>
<path fill="none" stroke="midnightblue" d="M177.702,-152.542C199.416,-154.979 224.171,-159.871 245,-169.5 264.166,-178.36 262.313,-190.671 281,-200.5 295.383,-208.065 311.684,-213.937 327.569,-218.461"/>
<polygon fill="midnightblue" stroke="midnightblue" points="177.935,-149.049 167.642,-151.561 177.255,-156.015 177.935,-149.049"/>
</g>
<!-- Node30 -->
<g id="node4" class="node"><title>Node30</title>
<g id="a_node4"><a xlink:href="dc/d74/classde_1_1tu__clausthal_1_1in_1_1mec_1_1modeling_1_1deserializer_1_1erd_1_1CInheritConnectionDeserializer.htm" target="_top" xlink:title="Implementation of deserialization to create concrete objects considering the JSON schema settings...">
<polygon fill="none" stroke="black" points="281,-162.5 281,-190.5 526,-190.5 526,-162.5 281,-162.5"/>
<text text-anchor="start" x="289" y="-179.3" font-family="Helvetica,sans-Serif" font-size="9.00">de.tu_clausthal.in.mec.modeling.deserializer.erd.</text>
<text text-anchor="middle" x="403.5" y="-169.3" font-family="Helvetica,sans-Serif" font-size="9.00">CInheritConnectionDeserializer</text>
</a>
</g>
</g>
<!-- Node72&#45;&gt;Node30 -->
<g id="edge3" class="edge"><title>Node72&#45;&gt;Node30</title>
<path fill="none" stroke="midnightblue" d="M177.757,-155.556C207.181,-158.298 244.809,-161.805 280.826,-165.161"/>
<polygon fill="midnightblue" stroke="midnightblue" points="177.99,-152.063 167.708,-154.62 177.34,-159.033 177.99,-152.063"/>
</g>
<!-- Node26 -->
<g id="node5" class="node"><title>Node26</title>
<g id="a_node5"><a xlink:href="de/d95/classde_1_1tu__clausthal_1_1in_1_1mec_1_1modeling_1_1deserializer_1_1erd_1_1CInheritRelationshipDeserializer.htm" target="_top" xlink:title="Implementation of deserialization to create concrete objects considering the JSON schema settings...">
<polygon fill="none" stroke="black" points="281,-97.5 281,-125.5 526,-125.5 526,-97.5 281,-97.5"/>
<text text-anchor="start" x="289" y="-114.3" font-family="Helvetica,sans-Serif" font-size="9.00">de.tu_clausthal.in.mec.modeling.deserializer.erd.</text>
<text text-anchor="middle" x="403.5" y="-104.3" font-family="Helvetica,sans-Serif" font-size="9.00">CInheritRelationshipDeserializer</text>
</a>
</g>
</g>
<!-- Node72&#45;&gt;Node26 -->
<g id="edge4" class="edge"><title>Node72&#45;&gt;Node26</title>
<path fill="none" stroke="midnightblue" d="M177.797,-142.91C213.084,-137.978 260.159,-131.397 302.103,-125.534"/>
<polygon fill="midnightblue" stroke="midnightblue" points="177.128,-139.47 167.708,-144.32 178.097,-146.402 177.128,-139.47"/>
</g>
<!-- Node21 -->
<g id="node6" class="node"><title>Node21</title>
<g id="a_node6"><a xlink:href="d7/d36/classde_1_1tu__clausthal_1_1in_1_1mec_1_1modeling_1_1deserializer_1_1erd_1_1CModelDeserializer.htm" target="_top" xlink:title="Implementation of deserialization to create concrete objects considering the JSON schema settings...">
<polygon fill="none" stroke="black" points="281,-48.5 281,-76.5 526,-76.5 526,-48.5 281,-48.5"/>
<text text-anchor="start" x="289" y="-65.3" font-family="Helvetica,sans-Serif" font-size="9.00">de.tu_clausthal.in.mec.modeling.deserializer.erd.</text>
<text text-anchor="middle" x="403.5" y="-55.3" font-family="Helvetica,sans-Serif" font-size="9.00">CModelDeserializer</text>
</a>
</g>
</g>
<!-- Node72&#45;&gt;Node21 -->
<g id="edge5" class="edge"><title>Node72&#45;&gt;Node21</title>
<path fill="none" stroke="midnightblue" d="M177.817,-150.844C199.86,-148.915 224.826,-143.946 245,-132.5 266.976,-120.032 259.432,-101.662 281,-88.5 288.918,-83.668 297.603,-79.7258 306.576,-76.5106"/>
<polygon fill="midnightblue" stroke="midnightblue" points="177.332,-147.369 167.595,-151.546 177.811,-154.353 177.332,-147.369"/>
</g>
<!-- Node1 -->
<g id="node7" class="node"><title>Node1</title>
<g id="a_node7"><a xlink:href="d7/d5f/classde_1_1tu__clausthal_1_1in_1_1mec_1_1modeling_1_1deserializer_1_1erd_1_1CRelationshipDeserializer.htm" target="_top" xlink:title="Implementation of deserialization to create concrete objects considering the JSON schema settings...">
<polygon fill="none" stroke="black" points="281,-1.5 281,-29.5 526,-29.5 526,-1.5 281,-1.5"/>
<text text-anchor="start" x="289" y="-18.3" font-family="Helvetica,sans-Serif" font-size="9.00">de.tu_clausthal.in.mec.modeling.deserializer.erd.</text>
<text text-anchor="middle" x="403.5" y="-8.3" font-family="Helvetica,sans-Serif" font-size="9.00">CRelationshipDeserializer</text>
</a>
</g>
</g>
<!-- Node72&#45;&gt;Node1 -->
<g id="edge6" class="edge"><title>Node72&#45;&gt;Node1</title>
<path fill="none" stroke="midnightblue" d="M177.954,-153.97C200.816,-152.707 226.366,-147.393 245,-132.5 279.623,-104.829 247.05,-67.9934 281,-39.5 285.529,-35.6988 290.487,-32.4373 295.73,-29.6434"/>
<polygon fill="midnightblue" stroke="midnightblue" points="177.561,-150.481 167.673,-154.285 177.775,-157.477 177.561,-150.481"/>
</g>
<!-- Node43 -->
<g id="node8" class="node"><title>Node43</title>
<g id="a_node8"><a xlink:href="dd/d98/interfacede_1_1tu__clausthal_1_1in_1_1mec_1_1modeling_1_1deserializer_1_1erd_1_1IConnectionDeserializer.htm" target="_top" xlink:title="The interface provides all the methods needed by deserialization. ">
<polygon fill="none" stroke="black" points="0,-272.5 0,-300.5 245,-300.5 245,-272.5 0,-272.5"/>
<text text-anchor="start" x="8" y="-289.3" font-family="Helvetica,sans-Serif" font-size="9.00">de.tu_clausthal.in.mec.modeling.deserializer.erd.</text>
<text text-anchor="middle" x="122.5" y="-279.3" font-family="Helvetica,sans-Serif" font-size="9.00">IConnectionDeserializer</text>
</a>
</g>
</g>
<!-- Node43&#45;&gt;Node44 -->
<g id="edge7" class="edge"><title>Node43&#45;&gt;Node44</title>
<path fill="none" stroke="midnightblue" d="M255.132,-285.556C263.732,-285.495 272.373,-285.433 280.922,-285.372"/>
<polygon fill="midnightblue" stroke="midnightblue" points="255.036,-282.057 245.062,-285.629 255.087,-289.057 255.036,-282.057"/>
</g>
<!-- Node40 -->
<g id="node9" class="node"><title>Node40</title>
<g id="a_node9"><a xlink:href="d6/dc1/interfacede_1_1tu__clausthal_1_1in_1_1mec_1_1modeling_1_1deserializer_1_1erd_1_1IEntityDeserializer.htm" target="_top" xlink:title="The interface provides all the methods needed by deserialization. ">
<polygon fill="none" stroke="black" points="0,-225.5 0,-253.5 245,-253.5 245,-225.5 0,-225.5"/>
<text text-anchor="start" x="8" y="-242.3" font-family="Helvetica,sans-Serif" font-size="9.00">de.tu_clausthal.in.mec.modeling.deserializer.erd.</text>
<text text-anchor="middle" x="122.5" y="-232.3" font-family="Helvetica,sans-Serif" font-size="9.00">IEntityDeserializer</text>
</a>
</g>
</g>
<!-- Node40&#45;&gt;Node41 -->
<g id="edge8" class="edge"><title>Node40&#45;&gt;Node41</title>
<path fill="none" stroke="midnightblue" d="M255.132,-236.197C263.732,-235.982 272.373,-235.765 280.922,-235.55"/>
<polygon fill="midnightblue" stroke="midnightblue" points="254.971,-232.7 245.062,-236.45 255.147,-239.698 254.971,-232.7"/>
</g>
<!-- Node29 -->
<g id="node10" class="node"><title>Node29</title>
<g id="a_node10"><a xlink:href="d8/d31/interfacede_1_1tu__clausthal_1_1in_1_1mec_1_1modeling_1_1deserializer_1_1erd_1_1IInheritConnectionDeserializer.htm" target="_top" xlink:title="The interface provides all the methods needed by deserialization. ">
<polygon fill="none" stroke="black" points="0,-178.5 0,-206.5 245,-206.5 245,-178.5 0,-178.5"/>
<text text-anchor="start" x="8" y="-195.3" font-family="Helvetica,sans-Serif" font-size="9.00">de.tu_clausthal.in.mec.modeling.deserializer.erd.</text>
<text text-anchor="middle" x="122.5" y="-185.3" font-family="Helvetica,sans-Serif" font-size="9.00">IInheritConnectionDeserializer</text>
</a>
</g>
</g>
<!-- Node29&#45;&gt;Node30 -->
<g id="edge9" class="edge"><title>Node29&#45;&gt;Node30</title>
<path fill="none" stroke="midnightblue" d="M255.132,-184.951C263.732,-184.458 272.373,-183.962 280.922,-183.472"/>
<polygon fill="midnightblue" stroke="midnightblue" points="254.845,-181.462 245.062,-185.529 255.246,-188.45 254.845,-181.462"/>
</g>
<!-- Node25 -->
<g id="node11" class="node"><title>Node25</title>
<g id="a_node11"><a xlink:href="de/d4d/namespacede_1_1tu__clausthal_1_1in_1_1mec_1_1modeling_1_1deserializer_1_1erd.htm" target="_top" xlink:title="de.tu_clausthal.in.mec.modeling.deserializer.erd.\lIInheritRelationshipDeserializer\&lt; IAttribute \&gt;">
<polygon fill="none" stroke="black" points="0,-94.5 0,-122.5 245,-122.5 245,-94.5 0,-94.5"/>
<text text-anchor="start" x="8" y="-111.3" font-family="Helvetica,sans-Serif" font-size="9.00">de.tu_clausthal.in.mec.modeling.deserializer.erd.</text>
<text text-anchor="middle" x="122.5" y="-101.3" font-family="Helvetica,sans-Serif" font-size="9.00">IInheritRelationshipDeserializer&lt; IAttribute &gt;</text>
</a>
</g>
</g>
<!-- Node25&#45;&gt;Node26 -->
<g id="edge10" class="edge"><title>Node25&#45;&gt;Node26</title>
<path fill="none" stroke="midnightblue" d="M255.132,-109.915C263.732,-110.008 272.373,-110.101 280.922,-110.193"/>
<polygon fill="midnightblue" stroke="midnightblue" points="255.099,-106.415 245.062,-109.807 255.024,-113.415 255.099,-106.415"/>
</g>
<!-- Node20 -->
<g id="node12" class="node"><title>Node20</title>
<g id="a_node12"><a xlink:href="d5/da2/interfacede_1_1tu__clausthal_1_1in_1_1mec_1_1modeling_1_1deserializer_1_1erd_1_1IModelDeserializer.htm" target="_top" xlink:title="The interface provides all the methods needed by deserialization. ">
<polygon fill="none" stroke="black" points="0,-47.5 0,-75.5 245,-75.5 245,-47.5 0,-47.5"/>
<text text-anchor="start" x="8" y="-64.3" font-family="Helvetica,sans-Serif" font-size="9.00">de.tu_clausthal.in.mec.modeling.deserializer.erd.</text>
<text text-anchor="middle" x="122.5" y="-54.3" font-family="Helvetica,sans-Serif" font-size="9.00">IModelDeserializer</text>
</a>
</g>
</g>
<!-- Node20&#45;&gt;Node21 -->
<g id="edge11" class="edge"><title>Node20&#45;&gt;Node21</title>
<path fill="none" stroke="midnightblue" d="M255.132,-61.9718C263.732,-62.0026 272.373,-62.0336 280.922,-62.0642"/>
<polygon fill="midnightblue" stroke="midnightblue" points="255.074,-58.4717 245.062,-61.9357 255.049,-65.4716 255.074,-58.4717"/>
</g>
<!-- Node0 -->
<g id="node13" class="node"><title>Node0</title>
<g id="a_node13"><a xlink:href="d5/d88/interfacede_1_1tu__clausthal_1_1in_1_1mec_1_1modeling_1_1deserializer_1_1erd_1_1IRelationshipDeserializer.htm" target="_top" xlink:title="The interface provides all the methods needed by deserialization. ">
<polygon fill="none" stroke="black" points="0,-0.5 0,-28.5 245,-28.5 245,-0.5 0,-0.5"/>
<text text-anchor="start" x="8" y="-17.3" font-family="Helvetica,sans-Serif" font-size="9.00">de.tu_clausthal.in.mec.modeling.deserializer.erd.</text>
<text text-anchor="middle" x="122.5" y="-7.3" font-family="Helvetica,sans-Serif" font-size="9.00">IRelationshipDeserializer</text>
</a>
</g>
</g>
<!-- Node0&#45;&gt;Node1 -->
<g id="edge12" class="edge"><title>Node0&#45;&gt;Node1</title>
<path fill="none" stroke="midnightblue" d="M255.132,-14.9718C263.732,-15.0026 272.373,-15.0336 280.922,-15.0642"/>
<polygon fill="midnightblue" stroke="midnightblue" points="255.074,-11.4717 245.062,-14.9357 255.049,-18.4716 255.074,-11.4717"/>
</g>
</g>
</svg>
