<?xml version="1.0" encoding="UTF-8" standalone="no"?>
<!DOCTYPE svg PUBLIC "-//W3C//DTD SVG 1.1//EN"
 "http://www.w3.org/Graphics/SVG/1.1/DTD/svg11.dtd">
<!-- Generated by graphviz version 2.38.0 (20140413.2041)
 -->
<!-- Title: de.tu_clausthal.in.mec.modeling.model.erd.CErd.raw Pages: 1 -->
<svg width="493pt" height="272pt"
 viewBox="0.00 0.00 493.00 272.00" xmlns="http://www.w3.org/2000/svg" xmlns:xlink="http://www.w3.org/1999/xlink">
<g id="graph0" class="graph" transform="scale(1 1) rotate(0) translate(4 268)">
<title>de.tu_clausthal.in.mec.modeling.model.erd.CErd.raw</title>
<!-- Node62 -->
<g id="node1" class="node"><title>Node62</title>
<polygon fill="#bfbfbf" stroke="black" points="0,-117.5 0,-145.5 221,-145.5 221,-117.5 0,-117.5"/>
<text text-anchor="start" x="8" y="-134.3" font-family="Helvetica,sans-Serif" font-size="9.00">de.tu_clausthal.in.mec.modeling.model.erd.</text>
<text text-anchor="middle" x="110.5" y="-124.3" font-family="Helvetica,sans-Serif" font-size="9.00">CErd.raw</text>
</g>
<!-- Node63 -->
<g id="node2" class="node"><title>Node63</title>
<g id="a_node2"><a xlink:href="../../d4/d51/classde_1_1tu__clausthal_1_1in_1_1mec_1_1modeling_1_1model_1_1erd_1_1CErd.htm#ae4d2b9ee9bd3f115ef8450104cafc354" target="_top" xlink:title="de.tu_clausthal.in.mec.modeling.model.erd.\lCErd.addAttributeToEntity">
<polygon fill="none" stroke="black" points="260.5,-235.5 260.5,-263.5 481.5,-263.5 481.5,-235.5 260.5,-235.5"/>
<text text-anchor="start" x="268.5" y="-252.3" font-family="Helvetica,sans-Serif" font-size="9.00">de.tu_clausthal.in.mec.modeling.model.erd.</text>
<text text-anchor="middle" x="371" y="-242.3" font-family="Helvetica,sans-Serif" font-size="9.00">CErd.addAttributeToEntity</text>
</a>
</g>
</g>
<!-- Node62&#45;&gt;Node63 -->
<g id="edge1" class="edge"><title>Node62&#45;&gt;Node63</title>
<path fill="none" stroke="midnightblue" d="M136.619,-152.196C164.373,-173.992 211.224,-207.704 257,-226.5 265.427,-229.96 274.427,-232.917 283.532,-235.439"/>
<polygon fill="midnightblue" stroke="midnightblue" points="138.645,-149.334 128.641,-145.844 134.284,-154.811 138.645,-149.334"/>
</g>
<!-- Node64 -->
<g id="node3" class="node"><title>Node64</title>
<g id="a_node3"><a xlink:href="../../d4/d51/classde_1_1tu__clausthal_1_1in_1_1mec_1_1modeling_1_1model_1_1erd_1_1CErd.htm#a64a91d28df445a93a3d5607fedd6ac7c" target="_top" xlink:title="add new attribute to a relationship ">
<polygon fill="none" stroke="black" points="260.5,-188.5 260.5,-216.5 481.5,-216.5 481.5,-188.5 260.5,-188.5"/>
<text text-anchor="start" x="268.5" y="-205.3" font-family="Helvetica,sans-Serif" font-size="9.00">de.tu_clausthal.in.mec.modeling.model.erd.</text>
<text text-anchor="middle" x="371" y="-195.3" font-family="Helvetica,sans-Serif" font-size="9.00">CErd.addAttributeToRelationship</text>
</a>
</g>
</g>
<!-- Node62&#45;&gt;Node64 -->
<g id="edge2" class="edge"><title>Node62&#45;&gt;Node64</title>
<path fill="none" stroke="midnightblue" d="M159.625,-148.961C187.766,-158.771 224.116,-170.762 257,-179.5 269.093,-182.713 282.017,-185.729 294.644,-188.451"/>
<polygon fill="midnightblue" stroke="midnightblue" points="160.627,-145.603 150.033,-145.591 158.307,-152.208 160.627,-145.603"/>
</g>
<!-- Node65 -->
<g id="node4" class="node"><title>Node65</title>
<g id="a_node4"><a xlink:href="../../d4/d51/classde_1_1tu__clausthal_1_1in_1_1mec_1_1modeling_1_1model_1_1erd_1_1CErd.htm#a2cbf273c8fcaf7fcca5ad4bb2cd45ab9" target="_top" xlink:title="connect child entity with is&#45;a relationship ">
<polygon fill="none" stroke="black" points="260.5,-141.5 260.5,-169.5 481.5,-169.5 481.5,-141.5 260.5,-141.5"/>
<text text-anchor="start" x="268.5" y="-158.3" font-family="Helvetica,sans-Serif" font-size="9.00">de.tu_clausthal.in.mec.modeling.model.erd.</text>
<text text-anchor="middle" x="371" y="-148.3" font-family="Helvetica,sans-Serif" font-size="9.00">CErd.connectChildEntityWithISARelationship</text>
</a>
</g>
</g>
<!-- Node62&#45;&gt;Node65 -->
<g id="edge3" class="edge"><title>Node62&#45;&gt;Node65</title>
<path fill="none" stroke="midnightblue" d="M231.176,-142.611C240.853,-143.51 250.601,-144.415 260.203,-145.306"/>
<polygon fill="midnightblue" stroke="midnightblue" points="231.408,-139.118 221.127,-141.678 230.761,-146.088 231.408,-139.118"/>
</g>
<!-- Node66 -->
<g id="node5" class="node"><title>Node66</title>
<g id="a_node5"><a xlink:href="../../d4/d51/classde_1_1tu__clausthal_1_1in_1_1mec_1_1modeling_1_1model_1_1erd_1_1CErd.htm#a35782e0c3a22a1bee3447843f519eef9" target="_top" xlink:title="connect relationship with entity ">
<polygon fill="none" stroke="black" points="260.5,-94.5 260.5,-122.5 481.5,-122.5 481.5,-94.5 260.5,-94.5"/>
<text text-anchor="start" x="268.5" y="-111.3" font-family="Helvetica,sans-Serif" font-size="9.00">de.tu_clausthal.in.mec.modeling.model.erd.</text>
<text text-anchor="middle" x="371" y="-101.3" font-family="Helvetica,sans-Serif" font-size="9.00">CErd.connectEntityWithRelationship</text>
</a>
</g>
</g>
<!-- Node62&#45;&gt;Node66 -->
<g id="edge4" class="edge"><title>Node62&#45;&gt;Node66</title>
<path fill="none" stroke="midnightblue" d="M231.176,-120.852C240.853,-119.991 250.601,-119.124 260.203,-118.269"/>
<polygon fill="midnightblue" stroke="midnightblue" points="230.778,-117.373 221.127,-121.746 231.398,-124.346 230.778,-117.373"/>
</g>
<!-- Node67 -->
<g id="node6" class="node"><title>Node67</title>
<g id="a_node6"><a xlink:href="../../d4/d51/classde_1_1tu__clausthal_1_1in_1_1mec_1_1modeling_1_1model_1_1erd_1_1CErd.htm#a0328db0e0863a5e1be5d09e35a4b311b" target="_top" xlink:title="connect parent entity with is&#45;a relationship ">
<polygon fill="none" stroke="black" points="257,-47.5 257,-75.5 485,-75.5 485,-47.5 257,-47.5"/>
<text text-anchor="start" x="265" y="-64.3" font-family="Helvetica,sans-Serif" font-size="9.00">de.tu_clausthal.in.mec.modeling.model.erd.</text>
<text text-anchor="middle" x="371" y="-54.3" font-family="Helvetica,sans-Serif" font-size="9.00">CErd.connectParentEntityWithISARelationship</text>
</a>
</g>
</g>
<!-- Node62&#45;&gt;Node67 -->
<g id="edge5" class="edge"><title>Node62&#45;&gt;Node67</title>
<path fill="none" stroke="midnightblue" d="M161.794,-114.276C189.658,-105.068 225.032,-93.9269 257,-85.5 270.381,-81.9726 284.758,-78.6032 298.622,-75.5628"/>
<polygon fill="midnightblue" stroke="midnightblue" points="160.653,-110.966 152.269,-117.444 162.863,-117.609 160.653,-110.966"/>
</g>
<!-- Node68 -->
<g id="node7" class="node"><title>Node68</title>
<g id="a_node7"><a xlink:href="../../d1/d7e/classde_1_1tu__clausthal_1_1in_1_1mec_1_1modeling_1_1model_1_1erd_1_1CErd_1_1CSerializer.htm#ad739c34c637a438d2bafc1a1c552fdad" target="_top" xlink:title="de.tu_clausthal.in.mec.modeling.model.erd.\lCErd.CSerializer.CSerializer">
<polygon fill="none" stroke="black" points="260.5,-0.5 260.5,-28.5 481.5,-28.5 481.5,-0.5 260.5,-0.5"/>
<text text-anchor="start" x="268.5" y="-17.3" font-family="Helvetica,sans-Serif" font-size="9.00">de.tu_clausthal.in.mec.modeling.model.erd.</text>
<text text-anchor="middle" x="371" y="-7.3" font-family="Helvetica,sans-Serif" font-size="9.00">CErd.CSerializer.CSerializer</text>
</a>
</g>
</g>
<!-- Node62&#45;&gt;Node68 -->
<g id="edge6" class="edge"><title>Node62&#45;&gt;Node68</title>
<path fill="none" stroke="midnightblue" d="M137.189,-110.984C165.089,-89.719 211.75,-57.0477 257,-38.5 266.464,-34.6207 276.642,-31.3346 286.874,-28.5592"/>
<polygon fill="midnightblue" stroke="midnightblue" points="134.93,-108.306 129.155,-117.189 139.208,-113.846 134.93,-108.306"/>
</g>
</g>
</svg>
