<?xml version="1.0" encoding="UTF-8" standalone="no"?>
<!DOCTYPE svg PUBLIC "-//W3C//DTD SVG 1.1//EN"
 "http://www.w3.org/Graphics/SVG/1.1/DTD/svg11.dtd">
<!-- Generated by graphviz version 2.38.0 (20140413.2041)
 -->
<!-- Title: de.tu_clausthal.in.mec.modeling.model.erd.CErd.connectParentEntityWithISARelationship Pages: 1 -->
<svg width="505pt" height="84pt"
 viewBox="0.00 0.00 505.00 84.00" xmlns="http://www.w3.org/2000/svg" xmlns:xlink="http://www.w3.org/1999/xlink">
<g id="graph0" class="graph" transform="scale(1 1) rotate(0) translate(4 80)">
<title>de.tu_clausthal.in.mec.modeling.model.erd.CErd.connectParentEntityWithISARelationship</title>
<!-- Node46 -->
<g id="node1" class="node"><title>Node46</title>
<polygon fill="#bfbfbf" stroke="black" points="0,-23.5 0,-51.5 228,-51.5 228,-23.5 0,-23.5"/>
<text text-anchor="start" x="8" y="-40.3" font-family="Helvetica,sans-Serif" font-size="9.00">de.tu_clausthal.in.mec.modeling.model.erd.</text>
<text text-anchor="middle" x="114" y="-30.3" font-family="Helvetica,sans-Serif" font-size="9.00">CErd.connectParentEntityWithISARelationship</text>
</g>
<!-- Node47 -->
<g id="node2" class="node"><title>Node47</title>
<g id="a_node2"><a xlink:href="../../d4/db2/interfacede_1_1tu__clausthal_1_1in_1_1mec_1_1modeling_1_1model_1_1graph_1_1INode.htm#a13f70c110a921204c800c6f0ddb9ba16" target="_top" xlink:title="cast operation ">
<polygon fill="none" stroke="black" points="264,-47.5 264,-75.5 497,-75.5 497,-47.5 264,-47.5"/>
<text text-anchor="start" x="272" y="-64.3" font-family="Helvetica,sans-Serif" font-size="9.00">de.tu_clausthal.in.mec.modeling.model.graph.</text>
<text text-anchor="middle" x="380.5" y="-54.3" font-family="Helvetica,sans-Serif" font-size="9.00">INode.raw</text>
</a>
</g>
</g>
<!-- Node46&#45;&gt;Node47 -->
<g id="edge1" class="edge"><title>Node46&#45;&gt;Node47</title>
<path fill="none" stroke="midnightblue" d="M228.323,-47.7826C236.788,-48.5507 245.359,-49.3285 253.893,-50.1028"/>
<polygon fill="midnightblue" stroke="midnightblue" points="253.611,-53.5915 263.886,-51.0095 254.243,-46.6201 253.611,-53.5915"/>
</g>
<!-- Node48 -->
<g id="node3" class="node"><title>Node48</title>
<g id="a_node3"><a xlink:href="../../d4/d51/classde_1_1tu__clausthal_1_1in_1_1mec_1_1modeling_1_1model_1_1erd_1_1CErd.htm#ac20196d43b6dfe56b1b0f4649e2f8829" target="_top" xlink:title="casting method to cast a model into its subtype ">
<polygon fill="none" stroke="black" points="270,-0.5 270,-28.5 491,-28.5 491,-0.5 270,-0.5"/>
<text text-anchor="start" x="278" y="-17.3" font-family="Helvetica,sans-Serif" font-size="9.00">de.tu_clausthal.in.mec.modeling.model.erd.</text>
<text text-anchor="middle" x="380.5" y="-7.3" font-family="Helvetica,sans-Serif" font-size="9.00">CErd.raw</text>
</a>
</g>
</g>
<!-- Node46&#45;&gt;Node48 -->
<g id="edge2" class="edge"><title>Node46&#45;&gt;Node48</title>
<path fill="none" stroke="midnightblue" d="M228.323,-27.6458C238.736,-26.7404 249.309,-25.821 259.776,-24.9108"/>
<polygon fill="midnightblue" stroke="midnightblue" points="260.112,-28.3949 269.771,-24.0417 259.505,-21.4212 260.112,-28.3949"/>
</g>
</g>
</svg>
