<?xml version="1.0" encoding="UTF-8" standalone="no"?>
<!DOCTYPE svg PUBLIC "-//W3C//DTD SVG 1.1//EN"
 "http://www.w3.org/Graphics/SVG/1.1/DTD/svg11.dtd">
<!-- Generated by graphviz version 2.38.0 (20140413.2041)
 -->
<!-- Title: de.tu_clausthal.in.mec.modeling.model.erd.CErd.check Pages: 1 -->
<!--zoomable 178 -->
<svg id="main" version="1.1" xmlns="http://www.w3.org/2000/svg" xmlns:xlink="http://www.w3.org/1999/xlink" xml:space="preserve" onload="init(evt)">
<style type="text/css"><![CDATA[
.edge:hover path { stroke: red; }
.edge:hover polygon { stroke: red; fill: red; }
]]></style>
<script type="text/javascript"><![CDATA[
var edges = document.getElementsByTagName('g');
if (edges && edges.length) {
  for (var i=0;i<edges.length;i++) {
    if (edges[i].id.substr(0,4)=='edge') {
      edges[i].setAttribute('class','edge');
    }
  }
}
]]></script>
        <defs>
                <circle id="rim" cx="0" cy="0" r="7"/>
                <circle id="rim2" cx="0" cy="0" r="3.5"/>
                <g id="zoomPlus">
                        <use xlink:href="#rim" fill="#404040">
                                <set attributeName="fill" to="#808080" begin="zoomplus.mouseover" end="zoomplus.mouseout"/>
                        </use>
                        <path d="M-4,0h8M0,-4v8" fill="none" stroke="white" stroke-width="1.5" pointer-events="none"/>
                </g>
                <g id="zoomMin">
                        <use xlink:href="#rim" fill="#404040">
                                <set attributeName="fill" to="#808080" begin="zoomminus.mouseover" end="zoomminus.mouseout"/>
                        </use>
                        <path d="M-4,0h8" fill="none" stroke="white" stroke-width="1.5" pointer-events="none"/>
                </g>
                <g id="dirArrow">
                        <path fill="none" stroke="white" stroke-width="1.5" d="M0,-3.0v7 M-2.5,-0.5L0,-3.0L2.5,-0.5"/>
                </g>
               <g id="resetDef">
                       <use xlink:href="#rim2" fill="#404040">
                               <set attributeName="fill" to="#808080" begin="reset.mouseover" end="reset.mouseout"/>
                       </use>
               </g>
        </defs>

<script type="text/javascript">
var viewWidth = 1012;
var viewHeight = 178;
var sectionId = 'dynsection-4';
</script>
<script xlink:href="../../svgpan.js"/>
<svg id="graph" class="graph">
<g id="viewport">
<title>de.tu_clausthal.in.mec.modeling.model.erd.CErd.check</title>
<!-- Node16 -->
<g id="node1" class="node"><title>Node16</title>
<polygon fill="#bfbfbf" stroke="black" points="0,-70.5 0,-98.5 221,-98.5 221,-70.5 0,-70.5"/>
<text text-anchor="start" x="8" y="-87.3" font-family="Helvetica,sans-Serif" font-size="9.00">de.tu_clausthal.in.mec.modeling.model.erd.</text>
<text text-anchor="middle" x="110.5" y="-77.3" font-family="Helvetica,sans-Serif" font-size="9.00">CErd.check</text>
</g>
<!-- Node17 -->
<g id="node2" class="node"><title>Node17</title>
<g id="a_node2"><a xlink:href="../../df/d09/classde_1_1tu__clausthal_1_1in_1_1mec_1_1modeling_1_1model_1_1erd_1_1CErdChecker.htm#a03981d88022c4953ff78b0eefa964061" target="_top" xlink:title="method to run all test below ">
<polygon fill="none" stroke="black" points="257,-70.5 257,-98.5 478,-98.5 478,-70.5 257,-70.5"/>
<text text-anchor="start" x="265" y="-87.3" font-family="Helvetica,sans-Serif" font-size="9.00">de.tu_clausthal.in.mec.modeling.model.erd.</text>
<text text-anchor="middle" x="367.5" y="-77.3" font-family="Helvetica,sans-Serif" font-size="9.00">CErdChecker.runAllTests</text>
</a>
</g>
</g>
<!-- Node16&#45;&gt;Node17 -->
<g id="edge1" class="edge"><title>Node16&#45;&gt;Node17</title>
<path fill="none" stroke="midnightblue" d="M221.123,-84.5C229.661,-84.5 238.308,-84.5 246.907,-84.5"/>
<polygon fill="midnightblue" stroke="midnightblue" points="246.97,-88.0001 256.97,-84.5 246.97,-81.0001 246.97,-88.0001"/>
</g>
<!-- Node18 -->
<g id="node3" class="node"><title>Node18</title>
<g id="a_node3"><a xlink:href="../../df/d09/classde_1_1tu__clausthal_1_1in_1_1mec_1_1modeling_1_1model_1_1erd_1_1CErdChecker.htm#a55713561a36fbb87a8b1532d0f83e8c3" target="_top" xlink:title="entities should contain at least one attribute without attributes an entity make no sense ...">
<polygon fill="none" stroke="black" points="514,-141.5 514,-169.5 735,-169.5 735,-141.5 514,-141.5"/>
<text text-anchor="start" x="522" y="-158.3" font-family="Helvetica,sans-Serif" font-size="9.00">de.tu_clausthal.in.mec.modeling.model.erd.</text>
<text text-anchor="middle" x="624.5" y="-148.3" font-family="Helvetica,sans-Serif" font-size="9.00">CErdChecker.validateEntities</text>
</a>
</g>
</g>
<!-- Node17&#45;&gt;Node18 -->
<g id="edge2" class="edge"><title>Node17&#45;&gt;Node18</title>
<path fill="none" stroke="midnightblue" d="M407.051,-98.5237C436.174,-108.798 477.269,-122.617 514,-132.5 522.747,-134.854 531.941,-137.113 541.129,-139.234"/>
<polygon fill="midnightblue" stroke="midnightblue" points="540.549,-142.692 551.075,-141.48 542.091,-135.863 540.549,-142.692"/>
</g>
<!-- Node20 -->
<g id="node5" class="node"><title>Node20</title>
<g id="a_node5"><a xlink:href="../../df/d09/classde_1_1tu__clausthal_1_1in_1_1mec_1_1modeling_1_1model_1_1erd_1_1CErdChecker.htm#abda9f2a26a9c9da7b42fb9b787421112" target="_top" xlink:title="method to validate the relationships all relationships contain exactly 2 entities or be recursive ...">
<polygon fill="none" stroke="black" points="514,-94.5 514,-122.5 735,-122.5 735,-94.5 514,-94.5"/>
<text text-anchor="start" x="522" y="-111.3" font-family="Helvetica,sans-Serif" font-size="9.00">de.tu_clausthal.in.mec.modeling.model.erd.</text>
<text text-anchor="middle" x="624.5" y="-101.3" font-family="Helvetica,sans-Serif" font-size="9.00">CErdChecker.validateRelationships</text>
</a>
</g>
</g>
<!-- Node17&#45;&gt;Node20 -->
<g id="edge4" class="edge"><title>Node17&#45;&gt;Node20</title>
<path fill="none" stroke="midnightblue" d="M478.123,-94.8174C486.661,-95.621 495.308,-96.4349 503.907,-97.2442"/>
<polygon fill="midnightblue" stroke="midnightblue" points="503.686,-100.739 513.97,-98.1913 504.342,-93.7695 503.686,-100.739"/>
</g>
<!-- Node21 -->
<g id="node6" class="node"><title>Node21</title>
<g id="a_node6"><a xlink:href="../../df/d09/classde_1_1tu__clausthal_1_1in_1_1mec_1_1modeling_1_1model_1_1erd_1_1CErdChecker.htm#a9f17518246c3691153559c35f25155dd" target="_top" xlink:title="validate is&#45;a relationships child entities are not connected to other relationships, this is not allowed, because child entities are the most abstract elements in a graphical model and has no connections ">
<polygon fill="none" stroke="black" points="514,-47.5 514,-75.5 735,-75.5 735,-47.5 514,-47.5"/>
<text text-anchor="start" x="522" y="-64.3" font-family="Helvetica,sans-Serif" font-size="9.00">de.tu_clausthal.in.mec.modeling.model.erd.</text>
<text text-anchor="middle" x="624.5" y="-54.3" font-family="Helvetica,sans-Serif" font-size="9.00">CErdChecker.validateISARelationships</text>
</a>
</g>
</g>
<!-- Node17&#45;&gt;Node21 -->
<g id="edge6" class="edge"><title>Node17&#45;&gt;Node21</title>
<path fill="none" stroke="midnightblue" d="M478.123,-74.6124C486.661,-73.8424 495.308,-73.0624 503.907,-72.2868"/>
<polygon fill="midnightblue" stroke="midnightblue" points="504.325,-75.7635 513.97,-71.3792 503.696,-68.7918 504.325,-75.7635"/>
</g>
<!-- Node22 -->
<g id="node7" class="node"><title>Node22</title>
<g id="a_node7"><a xlink:href="../../df/d09/classde_1_1tu__clausthal_1_1in_1_1mec_1_1modeling_1_1model_1_1erd_1_1CErdChecker.htm#a81ca230eeb302d605b6cc9cfbc1469e9" target="_top" xlink:title="validate weak key attributes only a weak entity can contains a weak key attribute property and not a ...">
<polygon fill="none" stroke="black" points="514,-0.5 514,-28.5 735,-28.5 735,-0.5 514,-0.5"/>
<text text-anchor="start" x="522" y="-17.3" font-family="Helvetica,sans-Serif" font-size="9.00">de.tu_clausthal.in.mec.modeling.model.erd.</text>
<text text-anchor="middle" x="624.5" y="-7.3" font-family="Helvetica,sans-Serif" font-size="9.00">CErdChecker.validateWeakEntityKeys</text>
</a>
</g>
</g>
<!-- Node17&#45;&gt;Node22 -->
<g id="edge8" class="edge"><title>Node17&#45;&gt;Node22</title>
<path fill="none" stroke="midnightblue" d="M409.601,-70.4119C438.584,-60.747 478.422,-48.0021 514,-38.5 523.974,-35.8361 534.517,-33.2457 544.963,-30.8127"/>
<polygon fill="midnightblue" stroke="midnightblue" points="545.962,-34.1748 554.928,-28.531 544.399,-27.3513 545.962,-34.1748"/>
</g>
<!-- Node19 -->
<g id="node4" class="node"><title>Node19</title>
<g id="a_node4"><a xlink:href="../../d4/d8a/interfacede_1_1tu__clausthal_1_1in_1_1mec_1_1modeling_1_1model_1_1graph_1_1IGraph.htm#a461febfd6ed576894a2110a298a6eec2" target="_top" xlink:title="stream over all nodes ">
<polygon fill="none" stroke="black" points="771,-70.5 771,-98.5 1004,-98.5 1004,-70.5 771,-70.5"/>
<text text-anchor="start" x="779" y="-87.3" font-family="Helvetica,sans-Serif" font-size="9.00">de.tu_clausthal.in.mec.modeling.model.graph.</text>
<text text-anchor="middle" x="887.5" y="-77.3" font-family="Helvetica,sans-Serif" font-size="9.00">IGraph.nodes</text>
</a>
</g>
</g>
<!-- Node18&#45;&gt;Node19 -->
<g id="edge3" class="edge"><title>Node18&#45;&gt;Node19</title>
<path fill="none" stroke="midnightblue" d="M697.307,-141.489C709.919,-138.723 722.882,-135.684 735,-132.5 769.164,-123.524 807.048,-111.521 836.386,-101.763"/>
<polygon fill="midnightblue" stroke="midnightblue" points="837.619,-105.041 845.991,-98.5477 835.397,-98.4035 837.619,-105.041"/>
</g>
<!-- Node20&#45;&gt;Node19 -->
<g id="edge5" class="edge"><title>Node20&#45;&gt;Node19</title>
<path fill="none" stroke="midnightblue" d="M735.053,-98.4262C743.576,-97.6425 752.221,-96.8475 760.838,-96.0551"/>
<polygon fill="midnightblue" stroke="midnightblue" points="761.294,-99.528 770.932,-95.127 760.653,-92.5575 761.294,-99.528"/>
</g>
<!-- Node21&#45;&gt;Node19 -->
<g id="edge7" class="edge"><title>Node21&#45;&gt;Node19</title>
<path fill="none" stroke="midnightblue" d="M735.053,-71.1541C743.576,-71.9051 752.221,-72.667 760.838,-73.4263"/>
<polygon fill="midnightblue" stroke="midnightblue" points="760.663,-76.9244 770.932,-74.3158 761.277,-69.9514 760.663,-76.9244"/>
</g>
<!-- Node22&#45;&gt;Node19 -->
<g id="edge9" class="edge"><title>Node22&#45;&gt;Node19</title>
<path fill="none" stroke="midnightblue" d="M693.457,-28.5193C707.253,-31.611 721.63,-35.0108 735,-38.5 767.952,-47.0994 804.492,-58.1491 833.43,-67.2634"/>
<polygon fill="midnightblue" stroke="midnightblue" points="832.741,-70.7162 843.331,-70.3993 834.854,-64.043 832.741,-70.7162"/>
</g>
</g>
</svg>
        <g id="navigator" transform="translate(0 0)" fill="#404254">
                <rect fill="#f2f5e9" fill-opacity="0.5" stroke="#606060" stroke-width=".5" x="0" y="0" width="60" height="60"/>
                <use id="zoomplus" xlink:href="#zoomPlus" x="17" y="9" onmousedown="handleZoom(evt,'in')"/>
                <use id="zoomminus" xlink:href="#zoomMin" x="42" y="9" onmousedown="handleZoom(evt,'out')"/>
                <use id="reset" xlink:href="#resetDef" x="30" y="36" onmousedown="handleReset()"/>
                <g id="arrowUp" xlink:href="#dirArrow" transform="translate(30 24)" onmousedown="handlePan(0,-1)">
                  <use xlink:href="#rim" fill="#404040">
                        <set attributeName="fill" to="#808080" begin="arrowUp.mouseover" end="arrowUp.mouseout"/>
                  </use>
                  <path fill="none" stroke="white" stroke-width="1.5" d="M0,-3.0v7 M-2.5,-0.5L0,-3.0L2.5,-0.5"/>
                </g>
                <g id="arrowRight" xlink:href="#dirArrow" transform="rotate(90) translate(36 -43)" onmousedown="handlePan(1,0)">
                  <use xlink:href="#rim" fill="#404040">
                        <set attributeName="fill" to="#808080" begin="arrowRight.mouseover" end="arrowRight.mouseout"/>
                  </use>
                  <path fill="none" stroke="white" stroke-width="1.5" d="M0,-3.0v7 M-2.5,-0.5L0,-3.0L2.5,-0.5"/>
                </g>
                <g id="arrowDown" xlink:href="#dirArrow" transform="rotate(180) translate(-30 -48)" onmousedown="handlePan(0,1)">
                  <use xlink:href="#rim" fill="#404040">
                        <set attributeName="fill" to="#808080" begin="arrowDown.mouseover" end="arrowDown.mouseout"/>
                  </use>
                  <path fill="none" stroke="white" stroke-width="1.5" d="M0,-3.0v7 M-2.5,-0.5L0,-3.0L2.5,-0.5"/>
                </g>
                <g id="arrowLeft" xlink:href="#dirArrow" transform="rotate(270) translate(-36 17)" onmousedown="handlePan(-1,0)">
                  <use xlink:href="#rim" fill="#404040">
                        <set attributeName="fill" to="#808080" begin="arrowLeft.mouseover" end="arrowLeft.mouseout"/>
                  </use>
                  <path fill="none" stroke="white" stroke-width="1.5" d="M0,-3.0v7 M-2.5,-0.5L0,-3.0L2.5,-0.5"/>
                </g>
        </g>
        <svg viewBox="0 0 15 15" width="100%" height="30px" preserveAspectRatio="xMaxYMin meet">
         <g id="arrow_out" transform="scale(0.3 0.3)">
          <a xlink:href="classde_1_1tu__clausthal_1_1in_1_1mec_1_1modeling_1_1model_1_1erd_1_1CErd_a962f9ff4a584c7aec63576a3c6fb4c74_cgraph_org.svg" target="_base">
           <rect id="button" ry="5" rx="5" y="6" x="6" height="38" width="38"
                fill="#f2f5e9" fill-opacity="0.5" stroke="#606060" stroke-width="1.0"/>
           <path id="arrow"
             d="M 11.500037,31.436501 C 11.940474,20.09759 22.043105,11.32322 32.158766,21.979434 L 37.068811,17.246167 C 37.068811,17.246167 37.088388,32 37.088388,32 L 22.160133,31.978069 C 22.160133,31.978069 26.997745,27.140456 26.997745,27.140456 C 18.528582,18.264221 13.291696,25.230495 11.500037,31.436501 z"
             style="fill:#404040;"/>
          </a>
         </g>
        </svg>
</svg>
