<?xml version="1.0" encoding="UTF-8" standalone="no"?>
<!DOCTYPE svg PUBLIC "-//W3C//DTD SVG 1.1//EN"
 "http://www.w3.org/Graphics/SVG/1.1/DTD/svg11.dtd">
<!-- Generated by graphviz version 2.38.0 (20140413.2041)
 -->
<!-- Title: de.tu_clausthal.in.mec.modeling.model.erd.CErd.checkResult Pages: 1 -->
<svg width="1269pt" height="178pt"
 viewBox="0.00 0.00 1269.00 178.00" xmlns="http://www.w3.org/2000/svg" xmlns:xlink="http://www.w3.org/1999/xlink">
<g id="graph0" class="graph" transform="scale(1 1) rotate(0) translate(4 174)">
<title>de.tu_clausthal.in.mec.modeling.model.erd.CErd.checkResult</title>
<!-- Node29 -->
<g id="node1" class="node"><title>Node29</title>
<polygon fill="#bfbfbf" stroke="black" points="0,-70.5 0,-98.5 221,-98.5 221,-70.5 0,-70.5"/>
<text text-anchor="start" x="8" y="-87.3" font-family="Helvetica,sans-Serif" font-size="9.00">de.tu_clausthal.in.mec.modeling.model.erd.</text>
<text text-anchor="middle" x="110.5" y="-77.3" font-family="Helvetica,sans-Serif" font-size="9.00">CErd.checkResult</text>
</g>
<!-- Node30 -->
<g id="node2" class="node"><title>Node30</title>
<g id="a_node2"><a xlink:href="../../df/d09/classde_1_1tu__clausthal_1_1in_1_1mec_1_1modeling_1_1model_1_1erd_1_1CErdChecker.htm#a3f9473130504e8a6e4b89898ab34afac" target="_top" xlink:title="method to fetch all errors for output generating ">
<polygon fill="none" stroke="black" points="257,-70.5 257,-98.5 478,-98.5 478,-70.5 257,-70.5"/>
<text text-anchor="start" x="265" y="-87.3" font-family="Helvetica,sans-Serif" font-size="9.00">de.tu_clausthal.in.mec.modeling.model.erd.</text>
<text text-anchor="middle" x="367.5" y="-77.3" font-family="Helvetica,sans-Serif" font-size="9.00">CErdChecker.fetchErrors</text>
</a>
</g>
</g>
<!-- Node29&#45;&gt;Node30 -->
<g id="edge1" class="edge"><title>Node29&#45;&gt;Node30</title>
<path fill="none" stroke="midnightblue" d="M221.123,-84.5C229.661,-84.5 238.308,-84.5 246.907,-84.5"/>
<polygon fill="midnightblue" stroke="midnightblue" points="246.97,-88.0001 256.97,-84.5 246.97,-81.0001 246.97,-88.0001"/>
</g>
<!-- Node31 -->
<g id="node3" class="node"><title>Node31</title>
<g id="a_node3"><a xlink:href="../../df/d09/classde_1_1tu__clausthal_1_1in_1_1mec_1_1modeling_1_1model_1_1erd_1_1CErdChecker.htm#a03981d88022c4953ff78b0eefa964061" target="_top" xlink:title="method to run all test below ">
<polygon fill="none" stroke="black" points="514,-70.5 514,-98.5 735,-98.5 735,-70.5 514,-70.5"/>
<text text-anchor="start" x="522" y="-87.3" font-family="Helvetica,sans-Serif" font-size="9.00">de.tu_clausthal.in.mec.modeling.model.erd.</text>
<text text-anchor="middle" x="624.5" y="-77.3" font-family="Helvetica,sans-Serif" font-size="9.00">CErdChecker.runAllTests</text>
</a>
</g>
</g>
<!-- Node30&#45;&gt;Node31 -->
<g id="edge2" class="edge"><title>Node30&#45;&gt;Node31</title>
<path fill="none" stroke="midnightblue" d="M478.123,-84.5C486.661,-84.5 495.308,-84.5 503.907,-84.5"/>
<polygon fill="midnightblue" stroke="midnightblue" points="503.97,-88.0001 513.97,-84.5 503.97,-81.0001 503.97,-88.0001"/>
</g>
<!-- Node32 -->
<g id="node4" class="node"><title>Node32</title>
<g id="a_node4"><a xlink:href="../../df/d09/classde_1_1tu__clausthal_1_1in_1_1mec_1_1modeling_1_1model_1_1erd_1_1CErdChecker.htm#a55713561a36fbb87a8b1532d0f83e8c3" target="_top" xlink:title="entities should contain at least one attribute without attributes an entity make no sense ...">
<polygon fill="none" stroke="black" points="771,-141.5 771,-169.5 992,-169.5 992,-141.5 771,-141.5"/>
<text text-anchor="start" x="779" y="-158.3" font-family="Helvetica,sans-Serif" font-size="9.00">de.tu_clausthal.in.mec.modeling.model.erd.</text>
<text text-anchor="middle" x="881.5" y="-148.3" font-family="Helvetica,sans-Serif" font-size="9.00">CErdChecker.validateEntities</text>
</a>
</g>
</g>
<!-- Node31&#45;&gt;Node32 -->
<g id="edge3" class="edge"><title>Node31&#45;&gt;Node32</title>
<path fill="none" stroke="midnightblue" d="M664.051,-98.5237C693.174,-108.798 734.269,-122.617 771,-132.5 779.747,-134.854 788.941,-137.113 798.129,-139.234"/>
<polygon fill="midnightblue" stroke="midnightblue" points="797.549,-142.692 808.075,-141.48 799.091,-135.863 797.549,-142.692"/>
</g>
<!-- Node34 -->
<g id="node6" class="node"><title>Node34</title>
<g id="a_node6"><a xlink:href="../../df/d09/classde_1_1tu__clausthal_1_1in_1_1mec_1_1modeling_1_1model_1_1erd_1_1CErdChecker.htm#abda9f2a26a9c9da7b42fb9b787421112" target="_top" xlink:title="method to validate the relationships all relationships contain exactly 2 entities or be recursive ...">
<polygon fill="none" stroke="black" points="771,-94.5 771,-122.5 992,-122.5 992,-94.5 771,-94.5"/>
<text text-anchor="start" x="779" y="-111.3" font-family="Helvetica,sans-Serif" font-size="9.00">de.tu_clausthal.in.mec.modeling.model.erd.</text>
<text text-anchor="middle" x="881.5" y="-101.3" font-family="Helvetica,sans-Serif" font-size="9.00">CErdChecker.validateRelationships</text>
</a>
</g>
</g>
<!-- Node31&#45;&gt;Node34 -->
<g id="edge5" class="edge"><title>Node31&#45;&gt;Node34</title>
<path fill="none" stroke="midnightblue" d="M735.123,-94.8174C743.661,-95.621 752.308,-96.4349 760.907,-97.2442"/>
<polygon fill="midnightblue" stroke="midnightblue" points="760.686,-100.739 770.97,-98.1913 761.342,-93.7695 760.686,-100.739"/>
</g>
<!-- Node35 -->
<g id="node7" class="node"><title>Node35</title>
<g id="a_node7"><a xlink:href="../../df/d09/classde_1_1tu__clausthal_1_1in_1_1mec_1_1modeling_1_1model_1_1erd_1_1CErdChecker.htm#a9f17518246c3691153559c35f25155dd" target="_top" xlink:title="validate is&#45;a relationships child entities are not connected to other relationships, this is not allowed, because child entities are the most abstract elements in a graphical model and has no connections ">
<polygon fill="none" stroke="black" points="771,-47.5 771,-75.5 992,-75.5 992,-47.5 771,-47.5"/>
<text text-anchor="start" x="779" y="-64.3" font-family="Helvetica,sans-Serif" font-size="9.00">de.tu_clausthal.in.mec.modeling.model.erd.</text>
<text text-anchor="middle" x="881.5" y="-54.3" font-family="Helvetica,sans-Serif" font-size="9.00">CErdChecker.validateISARelationships</text>
</a>
</g>
</g>
<!-- Node31&#45;&gt;Node35 -->
<g id="edge7" class="edge"><title>Node31&#45;&gt;Node35</title>
<path fill="none" stroke="midnightblue" d="M735.123,-74.6124C743.661,-73.8424 752.308,-73.0624 760.907,-72.2868"/>
<polygon fill="midnightblue" stroke="midnightblue" points="761.325,-75.7635 770.97,-71.3792 760.696,-68.7918 761.325,-75.7635"/>
</g>
<!-- Node36 -->
<g id="node8" class="node"><title>Node36</title>
<g id="a_node8"><a xlink:href="../../df/d09/classde_1_1tu__clausthal_1_1in_1_1mec_1_1modeling_1_1model_1_1erd_1_1CErdChecker.htm#a81ca230eeb302d605b6cc9cfbc1469e9" target="_top" xlink:title="validate weak key attributes only a weak entity can contains a weak key attribute property and not a ...">
<polygon fill="none" stroke="black" points="771,-0.5 771,-28.5 992,-28.5 992,-0.5 771,-0.5"/>
<text text-anchor="start" x="779" y="-17.3" font-family="Helvetica,sans-Serif" font-size="9.00">de.tu_clausthal.in.mec.modeling.model.erd.</text>
<text text-anchor="middle" x="881.5" y="-7.3" font-family="Helvetica,sans-Serif" font-size="9.00">CErdChecker.validateWeakEntityKeys</text>
</a>
</g>
</g>
<!-- Node31&#45;&gt;Node36 -->
<g id="edge9" class="edge"><title>Node31&#45;&gt;Node36</title>
<path fill="none" stroke="midnightblue" d="M666.601,-70.4119C695.584,-60.747 735.422,-48.0021 771,-38.5 780.974,-35.8361 791.517,-33.2457 801.963,-30.8127"/>
<polygon fill="midnightblue" stroke="midnightblue" points="802.962,-34.1748 811.928,-28.531 801.399,-27.3513 802.962,-34.1748"/>
</g>
<!-- Node33 -->
<g id="node5" class="node"><title>Node33</title>
<g id="a_node5"><a xlink:href="../../d4/d8a/interfacede_1_1tu__clausthal_1_1in_1_1mec_1_1modeling_1_1model_1_1graph_1_1IGraph.htm#a461febfd6ed576894a2110a298a6eec2" target="_top" xlink:title="stream over all nodes ">
<polygon fill="none" stroke="black" points="1028,-70.5 1028,-98.5 1261,-98.5 1261,-70.5 1028,-70.5"/>
<text text-anchor="start" x="1036" y="-87.3" font-family="Helvetica,sans-Serif" font-size="9.00">de.tu_clausthal.in.mec.modeling.model.graph.</text>
<text text-anchor="middle" x="1144.5" y="-77.3" font-family="Helvetica,sans-Serif" font-size="9.00">IGraph.nodes</text>
</a>
</g>
</g>
<!-- Node32&#45;&gt;Node33 -->
<g id="edge4" class="edge"><title>Node32&#45;&gt;Node33</title>
<path fill="none" stroke="midnightblue" d="M954.307,-141.489C966.919,-138.723 979.882,-135.684 992,-132.5 1026.16,-123.524 1064.05,-111.521 1093.39,-101.763"/>
<polygon fill="midnightblue" stroke="midnightblue" points="1094.62,-105.041 1102.99,-98.5477 1092.4,-98.4035 1094.62,-105.041"/>
</g>
<!-- Node34&#45;&gt;Node33 -->
<g id="edge6" class="edge"><title>Node34&#45;&gt;Node33</title>
<path fill="none" stroke="midnightblue" d="M992.053,-98.4262C1000.58,-97.6425 1009.22,-96.8475 1017.84,-96.0551"/>
<polygon fill="midnightblue" stroke="midnightblue" points="1018.29,-99.528 1027.93,-95.127 1017.65,-92.5575 1018.29,-99.528"/>
</g>
<!-- Node35&#45;&gt;Node33 -->
<g id="edge8" class="edge"><title>Node35&#45;&gt;Node33</title>
<path fill="none" stroke="midnightblue" d="M992.053,-71.1541C1000.58,-71.9051 1009.22,-72.667 1017.84,-73.4263"/>
<polygon fill="midnightblue" stroke="midnightblue" points="1017.66,-76.9244 1027.93,-74.3158 1018.28,-69.9514 1017.66,-76.9244"/>
</g>
<!-- Node36&#45;&gt;Node33 -->
<g id="edge10" class="edge"><title>Node36&#45;&gt;Node33</title>
<path fill="none" stroke="midnightblue" d="M950.457,-28.5193C964.253,-31.611 978.63,-35.0108 992,-38.5 1024.95,-47.0994 1061.49,-58.1491 1090.43,-67.2634"/>
<polygon fill="midnightblue" stroke="midnightblue" points="1089.74,-70.7162 1100.33,-70.3993 1091.85,-64.043 1089.74,-70.7162"/>
</g>
</g>
</svg>
