<?xml version="1.0" encoding="UTF-8" standalone="no"?>
<!DOCTYPE svg PUBLIC "-//W3C//DTD SVG 1.1//EN"
 "http://www.w3.org/Graphics/SVG/1.1/DTD/svg11.dtd">
<!-- Generated by graphviz version 2.38.0 (20140413.2041)
 -->
<!-- Title: de.tu_clausthal.in.mec.modeling.model.erd.CErd.checkNormalization Pages: 1 -->
<svg width="755pt" height="84pt"
 viewBox="0.00 0.00 755.00 84.00" xmlns="http://www.w3.org/2000/svg" xmlns:xlink="http://www.w3.org/1999/xlink">
<g id="graph0" class="graph" transform="scale(1 1) rotate(0) translate(4 80)">
<title>de.tu_clausthal.in.mec.modeling.model.erd.CErd.checkNormalization</title>
<!-- Node24 -->
<g id="node1" class="node"><title>Node24</title>
<polygon fill="#bfbfbf" stroke="black" points="0,-23.5 0,-51.5 221,-51.5 221,-23.5 0,-23.5"/>
<text text-anchor="start" x="8" y="-40.3" font-family="Helvetica,sans-Serif" font-size="9.00">de.tu_clausthal.in.mec.modeling.model.erd.</text>
<text text-anchor="middle" x="110.5" y="-30.3" font-family="Helvetica,sans-Serif" font-size="9.00">CErd.checkNormalization</text>
</g>
<!-- Node25 -->
<g id="node2" class="node"><title>Node25</title>
<g id="a_node2"><a xlink:href="../../df/d09/classde_1_1tu__clausthal_1_1in_1_1mec_1_1modeling_1_1model_1_1erd_1_1CErdChecker.htm#ae3ab3ba8f044b7f069748693cb0cb1e2" target="_top" xlink:title="validate if all entities has an attribute with least than one key attribute to check if the erd can b...">
<polygon fill="none" stroke="black" points="257,-23.5 257,-51.5 478,-51.5 478,-23.5 257,-23.5"/>
<text text-anchor="start" x="265" y="-40.3" font-family="Helvetica,sans-Serif" font-size="9.00">de.tu_clausthal.in.mec.modeling.model.erd.</text>
<text text-anchor="middle" x="367.5" y="-30.3" font-family="Helvetica,sans-Serif" font-size="9.00">CErdChecker.validateNormalization</text>
</a>
</g>
</g>
<!-- Node24&#45;&gt;Node25 -->
<g id="edge1" class="edge"><title>Node24&#45;&gt;Node25</title>
<path fill="none" stroke="midnightblue" d="M221.123,-37.5C229.661,-37.5 238.308,-37.5 246.907,-37.5"/>
<polygon fill="midnightblue" stroke="midnightblue" points="246.97,-41.0001 256.97,-37.5 246.97,-34.0001 246.97,-41.0001"/>
</g>
<!-- Node26 -->
<g id="node3" class="node"><title>Node26</title>
<g id="a_node3"><a xlink:href="../../d4/d8a/interfacede_1_1tu__clausthal_1_1in_1_1mec_1_1modeling_1_1model_1_1graph_1_1IGraph.htm#a461febfd6ed576894a2110a298a6eec2" target="_top" xlink:title="stream over all nodes ">
<polygon fill="none" stroke="black" points="514,-47.5 514,-75.5 747,-75.5 747,-47.5 514,-47.5"/>
<text text-anchor="start" x="522" y="-64.3" font-family="Helvetica,sans-Serif" font-size="9.00">de.tu_clausthal.in.mec.modeling.model.graph.</text>
<text text-anchor="middle" x="630.5" y="-54.3" font-family="Helvetica,sans-Serif" font-size="9.00">IGraph.nodes</text>
</a>
</g>
</g>
<!-- Node25&#45;&gt;Node26 -->
<g id="edge2" class="edge"><title>Node25&#45;&gt;Node26</title>
<path fill="none" stroke="midnightblue" d="M478.053,-47.5738C486.576,-48.3575 495.221,-49.1525 503.838,-49.9449"/>
<polygon fill="midnightblue" stroke="midnightblue" points="503.653,-53.4425 513.932,-50.873 504.294,-46.472 503.653,-53.4425"/>
</g>
<!-- Node27 -->
<g id="node4" class="node"><title>Node27</title>
<g id="a_node4"><a xlink:href="../../d4/db2/interfacede_1_1tu__clausthal_1_1in_1_1mec_1_1modeling_1_1model_1_1graph_1_1INode.htm#a3e21b8b077cd013202a8ca831eb0b92f" target="_top" xlink:title="id of the node ">
<polygon fill="none" stroke="black" points="514,-0.5 514,-28.5 747,-28.5 747,-0.5 514,-0.5"/>
<text text-anchor="start" x="522" y="-17.3" font-family="Helvetica,sans-Serif" font-size="9.00">de.tu_clausthal.in.mec.modeling.model.graph.</text>
<text text-anchor="middle" x="630.5" y="-7.3" font-family="Helvetica,sans-Serif" font-size="9.00">INode.id</text>
</a>
</g>
</g>
<!-- Node25&#45;&gt;Node27 -->
<g id="edge3" class="edge"><title>Node25&#45;&gt;Node27</title>
<path fill="none" stroke="midnightblue" d="M478.053,-27.8459C486.576,-27.0949 495.221,-26.333 503.838,-25.5737"/>
<polygon fill="midnightblue" stroke="midnightblue" points="504.277,-29.0486 513.932,-24.6842 503.663,-22.0756 504.277,-29.0486"/>
</g>
</g>
</svg>
