<?xml version="1.0" encoding="UTF-8" standalone="no"?>
<!DOCTYPE svg PUBLIC "-//W3C//DTD SVG 1.1//EN"
 "http://www.w3.org/Graphics/SVG/1.1/DTD/svg11.dtd">
<!-- Generated by graphviz version 2.38.0 (20140413.2041)
 -->
<!-- Title: de.tu_clausthal.in.mec.modeling.model.erd.EErdCardinality Pages: 1 -->
<svg width="229pt" height="234pt"
 viewBox="0.00 0.00 229.00 234.00" xmlns="http://www.w3.org/2000/svg" xmlns:xlink="http://www.w3.org/1999/xlink">
<g id="graph0" class="graph" transform="scale(1 1) rotate(0) translate(4 230)">
<title>de.tu_clausthal.in.mec.modeling.model.erd.EErdCardinality</title>
<!-- Node2 -->
<g id="node1" class="node"><title>Node2</title>
<polygon fill="#bfbfbf" stroke="black" points="-1.42109e-14,-0.5 -1.42109e-14,-124.5 221,-124.5 221,-0.5 -1.42109e-14,-0.5"/>
<text text-anchor="start" x="8" y="-113.3" font-family="Helvetica,sans-Serif" font-size="9.00">de.tu_clausthal.in.mec.modeling.model.erd.</text>
<text text-anchor="middle" x="110.5" y="-103.3" font-family="Helvetica,sans-Serif" font-size="9.00">EErdCardinality</text>
<polyline fill="none" stroke="black" points="-1.42109e-14,-96.5 221,-96.5 "/>
<text text-anchor="start" x="8" y="-85.3" font-family="Helvetica,sans-Serif" font-size="9.00">+ INHERIT</text>
<text text-anchor="start" x="8" y="-75.3" font-family="Helvetica,sans-Serif" font-size="9.00">+ NM</text>
<text text-anchor="start" x="8" y="-65.3" font-family="Helvetica,sans-Serif" font-size="9.00">+ ONEN</text>
<text text-anchor="start" x="8" y="-55.3" font-family="Helvetica,sans-Serif" font-size="9.00">+ ONEONE</text>
<text text-anchor="start" x="8" y="-45.3" font-family="Helvetica,sans-Serif" font-size="9.00">&#45; m_cardinality</text>
<polyline fill="none" stroke="black" points="-1.42109e-14,-38.5 221,-38.5 "/>
<text text-anchor="start" x="8" y="-27.3" font-family="Helvetica,sans-Serif" font-size="9.00">+ EErdCardinality()</text>
<text text-anchor="start" x="8" y="-17.3" font-family="Helvetica,sans-Serif" font-size="9.00">+ getCardinality()</text>
<text text-anchor="start" x="8" y="-7.3" font-family="Helvetica,sans-Serif" font-size="9.00">+ of()</text>
</g>
<!-- Node3 -->
<g id="node2" class="node"><title>Node3</title>
<g id="a_node2"><a xlink:href="../../dd/dad/interfacede_1_1tu__clausthal_1_1in_1_1mec_1_1modeling_1_1model_1_1erd_1_1IErdCardinality.htm" target="_top" xlink:title="Interface to define the methods which will be needed to read the values from the enum class of the ca...">
<polygon fill="none" stroke="black" points="-1.42109e-14,-161.5 -1.42109e-14,-225.5 221,-225.5 221,-161.5 -1.42109e-14,-161.5"/>
<text text-anchor="start" x="8" y="-214.3" font-family="Helvetica,sans-Serif" font-size="9.00">de.tu_clausthal.in.mec.modeling.model.erd.</text>
<text text-anchor="middle" x="110.5" y="-204.3" font-family="Helvetica,sans-Serif" font-size="9.00">IErdCardinality</text>
<polyline fill="none" stroke="black" points="-1.42109e-14,-197.5 221,-197.5 "/>
<text text-anchor="middle" x="110.5" y="-186.3" font-family="Helvetica,sans-Serif" font-size="9.00"> </text>
<polyline fill="none" stroke="black" points="-1.42109e-14,-179.5 221,-179.5 "/>
<text text-anchor="start" x="8" y="-168.3" font-family="Helvetica,sans-Serif" font-size="9.00">+ getCardinality()</text>
</a>
</g>
</g>
<!-- Node3&#45;&gt;Node2 -->
<g id="edge1" class="edge"><title>Node3&#45;&gt;Node2</title>
<path fill="none" stroke="midnightblue" d="M110.5,-151.022C110.5,-142.637 110.5,-133.654 110.5,-124.753"/>
<polygon fill="none" stroke="midnightblue" points="107,-151.273 110.5,-161.273 114,-151.273 107,-151.273"/>
</g>
</g>
</svg>
