<?xml version="1.0" encoding="UTF-8" standalone="no"?>
<!DOCTYPE svg PUBLIC "-//W3C//DTD SVG 1.1//EN"
 "http://www.w3.org/Graphics/SVG/1.1/DTD/svg11.dtd">
<!-- Generated by graphviz version 2.38.0 (20140413.2041)
 -->
<!-- Title: de.tu_clausthal.in.mec.modeling.deserializer.erd.IInheritRelationshipDeserializer&lt; A extends IAttribute &gt; Pages: 1 -->
<svg width="253pt" height="427pt"
 viewBox="0.00 0.00 253.00 427.00" xmlns="http://www.w3.org/2000/svg" xmlns:xlink="http://www.w3.org/1999/xlink">
<g id="graph0" class="graph" transform="scale(1 1) rotate(0) translate(4 423)">
<title>de.tu_clausthal.in.mec.modeling.deserializer.erd.IInheritRelationshipDeserializer&lt; A extends IAttribute &gt;</title>
<!-- Node0 -->
<g id="node1" class="node"><title>Node0</title>
<polygon fill="#bfbfbf" stroke="black" points="0,-223.5 0,-297.5 245,-297.5 245,-223.5 0,-223.5"/>
<text text-anchor="start" x="8" y="-286.3" font-family="Helvetica,sans-Serif" font-size="9.00">de.tu_clausthal.in.mec.modeling.deserializer.erd.</text>
<text text-anchor="start" x="8" y="-276.3" font-family="Helvetica,sans-Serif" font-size="9.00">IInheritRelationshipDeserializer&lt; A</text>
<text text-anchor="middle" x="122.5" y="-266.3" font-family="Helvetica,sans-Serif" font-size="9.00"> extends IAttribute &gt;</text>
<polyline fill="none" stroke="black" points="0,-259.5 245,-259.5 "/>
<text text-anchor="middle" x="122.5" y="-248.3" font-family="Helvetica,sans-Serif" font-size="9.00"> </text>
<polyline fill="none" stroke="black" points="0,-241.5 245,-241.5 "/>
<text text-anchor="middle" x="122.5" y="-230.3" font-family="Helvetica,sans-Serif" font-size="9.00"> </text>
</g>
<!-- Node2 -->
<g id="node3" class="node"><title>Node2</title>
<g id="a_node3"><a xlink:href="../../de/d4d/namespacede_1_1tu__clausthal_1_1in_1_1mec_1_1modeling_1_1deserializer_1_1erd.htm" target="_top" xlink:title="{de.tu_clausthal.in.mec.modeling.deserializer.erd.\lIInheritRelationshipDeserializer\&lt; IAttribute \&gt;\n||}">
<polygon fill="none" stroke="black" points="0,-112.5 0,-176.5 245,-176.5 245,-112.5 0,-112.5"/>
<text text-anchor="start" x="8" y="-165.3" font-family="Helvetica,sans-Serif" font-size="9.00">de.tu_clausthal.in.mec.modeling.deserializer.erd.</text>
<text text-anchor="middle" x="122.5" y="-155.3" font-family="Helvetica,sans-Serif" font-size="9.00">IInheritRelationshipDeserializer&lt; IAttribute &gt;</text>
<polyline fill="none" stroke="black" points="0,-148.5 245,-148.5 "/>
<text text-anchor="middle" x="122.5" y="-137.3" font-family="Helvetica,sans-Serif" font-size="9.00"> </text>
<polyline fill="none" stroke="black" points="0,-130.5 245,-130.5 "/>
<text text-anchor="middle" x="122.5" y="-119.3" font-family="Helvetica,sans-Serif" font-size="9.00"> </text>
</a>
</g>
</g>
<!-- Node0&#45;&gt;Node2 -->
<g id="edge2" class="edge"><title>Node0&#45;&gt;Node2</title>
<path fill="none" stroke="orange" d="M122.5,-213.314C122.5,-201.014 122.5,-188.016 122.5,-176.726"/>
<polygon fill="orange" stroke="orange" points="119,-213.43 122.5,-223.43 126,-213.43 119,-213.43"/>
<text text-anchor="middle" x="156.5" y="-197.8" font-family="Helvetica,sans-Serif" font-size="9.00"> &lt; IAttribute &gt;</text>
</g>
<!-- Node1 -->
<g id="node2" class="node"><title>Node1</title>
<g id="a_node2"><a xlink:href="../../df/ddc/interfacede_1_1tu__clausthal_1_1in_1_1mec_1_1modeling_1_1model_1_1erd_1_1IAttribute.htm" target="_top" xlink:title="A simple attribute that can be assigned in an ERD to an entity or relationship. ">
<polygon fill="none" stroke="black" points="12,-344.5 12,-418.5 233,-418.5 233,-344.5 12,-344.5"/>
<text text-anchor="start" x="20" y="-407.3" font-family="Helvetica,sans-Serif" font-size="9.00">de.tu_clausthal.in.mec.modeling.model.erd.</text>
<text text-anchor="middle" x="122.5" y="-397.3" font-family="Helvetica,sans-Serif" font-size="9.00">IAttribute</text>
<polyline fill="none" stroke="black" points="12,-390.5 233,-390.5 "/>
<text text-anchor="middle" x="122.5" y="-379.3" font-family="Helvetica,sans-Serif" font-size="9.00"> </text>
<polyline fill="none" stroke="black" points="12,-372.5 233,-372.5 "/>
<text text-anchor="start" x="20" y="-361.3" font-family="Helvetica,sans-Serif" font-size="9.00">+ attributeName()</text>
<text text-anchor="start" x="20" y="-351.3" font-family="Helvetica,sans-Serif" font-size="9.00">+ getProperty()</text>
</a>
</g>
</g>
<!-- Node1&#45;&gt;Node0 -->
<g id="edge1" class="edge"><title>Node1&#45;&gt;Node0</title>
<path fill="none" stroke="orange" d="M122.5,-334.129C122.5,-322.076 122.5,-309.266 122.5,-297.815"/>
<polygon fill="orange" stroke="orange" points="119,-334.473 122.5,-344.473 126,-334.473 119,-334.473"/>
<text text-anchor="middle" x="127.5" y="-318.8" font-family="Helvetica,sans-Serif" font-size="9.00"> A</text>
</g>
<!-- Node3 -->
<g id="node4" class="node"><title>Node3</title>
<g id="a_node4"><a xlink:href="../../de/d95/classde_1_1tu__clausthal_1_1in_1_1mec_1_1modeling_1_1deserializer_1_1erd_1_1CInheritRelationshipDeserializer.htm" target="_top" xlink:title="Implementation of deserialization to create concrete objects considering the JSON schema settings...">
<polygon fill="none" stroke="black" points="0,-0.5 0,-74.5 245,-74.5 245,-0.5 0,-0.5"/>
<text text-anchor="start" x="8" y="-63.3" font-family="Helvetica,sans-Serif" font-size="9.00">de.tu_clausthal.in.mec.modeling.deserializer.erd.</text>
<text text-anchor="middle" x="122.5" y="-53.3" font-family="Helvetica,sans-Serif" font-size="9.00">CInheritRelationshipDeserializer</text>
<polyline fill="none" stroke="black" points="0,-46.5 245,-46.5 "/>
<text text-anchor="start" x="8" y="-35.3" font-family="Helvetica,sans-Serif" font-size="9.00">&#45; m_model</text>
<polyline fill="none" stroke="black" points="0,-28.5 245,-28.5 "/>
<text text-anchor="start" x="8" y="-17.3" font-family="Helvetica,sans-Serif" font-size="9.00">+ CInheritRelationshipDeserializer()</text>
<text text-anchor="start" x="8" y="-7.3" font-family="Helvetica,sans-Serif" font-size="9.00">+ deserialize()</text>
</a>
</g>
</g>
<!-- Node2&#45;&gt;Node3 -->
<g id="edge3" class="edge"><title>Node2&#45;&gt;Node3</title>
<path fill="none" stroke="midnightblue" d="M122.5,-102.234C122.5,-93.1001 122.5,-83.4905 122.5,-74.5822"/>
<polygon fill="none" stroke="midnightblue" points="119,-102.281 122.5,-112.281 126,-102.281 119,-102.281"/>
</g>
</g>
</svg>
