<?xml version="1.0" encoding="UTF-8" standalone="no"?>
<!DOCTYPE svg PUBLIC "-//W3C//DTD SVG 1.1//EN"
 "http://www.w3.org/Graphics/SVG/1.1/DTD/svg11.dtd">
<!-- Generated by graphviz version 2.38.0 (20140413.2041)
 -->
<!-- Title: de.tu_clausthal.in.mec.modeling.model.erd.IAttribute.attributeName Pages: 1 -->
<svg width="486pt" height="84pt"
 viewBox="0.00 0.00 486.00 84.00" xmlns="http://www.w3.org/2000/svg" xmlns:xlink="http://www.w3.org/1999/xlink">
<g id="graph0" class="graph" transform="scale(1 1) rotate(0) translate(4 80)">
<title>de.tu_clausthal.in.mec.modeling.model.erd.IAttribute.attributeName</title>
<!-- Node1 -->
<g id="node1" class="node"><title>Node1</title>
<polygon fill="#bfbfbf" stroke="black" points="0,-23.5 0,-51.5 221,-51.5 221,-23.5 0,-23.5"/>
<text text-anchor="start" x="8" y="-40.3" font-family="Helvetica,sans-Serif" font-size="9.00">de.tu_clausthal.in.mec.modeling.model.erd.</text>
<text text-anchor="middle" x="110.5" y="-30.3" font-family="Helvetica,sans-Serif" font-size="9.00">IAttribute.attributeName</text>
</g>
<!-- Node2 -->
<g id="node2" class="node"><title>Node2</title>
<g id="a_node2"><a xlink:href="../../d6/d74/classde_1_1tu__clausthal_1_1in_1_1mec_1_1modeling_1_1model_1_1erd_1_1CEntity.htm#a8c58015f17accc59c0bc9844e02af72a" target="_top" xlink:title="de.tu_clausthal.in.mec.modeling.model.erd.\lCEntity.createAttribute">
<polygon fill="none" stroke="black" points="257,-47.5 257,-75.5 478,-75.5 478,-47.5 257,-47.5"/>
<text text-anchor="start" x="265" y="-64.3" font-family="Helvetica,sans-Serif" font-size="9.00">de.tu_clausthal.in.mec.modeling.model.erd.</text>
<text text-anchor="middle" x="367.5" y="-54.3" font-family="Helvetica,sans-Serif" font-size="9.00">CEntity.createAttribute</text>
</a>
</g>
</g>
<!-- Node1&#45;&gt;Node2 -->
<g id="edge1" class="edge"><title>Node1&#45;&gt;Node2</title>
<path fill="none" stroke="midnightblue" d="M231.186,-48.7646C239.786,-49.5739 248.433,-50.3878 256.97,-51.1913"/>
<polygon fill="midnightblue" stroke="midnightblue" points="231.407,-45.27 221.123,-47.8174 230.751,-52.2392 231.407,-45.27"/>
</g>
<!-- Node3 -->
<g id="node3" class="node"><title>Node3</title>
<g id="a_node3"><a xlink:href="../../d1/de8/classde_1_1tu__clausthal_1_1in_1_1mec_1_1modeling_1_1model_1_1erd_1_1CRelationship.htm#af1dac24d54a7f79c89f9141072424d49" target="_top" xlink:title="de.tu_clausthal.in.mec.modeling.model.erd.\lCRelationship.createAttribute">
<polygon fill="none" stroke="black" points="257,-0.5 257,-28.5 478,-28.5 478,-0.5 257,-0.5"/>
<text text-anchor="start" x="265" y="-17.3" font-family="Helvetica,sans-Serif" font-size="9.00">de.tu_clausthal.in.mec.modeling.model.erd.</text>
<text text-anchor="middle" x="367.5" y="-7.3" font-family="Helvetica,sans-Serif" font-size="9.00">CRelationship.createAttribute</text>
</a>
</g>
</g>
<!-- Node1&#45;&gt;Node3 -->
<g id="edge2" class="edge"><title>Node1&#45;&gt;Node3</title>
<path fill="none" stroke="midnightblue" d="M231.186,-26.7048C239.786,-25.9291 248.433,-25.1492 256.97,-24.3792"/>
<polygon fill="midnightblue" stroke="midnightblue" points="230.768,-23.2282 221.123,-27.6124 231.397,-30.1999 230.768,-23.2282"/>
</g>
</g>
</svg>
