<?xml version="1.0" encoding="UTF-8" standalone="no"?>
<!DOCTYPE svg PUBLIC "-//W3C//DTD SVG 1.1//EN"
 "http://www.w3.org/Graphics/SVG/1.1/DTD/svg11.dtd">
<!-- Generated by graphviz version 2.38.0 (20140413.2041)
 -->
<!-- Title: de.tu_clausthal.in.mec.modeling.model.erd.CErd.CSerializer.CSerializer Pages: 1 -->
<svg width="498pt" height="84pt"
 viewBox="0.00 0.00 498.00 84.00" xmlns="http://www.w3.org/2000/svg" xmlns:xlink="http://www.w3.org/1999/xlink">
<g id="graph0" class="graph" transform="scale(1 1) rotate(0) translate(4 80)">
<title>de.tu_clausthal.in.mec.modeling.model.erd.CErd.CSerializer.CSerializer</title>
<!-- Node0 -->
<g id="node1" class="node"><title>Node0</title>
<polygon fill="#bfbfbf" stroke="black" points="0,-23.5 0,-51.5 221,-51.5 221,-23.5 0,-23.5"/>
<text text-anchor="start" x="8" y="-40.3" font-family="Helvetica,sans-Serif" font-size="9.00">de.tu_clausthal.in.mec.modeling.model.erd.</text>
<text text-anchor="middle" x="110.5" y="-30.3" font-family="Helvetica,sans-Serif" font-size="9.00">CErd.CSerializer.CSerializer</text>
</g>
<!-- Node1 -->
<g id="node2" class="node"><title>Node1</title>
<g id="a_node2"><a xlink:href="../../d4/db2/interfacede_1_1tu__clausthal_1_1in_1_1mec_1_1modeling_1_1model_1_1graph_1_1INode.htm#a3e21b8b077cd013202a8ca831eb0b92f" target="_top" xlink:title="id of the node ">
<polygon fill="none" stroke="black" points="257,-47.5 257,-75.5 490,-75.5 490,-47.5 257,-47.5"/>
<text text-anchor="start" x="265" y="-64.3" font-family="Helvetica,sans-Serif" font-size="9.00">de.tu_clausthal.in.mec.modeling.model.graph.</text>
<text text-anchor="middle" x="373.5" y="-54.3" font-family="Helvetica,sans-Serif" font-size="9.00">INode.id</text>
</a>
</g>
</g>
<!-- Node0&#45;&gt;Node1 -->
<g id="edge1" class="edge"><title>Node0&#45;&gt;Node1</title>
<path fill="none" stroke="midnightblue" d="M221.053,-47.5738C229.576,-48.3575 238.221,-49.1525 246.838,-49.9449"/>
<polygon fill="midnightblue" stroke="midnightblue" points="246.653,-53.4425 256.932,-50.873 247.294,-46.472 246.653,-53.4425"/>
</g>
<!-- Node2 -->
<g id="node3" class="node"><title>Node2</title>
<g id="a_node3"><a xlink:href="../../d4/d51/classde_1_1tu__clausthal_1_1in_1_1mec_1_1modeling_1_1model_1_1erd_1_1CErd.htm#ac20196d43b6dfe56b1b0f4649e2f8829" target="_top" xlink:title="casting method to cast a model into its subtype ">
<polygon fill="none" stroke="black" points="263,-0.5 263,-28.5 484,-28.5 484,-0.5 263,-0.5"/>
<text text-anchor="start" x="271" y="-17.3" font-family="Helvetica,sans-Serif" font-size="9.00">de.tu_clausthal.in.mec.modeling.model.erd.</text>
<text text-anchor="middle" x="373.5" y="-7.3" font-family="Helvetica,sans-Serif" font-size="9.00">CErd.raw</text>
</a>
</g>
</g>
<!-- Node0&#45;&gt;Node2 -->
<g id="edge2" class="edge"><title>Node0&#45;&gt;Node2</title>
<path fill="none" stroke="midnightblue" d="M221.053,-27.8459C231.519,-26.9236 242.17,-25.9851 252.726,-25.0548"/>
<polygon fill="midnightblue" stroke="midnightblue" points="253.155,-28.5307 262.809,-24.1663 252.54,-21.5577 253.155,-28.5307"/>
</g>
</g>
</svg>
