<?xml version="1.0" encoding="UTF-8" standalone="no"?>
<!DOCTYPE svg PUBLIC "-//W3C//DTD SVG 1.1//EN"
 "http://www.w3.org/Graphics/SVG/1.1/DTD/svg11.dtd">
<!-- Generated by graphviz version 2.38.0 (20140413.2041)
 -->
<!-- Title: de.tu_clausthal.in.mec.modeling.model.graph.INode.id Pages: 1 -->
<svg width="777pt" height="225pt"
 viewBox="0.00 0.00 777.00 225.00" xmlns="http://www.w3.org/2000/svg" xmlns:xlink="http://www.w3.org/1999/xlink">
<g id="graph0" class="graph" transform="scale(1 1) rotate(0) translate(4 221)">
<title>de.tu_clausthal.in.mec.modeling.model.graph.INode.id</title>
<!-- Node1 -->
<g id="node1" class="node"><title>Node1</title>
<polygon fill="#bfbfbf" stroke="black" points="0,-94.5 0,-122.5 233,-122.5 233,-94.5 0,-94.5"/>
<text text-anchor="start" x="8" y="-111.3" font-family="Helvetica,sans-Serif" font-size="9.00">de.tu_clausthal.in.mec.modeling.model.graph.</text>
<text text-anchor="middle" x="116.5" y="-101.3" font-family="Helvetica,sans-Serif" font-size="9.00">INode.id</text>
</g>
<!-- Node2 -->
<g id="node2" class="node"><title>Node2</title>
<g id="a_node2"><a xlink:href="../../d0/db8/classde_1_1tu__clausthal_1_1in_1_1mec_1_1modeling_1_1model_1_1petrinet_1_1CPetrinet_1_1CSerializer.htm#accdf94b5f6a2539ff5dde421dec01e02" target="_top" xlink:title="ctor ">
<polygon fill="none" stroke="black" points="269,-188.5 269,-216.5 512,-216.5 512,-188.5 269,-188.5"/>
<text text-anchor="start" x="277" y="-205.3" font-family="Helvetica,sans-Serif" font-size="9.00">de.tu_clausthal.in.mec.modeling.model.petrinet.</text>
<text text-anchor="middle" x="390.5" y="-195.3" font-family="Helvetica,sans-Serif" font-size="9.00">CPetrinet.CSerializer.CSerializer</text>
</a>
</g>
</g>
<!-- Node1&#45;&gt;Node2 -->
<g id="edge1" class="edge"><title>Node1&#45;&gt;Node2</title>
<path fill="none" stroke="midnightblue" d="M151.251,-127.314C181.315,-143.335 226.93,-165.865 269,-179.5 279.535,-182.915 290.762,-185.891 301.966,-188.466"/>
<polygon fill="midnightblue" stroke="midnightblue" points="152.906,-124.229 142.442,-122.567 149.585,-130.392 152.906,-124.229"/>
</g>
<!-- Node3 -->
<g id="node3" class="node"><title>Node3</title>
<g id="a_node3"><a xlink:href="../../d1/d7e/classde_1_1tu__clausthal_1_1in_1_1mec_1_1modeling_1_1model_1_1erd_1_1CErd_1_1CSerializer.htm#ad739c34c637a438d2bafc1a1c552fdad" target="_top" xlink:title="de.tu_clausthal.in.mec.modeling.model.erd.\lCErd.CSerializer.CSerializer">
<polygon fill="none" stroke="black" points="280,-141.5 280,-169.5 501,-169.5 501,-141.5 280,-141.5"/>
<text text-anchor="start" x="288" y="-158.3" font-family="Helvetica,sans-Serif" font-size="9.00">de.tu_clausthal.in.mec.modeling.model.erd.</text>
<text text-anchor="middle" x="390.5" y="-148.3" font-family="Helvetica,sans-Serif" font-size="9.00">CErd.CSerializer.CSerializer</text>
</a>
</g>
</g>
<!-- Node1&#45;&gt;Node3 -->
<g id="edge2" class="edge"><title>Node1&#45;&gt;Node3</title>
<path fill="none" stroke="midnightblue" d="M208.611,-124.243C240.837,-129.812 276.851,-136.035 308.208,-141.453"/>
<polygon fill="midnightblue" stroke="midnightblue" points="209.19,-120.792 198.741,-122.538 207.999,-127.69 209.19,-120.792"/>
</g>
<!-- Node4 -->
<g id="node4" class="node"><title>Node4</title>
<g id="a_node4"><a xlink:href="../../d1/de8/classde_1_1tu__clausthal_1_1in_1_1mec_1_1modeling_1_1model_1_1erd_1_1CRelationship.htm#abbe5826c39cbc0ee37c7b4edae3b9ec0" target="_top" xlink:title="de.tu_clausthal.in.mec.modeling.model.erd.\lCRelationship.getConnectedEntities">
<polygon fill="none" stroke="black" points="280,-94.5 280,-122.5 501,-122.5 501,-94.5 280,-94.5"/>
<text text-anchor="start" x="288" y="-111.3" font-family="Helvetica,sans-Serif" font-size="9.00">de.tu_clausthal.in.mec.modeling.model.erd.</text>
<text text-anchor="middle" x="390.5" y="-101.3" font-family="Helvetica,sans-Serif" font-size="9.00">CRelationship.getConnectedEntities</text>
</a>
</g>
</g>
<!-- Node1&#45;&gt;Node4 -->
<g id="edge3" class="edge"><title>Node1&#45;&gt;Node4</title>
<path fill="none" stroke="midnightblue" d="M243.443,-108.5C255.621,-108.5 267.908,-108.5 279.909,-108.5"/>
<polygon fill="midnightblue" stroke="midnightblue" points="243.247,-105 233.247,-108.5 243.247,-112 243.247,-105"/>
</g>
<!-- Node5 -->
<g id="node5" class="node"><title>Node5</title>
<g id="a_node5"><a xlink:href="../../d1/de8/classde_1_1tu__clausthal_1_1in_1_1mec_1_1modeling_1_1model_1_1erd_1_1CRelationship.htm#aecf6544adbdb3c55e02cc82b637606cd" target="_top" xlink:title="de.tu_clausthal.in.mec.modeling.model.erd.\lCRelationship.isRecursive">
<polygon fill="none" stroke="black" points="280,-47.5 280,-75.5 501,-75.5 501,-47.5 280,-47.5"/>
<text text-anchor="start" x="288" y="-64.3" font-family="Helvetica,sans-Serif" font-size="9.00">de.tu_clausthal.in.mec.modeling.model.erd.</text>
<text text-anchor="middle" x="390.5" y="-54.3" font-family="Helvetica,sans-Serif" font-size="9.00">CRelationship.isRecursive</text>
</a>
</g>
</g>
<!-- Node1&#45;&gt;Node5 -->
<g id="edge4" class="edge"><title>Node1&#45;&gt;Node5</title>
<path fill="none" stroke="midnightblue" d="M208.611,-92.7566C240.837,-87.1881 276.851,-80.9651 308.208,-75.5467"/>
<polygon fill="midnightblue" stroke="midnightblue" points="207.999,-89.3104 198.741,-94.4621 209.19,-96.2082 207.999,-89.3104"/>
</g>
<!-- Node6 -->
<g id="node6" class="node"><title>Node6</title>
<g id="a_node6"><a xlink:href="../../df/d09/classde_1_1tu__clausthal_1_1in_1_1mec_1_1modeling_1_1model_1_1erd_1_1CErdChecker.htm#ae3ab3ba8f044b7f069748693cb0cb1e2" target="_top" xlink:title="validate if all entities has an attribute with least than one key attribute to check if the erd can b...">
<polygon fill="none" stroke="black" points="280,-0.5 280,-28.5 501,-28.5 501,-0.5 280,-0.5"/>
<text text-anchor="start" x="288" y="-17.3" font-family="Helvetica,sans-Serif" font-size="9.00">de.tu_clausthal.in.mec.modeling.model.erd.</text>
<text text-anchor="middle" x="390.5" y="-7.3" font-family="Helvetica,sans-Serif" font-size="9.00">CErdChecker.validateNormalization</text>
</a>
</g>
</g>
<!-- Node1&#45;&gt;Node6 -->
<g id="edge5" class="edge"><title>Node1&#45;&gt;Node6</title>
<path fill="none" stroke="midnightblue" d="M152.242,-89.5705C182.349,-73.8738 227.483,-52.015 269,-38.5 280.663,-34.7034 293.166,-31.4014 305.543,-28.5636"/>
<polygon fill="midnightblue" stroke="midnightblue" points="150.233,-86.6729 143.018,-94.4319 153.497,-92.8654 150.233,-86.6729"/>
</g>
<!-- Node7 -->
<g id="node7" class="node"><title>Node7</title>
<g id="a_node7"><a xlink:href="../../d4/d51/classde_1_1tu__clausthal_1_1in_1_1mec_1_1modeling_1_1model_1_1erd_1_1CErd.htm#af2a6fb1a4c22d43e43ef476e762861a0" target="_top" xlink:title="function to run the test if the erd can be normalized &#45; all entities must have at least one attribute...">
<polygon fill="none" stroke="black" points="548,-0.5 548,-28.5 769,-28.5 769,-0.5 548,-0.5"/>
<text text-anchor="start" x="556" y="-17.3" font-family="Helvetica,sans-Serif" font-size="9.00">de.tu_clausthal.in.mec.modeling.model.erd.</text>
<text text-anchor="middle" x="658.5" y="-7.3" font-family="Helvetica,sans-Serif" font-size="9.00">CErd.checkNormalization</text>
</a>
</g>
</g>
<!-- Node6&#45;&gt;Node7 -->
<g id="edge6" class="edge"><title>Node6&#45;&gt;Node7</title>
<path fill="none" stroke="midnightblue" d="M511.329,-14.5C523.406,-14.5 535.629,-14.5 547.595,-14.5"/>
<polygon fill="midnightblue" stroke="midnightblue" points="511.228,-11.0001 501.228,-14.5 511.228,-18.0001 511.228,-11.0001"/>
</g>
</g>
</svg>
