<?xml version="1.0" encoding="UTF-8" standalone="no"?>
<!DOCTYPE svg PUBLIC "-//W3C//DTD SVG 1.1//EN"
 "http://www.w3.org/Graphics/SVG/1.1/DTD/svg11.dtd">
<!-- Generated by graphviz version 2.38.0 (20140413.2041)
 -->
<!-- Title: de.tu_clausthal.in.mec.modeling.model.graph.INode.raw Pages: 1 -->
<svg width="505pt" height="131pt"
 viewBox="0.00 0.00 505.00 131.00" xmlns="http://www.w3.org/2000/svg" xmlns:xlink="http://www.w3.org/1999/xlink">
<g id="graph0" class="graph" transform="scale(1 1) rotate(0) translate(4 127)">
<title>de.tu_clausthal.in.mec.modeling.model.graph.INode.raw</title>
<!-- Node9 -->
<g id="node1" class="node"><title>Node9</title>
<polygon fill="#bfbfbf" stroke="black" points="0,-47.5 0,-75.5 233,-75.5 233,-47.5 0,-47.5"/>
<text text-anchor="start" x="8" y="-64.3" font-family="Helvetica,sans-Serif" font-size="9.00">de.tu_clausthal.in.mec.modeling.model.graph.</text>
<text text-anchor="middle" x="116.5" y="-54.3" font-family="Helvetica,sans-Serif" font-size="9.00">INode.raw</text>
</g>
<!-- Node10 -->
<g id="node2" class="node"><title>Node10</title>
<g id="a_node2"><a xlink:href="../../d4/d51/classde_1_1tu__clausthal_1_1in_1_1mec_1_1modeling_1_1model_1_1erd_1_1CErd.htm#a2cbf273c8fcaf7fcca5ad4bb2cd45ab9" target="_top" xlink:title="connect child entity with is&#45;a relationship ">
<polygon fill="none" stroke="black" points="272.5,-94.5 272.5,-122.5 493.5,-122.5 493.5,-94.5 272.5,-94.5"/>
<text text-anchor="start" x="280.5" y="-111.3" font-family="Helvetica,sans-Serif" font-size="9.00">de.tu_clausthal.in.mec.modeling.model.erd.</text>
<text text-anchor="middle" x="383" y="-101.3" font-family="Helvetica,sans-Serif" font-size="9.00">CErd.connectChildEntityWithISARelationship</text>
</a>
</g>
</g>
<!-- Node9&#45;&gt;Node10 -->
<g id="edge1" class="edge"><title>Node9&#45;&gt;Node10</title>
<path fill="none" stroke="midnightblue" d="M206.504,-77.3155C237.738,-82.8656 272.589,-89.0583 302.95,-94.4533"/>
<polygon fill="midnightblue" stroke="midnightblue" points="206.959,-73.8415 196.5,-75.5379 205.734,-80.7335 206.959,-73.8415"/>
</g>
<!-- Node11 -->
<g id="node3" class="node"><title>Node11</title>
<g id="a_node3"><a xlink:href="../../d4/d51/classde_1_1tu__clausthal_1_1in_1_1mec_1_1modeling_1_1model_1_1erd_1_1CErd.htm#a35782e0c3a22a1bee3447843f519eef9" target="_top" xlink:title="connect relationship with entity ">
<polygon fill="none" stroke="black" points="272.5,-47.5 272.5,-75.5 493.5,-75.5 493.5,-47.5 272.5,-47.5"/>
<text text-anchor="start" x="280.5" y="-64.3" font-family="Helvetica,sans-Serif" font-size="9.00">de.tu_clausthal.in.mec.modeling.model.erd.</text>
<text text-anchor="middle" x="383" y="-54.3" font-family="Helvetica,sans-Serif" font-size="9.00">CErd.connectEntityWithRelationship</text>
</a>
</g>
</g>
<!-- Node9&#45;&gt;Node11 -->
<g id="edge2" class="edge"><title>Node9&#45;&gt;Node11</title>
<path fill="none" stroke="midnightblue" d="M243.27,-61.5C253.027,-61.5 262.83,-61.5 272.468,-61.5"/>
<polygon fill="midnightblue" stroke="midnightblue" points="243.129,-58.0001 233.129,-61.5 243.129,-65.0001 243.129,-58.0001"/>
</g>
<!-- Node12 -->
<g id="node4" class="node"><title>Node12</title>
<g id="a_node4"><a xlink:href="../../d4/d51/classde_1_1tu__clausthal_1_1in_1_1mec_1_1modeling_1_1model_1_1erd_1_1CErd.htm#a0328db0e0863a5e1be5d09e35a4b311b" target="_top" xlink:title="connect parent entity with is&#45;a relationship ">
<polygon fill="none" stroke="black" points="269,-0.5 269,-28.5 497,-28.5 497,-0.5 269,-0.5"/>
<text text-anchor="start" x="277" y="-17.3" font-family="Helvetica,sans-Serif" font-size="9.00">de.tu_clausthal.in.mec.modeling.model.erd.</text>
<text text-anchor="middle" x="383" y="-7.3" font-family="Helvetica,sans-Serif" font-size="9.00">CErd.connectParentEntityWithISARelationship</text>
</a>
</g>
</g>
<!-- Node9&#45;&gt;Node12 -->
<g id="edge3" class="edge"><title>Node9&#45;&gt;Node12</title>
<path fill="none" stroke="midnightblue" d="M206.504,-45.6845C237.738,-40.1344 272.589,-33.9417 302.95,-28.5467"/>
<polygon fill="midnightblue" stroke="midnightblue" points="205.734,-42.2665 196.5,-47.4621 206.959,-49.1585 205.734,-42.2665"/>
</g>
</g>
</svg>
