<?xml version="1.0" encoding="UTF-8" standalone="no"?>
<!DOCTYPE svg PUBLIC "-//W3C//DTD SVG 1.1//EN"
 "http://www.w3.org/Graphics/SVG/1.1/DTD/svg11.dtd">
<!-- Generated by graphviz version 2.38.0 (20140413.2041)
 -->
<!-- Title: de.tu_clausthal.in.mec.modeling.model.erd.EAttributeProperty Pages: 1 -->
<svg width="229pt" height="254pt"
 viewBox="0.00 0.00 229.00 254.00" xmlns="http://www.w3.org/2000/svg" xmlns:xlink="http://www.w3.org/1999/xlink">
<g id="graph0" class="graph" transform="scale(1 1) rotate(0) translate(4 250)">
<title>de.tu_clausthal.in.mec.modeling.model.erd.EAttributeProperty</title>
<!-- Node0 -->
<g id="node1" class="node"><title>Node0</title>
<polygon fill="#bfbfbf" stroke="black" points="-1.42109e-14,-0.5 -1.42109e-14,-144.5 221,-144.5 221,-0.5 -1.42109e-14,-0.5"/>
<text text-anchor="start" x="8" y="-133.3" font-family="Helvetica,sans-Serif" font-size="9.00">de.tu_clausthal.in.mec.modeling.model.erd.</text>
<text text-anchor="middle" x="110.5" y="-123.3" font-family="Helvetica,sans-Serif" font-size="9.00">EAttributeProperty</text>
<polyline fill="none" stroke="black" points="-1.42109e-14,-116.5 221,-116.5 "/>
<text text-anchor="start" x="8" y="-105.3" font-family="Helvetica,sans-Serif" font-size="9.00">+ ATTRIBUTE</text>
<text text-anchor="start" x="8" y="-95.3" font-family="Helvetica,sans-Serif" font-size="9.00">+ COMPOUNDEDVALUE</text>
<text text-anchor="start" x="8" y="-85.3" font-family="Helvetica,sans-Serif" font-size="9.00">+ DERIVEDVALUE</text>
<text text-anchor="start" x="8" y="-75.3" font-family="Helvetica,sans-Serif" font-size="9.00">+ KEY</text>
<text text-anchor="start" x="8" y="-65.3" font-family="Helvetica,sans-Serif" font-size="9.00">+ MULTIVALUE</text>
<text text-anchor="start" x="8" y="-55.3" font-family="Helvetica,sans-Serif" font-size="9.00">+ WEAKKEY</text>
<text text-anchor="start" x="8" y="-45.3" font-family="Helvetica,sans-Serif" font-size="9.00">&#45; m_property</text>
<polyline fill="none" stroke="black" points="-1.42109e-14,-38.5 221,-38.5 "/>
<text text-anchor="start" x="8" y="-27.3" font-family="Helvetica,sans-Serif" font-size="9.00">+ EAttributeProperty()</text>
<text text-anchor="start" x="8" y="-17.3" font-family="Helvetica,sans-Serif" font-size="9.00">+ getProperty()</text>
<text text-anchor="start" x="8" y="-7.3" font-family="Helvetica,sans-Serif" font-size="9.00">+ of()</text>
</g>
<!-- Node1 -->
<g id="node2" class="node"><title>Node1</title>
<g id="a_node2"><a xlink:href="../../df/d1b/interfacede_1_1tu__clausthal_1_1in_1_1mec_1_1modeling_1_1model_1_1erd_1_1IAttributeProperty.htm" target="_top" xlink:title="Interface to define the methods which will be needed to read the values from the enum class of the pr...">
<polygon fill="none" stroke="black" points="-1.42109e-14,-181.5 -1.42109e-14,-245.5 221,-245.5 221,-181.5 -1.42109e-14,-181.5"/>
<text text-anchor="start" x="8" y="-234.3" font-family="Helvetica,sans-Serif" font-size="9.00">de.tu_clausthal.in.mec.modeling.model.erd.</text>
<text text-anchor="middle" x="110.5" y="-224.3" font-family="Helvetica,sans-Serif" font-size="9.00">IAttributeProperty</text>
<polyline fill="none" stroke="black" points="-1.42109e-14,-217.5 221,-217.5 "/>
<text text-anchor="middle" x="110.5" y="-206.3" font-family="Helvetica,sans-Serif" font-size="9.00"> </text>
<polyline fill="none" stroke="black" points="-1.42109e-14,-199.5 221,-199.5 "/>
<text text-anchor="start" x="8" y="-188.3" font-family="Helvetica,sans-Serif" font-size="9.00">+ getProperty()</text>
</a>
</g>
</g>
<!-- Node1&#45;&gt;Node0 -->
<g id="edge1" class="edge"><title>Node1&#45;&gt;Node0</title>
<path fill="none" stroke="midnightblue" d="M110.5,-171.096C110.5,-162.724 110.5,-153.697 110.5,-144.633"/>
<polygon fill="none" stroke="midnightblue" points="107,-171.306 110.5,-181.306 114,-171.306 107,-171.306"/>
</g>
</g>
</svg>
