<?xml version="1.0" encoding="UTF-8" standalone="no"?>
<!DOCTYPE svg PUBLIC "-//W3C//DTD SVG 1.1//EN"
 "http://www.w3.org/Graphics/SVG/1.1/DTD/svg11.dtd">
<!-- Generated by graphviz version 2.38.0 (20140413.2041)
 -->
<!-- Title: de.tu_clausthal.in.mec.modeling.model.graph.IEdge Pages: 1 -->
<svg width="741pt" height="355pt"
 viewBox="0.00 0.00 741.00 355.00" xmlns="http://www.w3.org/2000/svg" xmlns:xlink="http://www.w3.org/1999/xlink">
<g id="graph0" class="graph" transform="scale(1 1) rotate(0) translate(4 351)">
<title>de.tu_clausthal.in.mec.modeling.model.graph.IEdge</title>
<!-- Node0 -->
<g id="node1" class="node"><title>Node0</title>
<polygon fill="#bfbfbf" stroke="black" points="239,-272.5 239,-346.5 472,-346.5 472,-272.5 239,-272.5"/>
<text text-anchor="start" x="247" y="-335.3" font-family="Helvetica,sans-Serif" font-size="9.00">de.tu_clausthal.in.mec.modeling.model.graph.</text>
<text text-anchor="middle" x="355.5" y="-325.3" font-family="Helvetica,sans-Serif" font-size="9.00">IEdge</text>
<polyline fill="none" stroke="black" points="239,-318.5 472,-318.5 "/>
<text text-anchor="middle" x="355.5" y="-307.3" font-family="Helvetica,sans-Serif" font-size="9.00"> </text>
<polyline fill="none" stroke="black" points="239,-300.5 472,-300.5 "/>
<text text-anchor="start" x="247" y="-289.3" font-family="Helvetica,sans-Serif" font-size="9.00">+ id()</text>
<text text-anchor="start" x="247" y="-279.3" font-family="Helvetica,sans-Serif" font-size="9.00">+ raw()</text>
</g>
<!-- Node1 -->
<g id="node2" class="node"><title>Node1</title>
<g id="a_node2"><a xlink:href="../../dc/df3/interfacede_1_1tu__clausthal_1_1in_1_1mec_1_1modeling_1_1model_1_1erd_1_1IErdEdge.htm" target="_top" xlink:title="An edge for the graphical ERD model. ">
<polygon fill="none" stroke="black" points="0,-136.5 0,-200.5 221,-200.5 221,-136.5 0,-136.5"/>
<text text-anchor="start" x="8" y="-189.3" font-family="Helvetica,sans-Serif" font-size="9.00">de.tu_clausthal.in.mec.modeling.model.erd.</text>
<text text-anchor="middle" x="110.5" y="-179.3" font-family="Helvetica,sans-Serif" font-size="9.00">IErdEdge</text>
<polyline fill="none" stroke="black" points="0,-172.5 221,-172.5 "/>
<text text-anchor="middle" x="110.5" y="-161.3" font-family="Helvetica,sans-Serif" font-size="9.00"> </text>
<polyline fill="none" stroke="black" points="0,-154.5 221,-154.5 "/>
<text text-anchor="middle" x="110.5" y="-143.3" font-family="Helvetica,sans-Serif" font-size="9.00"> </text>
</a>
</g>
</g>
<!-- Node0&#45;&gt;Node1 -->
<g id="edge1" class="edge"><title>Node0&#45;&gt;Node1</title>
<path fill="none" stroke="midnightblue" d="M282.859,-267.287C245.166,-245.902 199.879,-220.209 165.186,-200.526"/>
<polygon fill="none" stroke="midnightblue" points="281.344,-270.452 291.769,-272.342 284.798,-264.363 281.344,-270.452"/>
</g>
<!-- Node3 -->
<g id="node4" class="node"><title>Node3</title>
<g id="a_node4"><a xlink:href="../../d0/d34/classde_1_1tu__clausthal_1_1in_1_1mec_1_1modeling_1_1model_1_1graph_1_1IBaseEdge.htm" target="_top" xlink:title="abstract class of an edge ">
<polygon fill="none" stroke="black" points="239,-101.5 239,-235.5 472,-235.5 472,-101.5 239,-101.5"/>
<text text-anchor="start" x="247" y="-224.3" font-family="Helvetica,sans-Serif" font-size="9.00">de.tu_clausthal.in.mec.modeling.model.graph.</text>
<text text-anchor="middle" x="355.5" y="-214.3" font-family="Helvetica,sans-Serif" font-size="9.00">IBaseEdge</text>
<polyline fill="none" stroke="black" points="239,-207.5 472,-207.5 "/>
<text text-anchor="start" x="247" y="-196.3" font-family="Helvetica,sans-Serif" font-size="9.00"># m_id</text>
<text text-anchor="start" x="247" y="-186.3" font-family="Helvetica,sans-Serif" font-size="9.00">&#45; m_weightfunction</text>
<polyline fill="none" stroke="black" points="239,-179.5 472,-179.5 "/>
<text text-anchor="start" x="247" y="-168.3" font-family="Helvetica,sans-Serif" font-size="9.00">+ equals()</text>
<text text-anchor="start" x="247" y="-158.3" font-family="Helvetica,sans-Serif" font-size="9.00">+ get()</text>
<text text-anchor="start" x="247" y="-148.3" font-family="Helvetica,sans-Serif" font-size="9.00">+ hashCode()</text>
<text text-anchor="start" x="247" y="-138.3" font-family="Helvetica,sans-Serif" font-size="9.00">+ id()</text>
<text text-anchor="start" x="247" y="-128.3" font-family="Helvetica,sans-Serif" font-size="9.00">+ raw()</text>
<text text-anchor="start" x="247" y="-118.3" font-family="Helvetica,sans-Serif" font-size="9.00"># IBaseEdge()</text>
<text text-anchor="start" x="247" y="-108.3" font-family="Helvetica,sans-Serif" font-size="9.00"># IBaseEdge()</text>
</a>
</g>
</g>
<!-- Node0&#45;&gt;Node3 -->
<g id="edge3" class="edge"><title>Node0&#45;&gt;Node3</title>
<path fill="none" stroke="midnightblue" d="M355.5,-262.233C355.5,-253.698 355.5,-244.634 355.5,-235.645"/>
<polygon fill="none" stroke="midnightblue" points="352,-262.342 355.5,-272.342 359,-262.342 352,-262.342"/>
</g>
<!-- Node5 -->
<g id="node6" class="node"><title>Node5</title>
<g id="a_node6"><a xlink:href="../../d6/d27/interfacede_1_1tu__clausthal_1_1in_1_1mec_1_1modeling_1_1model_1_1petrinet_1_1IPetrinetEdge.htm" target="_top" xlink:title="connection / edge interface between transition and place ">
<polygon fill="none" stroke="black" points="490,-136.5 490,-200.5 733,-200.5 733,-136.5 490,-136.5"/>
<text text-anchor="start" x="498" y="-189.3" font-family="Helvetica,sans-Serif" font-size="9.00">de.tu_clausthal.in.mec.modeling.model.petrinet.</text>
<text text-anchor="middle" x="611.5" y="-179.3" font-family="Helvetica,sans-Serif" font-size="9.00">IPetrinetEdge</text>
<polyline fill="none" stroke="black" points="490,-172.5 733,-172.5 "/>
<text text-anchor="middle" x="611.5" y="-161.3" font-family="Helvetica,sans-Serif" font-size="9.00"> </text>
<polyline fill="none" stroke="black" points="490,-154.5 733,-154.5 "/>
<text text-anchor="middle" x="611.5" y="-143.3" font-family="Helvetica,sans-Serif" font-size="9.00"> </text>
</a>
</g>
</g>
<!-- Node0&#45;&gt;Node5 -->
<g id="edge6" class="edge"><title>Node0&#45;&gt;Node5</title>
<path fill="none" stroke="midnightblue" d="M430.904,-267.558C470.389,-246.119 517.956,-220.292 554.359,-200.526"/>
<polygon fill="none" stroke="midnightblue" points="429.211,-264.495 422.093,-272.342 432.551,-270.646 429.211,-264.495"/>
</g>
<!-- Node2 -->
<g id="node3" class="node"><title>Node2</title>
<g id="a_node3"><a xlink:href="../../d2/d5b/classde_1_1tu__clausthal_1_1in_1_1mec_1_1modeling_1_1model_1_1erd_1_1CErdEdge.htm" target="_top" xlink:title="This class represents the edges between the relationships and the entities. ">
<polygon fill="none" stroke="black" points="63,-0.5 63,-64.5 284,-64.5 284,-0.5 63,-0.5"/>
<text text-anchor="start" x="71" y="-53.3" font-family="Helvetica,sans-Serif" font-size="9.00">de.tu_clausthal.in.mec.modeling.model.erd.</text>
<text text-anchor="middle" x="173.5" y="-43.3" font-family="Helvetica,sans-Serif" font-size="9.00">CErdEdge</text>
<polyline fill="none" stroke="black" points="63,-36.5 284,-36.5 "/>
<text text-anchor="middle" x="173.5" y="-25.3" font-family="Helvetica,sans-Serif" font-size="9.00"> </text>
<polyline fill="none" stroke="black" points="63,-18.5 284,-18.5 "/>
<text text-anchor="start" x="71" y="-7.3" font-family="Helvetica,sans-Serif" font-size="9.00">~ CErdEdge()</text>
</a>
</g>
</g>
<!-- Node1&#45;&gt;Node2 -->
<g id="edge2" class="edge"><title>Node1&#45;&gt;Node2</title>
<path fill="none" stroke="midnightblue" d="M129.424,-127.248C138.819,-107.265 150,-83.4847 158.749,-64.8747"/>
<polygon fill="none" stroke="midnightblue" points="126.199,-125.882 125.112,-136.421 132.534,-128.86 126.199,-125.882"/>
</g>
<!-- Node3&#45;&gt;Node2 -->
<g id="edge4" class="edge"><title>Node3&#45;&gt;Node2</title>
<path fill="none" stroke="midnightblue" d="M257.678,-95.4775C243.027,-84.69 228.612,-74.077 215.965,-64.7658"/>
<polygon fill="none" stroke="midnightblue" points="255.705,-98.3709 265.833,-101.481 259.855,-92.7339 255.705,-98.3709"/>
</g>
<!-- Node4 -->
<g id="node5" class="node"><title>Node4</title>
<g id="a_node5"><a xlink:href="../../d7/db3/classde_1_1tu__clausthal_1_1in_1_1mec_1_1modeling_1_1model_1_1petrinet_1_1CPetrinetEdge.htm" target="_top" xlink:title="connection class ">
<polygon fill="none" stroke="black" points="427,-0.5 427,-64.5 670,-64.5 670,-0.5 427,-0.5"/>
<text text-anchor="start" x="435" y="-53.3" font-family="Helvetica,sans-Serif" font-size="9.00">de.tu_clausthal.in.mec.modeling.model.petrinet.</text>
<text text-anchor="middle" x="548.5" y="-43.3" font-family="Helvetica,sans-Serif" font-size="9.00">CPetrinetEdge</text>
<polyline fill="none" stroke="black" points="427,-36.5 670,-36.5 "/>
<text text-anchor="start" x="435" y="-25.3" font-family="Helvetica,sans-Serif" font-size="9.00">&#45; m_capacity</text>
<polyline fill="none" stroke="black" points="427,-18.5 670,-18.5 "/>
<text text-anchor="start" x="435" y="-7.3" font-family="Helvetica,sans-Serif" font-size="9.00">+ CPetrinetEdge()</text>
</a>
</g>
</g>
<!-- Node3&#45;&gt;Node4 -->
<g id="edge5" class="edge"><title>Node3&#45;&gt;Node4</title>
<path fill="none" stroke="midnightblue" d="M458.802,-95.7772C474.488,-84.8866 489.933,-74.1632 503.468,-64.7658"/>
<polygon fill="none" stroke="midnightblue" points="456.805,-92.9032 450.586,-101.481 460.797,-98.6532 456.805,-92.9032"/>
</g>
<!-- Node5&#45;&gt;Node4 -->
<g id="edge7" class="edge"><title>Node5&#45;&gt;Node4</title>
<path fill="none" stroke="midnightblue" d="M592.576,-127.248C583.181,-107.265 572,-83.4847 563.251,-64.8747"/>
<polygon fill="none" stroke="midnightblue" points="589.466,-128.86 596.888,-136.421 595.801,-125.882 589.466,-128.86"/>
</g>
</g>
</svg>
