<?xml version="1.0" encoding="UTF-8" standalone="no"?>
<!DOCTYPE svg PUBLIC "-//W3C//DTD SVG 1.1//EN"
 "http://www.w3.org/Graphics/SVG/1.1/DTD/svg11.dtd">
<!-- Generated by graphviz version 2.38.0 (20140413.2041)
 -->
<!-- Title: de.tu_clausthal.in.mec.modeling.model.erd.CErdEdge Pages: 1 -->
<svg width="480pt" height="355pt"
 viewBox="0.00 0.00 480.00 355.00" xmlns="http://www.w3.org/2000/svg" xmlns:xlink="http://www.w3.org/1999/xlink">
<g id="graph0" class="graph" transform="scale(1 1) rotate(0) translate(4 351)">
<title>de.tu_clausthal.in.mec.modeling.model.erd.CErdEdge</title>
<!-- Node0 -->
<g id="node1" class="node"><title>Node0</title>
<polygon fill="#bfbfbf" stroke="black" points="128,-0.5 128,-64.5 349,-64.5 349,-0.5 128,-0.5"/>
<text text-anchor="start" x="136" y="-53.3" font-family="Helvetica,sans-Serif" font-size="9.00">de.tu_clausthal.in.mec.modeling.model.erd.</text>
<text text-anchor="middle" x="238.5" y="-43.3" font-family="Helvetica,sans-Serif" font-size="9.00">CErdEdge</text>
<polyline fill="none" stroke="black" points="128,-36.5 349,-36.5 "/>
<text text-anchor="middle" x="238.5" y="-25.3" font-family="Helvetica,sans-Serif" font-size="9.00"> </text>
<polyline fill="none" stroke="black" points="128,-18.5 349,-18.5 "/>
<text text-anchor="start" x="136" y="-7.3" font-family="Helvetica,sans-Serif" font-size="9.00">~ CErdEdge()</text>
</g>
<!-- Node1 -->
<g id="node2" class="node"><title>Node1</title>
<g id="a_node2"><a xlink:href="../../d0/d34/classde_1_1tu__clausthal_1_1in_1_1mec_1_1modeling_1_1model_1_1graph_1_1IBaseEdge.htm" target="_top" xlink:title="abstract class of an edge ">
<polygon fill="none" stroke="black" points="0,-101.5 0,-235.5 233,-235.5 233,-101.5 0,-101.5"/>
<text text-anchor="start" x="8" y="-224.3" font-family="Helvetica,sans-Serif" font-size="9.00">de.tu_clausthal.in.mec.modeling.model.graph.</text>
<text text-anchor="middle" x="116.5" y="-214.3" font-family="Helvetica,sans-Serif" font-size="9.00">IBaseEdge</text>
<polyline fill="none" stroke="black" points="0,-207.5 233,-207.5 "/>
<text text-anchor="start" x="8" y="-196.3" font-family="Helvetica,sans-Serif" font-size="9.00"># m_id</text>
<text text-anchor="start" x="8" y="-186.3" font-family="Helvetica,sans-Serif" font-size="9.00">&#45; m_weightfunction</text>
<polyline fill="none" stroke="black" points="0,-179.5 233,-179.5 "/>
<text text-anchor="start" x="8" y="-168.3" font-family="Helvetica,sans-Serif" font-size="9.00">+ equals()</text>
<text text-anchor="start" x="8" y="-158.3" font-family="Helvetica,sans-Serif" font-size="9.00">+ get()</text>
<text text-anchor="start" x="8" y="-148.3" font-family="Helvetica,sans-Serif" font-size="9.00">+ hashCode()</text>
<text text-anchor="start" x="8" y="-138.3" font-family="Helvetica,sans-Serif" font-size="9.00">+ id()</text>
<text text-anchor="start" x="8" y="-128.3" font-family="Helvetica,sans-Serif" font-size="9.00">+ raw()</text>
<text text-anchor="start" x="8" y="-118.3" font-family="Helvetica,sans-Serif" font-size="9.00"># IBaseEdge()</text>
<text text-anchor="start" x="8" y="-108.3" font-family="Helvetica,sans-Serif" font-size="9.00"># IBaseEdge()</text>
</a>
</g>
</g>
<!-- Node1&#45;&gt;Node0 -->
<g id="edge1" class="edge"><title>Node1&#45;&gt;Node0</title>
<path fill="none" stroke="midnightblue" d="M183.6,-93.7995C192.931,-83.5514 202.069,-73.5145 210.13,-64.6608"/>
<polygon fill="none" stroke="midnightblue" points="180.929,-91.5344 176.785,-101.285 186.105,-96.247 180.929,-91.5344"/>
</g>
<!-- Node2 -->
<g id="node3" class="node"><title>Node2</title>
<g id="a_node3"><a xlink:href="../../d3/d76/interfacede_1_1tu__clausthal_1_1in_1_1mec_1_1modeling_1_1model_1_1graph_1_1IEdge.htm" target="_top" xlink:title="interface of an edge ">
<polygon fill="none" stroke="black" points="122,-272.5 122,-346.5 355,-346.5 355,-272.5 122,-272.5"/>
<text text-anchor="start" x="130" y="-335.3" font-family="Helvetica,sans-Serif" font-size="9.00">de.tu_clausthal.in.mec.modeling.model.graph.</text>
<text text-anchor="middle" x="238.5" y="-325.3" font-family="Helvetica,sans-Serif" font-size="9.00">IEdge</text>
<polyline fill="none" stroke="black" points="122,-318.5 355,-318.5 "/>
<text text-anchor="middle" x="238.5" y="-307.3" font-family="Helvetica,sans-Serif" font-size="9.00"> </text>
<polyline fill="none" stroke="black" points="122,-300.5 355,-300.5 "/>
<text text-anchor="start" x="130" y="-289.3" font-family="Helvetica,sans-Serif" font-size="9.00">+ id()</text>
<text text-anchor="start" x="130" y="-279.3" font-family="Helvetica,sans-Serif" font-size="9.00">+ raw()</text>
</a>
</g>
</g>
<!-- Node2&#45;&gt;Node1 -->
<g id="edge2" class="edge"><title>Node2&#45;&gt;Node1</title>
<path fill="none" stroke="midnightblue" d="M200.1,-264.75C191.974,-255.491 183.225,-245.523 174.555,-235.645"/>
<polygon fill="none" stroke="midnightblue" points="197.537,-267.135 206.764,-272.342 202.798,-262.518 197.537,-267.135"/>
</g>
<!-- Node3 -->
<g id="node4" class="node"><title>Node3</title>
<g id="a_node4"><a xlink:href="../../dc/df3/interfacede_1_1tu__clausthal_1_1in_1_1mec_1_1modeling_1_1model_1_1erd_1_1IErdEdge.htm" target="_top" xlink:title="An edge for the graphical ERD model. ">
<polygon fill="none" stroke="black" points="251,-136.5 251,-200.5 472,-200.5 472,-136.5 251,-136.5"/>
<text text-anchor="start" x="259" y="-189.3" font-family="Helvetica,sans-Serif" font-size="9.00">de.tu_clausthal.in.mec.modeling.model.erd.</text>
<text text-anchor="middle" x="361.5" y="-179.3" font-family="Helvetica,sans-Serif" font-size="9.00">IErdEdge</text>
<polyline fill="none" stroke="black" points="251,-172.5 472,-172.5 "/>
<text text-anchor="middle" x="361.5" y="-161.3" font-family="Helvetica,sans-Serif" font-size="9.00"> </text>
<polyline fill="none" stroke="black" points="251,-154.5 472,-154.5 "/>
<text text-anchor="middle" x="361.5" y="-143.3" font-family="Helvetica,sans-Serif" font-size="9.00"> </text>
</a>
</g>
</g>
<!-- Node2&#45;&gt;Node3 -->
<g id="edge4" class="edge"><title>Node2&#45;&gt;Node3</title>
<path fill="none" stroke="midnightblue" d="M277.358,-264.587C295.707,-243.852 317.18,-219.585 333.841,-200.757"/>
<polygon fill="none" stroke="midnightblue" points="274.502,-262.534 270.496,-272.342 279.744,-267.173 274.502,-262.534"/>
</g>
<!-- Node3&#45;&gt;Node0 -->
<g id="edge3" class="edge"><title>Node3&#45;&gt;Node0</title>
<path fill="none" stroke="midnightblue" d="M326.039,-128.867C307.399,-108.561 284.845,-83.9899 267.299,-64.8747"/>
<polygon fill="none" stroke="midnightblue" points="323.631,-131.421 332.972,-136.421 328.788,-126.687 323.631,-131.421"/>
</g>
</g>
</svg>
