<?xml version="1.0" encoding="UTF-8" standalone="no"?>
<!DOCTYPE svg PUBLIC "-//W3C//DTD SVG 1.1//EN"
 "http://www.w3.org/Graphics/SVG/1.1/DTD/svg11.dtd">
<!-- Generated by graphviz version 2.38.0 (20140413.2041)
 -->
<!-- Title: de.tu_clausthal.in.mec.modeling.model.erd.CEntity Pages: 1 -->
<svg width="613pt" height="694pt"
 viewBox="0.00 0.00 613.00 694.00" xmlns="http://www.w3.org/2000/svg" xmlns:xlink="http://www.w3.org/1999/xlink">
<g id="graph0" class="graph" transform="scale(1 1) rotate(0) translate(4 690)">
<title>de.tu_clausthal.in.mec.modeling.model.erd.CEntity</title>
<!-- Node7 -->
<g id="node1" class="node"><title>Node7</title>
<polygon fill="#bfbfbf" stroke="black" points="47,-0.5 47,-104.5 268,-104.5 268,-0.5 47,-0.5"/>
<text text-anchor="start" x="55" y="-93.3" font-family="Helvetica,sans-Serif" font-size="9.00">de.tu_clausthal.in.mec.modeling.model.erd.</text>
<text text-anchor="middle" x="157.5" y="-83.3" font-family="Helvetica,sans-Serif" font-size="9.00">CEntity</text>
<polyline fill="none" stroke="black" points="47,-76.5 268,-76.5 "/>
<text text-anchor="start" x="55" y="-65.3" font-family="Helvetica,sans-Serif" font-size="9.00">&#45; m_attributes</text>
<text text-anchor="start" x="55" y="-55.3" font-family="Helvetica,sans-Serif" font-size="9.00">&#45; m_weakentity</text>
<polyline fill="none" stroke="black" points="47,-48.5 268,-48.5 "/>
<text text-anchor="start" x="55" y="-37.3" font-family="Helvetica,sans-Serif" font-size="9.00">+ createAttribute()</text>
<text text-anchor="start" x="55" y="-27.3" font-family="Helvetica,sans-Serif" font-size="9.00">+ getConnectedAttributes()</text>
<text text-anchor="start" x="55" y="-17.3" font-family="Helvetica,sans-Serif" font-size="9.00">+ isWeakEntity()</text>
<text text-anchor="start" x="55" y="-7.3" font-family="Helvetica,sans-Serif" font-size="9.00">~ CEntity()</text>
</g>
<!-- Node8 -->
<g id="node2" class="node"><title>Node8</title>
<g id="a_node2"><a xlink:href="../../d5/d3e/classde_1_1tu__clausthal_1_1in_1_1mec_1_1modeling_1_1model_1_1graph_1_1IBaseNode.htm" target="_top" xlink:title="abstract class of an node ">
<polygon fill="none" stroke="black" points="0,-376.5 0,-480.5 233,-480.5 233,-376.5 0,-376.5"/>
<text text-anchor="start" x="8" y="-469.3" font-family="Helvetica,sans-Serif" font-size="9.00">de.tu_clausthal.in.mec.modeling.model.graph.</text>
<text text-anchor="middle" x="116.5" y="-459.3" font-family="Helvetica,sans-Serif" font-size="9.00">IBaseNode</text>
<polyline fill="none" stroke="black" points="0,-452.5 233,-452.5 "/>
<text text-anchor="start" x="8" y="-441.3" font-family="Helvetica,sans-Serif" font-size="9.00"># m_id</text>
<polyline fill="none" stroke="black" points="0,-434.5 233,-434.5 "/>
<text text-anchor="start" x="8" y="-423.3" font-family="Helvetica,sans-Serif" font-size="9.00">+ equals()</text>
<text text-anchor="start" x="8" y="-413.3" font-family="Helvetica,sans-Serif" font-size="9.00">+ hashCode()</text>
<text text-anchor="start" x="8" y="-403.3" font-family="Helvetica,sans-Serif" font-size="9.00">+ id()</text>
<text text-anchor="start" x="8" y="-393.3" font-family="Helvetica,sans-Serif" font-size="9.00">+ raw()</text>
<text text-anchor="start" x="8" y="-383.3" font-family="Helvetica,sans-Serif" font-size="9.00"># IBaseNode()</text>
</a>
</g>
</g>
<!-- Node8&#45;&gt;Node7 -->
<g id="edge1" class="edge"><title>Node8&#45;&gt;Node7</title>
<path fill="none" stroke="midnightblue" d="M117.443,-366.295C119.075,-308.247 123.505,-218.742 135.5,-142 137.407,-129.799 140.194,-116.817 143.148,-104.663"/>
<polygon fill="none" stroke="midnightblue" points="113.941,-366.312 117.178,-376.401 120.939,-366.496 113.941,-366.312"/>
</g>
<!-- Node9 -->
<g id="node3" class="node"><title>Node9</title>
<g id="a_node3"><a xlink:href="../../d4/db2/interfacede_1_1tu__clausthal_1_1in_1_1mec_1_1modeling_1_1model_1_1graph_1_1INode.htm" target="_top" xlink:title="node interface ">
<polygon fill="none" stroke="black" points="41,-611.5 41,-685.5 274,-685.5 274,-611.5 41,-611.5"/>
<text text-anchor="start" x="49" y="-674.3" font-family="Helvetica,sans-Serif" font-size="9.00">de.tu_clausthal.in.mec.modeling.model.graph.</text>
<text text-anchor="middle" x="157.5" y="-664.3" font-family="Helvetica,sans-Serif" font-size="9.00">INode</text>
<polyline fill="none" stroke="black" points="41,-657.5 274,-657.5 "/>
<text text-anchor="middle" x="157.5" y="-646.3" font-family="Helvetica,sans-Serif" font-size="9.00"> </text>
<polyline fill="none" stroke="black" points="41,-639.5 274,-639.5 "/>
<text text-anchor="start" x="49" y="-628.3" font-family="Helvetica,sans-Serif" font-size="9.00">+ id()</text>
<text text-anchor="start" x="49" y="-618.3" font-family="Helvetica,sans-Serif" font-size="9.00">+ raw()</text>
</a>
</g>
</g>
<!-- Node9&#45;&gt;Node8 -->
<g id="edge2" class="edge"><title>Node9&#45;&gt;Node8</title>
<path fill="none" stroke="midnightblue" d="M142.515,-601.539C139.91,-592.478 137.424,-582.991 135.5,-574 128.935,-543.319 124.272,-508.458 121.209,-480.664"/>
<polygon fill="none" stroke="midnightblue" points="139.169,-602.568 145.367,-611.161 145.881,-600.578 139.169,-602.568"/>
</g>
<!-- Node12 -->
<g id="node6" class="node"><title>Node12</title>
<g id="a_node6"><a xlink:href="../../d4/d3e/interfacede_1_1tu__clausthal_1_1in_1_1mec_1_1modeling_1_1model_1_1erd_1_1IErdNode.htm" target="_top" xlink:title="An node for the graphical ERD model. ">
<polygon fill="none" stroke="black" points="145,-504.5 145,-568.5 366,-568.5 366,-504.5 145,-504.5"/>
<text text-anchor="start" x="153" y="-557.3" font-family="Helvetica,sans-Serif" font-size="9.00">de.tu_clausthal.in.mec.modeling.model.erd.</text>
<text text-anchor="middle" x="255.5" y="-547.3" font-family="Helvetica,sans-Serif" font-size="9.00">IErdNode</text>
<polyline fill="none" stroke="black" points="145,-540.5 366,-540.5 "/>
<text text-anchor="middle" x="255.5" y="-529.3" font-family="Helvetica,sans-Serif" font-size="9.00"> </text>
<polyline fill="none" stroke="black" points="145,-522.5 366,-522.5 "/>
<text text-anchor="middle" x="255.5" y="-511.3" font-family="Helvetica,sans-Serif" font-size="9.00"> </text>
</a>
</g>
</g>
<!-- Node9&#45;&gt;Node12 -->
<g id="edge6" class="edge"><title>Node9&#45;&gt;Node12</title>
<path fill="none" stroke="midnightblue" d="M196.344,-603.899C206.798,-592.166 217.896,-579.708 227.622,-568.792"/>
<polygon fill="none" stroke="midnightblue" points="193.628,-601.687 189.589,-611.482 198.854,-606.343 193.628,-601.687"/>
</g>
<!-- Node10 -->
<g id="node4" class="node"><title>Node10</title>
<g id="a_node4"><a xlink:href="../../d9/deb/interfacede_1_1tu__clausthal_1_1in_1_1mec_1_1modeling_1_1model_1_1erd_1_1IEntity.htm" target="_top" xlink:title="{de.tu_clausthal.in.mec.modeling.model.erd.\lIEntity\&lt; IAttribute \&gt;\n||+ createAttribute()\l+ getConnectedAttributes()\l+ isWeakEntity()\l}">
<polygon fill="none" stroke="black" points="145,-142.5 145,-226.5 366,-226.5 366,-142.5 145,-142.5"/>
<text text-anchor="start" x="153" y="-215.3" font-family="Helvetica,sans-Serif" font-size="9.00">de.tu_clausthal.in.mec.modeling.model.erd.</text>
<text text-anchor="middle" x="255.5" y="-205.3" font-family="Helvetica,sans-Serif" font-size="9.00">IEntity&lt; IAttribute &gt;</text>
<polyline fill="none" stroke="black" points="145,-198.5 366,-198.5 "/>
<text text-anchor="middle" x="255.5" y="-187.3" font-family="Helvetica,sans-Serif" font-size="9.00"> </text>
<polyline fill="none" stroke="black" points="145,-180.5 366,-180.5 "/>
<text text-anchor="start" x="153" y="-169.3" font-family="Helvetica,sans-Serif" font-size="9.00">+ createAttribute()</text>
<text text-anchor="start" x="153" y="-159.3" font-family="Helvetica,sans-Serif" font-size="9.00">+ getConnectedAttributes()</text>
<text text-anchor="start" x="153" y="-149.3" font-family="Helvetica,sans-Serif" font-size="9.00">+ isWeakEntity()</text>
</a>
</g>
</g>
<!-- Node10&#45;&gt;Node7 -->
<g id="edge3" class="edge"><title>Node10&#45;&gt;Node7</title>
<path fill="none" stroke="midnightblue" d="M218.267,-134.109C211.058,-124.546 203.488,-114.504 196.232,-104.879"/>
<polygon fill="none" stroke="midnightblue" points="215.678,-136.489 224.492,-142.367 221.267,-132.275 215.678,-136.489"/>
</g>
<!-- Node11 -->
<g id="node5" class="node"><title>Node11</title>
<g id="a_node5"><a xlink:href="../../d9/deb/interfacede_1_1tu__clausthal_1_1in_1_1mec_1_1modeling_1_1model_1_1erd_1_1IEntity.htm" target="_top" xlink:title="An entity is a fundamental part of an ERD. ">
<polygon fill="none" stroke="black" points="145,-273.5 145,-357.5 366,-357.5 366,-273.5 145,-273.5"/>
<text text-anchor="start" x="153" y="-346.3" font-family="Helvetica,sans-Serif" font-size="9.00">de.tu_clausthal.in.mec.modeling.model.erd.</text>
<text text-anchor="middle" x="255.5" y="-336.3" font-family="Helvetica,sans-Serif" font-size="9.00">IEntity&lt; A extends IAttribute &gt;</text>
<polyline fill="none" stroke="black" points="145,-329.5 366,-329.5 "/>
<text text-anchor="middle" x="255.5" y="-318.3" font-family="Helvetica,sans-Serif" font-size="9.00"> </text>
<polyline fill="none" stroke="black" points="145,-311.5 366,-311.5 "/>
<text text-anchor="start" x="153" y="-300.3" font-family="Helvetica,sans-Serif" font-size="9.00">+ createAttribute()</text>
<text text-anchor="start" x="153" y="-290.3" font-family="Helvetica,sans-Serif" font-size="9.00">+ getConnectedAttributes()</text>
<text text-anchor="start" x="153" y="-280.3" font-family="Helvetica,sans-Serif" font-size="9.00">+ isWeakEntity()</text>
</a>
</g>
</g>
<!-- Node11&#45;&gt;Node10 -->
<g id="edge4" class="edge"><title>Node11&#45;&gt;Node10</title>
<path fill="none" stroke="orange" d="M255.5,-263.319C255.5,-251.17 255.5,-238.362 255.5,-226.722"/>
<polygon fill="orange" stroke="orange" points="252,-263.329 255.5,-273.329 259,-263.329 252,-263.329"/>
<text text-anchor="middle" x="289.5" y="-247.8" font-family="Helvetica,sans-Serif" font-size="9.00"> &lt; IAttribute &gt;</text>
</g>
<!-- Node12&#45;&gt;Node11 -->
<g id="edge5" class="edge"><title>Node12&#45;&gt;Node11</title>
<path fill="none" stroke="midnightblue" d="M255.5,-494.117C255.5,-454.971 255.5,-396.557 255.5,-357.528"/>
<polygon fill="none" stroke="midnightblue" points="252,-494.123 255.5,-504.123 259,-494.123 252,-494.123"/>
</g>
<!-- Node13 -->
<g id="node7" class="node"><title>Node13</title>
<g id="a_node7"><a xlink:href="../../df/ddc/interfacede_1_1tu__clausthal_1_1in_1_1mec_1_1modeling_1_1model_1_1erd_1_1IAttribute.htm" target="_top" xlink:title="A simple attribute that can be assigned in an ERD to an entity or relationship. ">
<polygon fill="none" stroke="black" points="384,-499.5 384,-573.5 605,-573.5 605,-499.5 384,-499.5"/>
<text text-anchor="start" x="392" y="-562.3" font-family="Helvetica,sans-Serif" font-size="9.00">de.tu_clausthal.in.mec.modeling.model.erd.</text>
<text text-anchor="middle" x="494.5" y="-552.3" font-family="Helvetica,sans-Serif" font-size="9.00">IAttribute</text>
<polyline fill="none" stroke="black" points="384,-545.5 605,-545.5 "/>
<text text-anchor="middle" x="494.5" y="-534.3" font-family="Helvetica,sans-Serif" font-size="9.00"> </text>
<polyline fill="none" stroke="black" points="384,-527.5 605,-527.5 "/>
<text text-anchor="start" x="392" y="-516.3" font-family="Helvetica,sans-Serif" font-size="9.00">+ attributeName()</text>
<text text-anchor="start" x="392" y="-506.3" font-family="Helvetica,sans-Serif" font-size="9.00">+ getProperty()</text>
</a>
</g>
</g>
<!-- Node13&#45;&gt;Node11 -->
<g id="edge7" class="edge"><title>Node13&#45;&gt;Node11</title>
<path fill="none" stroke="orange" d="M447.57,-492.497C404.888,-453.387 342.328,-396.062 300.318,-357.568"/>
<polygon fill="orange" stroke="orange" points="445.297,-495.161 455.034,-499.337 450.026,-490 445.297,-495.161"/>
<text text-anchor="middle" x="435.5" y="-426.3" font-family="Helvetica,sans-Serif" font-size="9.00"> A</text>
</g>
</g>
</svg>
