<?xml version="1.0" encoding="UTF-8" standalone="no"?>
<!DOCTYPE svg PUBLIC "-//W3C//DTD SVG 1.1//EN"
 "http://www.w3.org/Graphics/SVG/1.1/DTD/svg11.dtd">
<!-- Generated by graphviz version 2.38.0 (20140413.2041)
 -->
<!-- Title: de.tu_clausthal.in.mec.modeling.model.erd.IEntity&lt; A extends IAttribute &gt; Pages: 1 -->
<svg width="474pt" height="326pt"
 viewBox="0.00 0.00 474.00 326.00" xmlns="http://www.w3.org/2000/svg" xmlns:xlink="http://www.w3.org/1999/xlink">
<g id="graph0" class="graph" transform="scale(1 1) rotate(0) translate(4 322)">
<title>de.tu_clausthal.in.mec.modeling.model.erd.IEntity&lt; A extends IAttribute &gt;</title>
<!-- Node6 -->
<g id="node1" class="node"><title>Node6</title>
<polygon fill="#bfbfbf" stroke="black" points="185,-0.5 185,-84.5 406,-84.5 406,-0.5 185,-0.5"/>
<text text-anchor="start" x="193" y="-73.3" font-family="Helvetica,sans-Serif" font-size="9.00">de.tu_clausthal.in.mec.modeling.model.erd.</text>
<text text-anchor="middle" x="295.5" y="-63.3" font-family="Helvetica,sans-Serif" font-size="9.00">IEntity&lt; A extends IAttribute &gt;</text>
<polyline fill="none" stroke="black" points="185,-56.5 406,-56.5 "/>
<text text-anchor="middle" x="295.5" y="-45.3" font-family="Helvetica,sans-Serif" font-size="9.00"> </text>
<polyline fill="none" stroke="black" points="185,-38.5 406,-38.5 "/>
<text text-anchor="start" x="193" y="-27.3" font-family="Helvetica,sans-Serif" font-size="9.00">+ createAttribute()</text>
<text text-anchor="start" x="193" y="-17.3" font-family="Helvetica,sans-Serif" font-size="9.00">+ getConnectedAttributes()</text>
<text text-anchor="start" x="193" y="-7.3" font-family="Helvetica,sans-Serif" font-size="9.00">+ isWeakEntity()</text>
</g>
<!-- Node7 -->
<g id="node2" class="node"><title>Node7</title>
<g id="a_node2"><a xlink:href="../../d4/d3e/interfacede_1_1tu__clausthal_1_1in_1_1mec_1_1modeling_1_1model_1_1erd_1_1IErdNode.htm" target="_top" xlink:title="An node for the graphical ERD model. ">
<polygon fill="none" stroke="black" points="6,-136.5 6,-200.5 227,-200.5 227,-136.5 6,-136.5"/>
<text text-anchor="start" x="14" y="-189.3" font-family="Helvetica,sans-Serif" font-size="9.00">de.tu_clausthal.in.mec.modeling.model.erd.</text>
<text text-anchor="middle" x="116.5" y="-179.3" font-family="Helvetica,sans-Serif" font-size="9.00">IErdNode</text>
<polyline fill="none" stroke="black" points="6,-172.5 227,-172.5 "/>
<text text-anchor="middle" x="116.5" y="-161.3" font-family="Helvetica,sans-Serif" font-size="9.00"> </text>
<polyline fill="none" stroke="black" points="6,-154.5 227,-154.5 "/>
<text text-anchor="middle" x="116.5" y="-143.3" font-family="Helvetica,sans-Serif" font-size="9.00"> </text>
</a>
</g>
</g>
<!-- Node7&#45;&gt;Node6 -->
<g id="edge1" class="edge"><title>Node7&#45;&gt;Node6</title>
<path fill="none" stroke="midnightblue" d="M170.078,-130.384C190.886,-115.97 214.8,-99.4042 236.129,-84.6287"/>
<polygon fill="none" stroke="midnightblue" points="167.896,-127.638 161.669,-136.21 171.883,-133.392 167.896,-127.638"/>
</g>
<!-- Node8 -->
<g id="node3" class="node"><title>Node8</title>
<g id="a_node3"><a xlink:href="../../d4/db2/interfacede_1_1tu__clausthal_1_1in_1_1mec_1_1modeling_1_1model_1_1graph_1_1INode.htm" target="_top" xlink:title="node interface ">
<polygon fill="none" stroke="black" points="0,-243.5 0,-317.5 233,-317.5 233,-243.5 0,-243.5"/>
<text text-anchor="start" x="8" y="-306.3" font-family="Helvetica,sans-Serif" font-size="9.00">de.tu_clausthal.in.mec.modeling.model.graph.</text>
<text text-anchor="middle" x="116.5" y="-296.3" font-family="Helvetica,sans-Serif" font-size="9.00">INode</text>
<polyline fill="none" stroke="black" points="0,-289.5 233,-289.5 "/>
<text text-anchor="middle" x="116.5" y="-278.3" font-family="Helvetica,sans-Serif" font-size="9.00"> </text>
<polyline fill="none" stroke="black" points="0,-271.5 233,-271.5 "/>
<text text-anchor="start" x="8" y="-260.3" font-family="Helvetica,sans-Serif" font-size="9.00">+ id()</text>
<text text-anchor="start" x="8" y="-250.3" font-family="Helvetica,sans-Serif" font-size="9.00">+ raw()</text>
</a>
</g>
</g>
<!-- Node8&#45;&gt;Node7 -->
<g id="edge2" class="edge"><title>Node8&#45;&gt;Node7</title>
<path fill="none" stroke="midnightblue" d="M116.5,-233.206C116.5,-222.276 116.5,-210.876 116.5,-200.792"/>
<polygon fill="none" stroke="midnightblue" points="113,-233.482 116.5,-243.482 120,-233.482 113,-233.482"/>
</g>
<!-- Node9 -->
<g id="node4" class="node"><title>Node9</title>
<g id="a_node4"><a xlink:href="../../df/ddc/interfacede_1_1tu__clausthal_1_1in_1_1mec_1_1modeling_1_1model_1_1erd_1_1IAttribute.htm" target="_top" xlink:title="A simple attribute that can be assigned in an ERD to an entity or relationship. ">
<polygon fill="none" stroke="black" points="245,-131.5 245,-205.5 466,-205.5 466,-131.5 245,-131.5"/>
<text text-anchor="start" x="253" y="-194.3" font-family="Helvetica,sans-Serif" font-size="9.00">de.tu_clausthal.in.mec.modeling.model.erd.</text>
<text text-anchor="middle" x="355.5" y="-184.3" font-family="Helvetica,sans-Serif" font-size="9.00">IAttribute</text>
<polyline fill="none" stroke="black" points="245,-177.5 466,-177.5 "/>
<text text-anchor="middle" x="355.5" y="-166.3" font-family="Helvetica,sans-Serif" font-size="9.00"> </text>
<polyline fill="none" stroke="black" points="245,-159.5 466,-159.5 "/>
<text text-anchor="start" x="253" y="-148.3" font-family="Helvetica,sans-Serif" font-size="9.00">+ attributeName()</text>
<text text-anchor="start" x="253" y="-138.3" font-family="Helvetica,sans-Serif" font-size="9.00">+ getProperty()</text>
</a>
</g>
</g>
<!-- Node9&#45;&gt;Node6 -->
<g id="edge3" class="edge"><title>Node9&#45;&gt;Node6</title>
<path fill="none" stroke="orange" d="M333.562,-122.162C327.643,-109.928 321.27,-96.7587 315.465,-84.7606"/>
<polygon fill="orange" stroke="orange" points="330.478,-123.824 337.984,-131.301 336.779,-120.775 330.478,-123.824"/>
<text text-anchor="middle" x="333.5" y="-105.8" font-family="Helvetica,sans-Serif" font-size="9.00"> A</text>
</g>
</g>
</svg>
