<?xml version="1.0" encoding="UTF-8" standalone="no"?>
<!DOCTYPE svg PUBLIC "-//W3C//DTD SVG 1.1//EN"
 "http://www.w3.org/Graphics/SVG/1.1/DTD/svg11.dtd">
<!-- Generated by graphviz version 2.38.0 (20140413.2041)
 -->
<!-- Title: de.tu_clausthal.in.mec.modeling.model.erd.CAttribute Pages: 1 -->
<svg width="468pt" height="386pt"
 viewBox="0.00 0.00 468.00 386.00" xmlns="http://www.w3.org/2000/svg" xmlns:xlink="http://www.w3.org/1999/xlink">
<g id="graph0" class="graph" transform="scale(1 1) rotate(0) translate(4 382)">
<title>de.tu_clausthal.in.mec.modeling.model.erd.CAttribute</title>
<!-- Node2 -->
<g id="node1" class="node"><title>Node2</title>
<polygon fill="#bfbfbf" stroke="black" points="68,-0.5 68,-84.5 289,-84.5 289,-0.5 68,-0.5"/>
<text text-anchor="start" x="76" y="-73.3" font-family="Helvetica,sans-Serif" font-size="9.00">de.tu_clausthal.in.mec.modeling.model.erd.</text>
<text text-anchor="middle" x="178.5" y="-63.3" font-family="Helvetica,sans-Serif" font-size="9.00">CAttribute</text>
<polyline fill="none" stroke="black" points="68,-56.5 289,-56.5 "/>
<text text-anchor="start" x="76" y="-45.3" font-family="Helvetica,sans-Serif" font-size="9.00">&#45; m_name</text>
<polyline fill="none" stroke="black" points="68,-38.5 289,-38.5 "/>
<text text-anchor="start" x="76" y="-27.3" font-family="Helvetica,sans-Serif" font-size="9.00">+ attributeName()</text>
<text text-anchor="start" x="76" y="-17.3" font-family="Helvetica,sans-Serif" font-size="9.00">+ getProperty()</text>
<text text-anchor="start" x="76" y="-7.3" font-family="Helvetica,sans-Serif" font-size="9.00">~ CAttribute()</text>
</g>
<!-- Node3 -->
<g id="node2" class="node"><title>Node3</title>
<g id="a_node2"><a xlink:href="../../df/ddc/interfacede_1_1tu__clausthal_1_1in_1_1mec_1_1modeling_1_1model_1_1erd_1_1IAttribute.htm" target="_top" xlink:title="A simple attribute that can be assigned in an ERD to an entity or relationship. ">
<polygon fill="none" stroke="black" points="-1.42109e-14,-166.5 -1.42109e-14,-240.5 221,-240.5 221,-166.5 -1.42109e-14,-166.5"/>
<text text-anchor="start" x="8" y="-229.3" font-family="Helvetica,sans-Serif" font-size="9.00">de.tu_clausthal.in.mec.modeling.model.erd.</text>
<text text-anchor="middle" x="110.5" y="-219.3" font-family="Helvetica,sans-Serif" font-size="9.00">IAttribute</text>
<polyline fill="none" stroke="black" points="-1.42109e-14,-212.5 221,-212.5 "/>
<text text-anchor="middle" x="110.5" y="-201.3" font-family="Helvetica,sans-Serif" font-size="9.00"> </text>
<polyline fill="none" stroke="black" points="-1.42109e-14,-194.5 221,-194.5 "/>
<text text-anchor="start" x="8" y="-183.3" font-family="Helvetica,sans-Serif" font-size="9.00">+ attributeName()</text>
<text text-anchor="start" x="8" y="-173.3" font-family="Helvetica,sans-Serif" font-size="9.00">+ getProperty()</text>
</a>
</g>
</g>
<!-- Node3&#45;&gt;Node2 -->
<g id="edge1" class="edge"><title>Node3&#45;&gt;Node2</title>
<path fill="none" stroke="midnightblue" d="M129.968,-156.978C139.698,-134.227 151.384,-106.903 160.851,-84.7681"/>
<polygon fill="none" stroke="midnightblue" points="126.644,-155.85 125.93,-166.42 133.081,-158.602 126.644,-155.85"/>
</g>
<!-- Node4 -->
<g id="node3" class="node"><title>Node4</title>
<g id="a_node3"><a xlink:href="../../db/d5a/enumde_1_1tu__clausthal_1_1in_1_1mec_1_1modeling_1_1model_1_1erd_1_1EAttributeProperty.htm" target="_top" xlink:title="This enum class describes the possible attribute properties for an attribute. ">
<polygon fill="none" stroke="black" points="239,-131.5 239,-275.5 460,-275.5 460,-131.5 239,-131.5"/>
<text text-anchor="start" x="247" y="-264.3" font-family="Helvetica,sans-Serif" font-size="9.00">de.tu_clausthal.in.mec.modeling.model.erd.</text>
<text text-anchor="middle" x="349.5" y="-254.3" font-family="Helvetica,sans-Serif" font-size="9.00">EAttributeProperty</text>
<polyline fill="none" stroke="black" points="239,-247.5 460,-247.5 "/>
<text text-anchor="start" x="247" y="-236.3" font-family="Helvetica,sans-Serif" font-size="9.00">+ ATTRIBUTE</text>
<text text-anchor="start" x="247" y="-226.3" font-family="Helvetica,sans-Serif" font-size="9.00">+ COMPOUNDEDVALUE</text>
<text text-anchor="start" x="247" y="-216.3" font-family="Helvetica,sans-Serif" font-size="9.00">+ DERIVEDVALUE</text>
<text text-anchor="start" x="247" y="-206.3" font-family="Helvetica,sans-Serif" font-size="9.00">+ KEY</text>
<text text-anchor="start" x="247" y="-196.3" font-family="Helvetica,sans-Serif" font-size="9.00">+ MULTIVALUE</text>
<text text-anchor="start" x="247" y="-186.3" font-family="Helvetica,sans-Serif" font-size="9.00">+ WEAKKEY</text>
<text text-anchor="start" x="247" y="-176.3" font-family="Helvetica,sans-Serif" font-size="9.00">&#45; m_property</text>
<polyline fill="none" stroke="black" points="239,-169.5 460,-169.5 "/>
<text text-anchor="start" x="247" y="-158.3" font-family="Helvetica,sans-Serif" font-size="9.00">+ EAttributeProperty()</text>
<text text-anchor="start" x="247" y="-148.3" font-family="Helvetica,sans-Serif" font-size="9.00">+ getProperty()</text>
<text text-anchor="start" x="247" y="-138.3" font-family="Helvetica,sans-Serif" font-size="9.00">+ of()</text>
</a>
</g>
</g>
<!-- Node4&#45;&gt;Node2 -->
<g id="edge2" class="edge"><title>Node4&#45;&gt;Node2</title>
<path fill="none" stroke="#404040" d="M273.003,-131.371C258.986,-118.338 244.643,-105.001 231.503,-92.7831"/>
<polygon fill="none" stroke="#404040" points="231.405,-92.6921 224.287,-91.5358 222.617,-84.5207 229.734,-85.6771 231.405,-92.6921"/>
<text text-anchor="middle" x="278" y="-105.8" font-family="Helvetica,sans-Serif" font-size="9.00"> &#45;m_property</text>
</g>
<!-- Node5 -->
<g id="node4" class="node"><title>Node5</title>
<g id="a_node4"><a xlink:href="../../df/d1b/interfacede_1_1tu__clausthal_1_1in_1_1mec_1_1modeling_1_1model_1_1erd_1_1IAttributeProperty.htm" target="_top" xlink:title="Interface to define the methods which will be needed to read the values from the enum class of the pr...">
<polygon fill="none" stroke="black" points="239,-313.5 239,-377.5 460,-377.5 460,-313.5 239,-313.5"/>
<text text-anchor="start" x="247" y="-366.3" font-family="Helvetica,sans-Serif" font-size="9.00">de.tu_clausthal.in.mec.modeling.model.erd.</text>
<text text-anchor="middle" x="349.5" y="-356.3" font-family="Helvetica,sans-Serif" font-size="9.00">IAttributeProperty</text>
<polyline fill="none" stroke="black" points="239,-349.5 460,-349.5 "/>
<text text-anchor="middle" x="349.5" y="-338.3" font-family="Helvetica,sans-Serif" font-size="9.00"> </text>
<polyline fill="none" stroke="black" points="239,-331.5 460,-331.5 "/>
<text text-anchor="start" x="247" y="-320.3" font-family="Helvetica,sans-Serif" font-size="9.00">+ getProperty()</text>
</a>
</g>
</g>
<!-- Node5&#45;&gt;Node4 -->
<g id="edge3" class="edge"><title>Node5&#45;&gt;Node4</title>
<path fill="none" stroke="midnightblue" d="M349.5,-303.2C349.5,-294.484 349.5,-285.05 349.5,-275.589"/>
<polygon fill="none" stroke="midnightblue" points="346,-303.429 349.5,-313.429 353,-303.429 346,-303.429"/>
</g>
</g>
</svg>
