<?xml version="1.0" encoding="UTF-8" standalone="no"?>
<!DOCTYPE svg PUBLIC "-//W3C//DTD SVG 1.1//EN"
 "http://www.w3.org/Graphics/SVG/1.1/DTD/svg11.dtd">
<!-- Generated by graphviz version 2.38.0 (20140413.2041)
 -->
<!-- Title: de.tu_clausthal.in.mec.modeling.model.erd.IRelationship&lt; A extends IAttribute &gt; Pages: 1 -->
<svg width="474pt" height="366pt"
 viewBox="0.00 0.00 474.00 366.00" xmlns="http://www.w3.org/2000/svg" xmlns:xlink="http://www.w3.org/1999/xlink">
<g id="graph0" class="graph" transform="scale(1 1) rotate(0) translate(4 362)">
<title>de.tu_clausthal.in.mec.modeling.model.erd.IRelationship&lt; A extends IAttribute &gt;</title>
<!-- Node6 -->
<g id="node1" class="node"><title>Node6</title>
<polygon fill="#bfbfbf" stroke="black" points="185,-0.5 185,-124.5 406,-124.5 406,-0.5 185,-0.5"/>
<text text-anchor="start" x="193" y="-113.3" font-family="Helvetica,sans-Serif" font-size="9.00">de.tu_clausthal.in.mec.modeling.model.erd.</text>
<text text-anchor="middle" x="295.5" y="-103.3" font-family="Helvetica,sans-Serif" font-size="9.00">IRelationship&lt; A extends IAttribute &gt;</text>
<polyline fill="none" stroke="black" points="185,-96.5 406,-96.5 "/>
<text text-anchor="middle" x="295.5" y="-85.3" font-family="Helvetica,sans-Serif" font-size="9.00"> </text>
<polyline fill="none" stroke="black" points="185,-78.5 406,-78.5 "/>
<text text-anchor="start" x="193" y="-67.3" font-family="Helvetica,sans-Serif" font-size="9.00">+ connectEntity()</text>
<text text-anchor="start" x="193" y="-57.3" font-family="Helvetica,sans-Serif" font-size="9.00">+ createAttribute()</text>
<text text-anchor="start" x="193" y="-47.3" font-family="Helvetica,sans-Serif" font-size="9.00">+ getConnectedAttributes()</text>
<text text-anchor="start" x="193" y="-37.3" font-family="Helvetica,sans-Serif" font-size="9.00">+ getConnectedEntities()</text>
<text text-anchor="start" x="193" y="-27.3" font-family="Helvetica,sans-Serif" font-size="9.00">+ getDescription()</text>
<text text-anchor="start" x="193" y="-17.3" font-family="Helvetica,sans-Serif" font-size="9.00">+ isRecursive()</text>
<text text-anchor="start" x="193" y="-7.3" font-family="Helvetica,sans-Serif" font-size="9.00">+ isWeakRelationship()</text>
</g>
<!-- Node7 -->
<g id="node2" class="node"><title>Node7</title>
<g id="a_node2"><a xlink:href="../../d4/d3e/interfacede_1_1tu__clausthal_1_1in_1_1mec_1_1modeling_1_1model_1_1erd_1_1IErdNode.htm" target="_top" xlink:title="An node for the graphical ERD model. ">
<polygon fill="none" stroke="black" points="6,-176.5 6,-240.5 227,-240.5 227,-176.5 6,-176.5"/>
<text text-anchor="start" x="14" y="-229.3" font-family="Helvetica,sans-Serif" font-size="9.00">de.tu_clausthal.in.mec.modeling.model.erd.</text>
<text text-anchor="middle" x="116.5" y="-219.3" font-family="Helvetica,sans-Serif" font-size="9.00">IErdNode</text>
<polyline fill="none" stroke="black" points="6,-212.5 227,-212.5 "/>
<text text-anchor="middle" x="116.5" y="-201.3" font-family="Helvetica,sans-Serif" font-size="9.00"> </text>
<polyline fill="none" stroke="black" points="6,-194.5 227,-194.5 "/>
<text text-anchor="middle" x="116.5" y="-183.3" font-family="Helvetica,sans-Serif" font-size="9.00"> </text>
</a>
</g>
</g>
<!-- Node7&#45;&gt;Node6 -->
<g id="edge1" class="edge"><title>Node7&#45;&gt;Node6</title>
<path fill="none" stroke="midnightblue" d="M163.527,-169.668C180.68,-155.87 200.541,-139.891 219.566,-124.587"/>
<polygon fill="none" stroke="midnightblue" points="160.938,-167.259 155.34,-176.254 165.326,-172.713 160.938,-167.259"/>
</g>
<!-- Node8 -->
<g id="node3" class="node"><title>Node8</title>
<g id="a_node3"><a xlink:href="../../d4/db2/interfacede_1_1tu__clausthal_1_1in_1_1mec_1_1modeling_1_1model_1_1graph_1_1INode.htm" target="_top" xlink:title="node interface ">
<polygon fill="none" stroke="black" points="0,-283.5 0,-357.5 233,-357.5 233,-283.5 0,-283.5"/>
<text text-anchor="start" x="8" y="-346.3" font-family="Helvetica,sans-Serif" font-size="9.00">de.tu_clausthal.in.mec.modeling.model.graph.</text>
<text text-anchor="middle" x="116.5" y="-336.3" font-family="Helvetica,sans-Serif" font-size="9.00">INode</text>
<polyline fill="none" stroke="black" points="0,-329.5 233,-329.5 "/>
<text text-anchor="middle" x="116.5" y="-318.3" font-family="Helvetica,sans-Serif" font-size="9.00"> </text>
<polyline fill="none" stroke="black" points="0,-311.5 233,-311.5 "/>
<text text-anchor="start" x="8" y="-300.3" font-family="Helvetica,sans-Serif" font-size="9.00">+ id()</text>
<text text-anchor="start" x="8" y="-290.3" font-family="Helvetica,sans-Serif" font-size="9.00">+ raw()</text>
</a>
</g>
</g>
<!-- Node8&#45;&gt;Node7 -->
<g id="edge2" class="edge"><title>Node8&#45;&gt;Node7</title>
<path fill="none" stroke="midnightblue" d="M116.5,-273.206C116.5,-262.276 116.5,-250.876 116.5,-240.792"/>
<polygon fill="none" stroke="midnightblue" points="113,-273.482 116.5,-283.482 120,-273.482 113,-273.482"/>
</g>
<!-- Node9 -->
<g id="node4" class="node"><title>Node9</title>
<g id="a_node4"><a xlink:href="../../df/ddc/interfacede_1_1tu__clausthal_1_1in_1_1mec_1_1modeling_1_1model_1_1erd_1_1IAttribute.htm" target="_top" xlink:title="A simple attribute that can be assigned in an ERD to an entity or relationship. ">
<polygon fill="none" stroke="black" points="245,-171.5 245,-245.5 466,-245.5 466,-171.5 245,-171.5"/>
<text text-anchor="start" x="253" y="-234.3" font-family="Helvetica,sans-Serif" font-size="9.00">de.tu_clausthal.in.mec.modeling.model.erd.</text>
<text text-anchor="middle" x="355.5" y="-224.3" font-family="Helvetica,sans-Serif" font-size="9.00">IAttribute</text>
<polyline fill="none" stroke="black" points="245,-217.5 466,-217.5 "/>
<text text-anchor="middle" x="355.5" y="-206.3" font-family="Helvetica,sans-Serif" font-size="9.00"> </text>
<polyline fill="none" stroke="black" points="245,-199.5 466,-199.5 "/>
<text text-anchor="start" x="253" y="-188.3" font-family="Helvetica,sans-Serif" font-size="9.00">+ attributeName()</text>
<text text-anchor="start" x="253" y="-178.3" font-family="Helvetica,sans-Serif" font-size="9.00">+ getProperty()</text>
</a>
</g>
</g>
<!-- Node9&#45;&gt;Node6 -->
<g id="edge3" class="edge"><title>Node9&#45;&gt;Node6</title>
<path fill="none" stroke="orange" d="M336.377,-161.606C331.496,-149.89 326.17,-137.109 321.024,-124.758"/>
<polygon fill="orange" stroke="orange" points="333.282,-163.278 340.359,-171.163 339.744,-160.586 333.282,-163.278"/>
<text text-anchor="middle" x="337.5" y="-145.8" font-family="Helvetica,sans-Serif" font-size="9.00"> A</text>
</g>
</g>
</svg>
