<?xml version="1.0" encoding="UTF-8" standalone="no"?>
<!DOCTYPE svg PUBLIC "-//W3C//DTD SVG 1.1//EN"
 "http://www.w3.org/Graphics/SVG/1.1/DTD/svg11.dtd">
<!-- Generated by graphviz version 2.38.0 (20140413.2041)
 -->
<!-- Title: de.tu_clausthal.in.mec.modeling.model.erd.IErdEdge Pages: 1 -->
<svg width="241pt" height="285pt"
 viewBox="0.00 0.00 241.00 285.00" xmlns="http://www.w3.org/2000/svg" xmlns:xlink="http://www.w3.org/1999/xlink">
<g id="graph0" class="graph" transform="scale(1 1) rotate(0) translate(4 281)">
<title>de.tu_clausthal.in.mec.modeling.model.erd.IErdEdge</title>
<!-- Node0 -->
<g id="node1" class="node"><title>Node0</title>
<polygon fill="#bfbfbf" stroke="black" points="6,-101.5 6,-165.5 227,-165.5 227,-101.5 6,-101.5"/>
<text text-anchor="start" x="14" y="-154.3" font-family="Helvetica,sans-Serif" font-size="9.00">de.tu_clausthal.in.mec.modeling.model.erd.</text>
<text text-anchor="middle" x="116.5" y="-144.3" font-family="Helvetica,sans-Serif" font-size="9.00">IErdEdge</text>
<polyline fill="none" stroke="black" points="6,-137.5 227,-137.5 "/>
<text text-anchor="middle" x="116.5" y="-126.3" font-family="Helvetica,sans-Serif" font-size="9.00"> </text>
<polyline fill="none" stroke="black" points="6,-119.5 227,-119.5 "/>
<text text-anchor="middle" x="116.5" y="-108.3" font-family="Helvetica,sans-Serif" font-size="9.00"> </text>
</g>
<!-- Node2 -->
<g id="node3" class="node"><title>Node2</title>
<g id="a_node3"><a xlink:href="../../d2/d5b/classde_1_1tu__clausthal_1_1in_1_1mec_1_1modeling_1_1model_1_1erd_1_1CErdEdge.htm" target="_top" xlink:title="This class represents the edges between the relationships and the entities. ">
<polygon fill="none" stroke="black" points="6,-0.5 6,-64.5 227,-64.5 227,-0.5 6,-0.5"/>
<text text-anchor="start" x="14" y="-53.3" font-family="Helvetica,sans-Serif" font-size="9.00">de.tu_clausthal.in.mec.modeling.model.erd.</text>
<text text-anchor="middle" x="116.5" y="-43.3" font-family="Helvetica,sans-Serif" font-size="9.00">CErdEdge</text>
<polyline fill="none" stroke="black" points="6,-36.5 227,-36.5 "/>
<text text-anchor="middle" x="116.5" y="-25.3" font-family="Helvetica,sans-Serif" font-size="9.00"> </text>
<polyline fill="none" stroke="black" points="6,-18.5 227,-18.5 "/>
<text text-anchor="start" x="14" y="-7.3" font-family="Helvetica,sans-Serif" font-size="9.00">~ CErdEdge()</text>
</a>
</g>
</g>
<!-- Node0&#45;&gt;Node2 -->
<g id="edge2" class="edge"><title>Node0&#45;&gt;Node2</title>
<path fill="none" stroke="midnightblue" d="M116.5,-91.2823C116.5,-82.4203 116.5,-73.1938 116.5,-64.7828"/>
<polygon fill="none" stroke="midnightblue" points="113,-91.4474 116.5,-101.447 120,-91.4474 113,-91.4474"/>
</g>
<!-- Node1 -->
<g id="node2" class="node"><title>Node1</title>
<g id="a_node2"><a xlink:href="../../d3/d76/interfacede_1_1tu__clausthal_1_1in_1_1mec_1_1modeling_1_1model_1_1graph_1_1IEdge.htm" target="_top" xlink:title="interface of an edge ">
<polygon fill="none" stroke="black" points="-1.42109e-14,-202.5 -1.42109e-14,-276.5 233,-276.5 233,-202.5 -1.42109e-14,-202.5"/>
<text text-anchor="start" x="8" y="-265.3" font-family="Helvetica,sans-Serif" font-size="9.00">de.tu_clausthal.in.mec.modeling.model.graph.</text>
<text text-anchor="middle" x="116.5" y="-255.3" font-family="Helvetica,sans-Serif" font-size="9.00">IEdge</text>
<polyline fill="none" stroke="black" points="-1.42109e-14,-248.5 233,-248.5 "/>
<text text-anchor="middle" x="116.5" y="-237.3" font-family="Helvetica,sans-Serif" font-size="9.00"> </text>
<polyline fill="none" stroke="black" points="-1.42109e-14,-230.5 233,-230.5 "/>
<text text-anchor="start" x="8" y="-219.3" font-family="Helvetica,sans-Serif" font-size="9.00">+ id()</text>
<text text-anchor="start" x="8" y="-209.3" font-family="Helvetica,sans-Serif" font-size="9.00">+ raw()</text>
</a>
</g>
</g>
<!-- Node1&#45;&gt;Node0 -->
<g id="edge1" class="edge"><title>Node1&#45;&gt;Node0</title>
<path fill="none" stroke="midnightblue" d="M116.5,-192.38C116.5,-183.347 116.5,-174.074 116.5,-165.67"/>
<polygon fill="none" stroke="midnightblue" points="113,-192.418 116.5,-202.418 120,-192.418 113,-192.418"/>
</g>
</g>
</svg>
