<?xml version="1.0" encoding="UTF-8" standalone="no"?>
<!DOCTYPE svg PUBLIC "-//W3C//DTD SVG 1.1//EN"
 "http://www.w3.org/Graphics/SVG/1.1/DTD/svg11.dtd">
<!-- Generated by graphviz version 2.38.0 (20140413.2041)
 -->
<!-- Title: de.tu_clausthal.in.mec.modeling.model.erd.CRelationship Pages: 1 -->
<svg width="613pt" height="834pt"
 viewBox="0.00 0.00 613.00 834.00" xmlns="http://www.w3.org/2000/svg" xmlns:xlink="http://www.w3.org/1999/xlink">
<g id="graph0" class="graph" transform="scale(1 1) rotate(0) translate(4 830)">
<title>de.tu_clausthal.in.mec.modeling.model.erd.CRelationship</title>
<!-- Node0 -->
<g id="node1" class="node"><title>Node0</title>
<polygon fill="#bfbfbf" stroke="black" points="47,-0.5 47,-164.5 268,-164.5 268,-0.5 47,-0.5"/>
<text text-anchor="start" x="55" y="-153.3" font-family="Helvetica,sans-Serif" font-size="9.00">de.tu_clausthal.in.mec.modeling.model.erd.</text>
<text text-anchor="middle" x="157.5" y="-143.3" font-family="Helvetica,sans-Serif" font-size="9.00">CRelationship</text>
<polyline fill="none" stroke="black" points="47,-136.5 268,-136.5 "/>
<text text-anchor="start" x="55" y="-125.3" font-family="Helvetica,sans-Serif" font-size="9.00">&#45; m_attributes</text>
<text text-anchor="start" x="55" y="-115.3" font-family="Helvetica,sans-Serif" font-size="9.00">&#45; m_description</text>
<text text-anchor="start" x="55" y="-105.3" font-family="Helvetica,sans-Serif" font-size="9.00">&#45; m_entityone</text>
<text text-anchor="start" x="55" y="-95.3" font-family="Helvetica,sans-Serif" font-size="9.00">&#45; m_entitytwo</text>
<polyline fill="none" stroke="black" points="47,-88.5 268,-88.5 "/>
<text text-anchor="start" x="55" y="-77.3" font-family="Helvetica,sans-Serif" font-size="9.00">+ connectEntity()</text>
<text text-anchor="start" x="55" y="-67.3" font-family="Helvetica,sans-Serif" font-size="9.00">+ createAttribute()</text>
<text text-anchor="start" x="55" y="-57.3" font-family="Helvetica,sans-Serif" font-size="9.00">+ getConnectedAttributes()</text>
<text text-anchor="start" x="55" y="-47.3" font-family="Helvetica,sans-Serif" font-size="9.00">+ getConnectedEntities()</text>
<text text-anchor="start" x="55" y="-37.3" font-family="Helvetica,sans-Serif" font-size="9.00">+ getDescription()</text>
<text text-anchor="start" x="55" y="-27.3" font-family="Helvetica,sans-Serif" font-size="9.00">+ isRecursive()</text>
<text text-anchor="start" x="55" y="-17.3" font-family="Helvetica,sans-Serif" font-size="9.00">+ isWeakRelationship()</text>
<text text-anchor="start" x="55" y="-7.3" font-family="Helvetica,sans-Serif" font-size="9.00">~ CRelationship()</text>
</g>
<!-- Node1 -->
<g id="node2" class="node"><title>Node1</title>
<g id="a_node2"><a xlink:href="../../d5/d3e/classde_1_1tu__clausthal_1_1in_1_1mec_1_1modeling_1_1model_1_1graph_1_1IBaseNode.htm" target="_top" xlink:title="abstract class of an node ">
<polygon fill="none" stroke="black" points="0,-516.5 0,-620.5 233,-620.5 233,-516.5 0,-516.5"/>
<text text-anchor="start" x="8" y="-609.3" font-family="Helvetica,sans-Serif" font-size="9.00">de.tu_clausthal.in.mec.modeling.model.graph.</text>
<text text-anchor="middle" x="116.5" y="-599.3" font-family="Helvetica,sans-Serif" font-size="9.00">IBaseNode</text>
<polyline fill="none" stroke="black" points="0,-592.5 233,-592.5 "/>
<text text-anchor="start" x="8" y="-581.3" font-family="Helvetica,sans-Serif" font-size="9.00"># m_id</text>
<polyline fill="none" stroke="black" points="0,-574.5 233,-574.5 "/>
<text text-anchor="start" x="8" y="-563.3" font-family="Helvetica,sans-Serif" font-size="9.00">+ equals()</text>
<text text-anchor="start" x="8" y="-553.3" font-family="Helvetica,sans-Serif" font-size="9.00">+ hashCode()</text>
<text text-anchor="start" x="8" y="-543.3" font-family="Helvetica,sans-Serif" font-size="9.00">+ id()</text>
<text text-anchor="start" x="8" y="-533.3" font-family="Helvetica,sans-Serif" font-size="9.00">+ raw()</text>
<text text-anchor="start" x="8" y="-523.3" font-family="Helvetica,sans-Serif" font-size="9.00"># IBaseNode()</text>
</a>
</g>
</g>
<!-- Node1&#45;&gt;Node0 -->
<g id="edge1" class="edge"><title>Node1&#45;&gt;Node0</title>
<path fill="none" stroke="midnightblue" d="M117.228,-506.118C118.66,-433.329 122.907,-308.453 135.5,-202 136.938,-189.844 138.868,-177.056 140.989,-164.559"/>
<polygon fill="none" stroke="midnightblue" points="113.722,-506.408 117.037,-516.471 120.721,-506.537 113.722,-506.408"/>
</g>
<!-- Node2 -->
<g id="node3" class="node"><title>Node2</title>
<g id="a_node3"><a xlink:href="../../d4/db2/interfacede_1_1tu__clausthal_1_1in_1_1mec_1_1modeling_1_1model_1_1graph_1_1INode.htm" target="_top" xlink:title="node interface ">
<polygon fill="none" stroke="black" points="41,-751.5 41,-825.5 274,-825.5 274,-751.5 41,-751.5"/>
<text text-anchor="start" x="49" y="-814.3" font-family="Helvetica,sans-Serif" font-size="9.00">de.tu_clausthal.in.mec.modeling.model.graph.</text>
<text text-anchor="middle" x="157.5" y="-804.3" font-family="Helvetica,sans-Serif" font-size="9.00">INode</text>
<polyline fill="none" stroke="black" points="41,-797.5 274,-797.5 "/>
<text text-anchor="middle" x="157.5" y="-786.3" font-family="Helvetica,sans-Serif" font-size="9.00"> </text>
<polyline fill="none" stroke="black" points="41,-779.5 274,-779.5 "/>
<text text-anchor="start" x="49" y="-768.3" font-family="Helvetica,sans-Serif" font-size="9.00">+ id()</text>
<text text-anchor="start" x="49" y="-758.3" font-family="Helvetica,sans-Serif" font-size="9.00">+ raw()</text>
</a>
</g>
</g>
<!-- Node2&#45;&gt;Node1 -->
<g id="edge2" class="edge"><title>Node2&#45;&gt;Node1</title>
<path fill="none" stroke="midnightblue" d="M142.515,-741.539C139.91,-732.478 137.424,-722.991 135.5,-714 128.935,-683.319 124.272,-648.458 121.209,-620.664"/>
<polygon fill="none" stroke="midnightblue" points="139.169,-742.568 145.367,-751.161 145.881,-740.578 139.169,-742.568"/>
</g>
<!-- Node5 -->
<g id="node6" class="node"><title>Node5</title>
<g id="a_node6"><a xlink:href="../../d4/d3e/interfacede_1_1tu__clausthal_1_1in_1_1mec_1_1modeling_1_1model_1_1erd_1_1IErdNode.htm" target="_top" xlink:title="An node for the graphical ERD model. ">
<polygon fill="none" stroke="black" points="145,-644.5 145,-708.5 366,-708.5 366,-644.5 145,-644.5"/>
<text text-anchor="start" x="153" y="-697.3" font-family="Helvetica,sans-Serif" font-size="9.00">de.tu_clausthal.in.mec.modeling.model.erd.</text>
<text text-anchor="middle" x="255.5" y="-687.3" font-family="Helvetica,sans-Serif" font-size="9.00">IErdNode</text>
<polyline fill="none" stroke="black" points="145,-680.5 366,-680.5 "/>
<text text-anchor="middle" x="255.5" y="-669.3" font-family="Helvetica,sans-Serif" font-size="9.00"> </text>
<polyline fill="none" stroke="black" points="145,-662.5 366,-662.5 "/>
<text text-anchor="middle" x="255.5" y="-651.3" font-family="Helvetica,sans-Serif" font-size="9.00"> </text>
</a>
</g>
</g>
<!-- Node2&#45;&gt;Node5 -->
<g id="edge6" class="edge"><title>Node2&#45;&gt;Node5</title>
<path fill="none" stroke="midnightblue" d="M196.344,-743.899C206.798,-732.166 217.896,-719.708 227.622,-708.792"/>
<polygon fill="none" stroke="midnightblue" points="193.628,-741.687 189.589,-751.482 198.854,-746.343 193.628,-741.687"/>
</g>
<!-- Node3 -->
<g id="node4" class="node"><title>Node3</title>
<g id="a_node4"><a xlink:href="../../df/d49/interfacede_1_1tu__clausthal_1_1in_1_1mec_1_1modeling_1_1model_1_1erd_1_1IRelationship.htm" target="_top" xlink:title="{de.tu_clausthal.in.mec.modeling.model.erd.\lIRelationship\&lt; IAttribute \&gt;\n||+ connectEntity()\l+ createAttribute()\l+ getConnectedAttributes()\l+ getConnectedEntities()\l+ getDescription()\l+ isRecursive()\l+ isWeakRelationship()\l}">
<polygon fill="none" stroke="black" points="145,-202.5 145,-326.5 366,-326.5 366,-202.5 145,-202.5"/>
<text text-anchor="start" x="153" y="-315.3" font-family="Helvetica,sans-Serif" font-size="9.00">de.tu_clausthal.in.mec.modeling.model.erd.</text>
<text text-anchor="middle" x="255.5" y="-305.3" font-family="Helvetica,sans-Serif" font-size="9.00">IRelationship&lt; IAttribute &gt;</text>
<polyline fill="none" stroke="black" points="145,-298.5 366,-298.5 "/>
<text text-anchor="middle" x="255.5" y="-287.3" font-family="Helvetica,sans-Serif" font-size="9.00"> </text>
<polyline fill="none" stroke="black" points="145,-280.5 366,-280.5 "/>
<text text-anchor="start" x="153" y="-269.3" font-family="Helvetica,sans-Serif" font-size="9.00">+ connectEntity()</text>
<text text-anchor="start" x="153" y="-259.3" font-family="Helvetica,sans-Serif" font-size="9.00">+ createAttribute()</text>
<text text-anchor="start" x="153" y="-249.3" font-family="Helvetica,sans-Serif" font-size="9.00">+ getConnectedAttributes()</text>
<text text-anchor="start" x="153" y="-239.3" font-family="Helvetica,sans-Serif" font-size="9.00">+ getConnectedEntities()</text>
<text text-anchor="start" x="153" y="-229.3" font-family="Helvetica,sans-Serif" font-size="9.00">+ getDescription()</text>
<text text-anchor="start" x="153" y="-219.3" font-family="Helvetica,sans-Serif" font-size="9.00">+ isRecursive()</text>
<text text-anchor="start" x="153" y="-209.3" font-family="Helvetica,sans-Serif" font-size="9.00">+ isWeakRelationship()</text>
</a>
</g>
</g>
<!-- Node3&#45;&gt;Node0 -->
<g id="edge3" class="edge"><title>Node3&#45;&gt;Node0</title>
<path fill="none" stroke="midnightblue" d="M217.32,-193.374C212.185,-183.942 206.883,-174.203 201.655,-164.601"/>
<polygon fill="none" stroke="midnightblue" points="214.329,-195.2 222.185,-202.309 220.477,-191.853 214.329,-195.2"/>
</g>
<!-- Node4 -->
<g id="node5" class="node"><title>Node4</title>
<g id="a_node5"><a xlink:href="../../df/d49/interfacede_1_1tu__clausthal_1_1in_1_1mec_1_1modeling_1_1model_1_1erd_1_1IRelationship.htm" target="_top" xlink:title="A relationship is a fundamental part of an ERD. ">
<polygon fill="none" stroke="black" points="145,-373.5 145,-497.5 366,-497.5 366,-373.5 145,-373.5"/>
<text text-anchor="start" x="153" y="-486.3" font-family="Helvetica,sans-Serif" font-size="9.00">de.tu_clausthal.in.mec.modeling.model.erd.</text>
<text text-anchor="middle" x="255.5" y="-476.3" font-family="Helvetica,sans-Serif" font-size="9.00">IRelationship&lt; A extends IAttribute &gt;</text>
<polyline fill="none" stroke="black" points="145,-469.5 366,-469.5 "/>
<text text-anchor="middle" x="255.5" y="-458.3" font-family="Helvetica,sans-Serif" font-size="9.00"> </text>
<polyline fill="none" stroke="black" points="145,-451.5 366,-451.5 "/>
<text text-anchor="start" x="153" y="-440.3" font-family="Helvetica,sans-Serif" font-size="9.00">+ connectEntity()</text>
<text text-anchor="start" x="153" y="-430.3" font-family="Helvetica,sans-Serif" font-size="9.00">+ createAttribute()</text>
<text text-anchor="start" x="153" y="-420.3" font-family="Helvetica,sans-Serif" font-size="9.00">+ getConnectedAttributes()</text>
<text text-anchor="start" x="153" y="-410.3" font-family="Helvetica,sans-Serif" font-size="9.00">+ getConnectedEntities()</text>
<text text-anchor="start" x="153" y="-400.3" font-family="Helvetica,sans-Serif" font-size="9.00">+ getDescription()</text>
<text text-anchor="start" x="153" y="-390.3" font-family="Helvetica,sans-Serif" font-size="9.00">+ isRecursive()</text>
<text text-anchor="start" x="153" y="-380.3" font-family="Helvetica,sans-Serif" font-size="9.00">+ isWeakRelationship()</text>
</a>
</g>
</g>
<!-- Node4&#45;&gt;Node3 -->
<g id="edge4" class="edge"><title>Node4&#45;&gt;Node3</title>
<path fill="none" stroke="orange" d="M255.5,-363.362C255.5,-351.175 255.5,-338.607 255.5,-326.707"/>
<polygon fill="orange" stroke="orange" points="252,-363.487 255.5,-373.487 259,-363.487 252,-363.487"/>
<text text-anchor="middle" x="289.5" y="-347.8" font-family="Helvetica,sans-Serif" font-size="9.00"> &lt; IAttribute &gt;</text>
</g>
<!-- Node5&#45;&gt;Node4 -->
<g id="edge5" class="edge"><title>Node5&#45;&gt;Node4</title>
<path fill="none" stroke="midnightblue" d="M255.5,-634.156C255.5,-596.525 255.5,-540.477 255.5,-497.665"/>
<polygon fill="none" stroke="midnightblue" points="252,-634.255 255.5,-644.255 259,-634.255 252,-634.255"/>
</g>
<!-- Node6 -->
<g id="node7" class="node"><title>Node6</title>
<g id="a_node7"><a xlink:href="../../df/ddc/interfacede_1_1tu__clausthal_1_1in_1_1mec_1_1modeling_1_1model_1_1erd_1_1IAttribute.htm" target="_top" xlink:title="A simple attribute that can be assigned in an ERD to an entity or relationship. ">
<polygon fill="none" stroke="black" points="384,-639.5 384,-713.5 605,-713.5 605,-639.5 384,-639.5"/>
<text text-anchor="start" x="392" y="-702.3" font-family="Helvetica,sans-Serif" font-size="9.00">de.tu_clausthal.in.mec.modeling.model.erd.</text>
<text text-anchor="middle" x="494.5" y="-692.3" font-family="Helvetica,sans-Serif" font-size="9.00">IAttribute</text>
<polyline fill="none" stroke="black" points="384,-685.5 605,-685.5 "/>
<text text-anchor="middle" x="494.5" y="-674.3" font-family="Helvetica,sans-Serif" font-size="9.00"> </text>
<polyline fill="none" stroke="black" points="384,-667.5 605,-667.5 "/>
<text text-anchor="start" x="392" y="-656.3" font-family="Helvetica,sans-Serif" font-size="9.00">+ attributeName()</text>
<text text-anchor="start" x="392" y="-646.3" font-family="Helvetica,sans-Serif" font-size="9.00">+ getProperty()</text>
</a>
</g>
</g>
<!-- Node6&#45;&gt;Node4 -->
<g id="edge7" class="edge"><title>Node6&#45;&gt;Node4</title>
<path fill="none" stroke="orange" d="M451.196,-632.196C413.686,-594.686 358.991,-539.991 316.954,-497.954"/>
<polygon fill="orange" stroke="orange" points="448.915,-634.864 458.461,-639.461 453.864,-629.915 448.915,-634.864"/>
<text text-anchor="middle" x="442.5" y="-566.3" font-family="Helvetica,sans-Serif" font-size="9.00"> A</text>
</g>
</g>
</svg>
