<?xml version="1.0" encoding="UTF-8" standalone="no"?>
<!DOCTYPE svg PUBLIC "-//W3C//DTD SVG 1.1//EN"
 "http://www.w3.org/Graphics/SVG/1.1/DTD/svg11.dtd">
<!-- Generated by graphviz version 2.38.0 (20140413.2041)
 -->
<!-- Title: de.tu_clausthal.in.mec.modeling.model.graph.INode Pages: 1 -->
<svg width="1480pt" height="720pt"
 viewBox="0.00 0.00 1480.00 720.00" xmlns="http://www.w3.org/2000/svg" xmlns:xlink="http://www.w3.org/1999/xlink">
<g id="graph0" class="graph" transform="scale(1 1) rotate(0) translate(4 716)">
<title>de.tu_clausthal.in.mec.modeling.model.graph.INode</title>
<!-- Node0 -->
<g id="node1" class="node"><title>Node0</title>
<polygon fill="#bfbfbf" stroke="black" points="717,-637.5 717,-711.5 950,-711.5 950,-637.5 717,-637.5"/>
<text text-anchor="start" x="725" y="-700.3" font-family="Helvetica,sans-Serif" font-size="9.00">de.tu_clausthal.in.mec.modeling.model.graph.</text>
<text text-anchor="middle" x="833.5" y="-690.3" font-family="Helvetica,sans-Serif" font-size="9.00">INode</text>
<polyline fill="none" stroke="black" points="717,-683.5 950,-683.5 "/>
<text text-anchor="middle" x="833.5" y="-672.3" font-family="Helvetica,sans-Serif" font-size="9.00"> </text>
<polyline fill="none" stroke="black" points="717,-665.5 950,-665.5 "/>
<text text-anchor="start" x="725" y="-654.3" font-family="Helvetica,sans-Serif" font-size="9.00">+ id()</text>
<text text-anchor="start" x="725" y="-644.3" font-family="Helvetica,sans-Serif" font-size="9.00">+ raw()</text>
</g>
<!-- Node1 -->
<g id="node2" class="node"><title>Node1</title>
<g id="a_node2"><a xlink:href="../../d4/d3e/interfacede_1_1tu__clausthal_1_1in_1_1mec_1_1modeling_1_1model_1_1erd_1_1IErdNode.htm" target="_top" xlink:title="An node for the graphical ERD model. ">
<polygon fill="none" stroke="black" points="331,-535.5 331,-599.5 552,-599.5 552,-535.5 331,-535.5"/>
<text text-anchor="start" x="339" y="-588.3" font-family="Helvetica,sans-Serif" font-size="9.00">de.tu_clausthal.in.mec.modeling.model.erd.</text>
<text text-anchor="middle" x="441.5" y="-578.3" font-family="Helvetica,sans-Serif" font-size="9.00">IErdNode</text>
<polyline fill="none" stroke="black" points="331,-571.5 552,-571.5 "/>
<text text-anchor="middle" x="441.5" y="-560.3" font-family="Helvetica,sans-Serif" font-size="9.00"> </text>
<polyline fill="none" stroke="black" points="331,-553.5 552,-553.5 "/>
<text text-anchor="middle" x="441.5" y="-542.3" font-family="Helvetica,sans-Serif" font-size="9.00"> </text>
</a>
</g>
</g>
<!-- Node0&#45;&gt;Node1 -->
<g id="edge1" class="edge"><title>Node0&#45;&gt;Node1</title>
<path fill="none" stroke="midnightblue" d="M707.072,-639.635C657.208,-626.279 600.44,-611.073 552.225,-598.158"/>
<polygon fill="none" stroke="midnightblue" points="706.383,-643.074 716.948,-642.281 708.195,-636.313 706.383,-643.074"/>
</g>
<!-- Node11 -->
<g id="node12" class="node"><title>Node11</title>
<g id="a_node12"><a xlink:href="../../d5/d3e/classde_1_1tu__clausthal_1_1in_1_1mec_1_1modeling_1_1model_1_1graph_1_1IBaseNode.htm" target="_top" xlink:title="abstract class of an node ">
<polygon fill="none" stroke="black" points="717,-212.5 717,-316.5 950,-316.5 950,-212.5 717,-212.5"/>
<text text-anchor="start" x="725" y="-305.3" font-family="Helvetica,sans-Serif" font-size="9.00">de.tu_clausthal.in.mec.modeling.model.graph.</text>
<text text-anchor="middle" x="833.5" y="-295.3" font-family="Helvetica,sans-Serif" font-size="9.00">IBaseNode</text>
<polyline fill="none" stroke="black" points="717,-288.5 950,-288.5 "/>
<text text-anchor="start" x="725" y="-277.3" font-family="Helvetica,sans-Serif" font-size="9.00"># m_id</text>
<polyline fill="none" stroke="black" points="717,-270.5 950,-270.5 "/>
<text text-anchor="start" x="725" y="-259.3" font-family="Helvetica,sans-Serif" font-size="9.00">+ equals()</text>
<text text-anchor="start" x="725" y="-249.3" font-family="Helvetica,sans-Serif" font-size="9.00">+ hashCode()</text>
<text text-anchor="start" x="725" y="-239.3" font-family="Helvetica,sans-Serif" font-size="9.00">+ id()</text>
<text text-anchor="start" x="725" y="-229.3" font-family="Helvetica,sans-Serif" font-size="9.00">+ raw()</text>
<text text-anchor="start" x="725" y="-219.3" font-family="Helvetica,sans-Serif" font-size="9.00"># IBaseNode()</text>
</a>
</g>
</g>
<!-- Node0&#45;&gt;Node11 -->
<g id="edge11" class="edge"><title>Node0&#45;&gt;Node11</title>
<path fill="none" stroke="midnightblue" d="M833.5,-626.952C833.5,-549.969 833.5,-396.71 833.5,-316.744"/>
<polygon fill="none" stroke="midnightblue" points="830,-627.293 833.5,-637.293 837,-627.293 830,-627.293"/>
</g>
<!-- Node14 -->
<g id="node15" class="node"><title>Node14</title>
<g id="a_node15"><a xlink:href="../../dd/d9f/interfacede_1_1tu__clausthal_1_1in_1_1mec_1_1modeling_1_1model_1_1petrinet_1_1IPetrinetNode.htm" target="_top" xlink:title="petrinet node ">
<polygon fill="none" stroke="black" points="968,-403.5 968,-467.5 1211,-467.5 1211,-403.5 968,-403.5"/>
<text text-anchor="start" x="976" y="-456.3" font-family="Helvetica,sans-Serif" font-size="9.00">de.tu_clausthal.in.mec.modeling.model.petrinet.</text>
<text text-anchor="middle" x="1089.5" y="-446.3" font-family="Helvetica,sans-Serif" font-size="9.00">IPetrinetNode</text>
<polyline fill="none" stroke="black" points="968,-439.5 1211,-439.5 "/>
<text text-anchor="middle" x="1089.5" y="-428.3" font-family="Helvetica,sans-Serif" font-size="9.00"> </text>
<polyline fill="none" stroke="black" points="968,-421.5 1211,-421.5 "/>
<text text-anchor="middle" x="1089.5" y="-410.3" font-family="Helvetica,sans-Serif" font-size="9.00"> </text>
</a>
</g>
</g>
<!-- Node0&#45;&gt;Node14 -->
<g id="edge17" class="edge"><title>Node0&#45;&gt;Node14</title>
<path fill="none" stroke="midnightblue" d="M880.231,-630.237C930.94,-583.292 1010.67,-509.481 1055.66,-467.827"/>
<polygon fill="none" stroke="midnightblue" points="877.62,-627.885 872.66,-637.247 882.375,-633.022 877.62,-627.885"/>
</g>
<!-- Node2 -->
<g id="node3" class="node"><title>Node2</title>
<g id="a_node3"><a xlink:href="../../d9/deb/interfacede_1_1tu__clausthal_1_1in_1_1mec_1_1modeling_1_1model_1_1erd_1_1IEntity.htm" target="_top" xlink:title="An entity is a fundamental part of an ERD. ">
<polygon fill="none" stroke="black" points="478,-393.5 478,-477.5 699,-477.5 699,-393.5 478,-393.5"/>
<text text-anchor="start" x="486" y="-466.3" font-family="Helvetica,sans-Serif" font-size="9.00">de.tu_clausthal.in.mec.modeling.model.erd.</text>
<text text-anchor="middle" x="588.5" y="-456.3" font-family="Helvetica,sans-Serif" font-size="9.00">IEntity&lt; A extends IAttribute &gt;</text>
<polyline fill="none" stroke="black" points="478,-449.5 699,-449.5 "/>
<text text-anchor="middle" x="588.5" y="-438.3" font-family="Helvetica,sans-Serif" font-size="9.00"> </text>
<polyline fill="none" stroke="black" points="478,-431.5 699,-431.5 "/>
<text text-anchor="start" x="486" y="-420.3" font-family="Helvetica,sans-Serif" font-size="9.00">+ createAttribute()</text>
<text text-anchor="start" x="486" y="-410.3" font-family="Helvetica,sans-Serif" font-size="9.00">+ getConnectedAttributes()</text>
<text text-anchor="start" x="486" y="-400.3" font-family="Helvetica,sans-Serif" font-size="9.00">+ isWeakEntity()</text>
</a>
</g>
</g>
<!-- Node1&#45;&gt;Node2 -->
<g id="edge2" class="edge"><title>Node1&#45;&gt;Node2</title>
<path fill="none" stroke="midnightblue" d="M484.254,-528.69C502.328,-512.706 523.428,-494.047 541.898,-477.712"/>
<polygon fill="none" stroke="midnightblue" points="481.882,-526.115 476.71,-535.362 486.52,-531.359 481.882,-526.115"/>
</g>
<!-- Node5 -->
<g id="node6" class="node"><title>Node5</title>
<g id="a_node6"><a xlink:href="../../d5/de5/interfacede_1_1tu__clausthal_1_1in_1_1mec_1_1modeling_1_1model_1_1erd_1_1IInheritRelationship.htm" target="_top" xlink:title="An is&#45;a relationship is also a fundamental part of an ERD. ">
<polygon fill="none" stroke="black" points="0,-378.5 0,-492.5 221,-492.5 221,-378.5 0,-378.5"/>
<text text-anchor="start" x="8" y="-481.3" font-family="Helvetica,sans-Serif" font-size="9.00">de.tu_clausthal.in.mec.modeling.model.erd.</text>
<text text-anchor="start" x="8" y="-471.3" font-family="Helvetica,sans-Serif" font-size="9.00">IInheritRelationship&lt; A extends</text>
<text text-anchor="middle" x="110.5" y="-461.3" font-family="Helvetica,sans-Serif" font-size="9.00"> IAttribute &gt;</text>
<polyline fill="none" stroke="black" points="0,-454.5 221,-454.5 "/>
<text text-anchor="middle" x="110.5" y="-443.3" font-family="Helvetica,sans-Serif" font-size="9.00"> </text>
<polyline fill="none" stroke="black" points="0,-436.5 221,-436.5 "/>
<text text-anchor="start" x="8" y="-425.3" font-family="Helvetica,sans-Serif" font-size="9.00">+ connectChildEntity()</text>
<text text-anchor="start" x="8" y="-415.3" font-family="Helvetica,sans-Serif" font-size="9.00">+ getChildEntities()</text>
<text text-anchor="start" x="8" y="-405.3" font-family="Helvetica,sans-Serif" font-size="9.00">+ getParentEntity()</text>
<text text-anchor="start" x="8" y="-395.3" font-family="Helvetica,sans-Serif" font-size="9.00">+ isValidISARelationship()</text>
<text text-anchor="start" x="8" y="-385.3" font-family="Helvetica,sans-Serif" font-size="9.00">+ setParentEntity()</text>
</a>
</g>
</g>
<!-- Node1&#45;&gt;Node5 -->
<g id="edge5" class="edge"><title>Node1&#45;&gt;Node5</title>
<path fill="none" stroke="midnightblue" d="M324.174,-532.389C293.027,-522.307 259.673,-510.571 229.5,-498 225.314,-496.256 221.075,-494.421 216.816,-492.518"/>
<polygon fill="none" stroke="midnightblue" points="323.173,-535.744 333.764,-535.464 325.31,-529.078 323.173,-535.744"/>
</g>
<!-- Node8 -->
<g id="node9" class="node"><title>Node8</title>
<g id="a_node9"><a xlink:href="../../df/d49/interfacede_1_1tu__clausthal_1_1in_1_1mec_1_1modeling_1_1model_1_1erd_1_1IRelationship.htm" target="_top" xlink:title="A relationship is a fundamental part of an ERD. ">
<polygon fill="none" stroke="black" points="239,-373.5 239,-497.5 460,-497.5 460,-373.5 239,-373.5"/>
<text text-anchor="start" x="247" y="-486.3" font-family="Helvetica,sans-Serif" font-size="9.00">de.tu_clausthal.in.mec.modeling.model.erd.</text>
<text text-anchor="middle" x="349.5" y="-476.3" font-family="Helvetica,sans-Serif" font-size="9.00">IRelationship&lt; A extends IAttribute &gt;</text>
<polyline fill="none" stroke="black" points="239,-469.5 460,-469.5 "/>
<text text-anchor="middle" x="349.5" y="-458.3" font-family="Helvetica,sans-Serif" font-size="9.00"> </text>
<polyline fill="none" stroke="black" points="239,-451.5 460,-451.5 "/>
<text text-anchor="start" x="247" y="-440.3" font-family="Helvetica,sans-Serif" font-size="9.00">+ connectEntity()</text>
<text text-anchor="start" x="247" y="-430.3" font-family="Helvetica,sans-Serif" font-size="9.00">+ createAttribute()</text>
<text text-anchor="start" x="247" y="-420.3" font-family="Helvetica,sans-Serif" font-size="9.00">+ getConnectedAttributes()</text>
<text text-anchor="start" x="247" y="-410.3" font-family="Helvetica,sans-Serif" font-size="9.00">+ getConnectedEntities()</text>
<text text-anchor="start" x="247" y="-400.3" font-family="Helvetica,sans-Serif" font-size="9.00">+ getDescription()</text>
<text text-anchor="start" x="247" y="-390.3" font-family="Helvetica,sans-Serif" font-size="9.00">+ isRecursive()</text>
<text text-anchor="start" x="247" y="-380.3" font-family="Helvetica,sans-Serif" font-size="9.00">+ isWeakRelationship()</text>
</a>
</g>
</g>
<!-- Node1&#45;&gt;Node8 -->
<g id="edge8" class="edge"><title>Node1&#45;&gt;Node8</title>
<path fill="none" stroke="midnightblue" d="M413.616,-527.099C407.049,-517.819 399.895,-507.71 392.826,-497.721"/>
<polygon fill="none" stroke="midnightblue" points="410.83,-529.221 419.464,-535.362 416.544,-525.177 410.83,-529.221"/>
</g>
<!-- Node3 -->
<g id="node4" class="node"><title>Node3</title>
<g id="a_node4"><a xlink:href="../../d9/deb/interfacede_1_1tu__clausthal_1_1in_1_1mec_1_1modeling_1_1model_1_1erd_1_1IEntity.htm" target="_top" xlink:title="{de.tu_clausthal.in.mec.modeling.model.erd.\lIEntity\&lt; IAttribute \&gt;\n||+ createAttribute()\l+ getConnectedAttributes()\l+ isWeakEntity()\l}">
<polygon fill="none" stroke="black" points="478,-222.5 478,-306.5 699,-306.5 699,-222.5 478,-222.5"/>
<text text-anchor="start" x="486" y="-295.3" font-family="Helvetica,sans-Serif" font-size="9.00">de.tu_clausthal.in.mec.modeling.model.erd.</text>
<text text-anchor="middle" x="588.5" y="-285.3" font-family="Helvetica,sans-Serif" font-size="9.00">IEntity&lt; IAttribute &gt;</text>
<polyline fill="none" stroke="black" points="478,-278.5 699,-278.5 "/>
<text text-anchor="middle" x="588.5" y="-267.3" font-family="Helvetica,sans-Serif" font-size="9.00"> </text>
<polyline fill="none" stroke="black" points="478,-260.5 699,-260.5 "/>
<text text-anchor="start" x="486" y="-249.3" font-family="Helvetica,sans-Serif" font-size="9.00">+ createAttribute()</text>
<text text-anchor="start" x="486" y="-239.3" font-family="Helvetica,sans-Serif" font-size="9.00">+ getConnectedAttributes()</text>
<text text-anchor="start" x="486" y="-229.3" font-family="Helvetica,sans-Serif" font-size="9.00">+ isWeakEntity()</text>
</a>
</g>
</g>
<!-- Node2&#45;&gt;Node3 -->
<g id="edge3" class="edge"><title>Node2&#45;&gt;Node3</title>
<path fill="none" stroke="orange" d="M588.5,-382.973C588.5,-358.515 588.5,-329.686 588.5,-306.708"/>
<polygon fill="orange" stroke="orange" points="585,-383.158 588.5,-393.158 592,-383.158 585,-383.158"/>
<text text-anchor="middle" x="622.5" y="-347.8" font-family="Helvetica,sans-Serif" font-size="9.00"> &lt; IAttribute &gt;</text>
</g>
<!-- Node4 -->
<g id="node5" class="node"><title>Node4</title>
<g id="a_node5"><a xlink:href="../../d6/d74/classde_1_1tu__clausthal_1_1in_1_1mec_1_1modeling_1_1model_1_1erd_1_1CEntity.htm" target="_top" xlink:title="An entity is the description of an object, which is specified more precisely by attributes. ">
<polygon fill="none" stroke="black" points="510,-30.5 510,-134.5 731,-134.5 731,-30.5 510,-30.5"/>
<text text-anchor="start" x="518" y="-123.3" font-family="Helvetica,sans-Serif" font-size="9.00">de.tu_clausthal.in.mec.modeling.model.erd.</text>
<text text-anchor="middle" x="620.5" y="-113.3" font-family="Helvetica,sans-Serif" font-size="9.00">CEntity</text>
<polyline fill="none" stroke="black" points="510,-106.5 731,-106.5 "/>
<text text-anchor="start" x="518" y="-95.3" font-family="Helvetica,sans-Serif" font-size="9.00">&#45; m_attributes</text>
<text text-anchor="start" x="518" y="-85.3" font-family="Helvetica,sans-Serif" font-size="9.00">&#45; m_weakentity</text>
<polyline fill="none" stroke="black" points="510,-78.5 731,-78.5 "/>
<text text-anchor="start" x="518" y="-67.3" font-family="Helvetica,sans-Serif" font-size="9.00">+ createAttribute()</text>
<text text-anchor="start" x="518" y="-57.3" font-family="Helvetica,sans-Serif" font-size="9.00">+ getConnectedAttributes()</text>
<text text-anchor="start" x="518" y="-47.3" font-family="Helvetica,sans-Serif" font-size="9.00">+ isWeakEntity()</text>
<text text-anchor="start" x="518" y="-37.3" font-family="Helvetica,sans-Serif" font-size="9.00">~ CEntity()</text>
</a>
</g>
</g>
<!-- Node3&#45;&gt;Node4 -->
<g id="edge4" class="edge"><title>Node3&#45;&gt;Node4</title>
<path fill="none" stroke="midnightblue" d="M597.638,-212.097C601.96,-187.787 607.106,-158.842 611.42,-134.574"/>
<polygon fill="none" stroke="midnightblue" points="594.146,-211.746 595.841,-222.204 601.038,-212.971 594.146,-211.746"/>
</g>
<!-- Node6 -->
<g id="node7" class="node"><title>Node6</title>
<g id="a_node7"><a xlink:href="../../d5/de5/interfacede_1_1tu__clausthal_1_1in_1_1mec_1_1modeling_1_1model_1_1erd_1_1IInheritRelationship.htm" target="_top" xlink:title="{de.tu_clausthal.in.mec.modeling.model.erd.\lIInheritRelationship\&lt; IAttribute \&gt;\n||+ connectChildEntity()\l+ getChildEntities()\l+ getParentEntity()\l+ isValidISARelationship()\l+ setParentEntity()\l}">
<polygon fill="none" stroke="black" points="0,-212.5 0,-316.5 221,-316.5 221,-212.5 0,-212.5"/>
<text text-anchor="start" x="8" y="-305.3" font-family="Helvetica,sans-Serif" font-size="9.00">de.tu_clausthal.in.mec.modeling.model.erd.</text>
<text text-anchor="middle" x="110.5" y="-295.3" font-family="Helvetica,sans-Serif" font-size="9.00">IInheritRelationship&lt; IAttribute &gt;</text>
<polyline fill="none" stroke="black" points="0,-288.5 221,-288.5 "/>
<text text-anchor="middle" x="110.5" y="-277.3" font-family="Helvetica,sans-Serif" font-size="9.00"> </text>
<polyline fill="none" stroke="black" points="0,-270.5 221,-270.5 "/>
<text text-anchor="start" x="8" y="-259.3" font-family="Helvetica,sans-Serif" font-size="9.00">+ connectChildEntity()</text>
<text text-anchor="start" x="8" y="-249.3" font-family="Helvetica,sans-Serif" font-size="9.00">+ getChildEntities()</text>
<text text-anchor="start" x="8" y="-239.3" font-family="Helvetica,sans-Serif" font-size="9.00">+ getParentEntity()</text>
<text text-anchor="start" x="8" y="-229.3" font-family="Helvetica,sans-Serif" font-size="9.00">+ isValidISARelationship()</text>
<text text-anchor="start" x="8" y="-219.3" font-family="Helvetica,sans-Serif" font-size="9.00">+ setParentEntity()</text>
</a>
</g>
</g>
<!-- Node5&#45;&gt;Node6 -->
<g id="edge6" class="edge"><title>Node5&#45;&gt;Node6</title>
<path fill="none" stroke="orange" d="M110.5,-367.794C110.5,-350.79 110.5,-332.779 110.5,-316.688"/>
<polygon fill="orange" stroke="orange" points="107,-368.225 110.5,-378.225 114,-368.225 107,-368.225"/>
<text text-anchor="middle" x="144.5" y="-347.8" font-family="Helvetica,sans-Serif" font-size="9.00"> &lt; IAttribute &gt;</text>
</g>
<!-- Node7 -->
<g id="node8" class="node"><title>Node7</title>
<g id="a_node8"><a xlink:href="../../d6/d17/classde_1_1tu__clausthal_1_1in_1_1mec_1_1modeling_1_1model_1_1erd_1_1CInheritRelationship.htm" target="_top" xlink:title="Is&#45;a relationship implementation of the model. ">
<polygon fill="none" stroke="black" points="21,-20.5 21,-144.5 242,-144.5 242,-20.5 21,-20.5"/>
<text text-anchor="start" x="29" y="-133.3" font-family="Helvetica,sans-Serif" font-size="9.00">de.tu_clausthal.in.mec.modeling.model.erd.</text>
<text text-anchor="middle" x="131.5" y="-123.3" font-family="Helvetica,sans-Serif" font-size="9.00">CInheritRelationship</text>
<polyline fill="none" stroke="black" points="21,-116.5 242,-116.5 "/>
<text text-anchor="start" x="29" y="-105.3" font-family="Helvetica,sans-Serif" font-size="9.00">&#45; m_childentities</text>
<text text-anchor="start" x="29" y="-95.3" font-family="Helvetica,sans-Serif" font-size="9.00">&#45; m_parententity</text>
<polyline fill="none" stroke="black" points="21,-88.5 242,-88.5 "/>
<text text-anchor="start" x="29" y="-77.3" font-family="Helvetica,sans-Serif" font-size="9.00">+ connectChildEntity()</text>
<text text-anchor="start" x="29" y="-67.3" font-family="Helvetica,sans-Serif" font-size="9.00">+ getChildEntities()</text>
<text text-anchor="start" x="29" y="-57.3" font-family="Helvetica,sans-Serif" font-size="9.00">+ getParentEntity()</text>
<text text-anchor="start" x="29" y="-47.3" font-family="Helvetica,sans-Serif" font-size="9.00">+ isValidISARelationship()</text>
<text text-anchor="start" x="29" y="-37.3" font-family="Helvetica,sans-Serif" font-size="9.00">+ setParentEntity()</text>
<text text-anchor="start" x="29" y="-27.3" font-family="Helvetica,sans-Serif" font-size="9.00">~ CInheritRelationship()</text>
</a>
</g>
</g>
<!-- Node6&#45;&gt;Node7 -->
<g id="edge7" class="edge"><title>Node6&#45;&gt;Node7</title>
<path fill="none" stroke="midnightblue" d="M117.643,-202.275C119.814,-183.667 122.199,-163.225 124.369,-144.624"/>
<polygon fill="none" stroke="midnightblue" points="114.144,-202.062 116.462,-212.401 121.097,-202.874 114.144,-202.062"/>
</g>
<!-- Node9 -->
<g id="node10" class="node"><title>Node9</title>
<g id="a_node10"><a xlink:href="../../df/d49/interfacede_1_1tu__clausthal_1_1in_1_1mec_1_1modeling_1_1model_1_1erd_1_1IRelationship.htm" target="_top" xlink:title="{de.tu_clausthal.in.mec.modeling.model.erd.\lIRelationship\&lt; IAttribute \&gt;\n||+ connectEntity()\l+ createAttribute()\l+ getConnectedAttributes()\l+ getConnectedEntities()\l+ getDescription()\l+ isRecursive()\l+ isWeakRelationship()\l}">
<polygon fill="none" stroke="black" points="239,-202.5 239,-326.5 460,-326.5 460,-202.5 239,-202.5"/>
<text text-anchor="start" x="247" y="-315.3" font-family="Helvetica,sans-Serif" font-size="9.00">de.tu_clausthal.in.mec.modeling.model.erd.</text>
<text text-anchor="middle" x="349.5" y="-305.3" font-family="Helvetica,sans-Serif" font-size="9.00">IRelationship&lt; IAttribute &gt;</text>
<polyline fill="none" stroke="black" points="239,-298.5 460,-298.5 "/>
<text text-anchor="middle" x="349.5" y="-287.3" font-family="Helvetica,sans-Serif" font-size="9.00"> </text>
<polyline fill="none" stroke="black" points="239,-280.5 460,-280.5 "/>
<text text-anchor="start" x="247" y="-269.3" font-family="Helvetica,sans-Serif" font-size="9.00">+ connectEntity()</text>
<text text-anchor="start" x="247" y="-259.3" font-family="Helvetica,sans-Serif" font-size="9.00">+ createAttribute()</text>
<text text-anchor="start" x="247" y="-249.3" font-family="Helvetica,sans-Serif" font-size="9.00">+ getConnectedAttributes()</text>
<text text-anchor="start" x="247" y="-239.3" font-family="Helvetica,sans-Serif" font-size="9.00">+ getConnectedEntities()</text>
<text text-anchor="start" x="247" y="-229.3" font-family="Helvetica,sans-Serif" font-size="9.00">+ getDescription()</text>
<text text-anchor="start" x="247" y="-219.3" font-family="Helvetica,sans-Serif" font-size="9.00">+ isRecursive()</text>
<text text-anchor="start" x="247" y="-209.3" font-family="Helvetica,sans-Serif" font-size="9.00">+ isWeakRelationship()</text>
</a>
</g>
</g>
<!-- Node8&#45;&gt;Node9 -->
<g id="edge9" class="edge"><title>Node8&#45;&gt;Node9</title>
<path fill="none" stroke="orange" d="M349.5,-363.362C349.5,-351.175 349.5,-338.607 349.5,-326.707"/>
<polygon fill="orange" stroke="orange" points="346,-363.487 349.5,-373.487 353,-363.487 346,-363.487"/>
<text text-anchor="middle" x="383.5" y="-347.8" font-family="Helvetica,sans-Serif" font-size="9.00"> &lt; IAttribute &gt;</text>
</g>
<!-- Node10 -->
<g id="node11" class="node"><title>Node10</title>
<g id="a_node11"><a xlink:href="../../d1/de8/classde_1_1tu__clausthal_1_1in_1_1mec_1_1modeling_1_1model_1_1erd_1_1CRelationship.htm" target="_top" xlink:title="The relationships between the entities describe their behavior to each other. ">
<polygon fill="none" stroke="black" points="267,-0.5 267,-164.5 488,-164.5 488,-0.5 267,-0.5"/>
<text text-anchor="start" x="275" y="-153.3" font-family="Helvetica,sans-Serif" font-size="9.00">de.tu_clausthal.in.mec.modeling.model.erd.</text>
<text text-anchor="middle" x="377.5" y="-143.3" font-family="Helvetica,sans-Serif" font-size="9.00">CRelationship</text>
<polyline fill="none" stroke="black" points="267,-136.5 488,-136.5 "/>
<text text-anchor="start" x="275" y="-125.3" font-family="Helvetica,sans-Serif" font-size="9.00">&#45; m_attributes</text>
<text text-anchor="start" x="275" y="-115.3" font-family="Helvetica,sans-Serif" font-size="9.00">&#45; m_description</text>
<text text-anchor="start" x="275" y="-105.3" font-family="Helvetica,sans-Serif" font-size="9.00">&#45; m_entityone</text>
<text text-anchor="start" x="275" y="-95.3" font-family="Helvetica,sans-Serif" font-size="9.00">&#45; m_entitytwo</text>
<polyline fill="none" stroke="black" points="267,-88.5 488,-88.5 "/>
<text text-anchor="start" x="275" y="-77.3" font-family="Helvetica,sans-Serif" font-size="9.00">+ connectEntity()</text>
<text text-anchor="start" x="275" y="-67.3" font-family="Helvetica,sans-Serif" font-size="9.00">+ createAttribute()</text>
<text text-anchor="start" x="275" y="-57.3" font-family="Helvetica,sans-Serif" font-size="9.00">+ getConnectedAttributes()</text>
<text text-anchor="start" x="275" y="-47.3" font-family="Helvetica,sans-Serif" font-size="9.00">+ getConnectedEntities()</text>
<text text-anchor="start" x="275" y="-37.3" font-family="Helvetica,sans-Serif" font-size="9.00">+ getDescription()</text>
<text text-anchor="start" x="275" y="-27.3" font-family="Helvetica,sans-Serif" font-size="9.00">+ isRecursive()</text>
<text text-anchor="start" x="275" y="-17.3" font-family="Helvetica,sans-Serif" font-size="9.00">+ isWeakRelationship()</text>
<text text-anchor="start" x="275" y="-7.3" font-family="Helvetica,sans-Serif" font-size="9.00">~ CRelationship()</text>
</a>
</g>
</g>
<!-- Node9&#45;&gt;Node10 -->
<g id="edge10" class="edge"><title>Node9&#45;&gt;Node10</title>
<path fill="none" stroke="midnightblue" d="M360.59,-192.206C362.001,-183.139 363.452,-173.807 364.884,-164.601"/>
<polygon fill="none" stroke="midnightblue" points="357.097,-191.89 359.019,-202.309 364.014,-192.966 357.097,-191.89"/>
</g>
<!-- Node11&#45;&gt;Node4 -->
<g id="edge12" class="edge"><title>Node11&#45;&gt;Node4</title>
<path fill="none" stroke="midnightblue" d="M765.149,-205.738C738.128,-182.904 707.331,-156.878 681.119,-134.727"/>
<polygon fill="none" stroke="midnightblue" points="763.135,-208.619 773.032,-212.401 767.654,-203.273 763.135,-208.619"/>
</g>
<!-- Node11&#45;&gt;Node7 -->
<g id="edge13" class="edge"><title>Node11&#45;&gt;Node7</title>
<path fill="none" stroke="midnightblue" d="M728.439,-208.744C721.456,-206.192 714.439,-203.906 707.5,-202 610.746,-175.425 352.485,-197.332 257.5,-165 242.579,-159.921 227.673,-152.691 213.609,-144.61"/>
<polygon fill="none" stroke="midnightblue" points="727.342,-212.072 737.932,-212.38 729.845,-205.535 727.342,-212.072"/>
</g>
<!-- Node11&#45;&gt;Node10 -->
<g id="edge14" class="edge"><title>Node11&#45;&gt;Node10</title>
<path fill="none" stroke="midnightblue" d="M725.88,-208.598C719.728,-206.205 713.574,-203.983 707.5,-202 618.654,-173.003 587.256,-199.755 500.5,-165 496.339,-163.333 492.171,-161.513 488.019,-159.569"/>
<polygon fill="none" stroke="midnightblue" points="724.952,-211.997 735.536,-212.487 727.568,-205.504 724.952,-211.997"/>
</g>
<!-- Node12 -->
<g id="node13" class="node"><title>Node12</title>
<g id="a_node13"><a xlink:href="../../de/dc7/classde_1_1tu__clausthal_1_1in_1_1mec_1_1modeling_1_1model_1_1petrinet_1_1CPlace.htm" target="_top" xlink:title="petrinet place ">
<polygon fill="none" stroke="black" points="1013,-25.5 1013,-139.5 1256,-139.5 1256,-25.5 1013,-25.5"/>
<text text-anchor="start" x="1021" y="-128.3" font-family="Helvetica,sans-Serif" font-size="9.00">de.tu_clausthal.in.mec.modeling.model.petrinet.</text>
<text text-anchor="middle" x="1134.5" y="-118.3" font-family="Helvetica,sans-Serif" font-size="9.00">CPlace</text>
<polyline fill="none" stroke="black" points="1013,-111.5 1256,-111.5 "/>
<text text-anchor="start" x="1021" y="-100.3" font-family="Helvetica,sans-Serif" font-size="9.00">&#45; m_capacity</text>
<text text-anchor="start" x="1021" y="-90.3" font-family="Helvetica,sans-Serif" font-size="9.00">&#45; m_marks</text>
<polyline fill="none" stroke="black" points="1013,-83.5 1256,-83.5 "/>
<text text-anchor="start" x="1021" y="-72.3" font-family="Helvetica,sans-Serif" font-size="9.00">+ CPlace()</text>
<text text-anchor="start" x="1021" y="-62.3" font-family="Helvetica,sans-Serif" font-size="9.00">+ CPlace()</text>
<text text-anchor="start" x="1021" y="-52.3" font-family="Helvetica,sans-Serif" font-size="9.00">+ accept()</text>
<text text-anchor="start" x="1021" y="-42.3" font-family="Helvetica,sans-Serif" font-size="9.00">+ apply()</text>
<text text-anchor="start" x="1021" y="-32.3" font-family="Helvetica,sans-Serif" font-size="9.00">+ get()</text>
</a>
</g>
</g>
<!-- Node11&#45;&gt;Node12 -->
<g id="edge15" class="edge"><title>Node11&#45;&gt;Node12</title>
<path fill="none" stroke="midnightblue" d="M931.232,-207.104C954.646,-193.437 979.519,-178.789 1002.5,-165 1016.01,-156.894 1030.24,-148.236 1044.15,-139.703"/>
<polygon fill="none" stroke="midnightblue" points="929.213,-204.23 922.337,-212.29 932.738,-210.277 929.213,-204.23"/>
</g>
<!-- Node13 -->
<g id="node14" class="node"><title>Node13</title>
<g id="a_node14"><a xlink:href="../../db/d15/classde_1_1tu__clausthal_1_1in_1_1mec_1_1modeling_1_1model_1_1petrinet_1_1CTransition.htm" target="_top" xlink:title="transition class ">
<polygon fill="none" stroke="black" points="751,-45.5 751,-119.5 994,-119.5 994,-45.5 751,-45.5"/>
<text text-anchor="start" x="759" y="-108.3" font-family="Helvetica,sans-Serif" font-size="9.00">de.tu_clausthal.in.mec.modeling.model.petrinet.</text>
<text text-anchor="middle" x="872.5" y="-98.3" font-family="Helvetica,sans-Serif" font-size="9.00">CTransition</text>
<polyline fill="none" stroke="black" points="751,-91.5 994,-91.5 "/>
<text text-anchor="middle" x="872.5" y="-80.3" font-family="Helvetica,sans-Serif" font-size="9.00"> </text>
<polyline fill="none" stroke="black" points="751,-73.5 994,-73.5 "/>
<text text-anchor="start" x="759" y="-62.3" font-family="Helvetica,sans-Serif" font-size="9.00">+ CTransition()</text>
<text text-anchor="start" x="759" y="-52.3" font-family="Helvetica,sans-Serif" font-size="9.00">+ apply()</text>
</a>
</g>
</g>
<!-- Node11&#45;&gt;Node13 -->
<g id="edge16" class="edge"><title>Node11&#45;&gt;Node13</title>
<path fill="none" stroke="midnightblue" d="M846.727,-202.453C852.698,-174.895 859.547,-143.283 864.683,-119.577"/>
<polygon fill="none" stroke="midnightblue" points="843.268,-201.886 844.572,-212.401 850.11,-203.369 843.268,-201.886"/>
</g>
<!-- Node15 -->
<g id="node16" class="node"><title>Node15</title>
<g id="a_node16"><a xlink:href="../../d8/d0b/interfacede_1_1tu__clausthal_1_1in_1_1mec_1_1modeling_1_1model_1_1petrinet_1_1IPlace.htm" target="_top" xlink:title="interface of a petri&#45;net place ">
<polygon fill="none" stroke="black" points="1229,-232.5 1229,-296.5 1472,-296.5 1472,-232.5 1229,-232.5"/>
<text text-anchor="start" x="1237" y="-285.3" font-family="Helvetica,sans-Serif" font-size="9.00">de.tu_clausthal.in.mec.modeling.model.petrinet.</text>
<text text-anchor="middle" x="1350.5" y="-275.3" font-family="Helvetica,sans-Serif" font-size="9.00">IPlace</text>
<polyline fill="none" stroke="black" points="1229,-268.5 1472,-268.5 "/>
<text text-anchor="middle" x="1350.5" y="-257.3" font-family="Helvetica,sans-Serif" font-size="9.00"> </text>
<polyline fill="none" stroke="black" points="1229,-250.5 1472,-250.5 "/>
<text text-anchor="middle" x="1350.5" y="-239.3" font-family="Helvetica,sans-Serif" font-size="9.00"> </text>
</a>
</g>
</g>
<!-- Node14&#45;&gt;Node15 -->
<g id="edge18" class="edge"><title>Node14&#45;&gt;Node15</title>
<path fill="none" stroke="midnightblue" d="M1146.17,-397.804C1192.91,-367.544 1258.46,-325.095 1302.61,-296.512"/>
<polygon fill="none" stroke="midnightblue" points="1144.17,-394.933 1137.68,-403.306 1147.97,-400.809 1144.17,-394.933"/>
</g>
<!-- Node16 -->
<g id="node17" class="node"><title>Node16</title>
<g id="a_node17"><a xlink:href="../../de/d17/interfacede_1_1tu__clausthal_1_1in_1_1mec_1_1modeling_1_1model_1_1petrinet_1_1ITransition.htm" target="_top" xlink:title="interface of a petri&#45;net transition ">
<polygon fill="none" stroke="black" points="968,-232.5 968,-296.5 1211,-296.5 1211,-232.5 968,-232.5"/>
<text text-anchor="start" x="976" y="-285.3" font-family="Helvetica,sans-Serif" font-size="9.00">de.tu_clausthal.in.mec.modeling.model.petrinet.</text>
<text text-anchor="middle" x="1089.5" y="-275.3" font-family="Helvetica,sans-Serif" font-size="9.00">ITransition</text>
<polyline fill="none" stroke="black" points="968,-268.5 1211,-268.5 "/>
<text text-anchor="middle" x="1089.5" y="-257.3" font-family="Helvetica,sans-Serif" font-size="9.00"> </text>
<polyline fill="none" stroke="black" points="968,-250.5 1211,-250.5 "/>
<text text-anchor="middle" x="1089.5" y="-239.3" font-family="Helvetica,sans-Serif" font-size="9.00"> </text>
</a>
</g>
</g>
<!-- Node14&#45;&gt;Node16 -->
<g id="edge20" class="edge"><title>Node14&#45;&gt;Node16</title>
<path fill="none" stroke="midnightblue" d="M1089.5,-393.027C1089.5,-363.279 1089.5,-323.826 1089.5,-296.723"/>
<polygon fill="none" stroke="midnightblue" points="1086,-393.108 1089.5,-403.108 1093,-393.108 1086,-393.108"/>
</g>
<!-- Node15&#45;&gt;Node12 -->
<g id="edge19" class="edge"><title>Node15&#45;&gt;Node12</title>
<path fill="none" stroke="midnightblue" d="M1305.09,-225.66C1275.14,-200.7 1235.38,-167.566 1201.78,-139.566"/>
<polygon fill="none" stroke="midnightblue" points="1302.95,-228.433 1312.88,-232.146 1307.43,-223.056 1302.95,-228.433"/>
</g>
<!-- Node16&#45;&gt;Node13 -->
<g id="edge21" class="edge"><title>Node16&#45;&gt;Node13</title>
<path fill="none" stroke="midnightblue" d="M1043.92,-225.693C1006.31,-194.498 953.294,-150.518 916.209,-119.756"/>
<polygon fill="none" stroke="midnightblue" points="1041.77,-228.456 1051.7,-232.146 1046.24,-223.068 1041.77,-228.456"/>
</g>
</g>
</svg>
