<?xml version="1.0" encoding="UTF-8" standalone="no"?>
<!DOCTYPE svg PUBLIC "-//W3C//DTD SVG 1.1//EN"
 "http://www.w3.org/Graphics/SVG/1.1/DTD/svg11.dtd">
<!-- Generated by graphviz version 2.38.0 (20140413.2041)
 -->
<!-- Title: de.tu_clausthal.in.mec.modeling.deserializer.erd.CModelDeserializer.deserialize Pages: 1 -->
<svg width="794pt" height="319pt"
 viewBox="0.00 0.00 794.00 319.00" xmlns="http://www.w3.org/2000/svg" xmlns:xlink="http://www.w3.org/1999/xlink">
<g id="graph0" class="graph" transform="scale(1 1) rotate(0) translate(4 315)">
<title>de.tu_clausthal.in.mec.modeling.deserializer.erd.CModelDeserializer.deserialize</title>
<!-- Node0 -->
<g id="node1" class="node"><title>Node0</title>
<polygon fill="#bfbfbf" stroke="black" points="0,-135.5 0,-163.5 245,-163.5 245,-135.5 0,-135.5"/>
<text text-anchor="start" x="8" y="-152.3" font-family="Helvetica,sans-Serif" font-size="9.00">de.tu_clausthal.in.mec.modeling.deserializer.erd.</text>
<text text-anchor="middle" x="122.5" y="-142.3" font-family="Helvetica,sans-Serif" font-size="9.00">CModelDeserializer.deserialize</text>
</g>
<!-- Node1 -->
<g id="node2" class="node"><title>Node1</title>
<g id="a_node2"><a xlink:href="../../d7/d36/classde_1_1tu__clausthal_1_1in_1_1mec_1_1modeling_1_1deserializer_1_1erd_1_1CModelDeserializer.htm#aeb20f93baef323c8501783968645d68a" target="_top" xlink:title="de.tu_clausthal.in.mec.modeling.deserializer.erd.\lCModelDeserializer.deserializeConnections">
<polygon fill="none" stroke="black" points="281,-258.5 281,-286.5 526,-286.5 526,-258.5 281,-258.5"/>
<text text-anchor="start" x="289" y="-275.3" font-family="Helvetica,sans-Serif" font-size="9.00">de.tu_clausthal.in.mec.modeling.deserializer.erd.</text>
<text text-anchor="middle" x="403.5" y="-265.3" font-family="Helvetica,sans-Serif" font-size="9.00">CModelDeserializer.deserializeConnections</text>
</a>
</g>
</g>
<!-- Node0&#45;&gt;Node1 -->
<g id="edge1" class="edge"><title>Node0&#45;&gt;Node1</title>
<path fill="none" stroke="midnightblue" d="M150.457,-163.631C181.539,-179.699 234.35,-206.317 281,-226.5 304.352,-236.603 330.716,-246.734 352.903,-254.907"/>
<polygon fill="midnightblue" stroke="midnightblue" points="351.861,-258.253 362.455,-258.4 354.265,-251.678 351.861,-258.253"/>
</g>
<!-- Node3 -->
<g id="node4" class="node"><title>Node3</title>
<g id="a_node4"><a xlink:href="../../d7/d36/classde_1_1tu__clausthal_1_1in_1_1mec_1_1modeling_1_1deserializer_1_1erd_1_1CModelDeserializer.htm#a09204f258b839d4a0ec58f496598d211" target="_top" xlink:title="de.tu_clausthal.in.mec.modeling.deserializer.erd.\lCModelDeserializer.deserializeEntities">
<polygon fill="none" stroke="black" points="281,-188.5 281,-216.5 526,-216.5 526,-188.5 281,-188.5"/>
<text text-anchor="start" x="289" y="-205.3" font-family="Helvetica,sans-Serif" font-size="9.00">de.tu_clausthal.in.mec.modeling.deserializer.erd.</text>
<text text-anchor="middle" x="403.5" y="-195.3" font-family="Helvetica,sans-Serif" font-size="9.00">CModelDeserializer.deserializeEntities</text>
</a>
</g>
</g>
<!-- Node0&#45;&gt;Node3 -->
<g id="edge3" class="edge"><title>Node0&#45;&gt;Node3</title>
<path fill="none" stroke="midnightblue" d="M197.534,-163.564C234.731,-170.63 279.958,-179.221 318.455,-186.535"/>
<polygon fill="midnightblue" stroke="midnightblue" points="318.127,-190.035 328.604,-188.462 319.433,-183.158 318.127,-190.035"/>
</g>
<!-- Node6 -->
<g id="node7" class="node"><title>Node6</title>
<g id="a_node7"><a xlink:href="../../d7/d36/classde_1_1tu__clausthal_1_1in_1_1mec_1_1modeling_1_1deserializer_1_1erd_1_1CModelDeserializer.htm#ac817d552d00b1c44504e170813b9bc69" target="_top" xlink:title="de.tu_clausthal.in.mec.modeling.deserializer.erd.\lCModelDeserializer.deserializeISAConnections">
<polygon fill="none" stroke="black" points="281,-135.5 281,-163.5 526,-163.5 526,-135.5 281,-135.5"/>
<text text-anchor="start" x="289" y="-152.3" font-family="Helvetica,sans-Serif" font-size="9.00">de.tu_clausthal.in.mec.modeling.deserializer.erd.</text>
<text text-anchor="middle" x="403.5" y="-142.3" font-family="Helvetica,sans-Serif" font-size="9.00">CModelDeserializer.deserializeISAConnections</text>
</a>
</g>
</g>
<!-- Node0&#45;&gt;Node6 -->
<g id="edge6" class="edge"><title>Node0&#45;&gt;Node6</title>
<path fill="none" stroke="midnightblue" d="M245.062,-149.5C253.611,-149.5 262.252,-149.5 270.852,-149.5"/>
<polygon fill="midnightblue" stroke="midnightblue" points="270.922,-153 280.922,-149.5 270.922,-146 270.922,-153"/>
</g>
<!-- Node9 -->
<g id="node10" class="node"><title>Node9</title>
<g id="a_node10"><a xlink:href="../../d7/d36/classde_1_1tu__clausthal_1_1in_1_1mec_1_1modeling_1_1deserializer_1_1erd_1_1CModelDeserializer.htm#aa72605c02025d89c61a1532221d4d07c" target="_top" xlink:title="de.tu_clausthal.in.mec.modeling.deserializer.erd.\lCModelDeserializer.deserializeISARelationships">
<polygon fill="none" stroke="black" points="281,-76.5 281,-104.5 526,-104.5 526,-76.5 281,-76.5"/>
<text text-anchor="start" x="289" y="-93.3" font-family="Helvetica,sans-Serif" font-size="9.00">de.tu_clausthal.in.mec.modeling.deserializer.erd.</text>
<text text-anchor="middle" x="403.5" y="-83.3" font-family="Helvetica,sans-Serif" font-size="9.00">CModelDeserializer.deserializeISARelationships</text>
</a>
</g>
</g>
<!-- Node0&#45;&gt;Node9 -->
<g id="edge9" class="edge"><title>Node0&#45;&gt;Node9</title>
<path fill="none" stroke="midnightblue" d="M189.973,-135.443C230.858,-126.797 283.397,-115.687 326.008,-106.676"/>
<polygon fill="midnightblue" stroke="midnightblue" points="326.994,-110.045 336.053,-104.551 325.546,-103.196 326.994,-110.045"/>
</g>
<!-- Node11 -->
<g id="node12" class="node"><title>Node11</title>
<g id="a_node12"><a xlink:href="../../d7/d36/classde_1_1tu__clausthal_1_1in_1_1mec_1_1modeling_1_1deserializer_1_1erd_1_1CModelDeserializer.htm#ae62984ed594449d3dbd1ad7162e064a8" target="_top" xlink:title="de.tu_clausthal.in.mec.modeling.deserializer.erd.\lCModelDeserializer.deserializeRelationships">
<polygon fill="none" stroke="black" points="281,-6.5 281,-34.5 526,-34.5 526,-6.5 281,-6.5"/>
<text text-anchor="start" x="289" y="-23.3" font-family="Helvetica,sans-Serif" font-size="9.00">de.tu_clausthal.in.mec.modeling.deserializer.erd.</text>
<text text-anchor="middle" x="403.5" y="-13.3" font-family="Helvetica,sans-Serif" font-size="9.00">CModelDeserializer.deserializeRelationships</text>
</a>
</g>
</g>
<!-- Node0&#45;&gt;Node11 -->
<g id="edge11" class="edge"><title>Node0&#45;&gt;Node11</title>
<path fill="none" stroke="midnightblue" d="M148.443,-135.415C179.144,-118.336 233.105,-89.1511 281,-67.5 304.428,-56.9093 331.007,-46.4567 353.319,-38.1078"/>
<polygon fill="midnightblue" stroke="midnightblue" points="354.762,-41.3057 362.92,-34.5459 352.327,-34.7427 354.762,-41.3057"/>
</g>
<!-- Node2 -->
<g id="node3" class="node"><title>Node2</title>
<g id="a_node3"><a xlink:href="../../d9/d3d/interfacede_1_1tu__clausthal_1_1in_1_1mec_1_1modeling_1_1model_1_1erd_1_1IErd.htm#ad2c0e0527997bec6bf72e845e5028e97" target="_top" xlink:title="connect relationship with entity ">
<polygon fill="none" stroke="black" points="563.5,-282.5 563.5,-310.5 784.5,-310.5 784.5,-282.5 563.5,-282.5"/>
<text text-anchor="start" x="571.5" y="-299.3" font-family="Helvetica,sans-Serif" font-size="9.00">de.tu_clausthal.in.mec.modeling.model.erd.</text>
<text text-anchor="middle" x="674" y="-289.3" font-family="Helvetica,sans-Serif" font-size="9.00">IErd.connectEntityWithRelationship</text>
</a>
</g>
</g>
<!-- Node1&#45;&gt;Node2 -->
<g id="edge2" class="edge"><title>Node1&#45;&gt;Node2</title>
<path fill="none" stroke="midnightblue" d="M526.18,-283.376C535.153,-284.178 544.201,-284.987 553.162,-285.788"/>
<polygon fill="midnightblue" stroke="midnightblue" points="552.962,-289.284 563.234,-286.689 553.585,-282.312 552.962,-289.284"/>
</g>
<!-- Node4 -->
<g id="node5" class="node"><title>Node4</title>
<g id="a_node5"><a xlink:href="../../d9/d3d/interfacede_1_1tu__clausthal_1_1in_1_1mec_1_1modeling_1_1model_1_1erd_1_1IErd.htm#a01727cb3752a70bf4b776db431d75b3a" target="_top" xlink:title="add new entity ">
<polygon fill="none" stroke="black" points="563.5,-235.5 563.5,-263.5 784.5,-263.5 784.5,-235.5 563.5,-235.5"/>
<text text-anchor="start" x="571.5" y="-252.3" font-family="Helvetica,sans-Serif" font-size="9.00">de.tu_clausthal.in.mec.modeling.model.erd.</text>
<text text-anchor="middle" x="674" y="-242.3" font-family="Helvetica,sans-Serif" font-size="9.00">IErd.addEntity</text>
</a>
</g>
</g>
<!-- Node3&#45;&gt;Node4 -->
<g id="edge4" class="edge"><title>Node3&#45;&gt;Node4</title>
<path fill="none" stroke="midnightblue" d="M484.695,-216.538C515.511,-221.932 550.888,-228.125 582.598,-233.675"/>
<polygon fill="midnightblue" stroke="midnightblue" points="582.301,-237.177 592.754,-235.453 583.508,-230.281 582.301,-237.177"/>
</g>
<!-- Node5 -->
<g id="node6" class="node"><title>Node5</title>
<g id="a_node6"><a xlink:href="../../d9/d3d/interfacede_1_1tu__clausthal_1_1in_1_1mec_1_1modeling_1_1model_1_1erd_1_1IErd.htm#a440a179996721e461cc7a30b11da107f" target="_top" xlink:title="add new attribute to an entity ">
<polygon fill="none" stroke="black" points="563.5,-188.5 563.5,-216.5 784.5,-216.5 784.5,-188.5 563.5,-188.5"/>
<text text-anchor="start" x="571.5" y="-205.3" font-family="Helvetica,sans-Serif" font-size="9.00">de.tu_clausthal.in.mec.modeling.model.erd.</text>
<text text-anchor="middle" x="674" y="-195.3" font-family="Helvetica,sans-Serif" font-size="9.00">IErd.addAttributeToEntity</text>
</a>
</g>
</g>
<!-- Node3&#45;&gt;Node5 -->
<g id="edge5" class="edge"><title>Node3&#45;&gt;Node5</title>
<path fill="none" stroke="midnightblue" d="M526.18,-202.5C535.153,-202.5 544.201,-202.5 553.162,-202.5"/>
<polygon fill="midnightblue" stroke="midnightblue" points="553.234,-206 563.234,-202.5 553.234,-199 553.234,-206"/>
</g>
<!-- Node7 -->
<g id="node8" class="node"><title>Node7</title>
<g id="a_node8"><a xlink:href="../../d9/d3d/interfacede_1_1tu__clausthal_1_1in_1_1mec_1_1modeling_1_1model_1_1erd_1_1IErd.htm#a9e01a0a480362c8b3f15f316eb047d33" target="_top" xlink:title="connect child entity with is&#45;a relationship ">
<polygon fill="none" stroke="black" points="563.5,-141.5 563.5,-169.5 784.5,-169.5 784.5,-141.5 563.5,-141.5"/>
<text text-anchor="start" x="571.5" y="-158.3" font-family="Helvetica,sans-Serif" font-size="9.00">de.tu_clausthal.in.mec.modeling.model.erd.</text>
<text text-anchor="middle" x="674" y="-148.3" font-family="Helvetica,sans-Serif" font-size="9.00">IErd.connectChildEntityWithISARelationship</text>
</a>
</g>
</g>
<!-- Node6&#45;&gt;Node7 -->
<g id="edge7" class="edge"><title>Node6&#45;&gt;Node7</title>
<path fill="none" stroke="midnightblue" d="M526.18,-152.219C535.153,-152.42 544.201,-152.622 553.162,-152.822"/>
<polygon fill="midnightblue" stroke="midnightblue" points="553.158,-156.323 563.234,-153.047 553.315,-149.324 553.158,-156.323"/>
</g>
<!-- Node8 -->
<g id="node9" class="node"><title>Node8</title>
<g id="a_node9"><a xlink:href="../../d9/d3d/interfacede_1_1tu__clausthal_1_1in_1_1mec_1_1modeling_1_1model_1_1erd_1_1IErd.htm#a86f27b4771741f347991dae702c92dec" target="_top" xlink:title="connect parent entity with is&#45;a relationship ">
<polygon fill="none" stroke="black" points="562,-94.5 562,-122.5 786,-122.5 786,-94.5 562,-94.5"/>
<text text-anchor="start" x="570" y="-111.3" font-family="Helvetica,sans-Serif" font-size="9.00">de.tu_clausthal.in.mec.modeling.model.erd.</text>
<text text-anchor="middle" x="674" y="-101.3" font-family="Helvetica,sans-Serif" font-size="9.00">IErd.connectParentEntityWithISARelationship</text>
</a>
</g>
</g>
<!-- Node6&#45;&gt;Node8 -->
<g id="edge8" class="edge"><title>Node6&#45;&gt;Node8</title>
<path fill="none" stroke="midnightblue" d="M496.527,-135.447C520.543,-131.78 546.567,-127.806 571.064,-124.066"/>
<polygon fill="midnightblue" stroke="midnightblue" points="571.736,-127.504 581.093,-122.534 570.68,-120.584 571.736,-127.504"/>
</g>
<!-- Node10 -->
<g id="node11" class="node"><title>Node10</title>
<g id="a_node11"><a xlink:href="../../d9/d3d/interfacede_1_1tu__clausthal_1_1in_1_1mec_1_1modeling_1_1model_1_1erd_1_1IErd.htm#a419bf1545c5692281f81e665cb36c980" target="_top" xlink:title="add new is&#45;a relationship ">
<polygon fill="none" stroke="black" points="563.5,-47.5 563.5,-75.5 784.5,-75.5 784.5,-47.5 563.5,-47.5"/>
<text text-anchor="start" x="571.5" y="-64.3" font-family="Helvetica,sans-Serif" font-size="9.00">de.tu_clausthal.in.mec.modeling.model.erd.</text>
<text text-anchor="middle" x="674" y="-54.3" font-family="Helvetica,sans-Serif" font-size="9.00">IErd.addISARelationship</text>
</a>
</g>
</g>
<!-- Node9&#45;&gt;Node10 -->
<g id="edge10" class="edge"><title>Node9&#45;&gt;Node10</title>
<path fill="none" stroke="midnightblue" d="M526.18,-77.3576C535.153,-76.3885 544.201,-75.4113 553.162,-74.4434"/>
<polygon fill="midnightblue" stroke="midnightblue" points="553.668,-77.9092 563.234,-73.3555 552.916,-70.9497 553.668,-77.9092"/>
</g>
<!-- Node12 -->
<g id="node13" class="node"><title>Node12</title>
<g id="a_node13"><a xlink:href="../../d9/d3d/interfacede_1_1tu__clausthal_1_1in_1_1mec_1_1modeling_1_1model_1_1erd_1_1IErd.htm#ab21d68f1a1e74781ed4522f6a5b5e2e2" target="_top" xlink:title="add new relationship ">
<polygon fill="none" stroke="black" points="563.5,-0.5 563.5,-28.5 784.5,-28.5 784.5,-0.5 563.5,-0.5"/>
<text text-anchor="start" x="571.5" y="-17.3" font-family="Helvetica,sans-Serif" font-size="9.00">de.tu_clausthal.in.mec.modeling.model.erd.</text>
<text text-anchor="middle" x="674" y="-7.3" font-family="Helvetica,sans-Serif" font-size="9.00">IErd.addRelationship</text>
</a>
</g>
</g>
<!-- Node11&#45;&gt;Node12 -->
<g id="edge12" class="edge"><title>Node11&#45;&gt;Node12</title>
<path fill="none" stroke="midnightblue" d="M526.18,-17.7809C535.153,-17.5804 544.201,-17.3782 553.162,-17.1779"/>
<polygon fill="midnightblue" stroke="midnightblue" points="553.315,-20.6755 563.234,-16.9529 553.158,-13.6772 553.315,-20.6755"/>
</g>
</g>
</svg>
