<?xml version="1.0" encoding="UTF-8" standalone="no"?>
<!DOCTYPE svg PUBLIC "-//W3C//DTD SVG 1.1//EN"
 "http://www.w3.org/Graphics/SVG/1.1/DTD/svg11.dtd">
<!-- Generated by graphviz version 2.38.0 (20140413.2041)
 -->
<!-- Title: de.tu_clausthal.in.mec.modeling.deserializer.erd.CModelDeserializer.deserializeEntities Pages: 1 -->
<svg width="510pt" height="84pt"
 viewBox="0.00 0.00 510.00 84.00" xmlns="http://www.w3.org/2000/svg" xmlns:xlink="http://www.w3.org/1999/xlink">
<g id="graph0" class="graph" transform="scale(1 1) rotate(0) translate(4 80)">
<title>de.tu_clausthal.in.mec.modeling.deserializer.erd.CModelDeserializer.deserializeEntities</title>
<!-- Node18 -->
<g id="node1" class="node"><title>Node18</title>
<polygon fill="#bfbfbf" stroke="black" points="0,-23.5 0,-51.5 245,-51.5 245,-23.5 0,-23.5"/>
<text text-anchor="start" x="8" y="-40.3" font-family="Helvetica,sans-Serif" font-size="9.00">de.tu_clausthal.in.mec.modeling.deserializer.erd.</text>
<text text-anchor="middle" x="122.5" y="-30.3" font-family="Helvetica,sans-Serif" font-size="9.00">CModelDeserializer.deserializeEntities</text>
</g>
<!-- Node19 -->
<g id="node2" class="node"><title>Node19</title>
<g id="a_node2"><a xlink:href="../../d9/d3d/interfacede_1_1tu__clausthal_1_1in_1_1mec_1_1modeling_1_1model_1_1erd_1_1IErd.htm#a440a179996721e461cc7a30b11da107f" target="_top" xlink:title="add new attribute to an entity ">
<polygon fill="none" stroke="black" points="281,-47.5 281,-75.5 502,-75.5 502,-47.5 281,-47.5"/>
<text text-anchor="start" x="289" y="-64.3" font-family="Helvetica,sans-Serif" font-size="9.00">de.tu_clausthal.in.mec.modeling.model.erd.</text>
<text text-anchor="middle" x="391.5" y="-54.3" font-family="Helvetica,sans-Serif" font-size="9.00">IErd.addAttributeToEntity</text>
</a>
</g>
</g>
<!-- Node18&#45;&gt;Node19 -->
<g id="edge1" class="edge"><title>Node18&#45;&gt;Node19</title>
<path fill="none" stroke="midnightblue" d="M245.28,-48.4465C253.689,-49.2024 262.161,-49.9639 270.56,-50.7189"/>
<polygon fill="midnightblue" stroke="midnightblue" points="270.487,-54.2263 280.76,-51.6357 271.114,-47.2544 270.487,-54.2263"/>
</g>
<!-- Node20 -->
<g id="node3" class="node"><title>Node20</title>
<g id="a_node3"><a xlink:href="../../d9/d3d/interfacede_1_1tu__clausthal_1_1in_1_1mec_1_1modeling_1_1model_1_1erd_1_1IErd.htm#a01727cb3752a70bf4b776db431d75b3a" target="_top" xlink:title="add new entity ">
<polygon fill="none" stroke="black" points="281,-0.5 281,-28.5 502,-28.5 502,-0.5 281,-0.5"/>
<text text-anchor="start" x="289" y="-17.3" font-family="Helvetica,sans-Serif" font-size="9.00">de.tu_clausthal.in.mec.modeling.model.erd.</text>
<text text-anchor="middle" x="391.5" y="-7.3" font-family="Helvetica,sans-Serif" font-size="9.00">IErd.addEntity</text>
</a>
</g>
</g>
<!-- Node18&#45;&gt;Node20 -->
<g id="edge2" class="edge"><title>Node18&#45;&gt;Node20</title>
<path fill="none" stroke="midnightblue" d="M245.28,-27.0096C253.689,-26.2852 262.161,-25.5555 270.56,-24.8319"/>
<polygon fill="midnightblue" stroke="midnightblue" points="271.097,-28.2987 280.76,-23.9533 270.497,-21.3245 271.097,-28.2987"/>
</g>
</g>
</svg>
