<?xml version="1.0" encoding="UTF-8" standalone="no"?>
<!DOCTYPE svg PUBLIC "-//W3C//DTD SVG 1.1//EN"
 "http://www.w3.org/Graphics/SVG/1.1/DTD/svg11.dtd">
<!-- Generated by graphviz version 2.38.0 (20140413.2041)
 -->
<!-- Title: de.tu_clausthal.in.mec.modeling.model.erd.IErdEdge Pages: 1 -->
<svg width="241pt" height="184pt"
 viewBox="0.00 0.00 241.00 184.00" xmlns="http://www.w3.org/2000/svg" xmlns:xlink="http://www.w3.org/1999/xlink">
<g id="graph0" class="graph" transform="scale(1 1) rotate(0) translate(4 180)">
<title>de.tu_clausthal.in.mec.modeling.model.erd.IErdEdge</title>
<!-- Node3 -->
<g id="node1" class="node"><title>Node3</title>
<polygon fill="#bfbfbf" stroke="black" points="6,-0.5 6,-64.5 227,-64.5 227,-0.5 6,-0.5"/>
<text text-anchor="start" x="14" y="-53.3" font-family="Helvetica,sans-Serif" font-size="9.00">de.tu_clausthal.in.mec.modeling.model.erd.</text>
<text text-anchor="middle" x="116.5" y="-43.3" font-family="Helvetica,sans-Serif" font-size="9.00">IErdEdge</text>
<polyline fill="none" stroke="black" points="6,-36.5 227,-36.5 "/>
<text text-anchor="middle" x="116.5" y="-25.3" font-family="Helvetica,sans-Serif" font-size="9.00"> </text>
<polyline fill="none" stroke="black" points="6,-18.5 227,-18.5 "/>
<text text-anchor="middle" x="116.5" y="-7.3" font-family="Helvetica,sans-Serif" font-size="9.00"> </text>
</g>
<!-- Node4 -->
<g id="node2" class="node"><title>Node4</title>
<g id="a_node2"><a xlink:href="../../d3/d76/interfacede_1_1tu__clausthal_1_1in_1_1mec_1_1modeling_1_1model_1_1graph_1_1IEdge.htm" target="_top" xlink:title="interface of an edge ">
<polygon fill="none" stroke="black" points="-1.42109e-14,-101.5 -1.42109e-14,-175.5 233,-175.5 233,-101.5 -1.42109e-14,-101.5"/>
<text text-anchor="start" x="8" y="-164.3" font-family="Helvetica,sans-Serif" font-size="9.00">de.tu_clausthal.in.mec.modeling.model.graph.</text>
<text text-anchor="middle" x="116.5" y="-154.3" font-family="Helvetica,sans-Serif" font-size="9.00">IEdge</text>
<polyline fill="none" stroke="black" points="-1.42109e-14,-147.5 233,-147.5 "/>
<text text-anchor="middle" x="116.5" y="-136.3" font-family="Helvetica,sans-Serif" font-size="9.00"> </text>
<polyline fill="none" stroke="black" points="-1.42109e-14,-129.5 233,-129.5 "/>
<text text-anchor="start" x="8" y="-118.3" font-family="Helvetica,sans-Serif" font-size="9.00">+ id()</text>
<text text-anchor="start" x="8" y="-108.3" font-family="Helvetica,sans-Serif" font-size="9.00">+ raw()</text>
</a>
</g>
</g>
<!-- Node4&#45;&gt;Node3 -->
<g id="edge1" class="edge"><title>Node4&#45;&gt;Node3</title>
<path fill="none" stroke="midnightblue" d="M116.5,-91.38C116.5,-82.3468 116.5,-73.0739 116.5,-64.6704"/>
<polygon fill="none" stroke="midnightblue" points="113,-91.4177 116.5,-101.418 120,-91.4178 113,-91.4177"/>
</g>
</g>
</svg>
