<?xml version="1.0" encoding="UTF-8" standalone="no"?>
<!DOCTYPE svg PUBLIC "-//W3C//DTD SVG 1.1//EN"
 "http://www.w3.org/Graphics/SVG/1.1/DTD/svg11.dtd">
<!-- Generated by graphviz version 2.38.0 (20140413.2041)
 -->
<!-- Title: de.tu_clausthal.in.mec.modeling.model.graph.IGraph.id Pages: 1 -->
<svg width="520pt" height="84pt"
 viewBox="0.00 0.00 520.00 84.00" xmlns="http://www.w3.org/2000/svg" xmlns:xlink="http://www.w3.org/1999/xlink">
<g id="graph0" class="graph" transform="scale(1 1) rotate(0) translate(4 80)">
<title>de.tu_clausthal.in.mec.modeling.model.graph.IGraph.id</title>
<!-- Node19 -->
<g id="node1" class="node"><title>Node19</title>
<polygon fill="#bfbfbf" stroke="black" points="0,-23.5 0,-51.5 233,-51.5 233,-23.5 0,-23.5"/>
<text text-anchor="start" x="8" y="-40.3" font-family="Helvetica,sans-Serif" font-size="9.00">de.tu_clausthal.in.mec.modeling.model.graph.</text>
<text text-anchor="middle" x="116.5" y="-30.3" font-family="Helvetica,sans-Serif" font-size="9.00">IGraph.id</text>
</g>
<!-- Node20 -->
<g id="node2" class="node"><title>Node20</title>
<g id="a_node2"><a xlink:href="../../d4/d51/classde_1_1tu__clausthal_1_1in_1_1mec_1_1modeling_1_1model_1_1erd_1_1CErd.htm#a975dc8a481a27ea0f98701af5365be41" target="_top" xlink:title="returns the model id ">
<polygon fill="none" stroke="black" points="280,-47.5 280,-75.5 501,-75.5 501,-47.5 280,-47.5"/>
<text text-anchor="start" x="288" y="-64.3" font-family="Helvetica,sans-Serif" font-size="9.00">de.tu_clausthal.in.mec.modeling.model.erd.</text>
<text text-anchor="middle" x="390.5" y="-54.3" font-family="Helvetica,sans-Serif" font-size="9.00">CErd.id</text>
</a>
</g>
</g>
<!-- Node19&#45;&gt;Node20 -->
<g id="edge1" class="edge"><title>Node19&#45;&gt;Node20</title>
<path fill="none" stroke="midnightblue" d="M243.443,-48.6126C255.621,-49.6872 267.908,-50.7713 279.909,-51.8302"/>
<polygon fill="midnightblue" stroke="midnightblue" points="243.516,-45.1055 233.247,-47.713 242.901,-52.0784 243.516,-45.1055"/>
</g>
<!-- Node21 -->
<g id="node3" class="node"><title>Node21</title>
<g id="a_node3"><a xlink:href="../../d6/db3/classde_1_1tu__clausthal_1_1in_1_1mec_1_1modeling_1_1model_1_1petrinet_1_1CPetrinet.htm#a4e8d1d301ed1702b84d83228bf30177b" target="_top" xlink:title="returns the model id ">
<polygon fill="none" stroke="black" points="269,-0.5 269,-28.5 512,-28.5 512,-0.5 269,-0.5"/>
<text text-anchor="start" x="277" y="-17.3" font-family="Helvetica,sans-Serif" font-size="9.00">de.tu_clausthal.in.mec.modeling.model.petrinet.</text>
<text text-anchor="middle" x="390.5" y="-7.3" font-family="Helvetica,sans-Serif" font-size="9.00">CPetrinet.id</text>
</a>
</g>
</g>
<!-- Node19&#45;&gt;Node21 -->
<g id="edge2" class="edge"><title>Node19&#45;&gt;Node21</title>
<path fill="none" stroke="midnightblue" d="M243.446,-26.8501C251.836,-26.1407 260.276,-25.427 268.64,-24.7198"/>
<polygon fill="midnightblue" stroke="midnightblue" points="242.916,-23.3824 233.247,-27.7126 243.506,-30.3575 242.916,-23.3824"/>
</g>
</g>
</svg>
