<?xml version="1.0" encoding="UTF-8" standalone="no"?>
<!DOCTYPE svg PUBLIC "-//W3C//DTD SVG 1.1//EN"
 "http://www.w3.org/Graphics/SVG/1.1/DTD/svg11.dtd">
<!-- Generated by graphviz version 2.38.0 (20140413.2041)
 -->
<!-- Title: de.tu_clausthal.in.mec.modeling.model.graph.IGraph.nodes Pages: 1 -->
<svg width="1269pt" height="225pt"
 viewBox="0.00 0.00 1269.00 225.00" xmlns="http://www.w3.org/2000/svg" xmlns:xlink="http://www.w3.org/1999/xlink">
<g id="graph0" class="graph" transform="scale(1 1) rotate(0) translate(4 221)">
<title>de.tu_clausthal.in.mec.modeling.model.graph.IGraph.nodes</title>
<!-- Node37 -->
<g id="node1" class="node"><title>Node37</title>
<polygon fill="#bfbfbf" stroke="black" points="0,-94.5 0,-122.5 233,-122.5 233,-94.5 0,-94.5"/>
<text text-anchor="start" x="8" y="-111.3" font-family="Helvetica,sans-Serif" font-size="9.00">de.tu_clausthal.in.mec.modeling.model.graph.</text>
<text text-anchor="middle" x="116.5" y="-101.3" font-family="Helvetica,sans-Serif" font-size="9.00">IGraph.nodes</text>
</g>
<!-- Node38 -->
<g id="node2" class="node"><title>Node38</title>
<g id="a_node2"><a xlink:href="../../df/d09/classde_1_1tu__clausthal_1_1in_1_1mec_1_1modeling_1_1model_1_1erd_1_1CErdChecker.htm#a55713561a36fbb87a8b1532d0f83e8c3" target="_top" xlink:title="entities should contain at least one attribute without attributes an entity make no sense ...">
<polygon fill="none" stroke="black" points="269,-188.5 269,-216.5 490,-216.5 490,-188.5 269,-188.5"/>
<text text-anchor="start" x="277" y="-205.3" font-family="Helvetica,sans-Serif" font-size="9.00">de.tu_clausthal.in.mec.modeling.model.erd.</text>
<text text-anchor="middle" x="379.5" y="-195.3" font-family="Helvetica,sans-Serif" font-size="9.00">CErdChecker.validateEntities</text>
</a>
</g>
</g>
<!-- Node37&#45;&gt;Node38 -->
<g id="edge1" class="edge"><title>Node37&#45;&gt;Node38</title>
<path fill="none" stroke="midnightblue" d="M151.583,-127.265C181.69,-143.155 227.182,-165.519 269,-179.5 279.133,-182.888 289.966,-185.881 300.73,-188.494"/>
<polygon fill="midnightblue" stroke="midnightblue" points="153.226,-124.174 142.755,-122.558 149.933,-130.351 153.226,-124.174"/>
</g>
<!-- Node43 -->
<g id="node7" class="node"><title>Node43</title>
<g id="a_node7"><a xlink:href="../../df/d09/classde_1_1tu__clausthal_1_1in_1_1mec_1_1modeling_1_1model_1_1erd_1_1CErdChecker.htm#a9f17518246c3691153559c35f25155dd" target="_top" xlink:title="validate is&#45;a relationships child entities are not connected to other relationships, this is not allowed, because child entities are the most abstract elements in a graphical model and has no connections ">
<polygon fill="none" stroke="black" points="269,-141.5 269,-169.5 490,-169.5 490,-141.5 269,-141.5"/>
<text text-anchor="start" x="277" y="-158.3" font-family="Helvetica,sans-Serif" font-size="9.00">de.tu_clausthal.in.mec.modeling.model.erd.</text>
<text text-anchor="middle" x="379.5" y="-148.3" font-family="Helvetica,sans-Serif" font-size="9.00">CErdChecker.validateISARelationships</text>
</a>
</g>
</g>
<!-- Node37&#45;&gt;Node43 -->
<g id="edge6" class="edge"><title>Node37&#45;&gt;Node43</title>
<path fill="none" stroke="midnightblue" d="M205.326,-124.315C236.147,-129.866 270.536,-136.058 300.496,-141.453"/>
<polygon fill="midnightblue" stroke="midnightblue" points="205.917,-120.866 195.455,-122.538 204.676,-127.755 205.917,-120.866"/>
</g>
<!-- Node44 -->
<g id="node8" class="node"><title>Node44</title>
<g id="a_node8"><a xlink:href="../../df/d09/classde_1_1tu__clausthal_1_1in_1_1mec_1_1modeling_1_1model_1_1erd_1_1CErdChecker.htm#ae3ab3ba8f044b7f069748693cb0cb1e2" target="_top" xlink:title="validate if all entities has an attribute with least than one key attribute to check if the erd can b...">
<polygon fill="none" stroke="black" points="269,-0.5 269,-28.5 490,-28.5 490,-0.5 269,-0.5"/>
<text text-anchor="start" x="277" y="-17.3" font-family="Helvetica,sans-Serif" font-size="9.00">de.tu_clausthal.in.mec.modeling.model.erd.</text>
<text text-anchor="middle" x="379.5" y="-7.3" font-family="Helvetica,sans-Serif" font-size="9.00">CErdChecker.validateNormalization</text>
</a>
</g>
</g>
<!-- Node37&#45;&gt;Node44 -->
<g id="edge8" class="edge"><title>Node37&#45;&gt;Node44</title>
<path fill="none" stroke="midnightblue" d="M152.58,-89.6321C182.728,-74.0702 227.738,-52.3706 269,-38.5 280.161,-34.7482 292.162,-31.4293 303.983,-28.5482"/>
<polygon fill="midnightblue" stroke="midnightblue" points="150.586,-86.7244 143.337,-94.4513 153.822,-92.9313 150.586,-86.7244"/>
</g>
<!-- Node46 -->
<g id="node10" class="node"><title>Node46</title>
<g id="a_node10"><a xlink:href="../../df/d09/classde_1_1tu__clausthal_1_1in_1_1mec_1_1modeling_1_1model_1_1erd_1_1CErdChecker.htm#abda9f2a26a9c9da7b42fb9b787421112" target="_top" xlink:title="method to validate the relationships all relationships contain exactly 2 entities or be recursive ...">
<polygon fill="none" stroke="black" points="269,-94.5 269,-122.5 490,-122.5 490,-94.5 269,-94.5"/>
<text text-anchor="start" x="277" y="-111.3" font-family="Helvetica,sans-Serif" font-size="9.00">de.tu_clausthal.in.mec.modeling.model.erd.</text>
<text text-anchor="middle" x="379.5" y="-101.3" font-family="Helvetica,sans-Serif" font-size="9.00">CErdChecker.validateRelationships</text>
</a>
</g>
</g>
<!-- Node37&#45;&gt;Node46 -->
<g id="edge10" class="edge"><title>Node37&#45;&gt;Node46</title>
<path fill="none" stroke="midnightblue" d="M243.158,-108.5C251.729,-108.5 260.327,-108.5 268.806,-108.5"/>
<polygon fill="midnightblue" stroke="midnightblue" points="243.118,-105 233.118,-108.5 243.118,-112 243.118,-105"/>
</g>
<!-- Node47 -->
<g id="node11" class="node"><title>Node47</title>
<g id="a_node11"><a xlink:href="../../df/d09/classde_1_1tu__clausthal_1_1in_1_1mec_1_1modeling_1_1model_1_1erd_1_1CErdChecker.htm#a81ca230eeb302d605b6cc9cfbc1469e9" target="_top" xlink:title="validate weak key attributes only a weak entity can contains a weak key attribute property and not a ...">
<polygon fill="none" stroke="black" points="269,-47.5 269,-75.5 490,-75.5 490,-47.5 269,-47.5"/>
<text text-anchor="start" x="277" y="-64.3" font-family="Helvetica,sans-Serif" font-size="9.00">de.tu_clausthal.in.mec.modeling.model.erd.</text>
<text text-anchor="middle" x="379.5" y="-54.3" font-family="Helvetica,sans-Serif" font-size="9.00">CErdChecker.validateWeakEntityKeys</text>
</a>
</g>
</g>
<!-- Node37&#45;&gt;Node47 -->
<g id="edge12" class="edge"><title>Node37&#45;&gt;Node47</title>
<path fill="none" stroke="midnightblue" d="M205.326,-92.6845C236.147,-87.1344 270.536,-80.9417 300.496,-75.5467"/>
<polygon fill="midnightblue" stroke="midnightblue" points="204.676,-89.2452 195.455,-94.4621 205.917,-96.1344 204.676,-89.2452"/>
</g>
<!-- Node39 -->
<g id="node3" class="node"><title>Node39</title>
<g id="a_node3"><a xlink:href="../../df/d09/classde_1_1tu__clausthal_1_1in_1_1mec_1_1modeling_1_1model_1_1erd_1_1CErdChecker.htm#a03981d88022c4953ff78b0eefa964061" target="_top" xlink:title="method to run all test below ">
<polygon fill="none" stroke="black" points="526,-117.5 526,-145.5 747,-145.5 747,-117.5 526,-117.5"/>
<text text-anchor="start" x="534" y="-134.3" font-family="Helvetica,sans-Serif" font-size="9.00">de.tu_clausthal.in.mec.modeling.model.erd.</text>
<text text-anchor="middle" x="636.5" y="-124.3" font-family="Helvetica,sans-Serif" font-size="9.00">CErdChecker.runAllTests</text>
</a>
</g>
</g>
<!-- Node38&#45;&gt;Node39 -->
<g id="edge2" class="edge"><title>Node38&#45;&gt;Node39</title>
<path fill="none" stroke="midnightblue" d="M462.871,-186.234C472.059,-184.113 481.253,-181.854 490,-179.5 526.731,-169.617 567.826,-155.798 596.949,-145.524"/>
<polygon fill="midnightblue" stroke="midnightblue" points="461.909,-182.863 452.925,-188.48 463.451,-189.692 461.909,-182.863"/>
</g>
<!-- Node40 -->
<g id="node4" class="node"><title>Node40</title>
<g id="a_node4"><a xlink:href="../../d4/d51/classde_1_1tu__clausthal_1_1in_1_1mec_1_1modeling_1_1model_1_1erd_1_1CErd.htm#a962f9ff4a584c7aec63576a3c6fb4c74" target="_top" xlink:title="general method to check a graphical model onto general things ">
<polygon fill="none" stroke="black" points="783,-140.5 783,-168.5 1004,-168.5 1004,-140.5 783,-140.5"/>
<text text-anchor="start" x="791" y="-157.3" font-family="Helvetica,sans-Serif" font-size="9.00">de.tu_clausthal.in.mec.modeling.model.erd.</text>
<text text-anchor="middle" x="893.5" y="-147.3" font-family="Helvetica,sans-Serif" font-size="9.00">CErd.check</text>
</a>
</g>
</g>
<!-- Node39&#45;&gt;Node40 -->
<g id="edge3" class="edge"><title>Node39&#45;&gt;Node40</title>
<path fill="none" stroke="midnightblue" d="M757.186,-142.295C765.786,-143.071 774.433,-143.851 782.97,-144.621"/>
<polygon fill="midnightblue" stroke="midnightblue" points="757.397,-138.8 747.123,-141.388 756.768,-145.772 757.397,-138.8"/>
</g>
<!-- Node41 -->
<g id="node5" class="node"><title>Node41</title>
<g id="a_node5"><a xlink:href="../../df/d09/classde_1_1tu__clausthal_1_1in_1_1mec_1_1modeling_1_1model_1_1erd_1_1CErdChecker.htm#a3f9473130504e8a6e4b89898ab34afac" target="_top" xlink:title="method to fetch all errors for output generating ">
<polygon fill="none" stroke="black" points="783,-93.5 783,-121.5 1004,-121.5 1004,-93.5 783,-93.5"/>
<text text-anchor="start" x="791" y="-110.3" font-family="Helvetica,sans-Serif" font-size="9.00">de.tu_clausthal.in.mec.modeling.model.erd.</text>
<text text-anchor="middle" x="893.5" y="-100.3" font-family="Helvetica,sans-Serif" font-size="9.00">CErdChecker.fetchErrors</text>
</a>
</g>
</g>
<!-- Node39&#45;&gt;Node41 -->
<g id="edge4" class="edge"><title>Node39&#45;&gt;Node41</title>
<path fill="none" stroke="midnightblue" d="M757.186,-120.235C765.786,-119.426 774.433,-118.612 782.97,-117.809"/>
<polygon fill="midnightblue" stroke="midnightblue" points="756.751,-116.761 747.123,-121.183 757.407,-123.73 756.751,-116.761"/>
</g>
<!-- Node42 -->
<g id="node6" class="node"><title>Node42</title>
<g id="a_node6"><a xlink:href="../../d4/d51/classde_1_1tu__clausthal_1_1in_1_1mec_1_1modeling_1_1model_1_1erd_1_1CErd.htm#afc149a16273e96f16dd2cbe11427df83" target="_top" xlink:title="general method to check a graphical model onto general things and return a list with errors ...">
<polygon fill="none" stroke="black" points="1040,-93.5 1040,-121.5 1261,-121.5 1261,-93.5 1040,-93.5"/>
<text text-anchor="start" x="1048" y="-110.3" font-family="Helvetica,sans-Serif" font-size="9.00">de.tu_clausthal.in.mec.modeling.model.erd.</text>
<text text-anchor="middle" x="1150.5" y="-100.3" font-family="Helvetica,sans-Serif" font-size="9.00">CErd.checkResult</text>
</a>
</g>
</g>
<!-- Node41&#45;&gt;Node42 -->
<g id="edge5" class="edge"><title>Node41&#45;&gt;Node42</title>
<path fill="none" stroke="midnightblue" d="M1014.19,-107.5C1022.79,-107.5 1031.43,-107.5 1039.97,-107.5"/>
<polygon fill="midnightblue" stroke="midnightblue" points="1014.12,-104 1004.12,-107.5 1014.12,-111 1014.12,-104"/>
</g>
<!-- Node43&#45;&gt;Node39 -->
<g id="edge7" class="edge"><title>Node43&#45;&gt;Node39</title>
<path fill="none" stroke="midnightblue" d="M500.186,-144.235C508.786,-143.426 517.433,-142.612 525.97,-141.809"/>
<polygon fill="midnightblue" stroke="midnightblue" points="499.751,-140.761 490.123,-145.183 500.407,-147.73 499.751,-140.761"/>
</g>
<!-- Node45 -->
<g id="node9" class="node"><title>Node45</title>
<g id="a_node9"><a xlink:href="../../d4/d51/classde_1_1tu__clausthal_1_1in_1_1mec_1_1modeling_1_1model_1_1erd_1_1CErd.htm#af2a6fb1a4c22d43e43ef476e762861a0" target="_top" xlink:title="function to run the test if the erd can be normalized &#45; all entities must have at least one attribute...">
<polygon fill="none" stroke="black" points="526,-0.5 526,-28.5 747,-28.5 747,-0.5 526,-0.5"/>
<text text-anchor="start" x="534" y="-17.3" font-family="Helvetica,sans-Serif" font-size="9.00">de.tu_clausthal.in.mec.modeling.model.erd.</text>
<text text-anchor="middle" x="636.5" y="-7.3" font-family="Helvetica,sans-Serif" font-size="9.00">CErd.checkNormalization</text>
</a>
</g>
</g>
<!-- Node44&#45;&gt;Node45 -->
<g id="edge9" class="edge"><title>Node44&#45;&gt;Node45</title>
<path fill="none" stroke="midnightblue" d="M500.186,-14.5C508.786,-14.5 517.433,-14.5 525.97,-14.5"/>
<polygon fill="midnightblue" stroke="midnightblue" points="500.123,-11.0001 490.123,-14.5 500.123,-18.0001 500.123,-11.0001"/>
</g>
<!-- Node46&#45;&gt;Node39 -->
<g id="edge11" class="edge"><title>Node46&#45;&gt;Node39</title>
<path fill="none" stroke="midnightblue" d="M500.186,-119.295C508.786,-120.071 517.433,-120.851 525.97,-121.621"/>
<polygon fill="midnightblue" stroke="midnightblue" points="500.397,-115.8 490.123,-118.388 499.768,-122.772 500.397,-115.8"/>
</g>
<!-- Node47&#45;&gt;Node39 -->
<g id="edge13" class="edge"><title>Node47&#45;&gt;Node39</title>
<path fill="none" stroke="midnightblue" d="M459.037,-77.8127C469.483,-80.2457 480.026,-82.8361 490,-85.5 525.578,-95.0021 565.416,-107.747 594.399,-117.412"/>
<polygon fill="midnightblue" stroke="midnightblue" points="459.601,-74.3513 449.072,-75.531 458.038,-81.1748 459.601,-74.3513"/>
</g>
</g>
</svg>
