<?xml version="1.0" encoding="UTF-8" standalone="no"?>
<!DOCTYPE svg PUBLIC "-//W3C//DTD SVG 1.1//EN"
 "http://www.w3.org/Graphics/SVG/1.1/DTD/svg11.dtd">
<!-- Generated by graphviz version 2.38.0 (20140413.2041)
 -->
<!-- Title: de.tu_clausthal.in.mec.modeling.model.erd.IErdNode Pages: 1 -->
<svg width="707pt" height="720pt"
 viewBox="0.00 0.00 707.00 720.00" xmlns="http://www.w3.org/2000/svg" xmlns:xlink="http://www.w3.org/1999/xlink">
<g id="graph0" class="graph" transform="scale(1 1) rotate(0) translate(4 716)">
<title>de.tu_clausthal.in.mec.modeling.model.erd.IErdNode</title>
<!-- Node0 -->
<g id="node1" class="node"><title>Node0</title>
<polygon fill="#bfbfbf" stroke="black" points="239,-535.5 239,-599.5 460,-599.5 460,-535.5 239,-535.5"/>
<text text-anchor="start" x="247" y="-588.3" font-family="Helvetica,sans-Serif" font-size="9.00">de.tu_clausthal.in.mec.modeling.model.erd.</text>
<text text-anchor="middle" x="349.5" y="-578.3" font-family="Helvetica,sans-Serif" font-size="9.00">IErdNode</text>
<polyline fill="none" stroke="black" points="239,-571.5 460,-571.5 "/>
<text text-anchor="middle" x="349.5" y="-560.3" font-family="Helvetica,sans-Serif" font-size="9.00"> </text>
<polyline fill="none" stroke="black" points="239,-553.5 460,-553.5 "/>
<text text-anchor="middle" x="349.5" y="-542.3" font-family="Helvetica,sans-Serif" font-size="9.00"> </text>
</g>
<!-- Node2 -->
<g id="node3" class="node"><title>Node2</title>
<g id="a_node3"><a xlink:href="../../d9/deb/interfacede_1_1tu__clausthal_1_1in_1_1mec_1_1modeling_1_1model_1_1erd_1_1IEntity.htm" target="_top" xlink:title="An entity is a fundamental part of an ERD. ">
<polygon fill="none" stroke="black" points="0,-393.5 0,-477.5 221,-477.5 221,-393.5 0,-393.5"/>
<text text-anchor="start" x="8" y="-466.3" font-family="Helvetica,sans-Serif" font-size="9.00">de.tu_clausthal.in.mec.modeling.model.erd.</text>
<text text-anchor="middle" x="110.5" y="-456.3" font-family="Helvetica,sans-Serif" font-size="9.00">IEntity&lt; A extends IAttribute &gt;</text>
<polyline fill="none" stroke="black" points="0,-449.5 221,-449.5 "/>
<text text-anchor="middle" x="110.5" y="-438.3" font-family="Helvetica,sans-Serif" font-size="9.00"> </text>
<polyline fill="none" stroke="black" points="0,-431.5 221,-431.5 "/>
<text text-anchor="start" x="8" y="-420.3" font-family="Helvetica,sans-Serif" font-size="9.00">+ createAttribute()</text>
<text text-anchor="start" x="8" y="-410.3" font-family="Helvetica,sans-Serif" font-size="9.00">+ getConnectedAttributes()</text>
<text text-anchor="start" x="8" y="-400.3" font-family="Helvetica,sans-Serif" font-size="9.00">+ isWeakEntity()</text>
</a>
</g>
</g>
<!-- Node0&#45;&gt;Node2 -->
<g id="edge2" class="edge"><title>Node0&#45;&gt;Node2</title>
<path fill="none" stroke="midnightblue" d="M283.117,-530.392C253.058,-514.042 217.37,-494.63 186.267,-477.712"/>
<polygon fill="none" stroke="midnightblue" points="281.797,-533.658 292.254,-535.362 285.141,-527.509 281.797,-533.658"/>
</g>
<!-- Node5 -->
<g id="node6" class="node"><title>Node5</title>
<g id="a_node6"><a xlink:href="../../d5/de5/interfacede_1_1tu__clausthal_1_1in_1_1mec_1_1modeling_1_1model_1_1erd_1_1IInheritRelationship.htm" target="_top" xlink:title="An is&#45;a relationship is also a fundamental part of an ERD. ">
<polygon fill="none" stroke="black" points="239,-378.5 239,-492.5 460,-492.5 460,-378.5 239,-378.5"/>
<text text-anchor="start" x="247" y="-481.3" font-family="Helvetica,sans-Serif" font-size="9.00">de.tu_clausthal.in.mec.modeling.model.erd.</text>
<text text-anchor="start" x="247" y="-471.3" font-family="Helvetica,sans-Serif" font-size="9.00">IInheritRelationship&lt; A extends</text>
<text text-anchor="middle" x="349.5" y="-461.3" font-family="Helvetica,sans-Serif" font-size="9.00"> IAttribute &gt;</text>
<polyline fill="none" stroke="black" points="239,-454.5 460,-454.5 "/>
<text text-anchor="middle" x="349.5" y="-443.3" font-family="Helvetica,sans-Serif" font-size="9.00"> </text>
<polyline fill="none" stroke="black" points="239,-436.5 460,-436.5 "/>
<text text-anchor="start" x="247" y="-425.3" font-family="Helvetica,sans-Serif" font-size="9.00">+ connectChildEntity()</text>
<text text-anchor="start" x="247" y="-415.3" font-family="Helvetica,sans-Serif" font-size="9.00">+ getChildEntities()</text>
<text text-anchor="start" x="247" y="-405.3" font-family="Helvetica,sans-Serif" font-size="9.00">+ getParentEntity()</text>
<text text-anchor="start" x="247" y="-395.3" font-family="Helvetica,sans-Serif" font-size="9.00">+ isValidISARelationship()</text>
<text text-anchor="start" x="247" y="-385.3" font-family="Helvetica,sans-Serif" font-size="9.00">+ setParentEntity()</text>
</a>
</g>
</g>
<!-- Node0&#45;&gt;Node5 -->
<g id="edge5" class="edge"><title>Node0&#45;&gt;Node5</title>
<path fill="none" stroke="midnightblue" d="M349.5,-525.317C349.5,-514.909 349.5,-503.556 349.5,-492.552"/>
<polygon fill="none" stroke="midnightblue" points="346,-525.362 349.5,-535.362 353,-525.362 346,-525.362"/>
</g>
<!-- Node8 -->
<g id="node9" class="node"><title>Node8</title>
<g id="a_node9"><a xlink:href="../../df/d49/interfacede_1_1tu__clausthal_1_1in_1_1mec_1_1modeling_1_1model_1_1erd_1_1IRelationship.htm" target="_top" xlink:title="A relationship is a fundamental part of an ERD. ">
<polygon fill="none" stroke="black" points="478,-373.5 478,-497.5 699,-497.5 699,-373.5 478,-373.5"/>
<text text-anchor="start" x="486" y="-486.3" font-family="Helvetica,sans-Serif" font-size="9.00">de.tu_clausthal.in.mec.modeling.model.erd.</text>
<text text-anchor="middle" x="588.5" y="-476.3" font-family="Helvetica,sans-Serif" font-size="9.00">IRelationship&lt; A extends IAttribute &gt;</text>
<polyline fill="none" stroke="black" points="478,-469.5 699,-469.5 "/>
<text text-anchor="middle" x="588.5" y="-458.3" font-family="Helvetica,sans-Serif" font-size="9.00"> </text>
<polyline fill="none" stroke="black" points="478,-451.5 699,-451.5 "/>
<text text-anchor="start" x="486" y="-440.3" font-family="Helvetica,sans-Serif" font-size="9.00">+ connectEntity()</text>
<text text-anchor="start" x="486" y="-430.3" font-family="Helvetica,sans-Serif" font-size="9.00">+ createAttribute()</text>
<text text-anchor="start" x="486" y="-420.3" font-family="Helvetica,sans-Serif" font-size="9.00">+ getConnectedAttributes()</text>
<text text-anchor="start" x="486" y="-410.3" font-family="Helvetica,sans-Serif" font-size="9.00">+ getConnectedEntities()</text>
<text text-anchor="start" x="486" y="-400.3" font-family="Helvetica,sans-Serif" font-size="9.00">+ getDescription()</text>
<text text-anchor="start" x="486" y="-390.3" font-family="Helvetica,sans-Serif" font-size="9.00">+ isRecursive()</text>
<text text-anchor="start" x="486" y="-380.3" font-family="Helvetica,sans-Serif" font-size="9.00">+ isWeakRelationship()</text>
</a>
</g>
</g>
<!-- Node0&#45;&gt;Node8 -->
<g id="edge8" class="edge"><title>Node0&#45;&gt;Node8</title>
<path fill="none" stroke="midnightblue" d="M415.723,-530.479C435.006,-519.99 456.617,-508.235 477.853,-496.684"/>
<polygon fill="none" stroke="midnightblue" points="413.859,-527.509 406.746,-535.362 417.203,-533.658 413.859,-527.509"/>
</g>
<!-- Node1 -->
<g id="node2" class="node"><title>Node1</title>
<g id="a_node2"><a xlink:href="../../d4/db2/interfacede_1_1tu__clausthal_1_1in_1_1mec_1_1modeling_1_1model_1_1graph_1_1INode.htm" target="_top" xlink:title="node interface ">
<polygon fill="none" stroke="black" points="233,-637.5 233,-711.5 466,-711.5 466,-637.5 233,-637.5"/>
<text text-anchor="start" x="241" y="-700.3" font-family="Helvetica,sans-Serif" font-size="9.00">de.tu_clausthal.in.mec.modeling.model.graph.</text>
<text text-anchor="middle" x="349.5" y="-690.3" font-family="Helvetica,sans-Serif" font-size="9.00">INode</text>
<polyline fill="none" stroke="black" points="233,-683.5 466,-683.5 "/>
<text text-anchor="middle" x="349.5" y="-672.3" font-family="Helvetica,sans-Serif" font-size="9.00"> </text>
<polyline fill="none" stroke="black" points="233,-665.5 466,-665.5 "/>
<text text-anchor="start" x="241" y="-654.3" font-family="Helvetica,sans-Serif" font-size="9.00">+ id()</text>
<text text-anchor="start" x="241" y="-644.3" font-family="Helvetica,sans-Serif" font-size="9.00">+ raw()</text>
</a>
</g>
</g>
<!-- Node1&#45;&gt;Node0 -->
<g id="edge1" class="edge"><title>Node1&#45;&gt;Node0</title>
<path fill="none" stroke="midnightblue" d="M349.5,-627.108C349.5,-617.872 349.5,-608.38 349.5,-599.797"/>
<polygon fill="none" stroke="midnightblue" points="346,-627.365 349.5,-637.365 353,-627.365 346,-627.365"/>
</g>
<!-- Node3 -->
<g id="node4" class="node"><title>Node3</title>
<g id="a_node4"><a xlink:href="../../d9/deb/interfacede_1_1tu__clausthal_1_1in_1_1mec_1_1modeling_1_1model_1_1erd_1_1IEntity.htm" target="_top" xlink:title="{de.tu_clausthal.in.mec.modeling.model.erd.\lIEntity\&lt; IAttribute \&gt;\n||+ createAttribute()\l+ getConnectedAttributes()\l+ isWeakEntity()\l}">
<polygon fill="none" stroke="black" points="0,-222.5 0,-306.5 221,-306.5 221,-222.5 0,-222.5"/>
<text text-anchor="start" x="8" y="-295.3" font-family="Helvetica,sans-Serif" font-size="9.00">de.tu_clausthal.in.mec.modeling.model.erd.</text>
<text text-anchor="middle" x="110.5" y="-285.3" font-family="Helvetica,sans-Serif" font-size="9.00">IEntity&lt; IAttribute &gt;</text>
<polyline fill="none" stroke="black" points="0,-278.5 221,-278.5 "/>
<text text-anchor="middle" x="110.5" y="-267.3" font-family="Helvetica,sans-Serif" font-size="9.00"> </text>
<polyline fill="none" stroke="black" points="0,-260.5 221,-260.5 "/>
<text text-anchor="start" x="8" y="-249.3" font-family="Helvetica,sans-Serif" font-size="9.00">+ createAttribute()</text>
<text text-anchor="start" x="8" y="-239.3" font-family="Helvetica,sans-Serif" font-size="9.00">+ getConnectedAttributes()</text>
<text text-anchor="start" x="8" y="-229.3" font-family="Helvetica,sans-Serif" font-size="9.00">+ isWeakEntity()</text>
</a>
</g>
</g>
<!-- Node2&#45;&gt;Node3 -->
<g id="edge3" class="edge"><title>Node2&#45;&gt;Node3</title>
<path fill="none" stroke="orange" d="M110.5,-382.973C110.5,-358.515 110.5,-329.686 110.5,-306.708"/>
<polygon fill="orange" stroke="orange" points="107,-383.158 110.5,-393.158 114,-383.158 107,-383.158"/>
<text text-anchor="middle" x="144.5" y="-347.8" font-family="Helvetica,sans-Serif" font-size="9.00"> &lt; IAttribute &gt;</text>
</g>
<!-- Node4 -->
<g id="node5" class="node"><title>Node4</title>
<g id="a_node5"><a xlink:href="../../d6/d74/classde_1_1tu__clausthal_1_1in_1_1mec_1_1modeling_1_1model_1_1erd_1_1CEntity.htm" target="_top" xlink:title="An entity is the description of an object, which is specified more precisely by attributes. ">
<polygon fill="none" stroke="black" points="0,-30.5 0,-134.5 221,-134.5 221,-30.5 0,-30.5"/>
<text text-anchor="start" x="8" y="-123.3" font-family="Helvetica,sans-Serif" font-size="9.00">de.tu_clausthal.in.mec.modeling.model.erd.</text>
<text text-anchor="middle" x="110.5" y="-113.3" font-family="Helvetica,sans-Serif" font-size="9.00">CEntity</text>
<polyline fill="none" stroke="black" points="0,-106.5 221,-106.5 "/>
<text text-anchor="start" x="8" y="-95.3" font-family="Helvetica,sans-Serif" font-size="9.00">&#45; m_attributes</text>
<text text-anchor="start" x="8" y="-85.3" font-family="Helvetica,sans-Serif" font-size="9.00">&#45; m_weakentity</text>
<polyline fill="none" stroke="black" points="0,-78.5 221,-78.5 "/>
<text text-anchor="start" x="8" y="-67.3" font-family="Helvetica,sans-Serif" font-size="9.00">+ createAttribute()</text>
<text text-anchor="start" x="8" y="-57.3" font-family="Helvetica,sans-Serif" font-size="9.00">+ getConnectedAttributes()</text>
<text text-anchor="start" x="8" y="-47.3" font-family="Helvetica,sans-Serif" font-size="9.00">+ isWeakEntity()</text>
<text text-anchor="start" x="8" y="-37.3" font-family="Helvetica,sans-Serif" font-size="9.00">~ CEntity()</text>
</a>
</g>
</g>
<!-- Node3&#45;&gt;Node4 -->
<g id="edge4" class="edge"><title>Node3&#45;&gt;Node4</title>
<path fill="none" stroke="midnightblue" d="M110.5,-212.097C110.5,-187.787 110.5,-158.842 110.5,-134.574"/>
<polygon fill="none" stroke="midnightblue" points="107,-212.204 110.5,-222.204 114,-212.204 107,-212.204"/>
</g>
<!-- Node6 -->
<g id="node7" class="node"><title>Node6</title>
<g id="a_node7"><a xlink:href="../../d5/de5/interfacede_1_1tu__clausthal_1_1in_1_1mec_1_1modeling_1_1model_1_1erd_1_1IInheritRelationship.htm" target="_top" xlink:title="{de.tu_clausthal.in.mec.modeling.model.erd.\lIInheritRelationship\&lt; IAttribute \&gt;\n||+ connectChildEntity()\l+ getChildEntities()\l+ getParentEntity()\l+ isValidISARelationship()\l+ setParentEntity()\l}">
<polygon fill="none" stroke="black" points="239,-212.5 239,-316.5 460,-316.5 460,-212.5 239,-212.5"/>
<text text-anchor="start" x="247" y="-305.3" font-family="Helvetica,sans-Serif" font-size="9.00">de.tu_clausthal.in.mec.modeling.model.erd.</text>
<text text-anchor="middle" x="349.5" y="-295.3" font-family="Helvetica,sans-Serif" font-size="9.00">IInheritRelationship&lt; IAttribute &gt;</text>
<polyline fill="none" stroke="black" points="239,-288.5 460,-288.5 "/>
<text text-anchor="middle" x="349.5" y="-277.3" font-family="Helvetica,sans-Serif" font-size="9.00"> </text>
<polyline fill="none" stroke="black" points="239,-270.5 460,-270.5 "/>
<text text-anchor="start" x="247" y="-259.3" font-family="Helvetica,sans-Serif" font-size="9.00">+ connectChildEntity()</text>
<text text-anchor="start" x="247" y="-249.3" font-family="Helvetica,sans-Serif" font-size="9.00">+ getChildEntities()</text>
<text text-anchor="start" x="247" y="-239.3" font-family="Helvetica,sans-Serif" font-size="9.00">+ getParentEntity()</text>
<text text-anchor="start" x="247" y="-229.3" font-family="Helvetica,sans-Serif" font-size="9.00">+ isValidISARelationship()</text>
<text text-anchor="start" x="247" y="-219.3" font-family="Helvetica,sans-Serif" font-size="9.00">+ setParentEntity()</text>
</a>
</g>
</g>
<!-- Node5&#45;&gt;Node6 -->
<g id="edge6" class="edge"><title>Node5&#45;&gt;Node6</title>
<path fill="none" stroke="orange" d="M349.5,-367.794C349.5,-350.79 349.5,-332.779 349.5,-316.688"/>
<polygon fill="orange" stroke="orange" points="346,-368.225 349.5,-378.225 353,-368.225 346,-368.225"/>
<text text-anchor="middle" x="383.5" y="-347.8" font-family="Helvetica,sans-Serif" font-size="9.00"> &lt; IAttribute &gt;</text>
</g>
<!-- Node7 -->
<g id="node8" class="node"><title>Node7</title>
<g id="a_node8"><a xlink:href="../../d6/d17/classde_1_1tu__clausthal_1_1in_1_1mec_1_1modeling_1_1model_1_1erd_1_1CInheritRelationship.htm" target="_top" xlink:title="Is&#45;a relationship implementation of the model. ">
<polygon fill="none" stroke="black" points="239,-20.5 239,-144.5 460,-144.5 460,-20.5 239,-20.5"/>
<text text-anchor="start" x="247" y="-133.3" font-family="Helvetica,sans-Serif" font-size="9.00">de.tu_clausthal.in.mec.modeling.model.erd.</text>
<text text-anchor="middle" x="349.5" y="-123.3" font-family="Helvetica,sans-Serif" font-size="9.00">CInheritRelationship</text>
<polyline fill="none" stroke="black" points="239,-116.5 460,-116.5 "/>
<text text-anchor="start" x="247" y="-105.3" font-family="Helvetica,sans-Serif" font-size="9.00">&#45; m_childentities</text>
<text text-anchor="start" x="247" y="-95.3" font-family="Helvetica,sans-Serif" font-size="9.00">&#45; m_parententity</text>
<polyline fill="none" stroke="black" points="239,-88.5 460,-88.5 "/>
<text text-anchor="start" x="247" y="-77.3" font-family="Helvetica,sans-Serif" font-size="9.00">+ connectChildEntity()</text>
<text text-anchor="start" x="247" y="-67.3" font-family="Helvetica,sans-Serif" font-size="9.00">+ getChildEntities()</text>
<text text-anchor="start" x="247" y="-57.3" font-family="Helvetica,sans-Serif" font-size="9.00">+ getParentEntity()</text>
<text text-anchor="start" x="247" y="-47.3" font-family="Helvetica,sans-Serif" font-size="9.00">+ isValidISARelationship()</text>
<text text-anchor="start" x="247" y="-37.3" font-family="Helvetica,sans-Serif" font-size="9.00">+ setParentEntity()</text>
<text text-anchor="start" x="247" y="-27.3" font-family="Helvetica,sans-Serif" font-size="9.00">~ CInheritRelationship()</text>
</a>
</g>
</g>
<!-- Node6&#45;&gt;Node7 -->
<g id="edge7" class="edge"><title>Node6&#45;&gt;Node7</title>
<path fill="none" stroke="midnightblue" d="M349.5,-202.275C349.5,-183.667 349.5,-163.225 349.5,-144.624"/>
<polygon fill="none" stroke="midnightblue" points="346,-202.401 349.5,-212.401 353,-202.401 346,-202.401"/>
</g>
<!-- Node9 -->
<g id="node10" class="node"><title>Node9</title>
<g id="a_node10"><a xlink:href="../../df/d49/interfacede_1_1tu__clausthal_1_1in_1_1mec_1_1modeling_1_1model_1_1erd_1_1IRelationship.htm" target="_top" xlink:title="{de.tu_clausthal.in.mec.modeling.model.erd.\lIRelationship\&lt; IAttribute \&gt;\n||+ connectEntity()\l+ createAttribute()\l+ getConnectedAttributes()\l+ getConnectedEntities()\l+ getDescription()\l+ isRecursive()\l+ isWeakRelationship()\l}">
<polygon fill="none" stroke="black" points="478,-202.5 478,-326.5 699,-326.5 699,-202.5 478,-202.5"/>
<text text-anchor="start" x="486" y="-315.3" font-family="Helvetica,sans-Serif" font-size="9.00">de.tu_clausthal.in.mec.modeling.model.erd.</text>
<text text-anchor="middle" x="588.5" y="-305.3" font-family="Helvetica,sans-Serif" font-size="9.00">IRelationship&lt; IAttribute &gt;</text>
<polyline fill="none" stroke="black" points="478,-298.5 699,-298.5 "/>
<text text-anchor="middle" x="588.5" y="-287.3" font-family="Helvetica,sans-Serif" font-size="9.00"> </text>
<polyline fill="none" stroke="black" points="478,-280.5 699,-280.5 "/>
<text text-anchor="start" x="486" y="-269.3" font-family="Helvetica,sans-Serif" font-size="9.00">+ connectEntity()</text>
<text text-anchor="start" x="486" y="-259.3" font-family="Helvetica,sans-Serif" font-size="9.00">+ createAttribute()</text>
<text text-anchor="start" x="486" y="-249.3" font-family="Helvetica,sans-Serif" font-size="9.00">+ getConnectedAttributes()</text>
<text text-anchor="start" x="486" y="-239.3" font-family="Helvetica,sans-Serif" font-size="9.00">+ getConnectedEntities()</text>
<text text-anchor="start" x="486" y="-229.3" font-family="Helvetica,sans-Serif" font-size="9.00">+ getDescription()</text>
<text text-anchor="start" x="486" y="-219.3" font-family="Helvetica,sans-Serif" font-size="9.00">+ isRecursive()</text>
<text text-anchor="start" x="486" y="-209.3" font-family="Helvetica,sans-Serif" font-size="9.00">+ isWeakRelationship()</text>
</a>
</g>
</g>
<!-- Node8&#45;&gt;Node9 -->
<g id="edge9" class="edge"><title>Node8&#45;&gt;Node9</title>
<path fill="none" stroke="orange" d="M588.5,-363.362C588.5,-351.175 588.5,-338.607 588.5,-326.707"/>
<polygon fill="orange" stroke="orange" points="585,-363.487 588.5,-373.487 592,-363.487 585,-363.487"/>
<text text-anchor="middle" x="622.5" y="-347.8" font-family="Helvetica,sans-Serif" font-size="9.00"> &lt; IAttribute &gt;</text>
</g>
<!-- Node10 -->
<g id="node11" class="node"><title>Node10</title>
<g id="a_node11"><a xlink:href="../../d1/de8/classde_1_1tu__clausthal_1_1in_1_1mec_1_1modeling_1_1model_1_1erd_1_1CRelationship.htm" target="_top" xlink:title="The relationships between the entities describe their behavior to each other. ">
<polygon fill="none" stroke="black" points="478,-0.5 478,-164.5 699,-164.5 699,-0.5 478,-0.5"/>
<text text-anchor="start" x="486" y="-153.3" font-family="Helvetica,sans-Serif" font-size="9.00">de.tu_clausthal.in.mec.modeling.model.erd.</text>
<text text-anchor="middle" x="588.5" y="-143.3" font-family="Helvetica,sans-Serif" font-size="9.00">CRelationship</text>
<polyline fill="none" stroke="black" points="478,-136.5 699,-136.5 "/>
<text text-anchor="start" x="486" y="-125.3" font-family="Helvetica,sans-Serif" font-size="9.00">&#45; m_attributes</text>
<text text-anchor="start" x="486" y="-115.3" font-family="Helvetica,sans-Serif" font-size="9.00">&#45; m_description</text>
<text text-anchor="start" x="486" y="-105.3" font-family="Helvetica,sans-Serif" font-size="9.00">&#45; m_entityone</text>
<text text-anchor="start" x="486" y="-95.3" font-family="Helvetica,sans-Serif" font-size="9.00">&#45; m_entitytwo</text>
<polyline fill="none" stroke="black" points="478,-88.5 699,-88.5 "/>
<text text-anchor="start" x="486" y="-77.3" font-family="Helvetica,sans-Serif" font-size="9.00">+ connectEntity()</text>
<text text-anchor="start" x="486" y="-67.3" font-family="Helvetica,sans-Serif" font-size="9.00">+ createAttribute()</text>
<text text-anchor="start" x="486" y="-57.3" font-family="Helvetica,sans-Serif" font-size="9.00">+ getConnectedAttributes()</text>
<text text-anchor="start" x="486" y="-47.3" font-family="Helvetica,sans-Serif" font-size="9.00">+ getConnectedEntities()</text>
<text text-anchor="start" x="486" y="-37.3" font-family="Helvetica,sans-Serif" font-size="9.00">+ getDescription()</text>
<text text-anchor="start" x="486" y="-27.3" font-family="Helvetica,sans-Serif" font-size="9.00">+ isRecursive()</text>
<text text-anchor="start" x="486" y="-17.3" font-family="Helvetica,sans-Serif" font-size="9.00">+ isWeakRelationship()</text>
<text text-anchor="start" x="486" y="-7.3" font-family="Helvetica,sans-Serif" font-size="9.00">~ CRelationship()</text>
</a>
</g>
</g>
<!-- Node9&#45;&gt;Node10 -->
<g id="edge10" class="edge"><title>Node9&#45;&gt;Node10</title>
<path fill="none" stroke="midnightblue" d="M588.5,-192.206C588.5,-183.139 588.5,-173.807 588.5,-164.601"/>
<polygon fill="none" stroke="midnightblue" points="585,-192.309 588.5,-202.309 592,-192.309 585,-192.309"/>
</g>
</g>
</svg>
