<?xml version="1.0" encoding="UTF-8" standalone="no"?>
<!DOCTYPE svg PUBLIC "-//W3C//DTD SVG 1.1//EN"
 "http://www.w3.org/Graphics/SVG/1.1/DTD/svg11.dtd">
<!-- Generated by graphviz version 2.38.0 (20140413.2041)
 -->
<!-- Title: de.tu_clausthal.in.mec.modeling.model.erd.CErdChecker.runAllTests Pages: 1 -->
<!--zoomable 178 -->
<svg id="main" version="1.1" xmlns="http://www.w3.org/2000/svg" xmlns:xlink="http://www.w3.org/1999/xlink" xml:space="preserve" onload="init(evt)">
<style type="text/css"><![CDATA[
.edge:hover path { stroke: red; }
.edge:hover polygon { stroke: red; fill: red; }
]]></style>
<script type="text/javascript"><![CDATA[
var edges = document.getElementsByTagName('g');
if (edges && edges.length) {
  for (var i=0;i<edges.length;i++) {
    if (edges[i].id.substr(0,4)=='edge') {
      edges[i].setAttribute('class','edge');
    }
  }
}
]]></script>
        <defs>
                <circle id="rim" cx="0" cy="0" r="7"/>
                <circle id="rim2" cx="0" cy="0" r="3.5"/>
                <g id="zoomPlus">
                        <use xlink:href="#rim" fill="#404040">
                                <set attributeName="fill" to="#808080" begin="zoomplus.mouseover" end="zoomplus.mouseout"/>
                        </use>
                        <path d="M-4,0h8M0,-4v8" fill="none" stroke="white" stroke-width="1.5" pointer-events="none"/>
                </g>
                <g id="zoomMin">
                        <use xlink:href="#rim" fill="#404040">
                                <set attributeName="fill" to="#808080" begin="zoomminus.mouseover" end="zoomminus.mouseout"/>
                        </use>
                        <path d="M-4,0h8" fill="none" stroke="white" stroke-width="1.5" pointer-events="none"/>
                </g>
                <g id="dirArrow">
                        <path fill="none" stroke="white" stroke-width="1.5" d="M0,-3.0v7 M-2.5,-0.5L0,-3.0L2.5,-0.5"/>
                </g>
               <g id="resetDef">
                       <use xlink:href="#rim2" fill="#404040">
                               <set attributeName="fill" to="#808080" begin="reset.mouseover" end="reset.mouseout"/>
                       </use>
               </g>
        </defs>

<script type="text/javascript">
var viewWidth = 755;
var viewHeight = 178;
var sectionId = 'dynsection-4';
</script>
<script xlink:href="../../svgpan.js"/>
<svg id="graph" class="graph">
<g id="viewport">
<title>de.tu_clausthal.in.mec.modeling.model.erd.CErdChecker.runAllTests</title>
<!-- Node11 -->
<g id="node1" class="node"><title>Node11</title>
<polygon fill="#bfbfbf" stroke="black" points="0,-70.5 0,-98.5 221,-98.5 221,-70.5 0,-70.5"/>
<text text-anchor="start" x="8" y="-87.3" font-family="Helvetica,sans-Serif" font-size="9.00">de.tu_clausthal.in.mec.modeling.model.erd.</text>
<text text-anchor="middle" x="110.5" y="-77.3" font-family="Helvetica,sans-Serif" font-size="9.00">CErdChecker.runAllTests</text>
</g>
<!-- Node12 -->
<g id="node2" class="node"><title>Node12</title>
<g id="a_node2"><a xlink:href="../../df/d09/classde_1_1tu__clausthal_1_1in_1_1mec_1_1modeling_1_1model_1_1erd_1_1CErdChecker.htm#a55713561a36fbb87a8b1532d0f83e8c3" target="_top" xlink:title="entities should contain at least one attribute without attributes an entity make no sense ...">
<polygon fill="none" stroke="black" points="257,-141.5 257,-169.5 478,-169.5 478,-141.5 257,-141.5"/>
<text text-anchor="start" x="265" y="-158.3" font-family="Helvetica,sans-Serif" font-size="9.00">de.tu_clausthal.in.mec.modeling.model.erd.</text>
<text text-anchor="middle" x="367.5" y="-148.3" font-family="Helvetica,sans-Serif" font-size="9.00">CErdChecker.validateEntities</text>
</a>
</g>
</g>
<!-- Node11&#45;&gt;Node12 -->
<g id="edge1" class="edge"><title>Node11&#45;&gt;Node12</title>
<path fill="none" stroke="midnightblue" d="M150.051,-98.5237C179.174,-108.798 220.269,-122.617 257,-132.5 265.747,-134.854 274.941,-137.113 284.129,-139.234"/>
<polygon fill="midnightblue" stroke="midnightblue" points="283.549,-142.692 294.075,-141.48 285.091,-135.863 283.549,-142.692"/>
</g>
<!-- Node14 -->
<g id="node4" class="node"><title>Node14</title>
<g id="a_node4"><a xlink:href="../../df/d09/classde_1_1tu__clausthal_1_1in_1_1mec_1_1modeling_1_1model_1_1erd_1_1CErdChecker.htm#a9f17518246c3691153559c35f25155dd" target="_top" xlink:title="validate is&#45;a relationships child entities are not connected to other relationships, this is not allowed, because child entities are the most abstract elements in a graphical model and has no connections ">
<polygon fill="none" stroke="black" points="257,-94.5 257,-122.5 478,-122.5 478,-94.5 257,-94.5"/>
<text text-anchor="start" x="265" y="-111.3" font-family="Helvetica,sans-Serif" font-size="9.00">de.tu_clausthal.in.mec.modeling.model.erd.</text>
<text text-anchor="middle" x="367.5" y="-101.3" font-family="Helvetica,sans-Serif" font-size="9.00">CErdChecker.validateISARelationships</text>
</a>
</g>
</g>
<!-- Node11&#45;&gt;Node14 -->
<g id="edge3" class="edge"><title>Node11&#45;&gt;Node14</title>
<path fill="none" stroke="midnightblue" d="M221.123,-94.8174C229.661,-95.621 238.308,-96.4349 246.907,-97.2442"/>
<polygon fill="midnightblue" stroke="midnightblue" points="246.686,-100.739 256.97,-98.1913 247.342,-93.7695 246.686,-100.739"/>
</g>
<!-- Node15 -->
<g id="node5" class="node"><title>Node15</title>
<g id="a_node5"><a xlink:href="../../df/d09/classde_1_1tu__clausthal_1_1in_1_1mec_1_1modeling_1_1model_1_1erd_1_1CErdChecker.htm#abda9f2a26a9c9da7b42fb9b787421112" target="_top" xlink:title="method to validate the relationships all relationships contain exactly 2 entities or be recursive ...">
<polygon fill="none" stroke="black" points="257,-47.5 257,-75.5 478,-75.5 478,-47.5 257,-47.5"/>
<text text-anchor="start" x="265" y="-64.3" font-family="Helvetica,sans-Serif" font-size="9.00">de.tu_clausthal.in.mec.modeling.model.erd.</text>
<text text-anchor="middle" x="367.5" y="-54.3" font-family="Helvetica,sans-Serif" font-size="9.00">CErdChecker.validateRelationships</text>
</a>
</g>
</g>
<!-- Node11&#45;&gt;Node15 -->
<g id="edge5" class="edge"><title>Node11&#45;&gt;Node15</title>
<path fill="none" stroke="midnightblue" d="M221.123,-74.6124C229.661,-73.8424 238.308,-73.0624 246.907,-72.2868"/>
<polygon fill="midnightblue" stroke="midnightblue" points="247.325,-75.7635 256.97,-71.3792 246.696,-68.7918 247.325,-75.7635"/>
</g>
<!-- Node16 -->
<g id="node6" class="node"><title>Node16</title>
<g id="a_node6"><a xlink:href="../../df/d09/classde_1_1tu__clausthal_1_1in_1_1mec_1_1modeling_1_1model_1_1erd_1_1CErdChecker.htm#a81ca230eeb302d605b6cc9cfbc1469e9" target="_top" xlink:title="validate weak key attributes only a weak entity can contains a weak key attribute property and not a ...">
<polygon fill="none" stroke="black" points="257,-0.5 257,-28.5 478,-28.5 478,-0.5 257,-0.5"/>
<text text-anchor="start" x="265" y="-17.3" font-family="Helvetica,sans-Serif" font-size="9.00">de.tu_clausthal.in.mec.modeling.model.erd.</text>
<text text-anchor="middle" x="367.5" y="-7.3" font-family="Helvetica,sans-Serif" font-size="9.00">CErdChecker.validateWeakEntityKeys</text>
</a>
</g>
</g>
<!-- Node11&#45;&gt;Node16 -->
<g id="edge7" class="edge"><title>Node11&#45;&gt;Node16</title>
<path fill="none" stroke="midnightblue" d="M152.601,-70.4119C181.584,-60.747 221.422,-48.0021 257,-38.5 266.974,-35.8361 277.517,-33.2457 287.963,-30.8127"/>
<polygon fill="midnightblue" stroke="midnightblue" points="288.962,-34.1748 297.928,-28.531 287.399,-27.3513 288.962,-34.1748"/>
</g>
<!-- Node13 -->
<g id="node3" class="node"><title>Node13</title>
<g id="a_node3"><a xlink:href="../../d4/d8a/interfacede_1_1tu__clausthal_1_1in_1_1mec_1_1modeling_1_1model_1_1graph_1_1IGraph.htm#a461febfd6ed576894a2110a298a6eec2" target="_top" xlink:title="stream over all nodes ">
<polygon fill="none" stroke="black" points="514,-70.5 514,-98.5 747,-98.5 747,-70.5 514,-70.5"/>
<text text-anchor="start" x="522" y="-87.3" font-family="Helvetica,sans-Serif" font-size="9.00">de.tu_clausthal.in.mec.modeling.model.graph.</text>
<text text-anchor="middle" x="630.5" y="-77.3" font-family="Helvetica,sans-Serif" font-size="9.00">IGraph.nodes</text>
</a>
</g>
</g>
<!-- Node12&#45;&gt;Node13 -->
<g id="edge2" class="edge"><title>Node12&#45;&gt;Node13</title>
<path fill="none" stroke="midnightblue" d="M440.307,-141.489C452.919,-138.723 465.882,-135.684 478,-132.5 512.164,-123.524 550.048,-111.521 579.386,-101.763"/>
<polygon fill="midnightblue" stroke="midnightblue" points="580.619,-105.041 588.991,-98.5477 578.397,-98.4035 580.619,-105.041"/>
</g>
<!-- Node14&#45;&gt;Node13 -->
<g id="edge4" class="edge"><title>Node14&#45;&gt;Node13</title>
<path fill="none" stroke="midnightblue" d="M478.053,-98.4262C486.576,-97.6425 495.221,-96.8475 503.838,-96.0551"/>
<polygon fill="midnightblue" stroke="midnightblue" points="504.294,-99.528 513.932,-95.127 503.653,-92.5575 504.294,-99.528"/>
</g>
<!-- Node15&#45;&gt;Node13 -->
<g id="edge6" class="edge"><title>Node15&#45;&gt;Node13</title>
<path fill="none" stroke="midnightblue" d="M478.053,-71.1541C486.576,-71.9051 495.221,-72.667 503.838,-73.4263"/>
<polygon fill="midnightblue" stroke="midnightblue" points="503.663,-76.9244 513.932,-74.3158 504.277,-69.9514 503.663,-76.9244"/>
</g>
<!-- Node16&#45;&gt;Node13 -->
<g id="edge8" class="edge"><title>Node16&#45;&gt;Node13</title>
<path fill="none" stroke="midnightblue" d="M436.457,-28.5193C450.253,-31.611 464.63,-35.0108 478,-38.5 510.952,-47.0994 547.492,-58.1491 576.43,-67.2634"/>
<polygon fill="midnightblue" stroke="midnightblue" points="575.741,-70.7162 586.331,-70.3993 577.854,-64.043 575.741,-70.7162"/>
</g>
</g>
</svg>
        <g id="navigator" transform="translate(0 0)" fill="#404254">
                <rect fill="#f2f5e9" fill-opacity="0.5" stroke="#606060" stroke-width=".5" x="0" y="0" width="60" height="60"/>
                <use id="zoomplus" xlink:href="#zoomPlus" x="17" y="9" onmousedown="handleZoom(evt,'in')"/>
                <use id="zoomminus" xlink:href="#zoomMin" x="42" y="9" onmousedown="handleZoom(evt,'out')"/>
                <use id="reset" xlink:href="#resetDef" x="30" y="36" onmousedown="handleReset()"/>
                <g id="arrowUp" xlink:href="#dirArrow" transform="translate(30 24)" onmousedown="handlePan(0,-1)">
                  <use xlink:href="#rim" fill="#404040">
                        <set attributeName="fill" to="#808080" begin="arrowUp.mouseover" end="arrowUp.mouseout"/>
                  </use>
                  <path fill="none" stroke="white" stroke-width="1.5" d="M0,-3.0v7 M-2.5,-0.5L0,-3.0L2.5,-0.5"/>
                </g>
                <g id="arrowRight" xlink:href="#dirArrow" transform="rotate(90) translate(36 -43)" onmousedown="handlePan(1,0)">
                  <use xlink:href="#rim" fill="#404040">
                        <set attributeName="fill" to="#808080" begin="arrowRight.mouseover" end="arrowRight.mouseout"/>
                  </use>
                  <path fill="none" stroke="white" stroke-width="1.5" d="M0,-3.0v7 M-2.5,-0.5L0,-3.0L2.5,-0.5"/>
                </g>
                <g id="arrowDown" xlink:href="#dirArrow" transform="rotate(180) translate(-30 -48)" onmousedown="handlePan(0,1)">
                  <use xlink:href="#rim" fill="#404040">
                        <set attributeName="fill" to="#808080" begin="arrowDown.mouseover" end="arrowDown.mouseout"/>
                  </use>
                  <path fill="none" stroke="white" stroke-width="1.5" d="M0,-3.0v7 M-2.5,-0.5L0,-3.0L2.5,-0.5"/>
                </g>
                <g id="arrowLeft" xlink:href="#dirArrow" transform="rotate(270) translate(-36 17)" onmousedown="handlePan(-1,0)">
                  <use xlink:href="#rim" fill="#404040">
                        <set attributeName="fill" to="#808080" begin="arrowLeft.mouseover" end="arrowLeft.mouseout"/>
                  </use>
                  <path fill="none" stroke="white" stroke-width="1.5" d="M0,-3.0v7 M-2.5,-0.5L0,-3.0L2.5,-0.5"/>
                </g>
        </g>
        <svg viewBox="0 0 15 15" width="100%" height="30px" preserveAspectRatio="xMaxYMin meet">
         <g id="arrow_out" transform="scale(0.3 0.3)">
          <a xlink:href="classde_1_1tu__clausthal_1_1in_1_1mec_1_1modeling_1_1model_1_1erd_1_1CErdChecker_a03981d88022c4953ff78b0eefa964061_cgraph_org.svg" target="_base">
           <rect id="button" ry="5" rx="5" y="6" x="6" height="38" width="38"
                fill="#f2f5e9" fill-opacity="0.5" stroke="#606060" stroke-width="1.0"/>
           <path id="arrow"
             d="M 11.500037,31.436501 C 11.940474,20.09759 22.043105,11.32322 32.158766,21.979434 L 37.068811,17.246167 C 37.068811,17.246167 37.088388,32 37.088388,32 L 22.160133,31.978069 C 22.160133,31.978069 26.997745,27.140456 26.997745,27.140456 C 18.528582,18.264221 13.291696,25.230495 11.500037,31.436501 z"
             style="fill:#404040;"/>
          </a>
         </g>
        </svg>
</svg>
