<?xml version="1.0" encoding="UTF-8" standalone="no"?>
<!DOCTYPE svg PUBLIC "-//W3C//DTD SVG 1.1//EN"
 "http://www.w3.org/Graphics/SVG/1.1/DTD/svg11.dtd">
<!-- Generated by graphviz version 2.38.0 (20140413.2041)
 -->
<!-- Title: de.tu_clausthal.in.mec.modeling.model.erd.CErdChecker.runAllTests Pages: 1 -->
<svg width="743pt" height="84pt"
 viewBox="0.00 0.00 743.00 84.00" xmlns="http://www.w3.org/2000/svg" xmlns:xlink="http://www.w3.org/1999/xlink">
<g id="graph0" class="graph" transform="scale(1 1) rotate(0) translate(4 80)">
<title>de.tu_clausthal.in.mec.modeling.model.erd.CErdChecker.runAllTests</title>
<!-- Node17 -->
<g id="node1" class="node"><title>Node17</title>
<polygon fill="#bfbfbf" stroke="black" points="0,-23.5 0,-51.5 221,-51.5 221,-23.5 0,-23.5"/>
<text text-anchor="start" x="8" y="-40.3" font-family="Helvetica,sans-Serif" font-size="9.00">de.tu_clausthal.in.mec.modeling.model.erd.</text>
<text text-anchor="middle" x="110.5" y="-30.3" font-family="Helvetica,sans-Serif" font-size="9.00">CErdChecker.runAllTests</text>
</g>
<!-- Node18 -->
<g id="node2" class="node"><title>Node18</title>
<g id="a_node2"><a xlink:href="../../d4/d51/classde_1_1tu__clausthal_1_1in_1_1mec_1_1modeling_1_1model_1_1erd_1_1CErd.htm#a962f9ff4a584c7aec63576a3c6fb4c74" target="_top" xlink:title="general method to check a graphical model onto general things ">
<polygon fill="none" stroke="black" points="257,-47.5 257,-75.5 478,-75.5 478,-47.5 257,-47.5"/>
<text text-anchor="start" x="265" y="-64.3" font-family="Helvetica,sans-Serif" font-size="9.00">de.tu_clausthal.in.mec.modeling.model.erd.</text>
<text text-anchor="middle" x="367.5" y="-54.3" font-family="Helvetica,sans-Serif" font-size="9.00">CErd.check</text>
</a>
</g>
</g>
<!-- Node17&#45;&gt;Node18 -->
<g id="edge1" class="edge"><title>Node17&#45;&gt;Node18</title>
<path fill="none" stroke="midnightblue" d="M231.186,-48.7646C239.786,-49.5739 248.433,-50.3878 256.97,-51.1913"/>
<polygon fill="midnightblue" stroke="midnightblue" points="231.407,-45.27 221.123,-47.8174 230.751,-52.2392 231.407,-45.27"/>
</g>
<!-- Node19 -->
<g id="node3" class="node"><title>Node19</title>
<g id="a_node3"><a xlink:href="../../df/d09/classde_1_1tu__clausthal_1_1in_1_1mec_1_1modeling_1_1model_1_1erd_1_1CErdChecker.htm#a3f9473130504e8a6e4b89898ab34afac" target="_top" xlink:title="method to fetch all errors for output generating ">
<polygon fill="none" stroke="black" points="257,-0.5 257,-28.5 478,-28.5 478,-0.5 257,-0.5"/>
<text text-anchor="start" x="265" y="-17.3" font-family="Helvetica,sans-Serif" font-size="9.00">de.tu_clausthal.in.mec.modeling.model.erd.</text>
<text text-anchor="middle" x="367.5" y="-7.3" font-family="Helvetica,sans-Serif" font-size="9.00">CErdChecker.fetchErrors</text>
</a>
</g>
</g>
<!-- Node17&#45;&gt;Node19 -->
<g id="edge2" class="edge"><title>Node17&#45;&gt;Node19</title>
<path fill="none" stroke="midnightblue" d="M231.186,-26.7048C239.786,-25.9291 248.433,-25.1492 256.97,-24.3792"/>
<polygon fill="midnightblue" stroke="midnightblue" points="230.768,-23.2282 221.123,-27.6124 231.397,-30.1999 230.768,-23.2282"/>
</g>
<!-- Node20 -->
<g id="node4" class="node"><title>Node20</title>
<g id="a_node4"><a xlink:href="../../d4/d51/classde_1_1tu__clausthal_1_1in_1_1mec_1_1modeling_1_1model_1_1erd_1_1CErd.htm#afc149a16273e96f16dd2cbe11427df83" target="_top" xlink:title="general method to check a graphical model onto general things and return a list with errors ...">
<polygon fill="none" stroke="black" points="514,-0.5 514,-28.5 735,-28.5 735,-0.5 514,-0.5"/>
<text text-anchor="start" x="522" y="-17.3" font-family="Helvetica,sans-Serif" font-size="9.00">de.tu_clausthal.in.mec.modeling.model.erd.</text>
<text text-anchor="middle" x="624.5" y="-7.3" font-family="Helvetica,sans-Serif" font-size="9.00">CErd.checkResult</text>
</a>
</g>
</g>
<!-- Node19&#45;&gt;Node20 -->
<g id="edge3" class="edge"><title>Node19&#45;&gt;Node20</title>
<path fill="none" stroke="midnightblue" d="M488.186,-14.5C496.786,-14.5 505.433,-14.5 513.97,-14.5"/>
<polygon fill="midnightblue" stroke="midnightblue" points="488.123,-11.0001 478.123,-14.5 488.123,-18.0001 488.123,-11.0001"/>
</g>
</g>
</svg>
