<?xml version="1.0" encoding="UTF-8" standalone="no"?>
<!DOCTYPE svg PUBLIC "-//W3C//DTD SVG 1.1//EN"
 "http://www.w3.org/Graphics/SVG/1.1/DTD/svg11.dtd">
<!-- Generated by graphviz version 2.38.0 (20140413.2041)
 -->
<!-- Title: de.tu_clausthal.in.mec.modeling.deserializer.erd.IInheritRelationshipDeserializer&lt; A extends IAttribute &gt; Pages: 1 -->
<svg width="253pt" height="204pt"
 viewBox="0.00 0.00 253.00 204.00" xmlns="http://www.w3.org/2000/svg" xmlns:xlink="http://www.w3.org/1999/xlink">
<g id="graph0" class="graph" transform="scale(1 1) rotate(0) translate(4 200)">
<title>de.tu_clausthal.in.mec.modeling.deserializer.erd.IInheritRelationshipDeserializer&lt; A extends IAttribute &gt;</title>
<!-- Node4 -->
<g id="node1" class="node"><title>Node4</title>
<polygon fill="#bfbfbf" stroke="black" points="0,-0.5 0,-74.5 245,-74.5 245,-0.5 0,-0.5"/>
<text text-anchor="start" x="8" y="-63.3" font-family="Helvetica,sans-Serif" font-size="9.00">de.tu_clausthal.in.mec.modeling.deserializer.erd.</text>
<text text-anchor="start" x="8" y="-53.3" font-family="Helvetica,sans-Serif" font-size="9.00">IInheritRelationshipDeserializer&lt; A</text>
<text text-anchor="middle" x="122.5" y="-43.3" font-family="Helvetica,sans-Serif" font-size="9.00"> extends IAttribute &gt;</text>
<polyline fill="none" stroke="black" points="0,-36.5 245,-36.5 "/>
<text text-anchor="middle" x="122.5" y="-25.3" font-family="Helvetica,sans-Serif" font-size="9.00"> </text>
<polyline fill="none" stroke="black" points="0,-18.5 245,-18.5 "/>
<text text-anchor="middle" x="122.5" y="-7.3" font-family="Helvetica,sans-Serif" font-size="9.00"> </text>
</g>
<!-- Node5 -->
<g id="node2" class="node"><title>Node5</title>
<g id="a_node2"><a xlink:href="../../df/ddc/interfacede_1_1tu__clausthal_1_1in_1_1mec_1_1modeling_1_1model_1_1erd_1_1IAttribute.htm" target="_top" xlink:title="A simple attribute that can be assigned in an ERD to an entity or relationship. ">
<polygon fill="none" stroke="black" points="12,-121.5 12,-195.5 233,-195.5 233,-121.5 12,-121.5"/>
<text text-anchor="start" x="20" y="-184.3" font-family="Helvetica,sans-Serif" font-size="9.00">de.tu_clausthal.in.mec.modeling.model.erd.</text>
<text text-anchor="middle" x="122.5" y="-174.3" font-family="Helvetica,sans-Serif" font-size="9.00">IAttribute</text>
<polyline fill="none" stroke="black" points="12,-167.5 233,-167.5 "/>
<text text-anchor="middle" x="122.5" y="-156.3" font-family="Helvetica,sans-Serif" font-size="9.00"> </text>
<polyline fill="none" stroke="black" points="12,-149.5 233,-149.5 "/>
<text text-anchor="start" x="20" y="-138.3" font-family="Helvetica,sans-Serif" font-size="9.00">+ attributeName()</text>
<text text-anchor="start" x="20" y="-128.3" font-family="Helvetica,sans-Serif" font-size="9.00">+ getProperty()</text>
</a>
</g>
</g>
<!-- Node5&#45;&gt;Node4 -->
<g id="edge1" class="edge"><title>Node5&#45;&gt;Node4</title>
<path fill="none" stroke="orange" d="M122.5,-111.129C122.5,-99.076 122.5,-86.2664 122.5,-74.8151"/>
<polygon fill="orange" stroke="orange" points="119,-111.473 122.5,-121.473 126,-111.473 119,-111.473"/>
<text text-anchor="middle" x="127.5" y="-95.8" font-family="Helvetica,sans-Serif" font-size="9.00"> A</text>
</g>
</g>
</svg>
