<?xml version="1.0" encoding="UTF-8" standalone="no"?>
<!DOCTYPE svg PUBLIC "-//W3C//DTD SVG 1.1//EN"
 "http://www.w3.org/Graphics/SVG/1.1/DTD/svg11.dtd">
<!-- Generated by graphviz version 2.38.0 (20140413.2041)
 -->
<!-- Title: de.tu_clausthal.in.mec.modeling.model.erd.IInheritRelationship&lt; A extends IAttribute &gt; Pages: 1 -->
<svg width="474pt" height="669pt"
 viewBox="0.00 0.00 474.00 669.00" xmlns="http://www.w3.org/2000/svg" xmlns:xlink="http://www.w3.org/1999/xlink">
<g id="graph0" class="graph" transform="scale(1 1) rotate(0) translate(4 665)">
<title>de.tu_clausthal.in.mec.modeling.model.erd.IInheritRelationship&lt; A extends IAttribute &gt;</title>
<!-- Node0 -->
<g id="node1" class="node"><title>Node0</title>
<polygon fill="#bfbfbf" stroke="black" points="185,-313.5 185,-427.5 406,-427.5 406,-313.5 185,-313.5"/>
<text text-anchor="start" x="193" y="-416.3" font-family="Helvetica,sans-Serif" font-size="9.00">de.tu_clausthal.in.mec.modeling.model.erd.</text>
<text text-anchor="start" x="193" y="-406.3" font-family="Helvetica,sans-Serif" font-size="9.00">IInheritRelationship&lt; A extends</text>
<text text-anchor="middle" x="295.5" y="-396.3" font-family="Helvetica,sans-Serif" font-size="9.00"> IAttribute &gt;</text>
<polyline fill="none" stroke="black" points="185,-389.5 406,-389.5 "/>
<text text-anchor="middle" x="295.5" y="-378.3" font-family="Helvetica,sans-Serif" font-size="9.00"> </text>
<polyline fill="none" stroke="black" points="185,-371.5 406,-371.5 "/>
<text text-anchor="start" x="193" y="-360.3" font-family="Helvetica,sans-Serif" font-size="9.00">+ connectChildEntity()</text>
<text text-anchor="start" x="193" y="-350.3" font-family="Helvetica,sans-Serif" font-size="9.00">+ getChildEntities()</text>
<text text-anchor="start" x="193" y="-340.3" font-family="Helvetica,sans-Serif" font-size="9.00">+ getParentEntity()</text>
<text text-anchor="start" x="193" y="-330.3" font-family="Helvetica,sans-Serif" font-size="9.00">+ isValidISARelationship()</text>
<text text-anchor="start" x="193" y="-320.3" font-family="Helvetica,sans-Serif" font-size="9.00">+ setParentEntity()</text>
</g>
<!-- Node4 -->
<g id="node5" class="node"><title>Node4</title>
<g id="a_node5"><a xlink:href="../../d5/de5/interfacede_1_1tu__clausthal_1_1in_1_1mec_1_1modeling_1_1model_1_1erd_1_1IInheritRelationship.htm" target="_top" xlink:title="{de.tu_clausthal.in.mec.modeling.model.erd.\lIInheritRelationship\&lt; IAttribute \&gt;\n||+ connectChildEntity()\l+ getChildEntities()\l+ getParentEntity()\l+ isValidISARelationship()\l+ setParentEntity()\l}">
<polygon fill="none" stroke="black" points="185,-162.5 185,-266.5 406,-266.5 406,-162.5 185,-162.5"/>
<text text-anchor="start" x="193" y="-255.3" font-family="Helvetica,sans-Serif" font-size="9.00">de.tu_clausthal.in.mec.modeling.model.erd.</text>
<text text-anchor="middle" x="295.5" y="-245.3" font-family="Helvetica,sans-Serif" font-size="9.00">IInheritRelationship&lt; IAttribute &gt;</text>
<polyline fill="none" stroke="black" points="185,-238.5 406,-238.5 "/>
<text text-anchor="middle" x="295.5" y="-227.3" font-family="Helvetica,sans-Serif" font-size="9.00"> </text>
<polyline fill="none" stroke="black" points="185,-220.5 406,-220.5 "/>
<text text-anchor="start" x="193" y="-209.3" font-family="Helvetica,sans-Serif" font-size="9.00">+ connectChildEntity()</text>
<text text-anchor="start" x="193" y="-199.3" font-family="Helvetica,sans-Serif" font-size="9.00">+ getChildEntities()</text>
<text text-anchor="start" x="193" y="-189.3" font-family="Helvetica,sans-Serif" font-size="9.00">+ getParentEntity()</text>
<text text-anchor="start" x="193" y="-179.3" font-family="Helvetica,sans-Serif" font-size="9.00">+ isValidISARelationship()</text>
<text text-anchor="start" x="193" y="-169.3" font-family="Helvetica,sans-Serif" font-size="9.00">+ setParentEntity()</text>
</a>
</g>
</g>
<!-- Node0&#45;&gt;Node4 -->
<g id="edge4" class="edge"><title>Node0&#45;&gt;Node4</title>
<path fill="none" stroke="orange" d="M295.5,-303.277C295.5,-291.009 295.5,-278.368 295.5,-266.634"/>
<polygon fill="orange" stroke="orange" points="292,-303.467 295.5,-313.467 299,-303.467 292,-303.467"/>
<text text-anchor="middle" x="329.5" y="-287.8" font-family="Helvetica,sans-Serif" font-size="9.00"> &lt; IAttribute &gt;</text>
</g>
<!-- Node1 -->
<g id="node2" class="node"><title>Node1</title>
<g id="a_node2"><a xlink:href="../../d4/d3e/interfacede_1_1tu__clausthal_1_1in_1_1mec_1_1modeling_1_1model_1_1erd_1_1IErdNode.htm" target="_top" xlink:title="An node for the graphical ERD model. ">
<polygon fill="none" stroke="black" points="6,-479.5 6,-543.5 227,-543.5 227,-479.5 6,-479.5"/>
<text text-anchor="start" x="14" y="-532.3" font-family="Helvetica,sans-Serif" font-size="9.00">de.tu_clausthal.in.mec.modeling.model.erd.</text>
<text text-anchor="middle" x="116.5" y="-522.3" font-family="Helvetica,sans-Serif" font-size="9.00">IErdNode</text>
<polyline fill="none" stroke="black" points="6,-515.5 227,-515.5 "/>
<text text-anchor="middle" x="116.5" y="-504.3" font-family="Helvetica,sans-Serif" font-size="9.00"> </text>
<polyline fill="none" stroke="black" points="6,-497.5 227,-497.5 "/>
<text text-anchor="middle" x="116.5" y="-486.3" font-family="Helvetica,sans-Serif" font-size="9.00"> </text>
</a>
</g>
</g>
<!-- Node1&#45;&gt;Node0 -->
<g id="edge1" class="edge"><title>Node1&#45;&gt;Node0</title>
<path fill="none" stroke="midnightblue" d="M164.703,-473.069C182.648,-459.133 203.431,-442.995 223.075,-427.741"/>
<polygon fill="none" stroke="midnightblue" points="162.423,-470.408 156.671,-479.306 166.716,-475.937 162.423,-470.408"/>
</g>
<!-- Node2 -->
<g id="node3" class="node"><title>Node2</title>
<g id="a_node3"><a xlink:href="../../d4/db2/interfacede_1_1tu__clausthal_1_1in_1_1mec_1_1modeling_1_1model_1_1graph_1_1INode.htm" target="_top" xlink:title="node interface ">
<polygon fill="none" stroke="black" points="0,-586.5 0,-660.5 233,-660.5 233,-586.5 0,-586.5"/>
<text text-anchor="start" x="8" y="-649.3" font-family="Helvetica,sans-Serif" font-size="9.00">de.tu_clausthal.in.mec.modeling.model.graph.</text>
<text text-anchor="middle" x="116.5" y="-639.3" font-family="Helvetica,sans-Serif" font-size="9.00">INode</text>
<polyline fill="none" stroke="black" points="0,-632.5 233,-632.5 "/>
<text text-anchor="middle" x="116.5" y="-621.3" font-family="Helvetica,sans-Serif" font-size="9.00"> </text>
<polyline fill="none" stroke="black" points="0,-614.5 233,-614.5 "/>
<text text-anchor="start" x="8" y="-603.3" font-family="Helvetica,sans-Serif" font-size="9.00">+ id()</text>
<text text-anchor="start" x="8" y="-593.3" font-family="Helvetica,sans-Serif" font-size="9.00">+ raw()</text>
</a>
</g>
</g>
<!-- Node2&#45;&gt;Node1 -->
<g id="edge2" class="edge"><title>Node2&#45;&gt;Node1</title>
<path fill="none" stroke="midnightblue" d="M116.5,-576.206C116.5,-565.276 116.5,-553.876 116.5,-543.792"/>
<polygon fill="none" stroke="midnightblue" points="113,-576.482 116.5,-586.482 120,-576.482 113,-576.482"/>
</g>
<!-- Node3 -->
<g id="node4" class="node"><title>Node3</title>
<g id="a_node4"><a xlink:href="../../df/ddc/interfacede_1_1tu__clausthal_1_1in_1_1mec_1_1modeling_1_1model_1_1erd_1_1IAttribute.htm" target="_top" xlink:title="A simple attribute that can be assigned in an ERD to an entity or relationship. ">
<polygon fill="none" stroke="black" points="245,-474.5 245,-548.5 466,-548.5 466,-474.5 245,-474.5"/>
<text text-anchor="start" x="253" y="-537.3" font-family="Helvetica,sans-Serif" font-size="9.00">de.tu_clausthal.in.mec.modeling.model.erd.</text>
<text text-anchor="middle" x="355.5" y="-527.3" font-family="Helvetica,sans-Serif" font-size="9.00">IAttribute</text>
<polyline fill="none" stroke="black" points="245,-520.5 466,-520.5 "/>
<text text-anchor="middle" x="355.5" y="-509.3" font-family="Helvetica,sans-Serif" font-size="9.00"> </text>
<polyline fill="none" stroke="black" points="245,-502.5 466,-502.5 "/>
<text text-anchor="start" x="253" y="-491.3" font-family="Helvetica,sans-Serif" font-size="9.00">+ attributeName()</text>
<text text-anchor="start" x="253" y="-481.3" font-family="Helvetica,sans-Serif" font-size="9.00">+ getProperty()</text>
</a>
</g>
</g>
<!-- Node3&#45;&gt;Node0 -->
<g id="edge3" class="edge"><title>Node3&#45;&gt;Node0</title>
<path fill="none" stroke="orange" d="M335.876,-465.038C330.726,-453.108 325.112,-440.1 319.751,-427.682"/>
<polygon fill="orange" stroke="orange" points="332.716,-466.548 339.892,-474.342 339.143,-463.774 332.716,-466.548"/>
<text text-anchor="middle" x="335.5" y="-448.8" font-family="Helvetica,sans-Serif" font-size="9.00"> A</text>
</g>
<!-- Node5 -->
<g id="node6" class="node"><title>Node5</title>
<g id="a_node6"><a xlink:href="../../d6/d17/classde_1_1tu__clausthal_1_1in_1_1mec_1_1modeling_1_1model_1_1erd_1_1CInheritRelationship.htm" target="_top" xlink:title="Is&#45;a relationship implementation of the model. ">
<polygon fill="none" stroke="black" points="185,-0.5 185,-124.5 406,-124.5 406,-0.5 185,-0.5"/>
<text text-anchor="start" x="193" y="-113.3" font-family="Helvetica,sans-Serif" font-size="9.00">de.tu_clausthal.in.mec.modeling.model.erd.</text>
<text text-anchor="middle" x="295.5" y="-103.3" font-family="Helvetica,sans-Serif" font-size="9.00">CInheritRelationship</text>
<polyline fill="none" stroke="black" points="185,-96.5 406,-96.5 "/>
<text text-anchor="start" x="193" y="-85.3" font-family="Helvetica,sans-Serif" font-size="9.00">&#45; m_childentities</text>
<text text-anchor="start" x="193" y="-75.3" font-family="Helvetica,sans-Serif" font-size="9.00">&#45; m_parententity</text>
<polyline fill="none" stroke="black" points="185,-68.5 406,-68.5 "/>
<text text-anchor="start" x="193" y="-57.3" font-family="Helvetica,sans-Serif" font-size="9.00">+ connectChildEntity()</text>
<text text-anchor="start" x="193" y="-47.3" font-family="Helvetica,sans-Serif" font-size="9.00">+ getChildEntities()</text>
<text text-anchor="start" x="193" y="-37.3" font-family="Helvetica,sans-Serif" font-size="9.00">+ getParentEntity()</text>
<text text-anchor="start" x="193" y="-27.3" font-family="Helvetica,sans-Serif" font-size="9.00">+ isValidISARelationship()</text>
<text text-anchor="start" x="193" y="-17.3" font-family="Helvetica,sans-Serif" font-size="9.00">+ setParentEntity()</text>
<text text-anchor="start" x="193" y="-7.3" font-family="Helvetica,sans-Serif" font-size="9.00">~ CInheritRelationship()</text>
</a>
</g>
</g>
<!-- Node4&#45;&gt;Node5 -->
<g id="edge5" class="edge"><title>Node4&#45;&gt;Node5</title>
<path fill="none" stroke="midnightblue" d="M295.5,-152.164C295.5,-143.057 295.5,-133.672 295.5,-124.571"/>
<polygon fill="none" stroke="midnightblue" points="292,-152.298 295.5,-162.298 299,-152.298 292,-152.298"/>
</g>
</g>
</svg>
